<svg width="354" height="304" viewBox="0 0 354 304" fill="none" xmlns="http://www.w3.org/2000/svg">
<path d="M104.389 303.873C128.642 279.619 152.708 255.554 176.789 231.473C176.504 231.166 176.218 231.43 175.973 231.496C157.565 236.55 139.16 241.617 120.753 246.668C120.231 246.812 119.925 246.99 119.766 247.562C114.679 266.119 109.573 284.669 104.473 303.222C104.438 303.355 104.439 303.495 104.389 303.873Z" fill="url(#paint0_radial_318_512)"/>
<path d="M77.3594 206.586C82.0065 223.932 86.6335 241.198 91.2506 258.427C95.0273 272.52 98.7974 286.589 102.567 300.656L104.375 293.902L104.375 293.902C105.128 291.091 105.881 288.279 106.634 285.467C110.064 272.665 113.493 259.862 116.929 247.063L116.929 247.062C117.013 246.753 117.048 246.577 117.034 246.428C117.022 246.311 116.975 246.168 116.77 245.962C105.295 234.523 93.8377 223.065 82.3824 211.609C80.7081 209.935 79.0338 208.26 77.3594 206.586Z" stroke="black"/>
<path d="M78.1718 203.171C110.769 211.903 143.077 220.564 175.385 229.22C175.383 229.29 175.379 229.358 175.375 229.43C172.655 230.158 169.935 230.887 167.215 231.615C151.602 235.798 135.986 239.978 120.376 244.169C119.777 244.331 119.334 244.422 118.792 243.88C105.448 230.494 92.0785 217.133 78.7153 203.77C78.5943 203.649 78.4839 203.517 78.1718 203.171Z" fill="url(#paint1_linear_318_512)"/>
<path d="M135.566 154.901C133.422 154.311 131.278 153.722 129.134 153.132L129.147 153.145L129.227 153.225L129.306 153.305L129.386 153.384L129.466 153.464L129.546 153.544L129.625 153.624L129.705 153.703L129.785 153.783L129.865 153.863L129.944 153.942L130.024 154.022L130.104 154.102L130.183 154.182L130.263 154.261L130.343 154.341L130.423 154.421L130.502 154.5L130.582 154.58L130.662 154.66L130.741 154.74L130.821 154.819L130.901 154.899L130.981 154.979L131.06 155.058L131.14 155.138L131.22 155.218L131.299 155.297L131.379 155.377L131.459 155.457L131.538 155.537L131.618 155.616L131.698 155.696L131.777 155.776L131.857 155.855L131.937 155.935L132.016 156.015L132.096 156.094L132.176 156.174L132.255 156.254L132.335 156.333L132.415 156.413L132.494 156.493L132.574 156.572L132.654 156.652L132.733 156.732L132.813 156.811L132.893 156.891L132.972 156.971L133.052 157.05L133.132 157.13L133.211 157.209L133.291 157.289L133.37 157.369L133.45 157.448L133.53 157.528L133.609 157.608L133.689 157.687L133.769 157.767L133.848 157.846L133.928 157.926L134.007 158.006L134.087 158.085L134.167 158.165L134.246 158.245L134.326 158.324L134.406 158.404L134.485 158.483L134.565 158.563L134.644 158.643L134.724 158.722L134.804 158.802L134.883 158.881L134.963 158.961L135.042 159.041L135.122 159.12L135.202 159.2L135.281 159.279L135.361 159.359L135.44 159.439L135.52 159.518L135.599 159.598L135.679 159.677L135.759 159.757L135.838 159.836L135.918 159.916L135.997 159.996L136.077 160.075L136.156 160.155L136.236 160.234L136.316 160.314L136.395 160.393L136.475 160.473L136.554 160.552L136.634 160.632L136.713 160.712L136.793 160.791L136.872 160.871L136.952 160.95L137.032 161.03L137.111 161.109L137.191 161.189L137.27 161.268L137.35 161.348L137.429 161.427L137.509 161.507L137.588 161.587L137.668 161.666L137.747 161.746L137.827 161.825L137.906 161.905L137.986 161.984L138.065 162.064L138.145 162.143L138.225 162.223L138.304 162.302L138.384 162.382L138.463 162.461L138.543 162.541L138.622 162.62L138.702 162.7L138.781 162.779L138.861 162.859L138.94 162.938L139.02 163.018L139.099 163.097L139.179 163.177L139.258 163.256L139.338 163.336L139.417 163.415L139.497 163.495L139.576 163.574L139.656 163.654L139.735 163.733L139.815 163.813L139.894 163.892L139.973 163.972L140.053 164.051L140.132 164.131L140.212 164.21L140.291 164.29L140.371 164.369L140.45 164.449L140.53 164.528L140.609 164.607L140.689 164.687L140.768 164.766L140.848 164.846L140.927 164.925L141.007 165.005L141.086 165.084L141.166 165.164L141.245 165.243L141.324 165.323L141.404 165.402L141.483 165.482L141.563 165.561L141.642 165.64L141.722 165.72L141.801 165.799L141.881 165.879L141.96 165.958L142.039 166.038L142.119 166.117L142.198 166.197L142.278 166.276L142.357 166.355L142.437 166.435L142.516 166.514L142.595 166.594L142.675 166.673L142.754 166.753L142.834 166.832L142.913 166.911L142.993 166.991L143.072 167.07L143.151 167.15L143.231 167.229L143.31 167.308L143.39 167.388L143.469 167.467L143.549 167.547L143.628 167.626L143.707 167.706L143.787 167.785L143.866 167.864L143.946 167.944L144.025 168.023L144.104 168.103L144.184 168.182L144.263 168.261L144.343 168.341L144.422 168.42L144.501 168.5L144.581 168.579L144.66 168.658L144.74 168.738L144.819 168.817L144.898 168.897L144.978 168.976L145.057 169.055L145.136 169.135L145.216 169.214L145.295 169.293L145.375 169.373L145.454 169.452L145.533 169.532L145.613 169.611L145.692 169.69L145.772 169.77L145.851 169.849L145.93 169.928L146.01 170.008L146.089 170.087L146.168 170.167L146.248 170.246L146.327 170.325L146.406 170.405L146.486 170.484L146.565 170.563L146.645 170.643L146.724 170.722L146.803 170.801L146.883 170.881L146.962 170.96L147.041 171.04L147.121 171.119L147.2 171.198L147.279 171.278L147.359 171.357L147.438 171.436L147.517 171.516L147.597 171.595L147.676 171.674L147.755 171.754L147.835 171.833L147.914 171.912L147.993 171.992L148.073 172.071L148.152 172.15L148.232 172.23L148.311 172.309L148.39 172.388L148.47 172.468L148.549 172.547L148.628 172.626L148.708 172.706L148.787 172.785L148.866 172.864L148.946 172.944L149.025 173.023L149.104 173.102L149.183 173.182L149.263 173.261L149.342 173.34L149.421 173.42L149.501 173.499L149.58 173.578L149.659 173.658L149.739 173.737L149.818 173.816L149.897 173.896L149.977 173.975L150.056 174.054L150.135 174.134L150.215 174.213L150.294 174.292L150.373 174.371L150.453 174.451L150.532 174.53L150.611 174.609L150.69 174.689L150.77 174.768L150.849 174.847L150.928 174.927L151.008 175.006L151.087 175.085L151.166 175.164L151.246 175.244L151.325 175.323L151.404 175.402L151.483 175.482L151.563 175.561L151.642 175.64L151.721 175.72L151.801 175.799L151.88 175.878L151.959 175.957L152.039 176.037L152.118 176.116L152.197 176.195L152.276 176.275L152.356 176.354L152.435 176.433L152.514 176.512L152.594 176.592L152.673 176.671L152.752 176.75L152.831 176.83L152.911 176.909L152.99 176.988L153.069 177.067L153.148 177.147L153.228 177.226L153.307 177.305L153.386 177.385L153.466 177.464L153.545 177.543L153.624 177.622L153.703 177.702L153.783 177.781L153.862 177.86L153.941 177.939L154.02 178.019L154.1 178.098L154.179 178.177L154.258 178.257L154.338 178.336L154.417 178.415L154.496 178.494L154.575 178.574L154.655 178.653L154.734 178.732L154.813 178.811L154.892 178.891L154.972 178.97L155.051 179.049L155.13 179.128L155.209 179.208L155.289 179.287L155.368 179.366L155.447 179.445L155.526 179.525L155.606 179.604L155.685 179.683L155.764 179.762L155.844 179.842L155.923 179.921L156.002 180L156.081 180.079L156.161 180.159L156.24 180.238L156.319 180.317L156.398 180.396L156.478 180.476L156.557 180.555L156.636 180.634L156.715 180.713L156.795 180.793L156.874 180.872L156.953 180.951L157.032 181.03L157.112 181.11L157.191 181.189L157.27 181.268L157.349 181.347L157.428 181.427L157.508 181.506L157.587 181.585L157.666 181.664L157.745 181.744L157.825 181.823L157.904 181.902L157.983 181.981L158.062 182.061L158.142 182.14L158.221 182.219L158.3 182.298L158.379 182.378L158.459 182.457L158.538 182.536L158.617 182.615L158.696 182.695L158.776 182.774L158.855 182.853L158.934 182.932L159.013 183.011L159.092 183.091L159.172 183.17L159.251 183.249L159.33 183.328L159.409 183.408L159.489 183.487L159.568 183.566L159.647 183.645L159.726 183.725L159.806 183.804L159.885 183.883L159.964 183.962L160.043 184.041L160.122 184.121L160.202 184.2L160.281 184.279L160.36 184.358L160.439 184.438L160.519 184.517L160.598 184.596L160.677 184.675L160.756 184.754L160.835 184.834L160.915 184.913L160.994 184.992L161.073 185.071L161.152 185.151L161.232 185.23L161.311 185.309L161.39 185.388L161.469 185.468L161.549 185.547L161.628 185.626L161.707 185.705L161.786 185.784L161.865 185.864L161.945 185.943L162.024 186.022L162.103 186.101L162.182 186.18L162.262 186.26L162.341 186.339L162.42 186.418L162.499 186.497L162.578 186.577L162.658 186.656L162.737 186.735L162.816 186.814L162.895 186.893L162.974 186.973L163.054 187.052L163.133 187.131L163.212 187.21L163.291 187.29L163.371 187.369L163.45 187.448L163.529 187.527L163.608 187.606L163.687 187.686L163.767 187.765L163.846 187.844L163.925 187.923L164.004 188.003L164.084 188.082L164.163 188.161L164.242 188.24L164.321 188.319L164.4 188.399L164.48 188.478L164.559 188.557L164.638 188.636L164.717 188.715L164.796 188.795L164.876 188.874L164.955 188.953L165.034 189.032L165.113 189.112L165.193 189.191L165.272 189.27L165.351 189.349L165.43 189.428L165.509 189.508L165.589 189.587L165.668 189.666L165.747 189.745L165.826 189.825L165.906 189.904L165.985 189.983L166.064 190.062L166.143 190.141L166.222 190.221L166.302 190.3L166.381 190.379L166.46 190.458L166.539 190.537L166.618 190.617L166.698 190.696L166.777 190.775L166.856 190.854L166.935 190.934L167.015 191.013L167.094 191.092L167.173 191.171L167.252 191.25L167.331 191.33L167.339 191.337C166.106 186.848 164.872 182.358 163.638 177.868C162.142 172.426 160.646 166.984 159.153 161.543C159.117 161.413 159.094 161.382 159.089 161.376C159.089 161.375 159.088 161.373 159.08 161.369C159.07 161.363 159.047 161.351 159 161.338C151.187 159.196 143.377 157.049 135.566 154.901Z" stroke="black"/>
<path d="M181.405 137.47C171.928 140.009 162.492 142.537 153.077 145.061C145.432 147.109 137.801 149.154 130.17 151.199L130.881 151.389L133.171 152.002L133.171 152.002C134.743 152.423 136.315 152.844 137.887 153.266C145.082 155.193 152.277 157.12 159.47 159.051L159.47 159.051C159.649 159.099 159.71 159.107 159.748 159.103C159.759 159.102 159.768 159.1 159.782 159.093C159.797 159.085 159.829 159.066 159.876 159.019C166.298 152.576 172.731 146.143 179.164 139.711C179.911 138.964 180.658 138.217 181.405 137.47Z" stroke="black"/>
<path d="M183.102 139.133C180.563 148.611 178.034 158.046 175.511 167.462C173.463 175.106 171.417 182.737 169.373 190.368L169.183 189.658L168.569 187.367L168.569 187.367C168.148 185.795 167.727 184.223 167.306 182.652C165.379 175.457 163.452 168.261 161.521 161.069L161.521 161.068C161.472 160.89 161.465 160.828 161.468 160.79C161.47 160.779 161.472 160.77 161.479 160.757C161.487 160.741 161.506 160.71 161.553 160.663C167.996 154.24 174.429 147.807 180.86 141.375C181.608 140.627 182.355 139.88 183.102 139.133Z" fill="url(#paint2_linear_318_512)" stroke="black"/>
<path d="M35.7013 212.459C49.3186 198.841 62.8303 185.33 76.3505 171.81C76.1904 171.637 76.0304 171.785 75.8928 171.823C65.5571 174.66 55.2237 177.505 44.8893 180.341C44.596 180.422 44.4243 180.522 44.3351 180.843C41.479 191.261 38.612 201.677 35.7487 212.093C35.7288 212.168 35.7294 212.247 35.7013 212.459Z" fill="url(#paint3_radial_318_512)"/>
<path d="M19.9947 156.94C24.8977 175.242 29.7601 193.381 34.6201 211.521C34.6595 211.52 34.6976 211.517 34.7382 211.515C35.147 209.988 35.5559 208.461 35.9648 206.934C38.3132 198.168 40.6603 189.4 43.0135 180.636C43.1041 180.3 43.1553 180.051 42.8513 179.747C35.3354 172.254 27.8337 164.748 20.3309 157.245C20.263 157.177 20.189 157.115 19.9947 156.94Z" fill="url(#paint4_linear_318_512)"/>
<path d="M19.9947 156.94C24.8977 175.242 29.7601 193.381 34.6201 211.521C34.6595 211.52 34.6976 211.517 34.7382 211.515C35.147 209.988 35.5559 208.461 35.9648 206.934C38.3132 198.168 40.6603 189.4 43.0135 180.636C43.1041 180.3 43.1553 180.051 42.8513 179.747C35.3354 172.254 27.8337 164.748 20.3309 157.245C20.263 157.177 20.189 157.115 19.9947 156.94Z" fill="url(#paint5_linear_318_512)"/>
<path d="M20.9818 155.919C39.2836 160.822 57.4232 165.685 75.5628 170.545C75.5616 170.584 75.5592 170.622 75.5568 170.663C74.0298 171.072 72.5027 171.48 70.9757 171.889C62.2093 174.238 53.4417 176.585 44.6776 178.938C44.3415 179.029 44.0923 179.08 43.7884 178.776C36.2962 171.26 28.7898 163.758 21.287 156.255C21.219 156.187 21.1571 156.114 20.9818 155.919Z" fill="url(#paint6_linear_318_512)"/>
<path d="M94.3328 121.855C93.1532 126.145 91.9737 130.434 90.7944 134.724L90.8668 134.652L91.0089 134.51L91.151 134.368L91.293 134.226L91.4351 134.083L91.5771 133.941L91.7192 133.799L91.8612 133.657L92.0033 133.515L92.1453 133.373L92.2873 133.231L92.4294 133.089L92.5714 132.947L92.7134 132.805L92.8554 132.663L92.9974 132.521L93.1394 132.379L93.2814 132.237L93.4234 132.095L93.5654 131.953L93.7074 131.811L93.8494 131.669L93.9914 131.527L94.1334 131.385L94.2754 131.243L94.4173 131.101L94.5593 130.959L94.7013 130.817L94.8432 130.675L94.9852 130.533L95.1271 130.391L95.2691 130.249L95.411 130.108L95.553 129.966L95.6949 129.824L95.8368 129.682L95.9788 129.54L96.1207 129.398L96.2626 129.256L96.4045 129.114L96.5464 128.972L96.6883 128.83L96.8302 128.688L96.9722 128.546L97.114 128.405L97.2559 128.263L97.3978 128.121L97.5397 127.979L97.6816 127.837L97.8235 127.695L97.9653 127.553L98.1072 127.411L98.2491 127.269L98.391 127.128L98.5328 126.986L98.6747 126.844L98.8165 126.702L98.9584 126.56L99.1002 126.418L99.2421 126.276L99.3839 126.135L99.5257 125.993L99.6676 125.851L99.8094 125.709L99.9512 125.567L100.093 125.426L100.235 125.284L100.377 125.142L100.518 125L100.66 124.858L100.802 124.716L100.944 124.575L101.086 124.433L101.227 124.291L101.369 124.149L101.511 124.008L101.653 123.866L101.795 123.724L101.936 123.582L102.078 123.44L102.22 123.299L102.362 123.157L102.503 123.015L102.645 122.873L102.787 122.732L102.929 122.59L103.07 122.448L103.212 122.306L103.354 122.165L103.496 122.023L103.637 121.881L103.779 121.739L103.921 121.598L104.063 121.456L104.204 121.314L104.346 121.173L104.488 121.031L104.629 120.889L104.771 120.747L104.913 120.606L105.054 120.464L105.196 120.322L105.338 120.181L105.48 120.039L105.621 119.897L105.763 119.756L105.905 119.614L106.046 119.472L106.188 119.331L106.33 119.189L106.471 119.047L106.613 118.906L106.755 118.764L106.896 118.622L107.038 118.481L107.18 118.339L107.321 118.197L107.463 118.056L107.604 117.914L107.746 117.772L107.888 117.631L108.029 117.489L108.171 117.348L108.313 117.206L108.454 117.064L108.596 116.923L108.737 116.781L108.879 116.639L109.021 116.498L109.162 116.356L109.304 116.215L109.445 116.073L109.587 115.931L109.729 115.79L109.87 115.648L110.012 115.507L110.153 115.365L110.295 115.224L110.437 115.082L110.578 114.94L110.72 114.799L110.861 114.657L111.003 114.516L111.144 114.374L111.286 114.233L111.428 114.091L111.569 113.949L111.711 113.808L111.852 113.666L111.994 113.525L112.135 113.383L112.277 113.242L112.418 113.1L112.56 112.959L112.701 112.817L112.843 112.676L112.984 112.534L113.126 112.393L113.268 112.251L113.409 112.11L113.551 111.968L113.692 111.826L113.834 111.685L113.975 111.543L114.117 111.402L114.258 111.26L114.4 111.119L114.541 110.977L114.683 110.836L114.824 110.694L114.966 110.553L115.107 110.412L115.249 110.27L115.39 110.129L115.531 109.987L115.673 109.846L115.814 109.704L115.956 109.563L116.097 109.421L116.239 109.28L116.38 109.138L116.522 108.997L116.663 108.855L116.805 108.714L116.946 108.572L117.088 108.431L117.229 108.29L117.37 108.148L117.512 108.007L117.653 107.865L117.795 107.724L117.936 107.582L118.078 107.441L118.219 107.3L118.36 107.158L118.502 107.017L118.643 106.875L118.785 106.734L118.926 106.592L119.068 106.451L119.209 106.31L119.35 106.168L119.492 106.027L119.633 105.885L119.775 105.744L119.916 105.603L120.057 105.461L120.199 105.32L120.34 105.178L120.482 105.037L120.623 104.896L120.764 104.754L120.906 104.613L121.047 104.471L121.188 104.33L121.33 104.189L121.471 104.047L121.613 103.906L121.754 103.765L121.895 103.623L122.037 103.482L122.178 103.34L122.319 103.199L122.461 103.058L122.602 102.916L122.743 102.775L122.885 102.634L123.026 102.492L123.168 102.351L123.309 102.21L123.45 102.068L123.592 101.927L123.733 101.786L123.874 101.644L124.016 101.503L124.157 101.362L124.298 101.22L124.44 101.079L124.581 100.938L124.722 100.796L124.864 100.655L125.005 100.514L125.146 100.372L125.287 100.231L125.429 100.09L125.57 99.9484L125.711 99.8071L125.853 99.6658L125.994 99.5245L126.135 99.3832L126.277 99.2419L126.418 99.1006L126.559 98.9593L126.701 98.818L126.842 98.6767L126.983 98.5354L127.124 98.3941L127.266 98.2529L127.407 98.1116L127.548 97.9703L127.69 97.829L127.831 97.6877L127.972 97.5464L128.113 97.4052L128.255 97.2639L128.396 97.1226L128.537 96.9814L128.678 96.8401L128.82 96.6988L128.961 96.5575L129.102 96.4163L129.244 96.275L129.385 96.1338L129.526 95.9925L129.667 95.8512L129.809 95.71L129.95 95.5687L130.091 95.4275L130.232 95.2862L130.374 95.145L130.515 95.0037L130.656 94.8625L130.797 94.7212L130.939 94.58L131.08 94.4388L131.221 94.2975L131.362 94.1563L131.504 94.015L131.645 93.8738L131.786 93.7326L131.927 93.5914L132.068 93.4501L132.21 93.3089L132.351 93.1677L132.492 93.0264L132.633 92.8852L132.775 92.744L132.916 92.6028L133.057 92.4616L133.198 92.3203L133.339 92.1791L133.481 92.0379L133.622 91.8967L133.763 91.7555L133.904 91.6143L134.045 91.4731L134.187 91.3319L134.328 91.1907L134.469 91.0495L134.61 90.9083L134.751 90.7671L134.893 90.6259L135.034 90.4847L135.175 90.3435L135.316 90.2023L135.457 90.0611L135.599 89.9199L135.74 89.7787L135.881 89.6375L136.022 89.4963L136.163 89.3551L136.305 89.2139L136.446 89.0728L136.587 88.9316L136.728 88.7904L136.869 88.6492L137.011 88.508L137.152 88.3669L137.293 88.2257L137.434 88.0845L137.575 87.9433L137.716 87.8022L137.858 87.661L137.999 87.5198L138.14 87.3786L138.281 87.2375L138.422 87.0963L138.563 86.9551L138.705 86.814L138.846 86.6728L138.987 86.5317L139.128 86.3905L139.269 86.2493L139.41 86.1082L139.552 85.967L139.693 85.8259L139.834 85.6847L139.975 85.5435L140.116 85.4024L140.257 85.2612L140.398 85.1201L140.54 84.9789L140.681 84.8378L140.822 84.6966L140.963 84.5555L141.104 84.4143L141.245 84.2732L141.386 84.1321L141.528 83.9909L141.669 83.8498L141.81 83.7086L141.951 83.5675L142.092 83.4264L142.233 83.2852L142.374 83.1441L142.516 83.0029L142.657 82.8618L142.798 82.7207L142.939 82.5795L143.08 82.4384L143.221 82.2973L143.362 82.1561L143.504 82.015L143.645 81.8739L143.786 81.7327L143.927 81.5916L144.068 81.4505L144.209 81.3094L144.35 81.1682L144.491 81.0271L144.633 80.886L144.774 80.7449L144.915 80.6037L145.056 80.4626L145.197 80.3215L145.338 80.1804L145.479 80.0393L145.62 79.8981L145.762 79.757L145.903 79.6159L146.044 79.4748L146.185 79.3337L146.326 79.1926L146.467 79.0514L146.608 78.9103L146.749 78.7692L146.89 78.6281L147.032 78.487L147.173 78.3459L147.314 78.2048L147.455 78.0637L147.596 77.9225L147.737 77.7814L147.878 77.6403L148.019 77.4992L148.16 77.3581L148.302 77.217L148.443 77.0759L148.584 76.9348L148.725 76.7937L148.866 76.6526L149.007 76.5115L149.148 76.3704L149.289 76.2293L149.43 76.0882L149.571 75.9471L149.713 75.806L149.854 75.6649L149.995 75.5238L150.136 75.3827L150.277 75.2416L150.418 75.1005L150.559 74.9594L150.7 74.8183L150.841 74.6772L150.982 74.5361L151.124 74.395L151.265 74.2539L151.406 74.1128L151.547 73.9717L151.688 73.8306L151.829 73.6895L151.97 73.5484L152.111 73.4073L152.252 73.2662L152.393 73.1251L152.535 72.984L152.676 72.8429L152.817 72.7018L152.958 72.5607L153.099 72.4196L153.24 72.2785L153.381 72.1374L153.522 71.9963L153.663 71.8553L153.804 71.7142L153.945 71.5731L154.087 71.432L154.228 71.2909L154.369 71.1498L154.51 71.0087L154.651 70.8676L154.792 70.7265L154.933 70.5854L155.074 70.4443L155.215 70.3032L155.356 70.1621L155.497 70.0211L155.639 69.88L155.78 69.7389L155.921 69.5978L156.062 69.4567L156.203 69.3156L156.344 69.1745L156.485 69.0334L156.626 68.8923L156.767 68.7512L156.908 68.6101L157.05 68.4691L157.191 68.328L157.332 68.1869L157.473 68.0458L157.614 67.9047L157.755 67.7636L157.896 67.6225L158.037 67.4814L158.178 67.3403L158.319 67.1992L158.46 67.0581L158.602 66.917L158.743 66.776L158.884 66.6349L159.025 66.4938L159.166 66.3527L159.307 66.2116L159.448 66.0705L159.589 65.9294L159.73 65.7883L159.871 65.6472L160.012 65.5061L160.154 65.365L160.295 65.2239L160.436 65.0828L160.577 64.9417L160.718 64.8006L160.859 64.6596L160.928 64.5903C152.456 66.9163 143.985 69.245 135.513 71.5737C125.821 74.2379 116.13 76.902 106.438 79.5618C106.195 79.6287 106.073 79.6866 105.995 79.7506C105.931 79.8035 105.861 79.8921 105.801 80.106C101.986 94.0247 98.1591 107.94 94.3328 121.855Z" fill="url(#paint7_radial_318_512)" stroke="black"/>
<path d="M62.9123 38.9971C67.5594 56.3434 72.1864 73.6093 76.8035 90.8383C80.5802 104.931 84.3503 119 88.1194 133.068L89.9278 126.314L89.9278 126.314C90.681 123.502 91.4341 120.691 92.1872 117.879C95.6164 105.076 99.0457 92.2731 102.482 79.4743L102.482 79.4738C102.566 79.164 102.601 78.9886 102.587 78.839C102.575 78.7223 102.528 78.5792 102.323 78.3739C90.8474 66.9346 79.3905 55.4767 67.9353 44.0204C66.2609 42.3459 64.5866 40.6714 62.9123 38.9971Z" stroke="black"/>
<path d="M65.3223 36.5278C82.6623 41.1732 99.9219 45.7985 117.145 50.4139C131.244 54.1923 145.319 57.9641 159.393 61.7349L156.719 62.4509L152.639 63.5433L152.639 63.5433C149.828 64.2963 147.017 65.0493 144.206 65.8023C131.403 69.2316 118.599 72.6611 105.799 76.0977L105.799 76.0978C105.489 76.1813 105.314 76.2167 105.164 76.2021C105.048 76.1908 104.904 76.1438 104.699 75.9386C93.2598 64.4629 81.8019 53.006 70.3456 41.5508C68.6711 39.8764 66.9966 38.2021 65.3223 36.5278Z" stroke="black"/>
<path d="M231.472 234.264C227.183 233.084 222.893 231.904 218.603 230.725L218.675 230.798L218.817 230.94L218.96 231.082L219.102 231.224L219.244 231.366L219.386 231.508L219.528 231.65L219.67 231.792L219.812 231.934L219.954 232.076L220.096 232.218L220.238 232.36L220.38 232.502L220.522 232.644L220.664 232.786L220.806 232.928L220.948 233.07L221.09 233.212L221.232 233.354L221.374 233.496L221.516 233.638L221.658 233.78L221.8 233.922L221.942 234.064L222.084 234.206L222.226 234.348L222.368 234.49L222.51 234.632L222.652 234.774L222.794 234.916L222.936 235.058L223.078 235.2L223.22 235.342L223.362 235.484L223.503 235.626L223.645 235.768L223.787 235.91L223.929 236.052L224.071 236.193L224.213 236.335L224.355 236.477L224.497 236.619L224.639 236.761L224.781 236.903L224.923 237.045L225.065 237.187L225.206 237.329L225.348 237.471L225.49 237.612L225.632 237.754L225.774 237.896L225.916 238.038L226.058 238.18L226.2 238.322L226.341 238.464L226.483 238.606L226.625 238.747L226.767 238.889L226.909 239.031L227.051 239.173L227.192 239.315L227.334 239.457L227.476 239.598L227.618 239.74L227.76 239.882L227.902 240.024L228.043 240.166L228.185 240.307L228.327 240.449L228.469 240.591L228.611 240.733L228.752 240.875L228.894 241.016L229.036 241.158L229.178 241.3L229.32 241.442L229.461 241.584L229.603 241.725L229.745 241.867L229.887 242.009L230.028 242.151L230.17 242.292L230.312 242.434L230.454 242.576L230.595 242.718L230.737 242.859L230.879 243.001L231.021 243.143L231.162 243.285L231.304 243.426L231.446 243.568L231.588 243.71L231.729 243.852L231.871 243.993L232.013 244.135L232.155 244.277L232.296 244.418L232.438 244.56L232.58 244.702L232.721 244.844L232.863 244.985L233.005 245.127L233.146 245.269L233.288 245.41L233.43 245.552L233.571 245.694L233.713 245.835L233.855 245.977L233.996 246.119L234.138 246.26L234.28 246.402L234.421 246.544L234.563 246.685L234.705 246.827L234.846 246.969L234.988 247.11L235.13 247.252L235.271 247.394L235.413 247.535L235.555 247.677L235.696 247.819L235.838 247.96L235.98 248.102L236.121 248.243L236.263 248.385L236.404 248.527L236.546 248.668L236.688 248.81L236.829 248.952L236.971 249.093L237.112 249.235L237.254 249.376L237.396 249.518L237.537 249.66L237.679 249.801L237.82 249.943L237.962 250.084L238.104 250.226L238.245 250.367L238.387 250.509L238.528 250.651L238.67 250.792L238.811 250.934L238.953 251.075L239.095 251.217L239.236 251.358L239.378 251.5L239.519 251.641L239.661 251.783L239.802 251.925L239.944 252.066L240.085 252.208L240.227 252.349L240.368 252.491L240.51 252.632L240.652 252.774L240.793 252.915L240.935 253.057L241.076 253.198L241.218 253.34L241.359 253.481L241.501 253.623L241.642 253.764L241.784 253.906L241.925 254.047L242.067 254.189L242.208 254.33L242.35 254.472L242.491 254.613L242.633 254.755L242.774 254.896L242.916 255.038L243.057 255.179L243.199 255.321L243.34 255.462L243.482 255.604L243.623 255.745L243.764 255.887L243.906 256.028L244.047 256.17L244.189 256.311L244.33 256.453L244.472 256.594L244.613 256.735L244.755 256.877L244.896 257.018L245.038 257.16L245.179 257.301L245.32 257.443L245.462 257.584L245.603 257.726L245.745 257.867L245.886 258.008L246.028 258.15L246.169 258.291L246.31 258.433L246.452 258.574L246.593 258.716L246.735 258.857L246.876 258.998L247.018 259.14L247.159 259.281L247.3 259.423L247.442 259.564L247.583 259.705L247.725 259.847L247.866 259.988L248.007 260.13L248.149 260.271L248.29 260.412L248.432 260.554L248.573 260.695L248.714 260.837L248.856 260.978L248.997 261.119L249.138 261.261L249.28 261.402L249.421 261.543L249.563 261.685L249.704 261.826L249.845 261.968L249.987 262.109L250.128 262.25L250.269 262.392L250.411 262.533L250.552 262.674L250.693 262.816L250.835 262.957L250.976 263.098L251.117 263.24L251.259 263.381L251.4 263.522L251.541 263.664L251.683 263.805L251.824 263.946L251.965 264.088L252.107 264.229L252.248 264.37L252.389 264.512L252.531 264.653L252.672 264.794L252.813 264.936L252.955 265.077L253.096 265.218L253.237 265.36L253.379 265.501L253.52 265.642L253.661 265.784L253.803 265.925L253.944 266.066L254.085 266.207L254.226 266.349L254.368 266.49L254.509 266.631L254.65 266.773L254.792 266.914L254.933 267.055L255.074 267.197L255.216 267.338L255.357 267.479L255.498 267.62L255.639 267.762L255.781 267.903L255.922 268.044L256.063 268.185L256.204 268.327L256.346 268.468L256.487 268.609L256.628 268.751L256.77 268.892L256.911 269.033L257.052 269.174L257.193 269.316L257.335 269.457L257.476 269.598L257.617 269.739L257.758 269.881L257.9 270.022L258.041 270.163L258.182 270.304L258.323 270.446L258.465 270.587L258.606 270.728L258.747 270.869L258.888 271.011L259.03 271.152L259.171 271.293L259.312 271.434L259.453 271.576L259.595 271.717L259.736 271.858L259.877 271.999L260.018 272.14L260.159 272.282L260.301 272.423L260.442 272.564L260.583 272.705L260.724 272.847L260.866 272.988L261.007 273.129L261.148 273.27L261.289 273.411L261.43 273.553L261.572 273.694L261.713 273.835L261.854 273.976L261.995 274.118L262.136 274.259L262.278 274.4L262.419 274.541L262.56 274.682L262.701 274.824L262.842 274.965L262.984 275.106L263.125 275.247L263.266 275.388L263.407 275.529L263.548 275.671L263.69 275.812L263.831 275.953L263.972 276.094L264.113 276.235L264.254 276.377L264.396 276.518L264.537 276.659L264.678 276.8L264.819 276.941L264.96 277.083L265.101 277.224L265.243 277.365L265.384 277.506L265.525 277.647L265.666 277.788L265.807 277.93L265.948 278.071L266.09 278.212L266.231 278.353L266.372 278.494L266.513 278.635L266.654 278.777L266.795 278.918L266.937 279.059L267.078 279.2L267.219 279.341L267.36 279.482L267.501 279.624L267.642 279.765L267.784 279.906L267.925 280.047L268.066 280.188L268.207 280.329L268.348 280.47L268.489 280.612L268.63 280.753L268.772 280.894L268.913 281.035L269.054 281.176L269.195 281.317L269.336 281.458L269.477 281.6L269.618 281.741L269.76 281.882L269.901 282.023L270.042 282.164L270.183 282.305L270.324 282.446L270.465 282.588L270.606 282.729L270.748 282.87L270.889 283.011L271.03 283.152L271.171 283.293L271.312 283.434L271.453 283.576L271.594 283.717L271.735 283.858L271.877 283.999L272.018 284.14L272.159 284.281L272.3 284.422L272.441 284.563L272.582 284.705L272.723 284.846L272.864 284.987L273.006 285.128L273.147 285.269L273.288 285.41L273.429 285.551L273.57 285.692L273.711 285.833L273.852 285.975L273.993 286.116L274.135 286.257L274.276 286.398L274.417 286.539L274.558 286.68L274.699 286.821L274.84 286.962L274.981 287.104L275.122 287.245L275.263 287.386L275.405 287.527L275.546 287.668L275.687 287.809L275.828 287.95L275.969 288.091L276.11 288.232L276.251 288.373L276.392 288.515L276.533 288.656L276.675 288.797L276.816 288.938L276.957 289.079L277.098 289.22L277.239 289.361L277.38 289.502L277.521 289.643L277.662 289.785L277.803 289.926L277.944 290.067L278.086 290.208L278.227 290.349L278.368 290.49L278.509 290.631L278.65 290.772L278.791 290.913L278.932 291.054L279.073 291.196L279.214 291.337L279.355 291.478L279.497 291.619L279.638 291.76L279.779 291.901L279.92 292.042L280.061 292.183L280.202 292.324L280.343 292.465L280.484 292.606L280.625 292.748L280.766 292.889L280.907 293.03L281.049 293.171L281.19 293.312L281.331 293.453L281.472 293.594L281.613 293.735L281.754 293.876L281.895 294.017L282.036 294.159L282.177 294.3L282.318 294.441L282.46 294.582L282.601 294.723L282.742 294.864L282.883 295.005L283.024 295.146L283.165 295.287L283.306 295.428L283.447 295.569L283.588 295.711L283.729 295.852L283.87 295.993L284.012 296.134L284.153 296.275L284.294 296.416L284.435 296.557L284.576 296.698L284.717 296.839L284.858 296.98L284.999 297.121L285.14 297.263L285.281 297.404L285.422 297.545L285.564 297.686L285.705 297.827L285.846 297.968L285.987 298.109L286.128 298.25L286.269 298.391L286.41 298.532L286.551 298.673L286.692 298.815L286.833 298.956L286.974 299.097L287.116 299.238L287.257 299.379L287.398 299.52L287.539 299.661L287.68 299.802L287.821 299.943L287.962 300.084L288.103 300.225L288.244 300.367L288.385 300.508L288.526 300.649L288.668 300.79L288.737 300.859C286.411 292.387 284.082 283.916 281.753 275.444C279.089 265.752 276.425 256.061 273.765 246.369C273.698 246.125 273.641 246.003 273.577 245.926C273.524 245.862 273.435 245.791 273.221 245.732C259.302 241.916 245.387 238.09 231.472 234.264Z" stroke="black"/>
<path d="M314.33 202.843C296.985 207.49 279.721 212.116 262.494 216.733C248.399 220.51 234.329 224.281 220.259 228.05L222.933 228.766L227.013 229.859L227.013 229.859C229.822 230.611 232.632 231.364 235.441 232.116C248.246 235.546 261.051 238.976 273.853 242.413L273.853 242.413C274.163 242.497 274.338 242.532 274.488 242.517C274.605 242.506 274.748 242.459 274.953 242.254C286.392 230.778 297.85 219.321 309.307 207.866C310.981 206.192 312.655 204.517 314.33 202.843Z" fill="url(#paint8_linear_318_512)" stroke="black"/>
<path d="M316.799 205.253C312.153 222.597 307.526 239.861 302.91 257.088C299.133 271.183 295.362 285.253 291.592 299.323L290.876 296.649L289.784 292.569L289.784 292.569C289.031 289.76 288.279 286.951 287.526 284.141C284.097 271.336 280.667 258.531 277.23 245.73L277.229 245.729C277.146 245.419 277.111 245.244 277.125 245.094C277.136 244.978 277.183 244.835 277.389 244.629C288.864 233.19 300.321 221.732 311.776 210.276C313.451 208.601 315.125 206.927 316.799 205.253Z" stroke="black"/>
<defs>
<radialGradient id="paint0_radial_318_512" cx="0" cy="0" r="1" gradientUnits="userSpaceOnUse" gradientTransform="translate(133.059 260.128) rotate(-135) scale(25.6724 45.1167)">
<stop stop-color="#0072FF"/>
<stop offset="1" stop-color="#00C6FF"/>
</radialGradient>
<linearGradient id="paint1_linear_318_512" x1="119.17" y1="244.067" x2="142.419" y2="220.819" gradientUnits="userSpaceOnUse">
<stop stop-color="#0ED2F7"/>
<stop offset="1" stop-color="#B2FEFA"/>
</linearGradient>
<linearGradient id="paint2_linear_318_512" x1="161.095" y1="160.521" x2="174.148" y2="173.574" gradientUnits="userSpaceOnUse">
<stop stop-color="#0ED2F7"/>
<stop offset="1" stop-color="#B2FEFA"/>
</linearGradient>
<radialGradient id="paint3_radial_318_512" cx="0" cy="0" r="1" gradientUnits="userSpaceOnUse" gradientTransform="translate(51.7983 187.898) rotate(-135) scale(14.4138 25.331)">
<stop stop-color="#0072FF"/>
<stop offset="1" stop-color="#00C6FF"/>
</radialGradient>
<linearGradient id="paint4_linear_318_512" x1="42.9562" y1="179.959" x2="29.9032" y2="193.012" gradientUnits="userSpaceOnUse">
<stop stop-color="#0ED2F7"/>
<stop offset="1" stop-color="#B2FEFA"/>
</linearGradient>
<linearGradient id="paint5_linear_318_512" x1="42.9562" y1="179.959" x2="29.9032" y2="193.012" gradientUnits="userSpaceOnUse">
<stop stop-color="#0ED2F7"/>
<stop offset="1" stop-color="#B2FEFA"/>
</linearGradient>
<linearGradient id="paint6_linear_318_512" x1="44.0005" y1="178.881" x2="57.0536" y2="165.828" gradientUnits="userSpaceOnUse">
<stop stop-color="#0ED2F7"/>
<stop offset="1" stop-color="#B2FEFA"/>
</linearGradient>
<radialGradient id="paint7_radial_318_512" cx="0" cy="0" r="1" gradientUnits="userSpaceOnUse" gradientTransform="translate(118.612 92.5394) rotate(-135) scale(25.6724 45.1167)">
<stop stop-color="#0072FF"/>
<stop offset="1" stop-color="#00C6FF"/>
</radialGradient>
<linearGradient id="paint8_linear_318_512" x1="274.929" y1="242.794" x2="251.68" y2="219.545" gradientUnits="userSpaceOnUse">
<stop stop-color="#0ED2F7"/>
<stop offset="1" stop-color="#B2FEFA"/>
</linearGradient>
</defs>
</svg>
