<svg width="353" height="303" viewBox="0 0 353 303" fill="none" xmlns="http://www.w3.org/2000/svg">
<path d="M248.12 302.873C223.946 278.699 199.96 254.713 175.958 230.711C176.242 230.406 176.526 230.669 176.771 230.735C195.119 235.772 213.463 240.822 231.809 245.857C232.33 245.999 232.635 246.177 232.793 246.747C237.863 265.243 242.953 283.733 248.036 302.225C248.071 302.357 248.07 302.496 248.12 302.873Z" fill="url(#paint0_radial_318_513)"/>
<path d="M275.057 205.911C270.427 223.193 265.818 240.394 261.218 257.559C257.453 271.609 253.694 285.635 249.936 299.661L248.135 292.935L248.135 292.935C247.386 290.137 246.636 287.338 245.886 284.54C242.467 271.776 239.048 259.01 235.622 246.25L235.622 246.249C235.539 245.94 235.504 245.766 235.518 245.617C235.529 245.501 235.576 245.359 235.78 245.154C247.218 233.753 258.637 222.332 270.055 210.914C271.722 209.246 273.39 207.579 275.057 205.911Z" stroke="black"/>
<path d="M274.25 202.502C241.761 211.206 209.559 219.838 177.357 228.466C177.359 228.536 177.363 228.603 177.367 228.675C180.078 229.401 182.789 230.127 185.5 230.853C201.062 235.022 216.627 239.188 232.185 243.366C232.782 243.527 233.224 243.618 233.764 243.078C247.064 229.735 260.389 216.418 273.709 203.099C273.829 202.978 273.939 202.847 274.25 202.502Z" fill="url(#paint1_linear_318_513)"/>
<path d="M223.45 152.632C221.317 153.218 219.184 153.805 217.05 154.392C209.264 156.533 201.477 158.674 193.689 160.809C193.642 160.822 193.619 160.834 193.61 160.839C193.602 160.844 193.601 160.845 193.601 160.846L193.601 160.846C193.596 160.852 193.573 160.883 193.538 161.012L223.45 152.632ZM223.45 152.632L223.442 152.64L223.363 152.72L223.283 152.799L223.204 152.879L223.124 152.958L223.045 153.038L222.965 153.117L222.886 153.197L222.806 153.276L222.727 153.355L222.647 153.435L222.568 153.514L222.488 153.594L222.409 153.673L222.329 153.753L222.25 153.832L222.171 153.912L222.091 153.991L222.012 154.071L221.932 154.15L221.853 154.23L221.773 154.309L221.694 154.388L221.614 154.468L221.535 154.547L221.456 154.627L221.376 154.706L221.297 154.786L221.217 154.865L221.138 154.944L221.058 155.024L220.979 155.103L220.9 155.183L220.82 155.262L220.741 155.341L220.661 155.421L220.582 155.5L220.503 155.58L220.423 155.659L220.344 155.739L220.264 155.818L220.185 155.897L220.106 155.977L220.026 156.056L219.947 156.136L219.867 156.215L219.788 156.294L219.709 156.374L219.629 156.453L219.55 156.532L219.47 156.612L219.391 156.691L219.312 156.771L219.232 156.85L219.153 156.929L219.074 157.009L218.994 157.088L218.915 157.167L218.835 157.247L218.756 157.326L218.677 157.405L218.597 157.485L218.518 157.564L218.439 157.644L218.359 157.723L218.28 157.802L218.201 157.882L218.121 157.961L218.042 158.04L217.963 158.12L217.883 158.199L217.804 158.278L217.725 158.358L217.645 158.437L217.566 158.516L217.487 158.596L217.407 158.675L217.328 158.754L217.249 158.834L217.169 158.913L217.09 158.992L217.011 159.072L216.931 159.151L216.852 159.23L216.773 159.31L216.693 159.389L216.614 159.468L216.535 159.547L216.455 159.627L216.376 159.706L216.297 159.785L216.218 159.865L216.138 159.944L216.059 160.023L215.98 160.103L215.9 160.182L215.821 160.261L215.742 160.34L215.663 160.42L215.583 160.499L215.504 160.578L215.425 160.658L215.345 160.737L215.266 160.816L215.187 160.895L215.108 160.975L215.028 161.054L214.949 161.133L214.87 161.212L214.791 161.292L214.711 161.371L214.632 161.45L214.553 161.529L214.473 161.609L214.394 161.688L214.315 161.767L214.236 161.847L214.156 161.926L214.077 162.005L213.998 162.084L213.919 162.164L213.839 162.243L213.76 162.322L213.681 162.401L213.602 162.48L213.523 162.56L213.443 162.639L213.364 162.718L213.285 162.797L213.206 162.877L213.126 162.956L213.047 163.035L212.968 163.114L212.889 163.194L212.809 163.273L212.73 163.352L212.651 163.431L212.572 163.51L212.493 163.59L212.413 163.669L212.334 163.748L212.255 163.827L212.176 163.907L212.097 163.986L212.017 164.065L211.938 164.144L211.859 164.223L211.78 164.303L211.7 164.382L211.621 164.461L211.542 164.54L211.463 164.619L211.384 164.699L211.305 164.778L211.225 164.857L211.146 164.936L211.067 165.015L210.988 165.094L210.909 165.174L210.829 165.253L210.75 165.332L210.671 165.411L210.592 165.49L210.513 165.57L210.434 165.649L210.354 165.728L210.275 165.807L210.196 165.886L210.117 165.965L210.038 166.045L209.958 166.124L209.879 166.203L209.8 166.282L209.721 166.361L209.642 166.44L209.563 166.52L209.484 166.599L209.404 166.678L209.325 166.757L209.246 166.836L209.167 166.915L209.088 166.994L209.009 167.074L208.929 167.153L208.85 167.232L208.771 167.311L208.692 167.39L208.613 167.469L208.534 167.549L208.455 167.628L208.375 167.707L208.296 167.786L208.217 167.865L208.138 167.944L208.059 168.023L207.98 168.102L207.901 168.182L207.822 168.261L207.742 168.34L207.663 168.419L207.584 168.498L207.505 168.577L207.426 168.656L207.347 168.735L207.268 168.815L207.189 168.894L207.109 168.973L207.03 169.052L206.951 169.131L206.872 169.21L206.793 169.289L206.714 169.368L206.635 169.448L206.556 169.527L206.477 169.606L206.397 169.685L206.318 169.764L206.239 169.843L206.16 169.922L206.081 170.001L206.002 170.08L205.923 170.159L205.844 170.239L205.765 170.318L205.686 170.397L205.606 170.476L205.527 170.555L205.448 170.634L205.369 170.713L205.29 170.792L205.211 170.871L205.132 170.95L205.053 171.029L204.974 171.109L204.895 171.188L204.816 171.267L204.736 171.346L204.657 171.425L204.578 171.504L204.499 171.583L204.42 171.662L204.341 171.741L204.262 171.82L204.183 171.899L204.104 171.978L204.025 172.057L203.946 172.137L203.867 172.216L203.788 172.295L203.708 172.374L203.629 172.453L203.55 172.532L203.471 172.611L203.392 172.69L203.313 172.769L203.234 172.848L203.155 172.927L203.076 173.006L202.997 173.085L202.918 173.164L202.839 173.243L202.76 173.322L202.681 173.402L202.602 173.481L202.523 173.56L202.444 173.639L202.365 173.718L202.285 173.797L202.206 173.876L202.127 173.955L202.048 174.034L201.969 174.113L201.89 174.192L201.811 174.271L201.732 174.35L201.653 174.429L201.574 174.508L201.495 174.587L201.416 174.666L201.337 174.745L201.258 174.824L201.179 174.903L201.1 174.982L201.021 175.061L200.942 175.14L200.863 175.219L200.784 175.299L200.705 175.378L200.626 175.457L200.547 175.536L200.468 175.615L200.389 175.694L200.31 175.773L200.231 175.852L200.152 175.931L200.072 176.01L199.993 176.089L199.914 176.168L199.835 176.247L199.756 176.326L199.677 176.405L199.598 176.484L199.519 176.563L199.44 176.642L199.361 176.721L199.282 176.8L199.203 176.879L199.124 176.958L199.045 177.037L198.966 177.116L198.887 177.195L198.808 177.274L198.729 177.353L198.65 177.432L198.571 177.511L198.492 177.59L198.413 177.669L198.334 177.748L198.255 177.827L198.176 177.906L198.097 177.985L198.018 178.064L197.939 178.143L197.86 178.222L197.781 178.301L197.702 178.38L197.623 178.459L197.544 178.538L197.465 178.617L197.386 178.696L197.307 178.775L197.228 178.854L197.149 178.933L197.07 179.012L196.991 179.091L196.912 179.17L196.833 179.249L196.754 179.328L196.675 179.407L196.596 179.486L196.517 179.565L196.438 179.644L196.359 179.723L196.28 179.802L196.201 179.881L196.122 179.96L196.043 180.039L195.964 180.118L195.885 180.197L195.806 180.276L195.727 180.355L195.648 180.434L195.569 180.513L195.49 180.592L195.411 180.671L195.332 180.75L195.253 180.829L195.174 180.908L195.095 180.987L195.016 181.066L194.937 181.145L194.859 181.224L194.78 181.303L194.701 181.382L194.622 181.461L194.543 181.54L194.464 181.619L194.385 181.698L194.306 181.777L194.227 181.856L194.148 181.935L194.069 182.013L193.99 182.092L193.911 182.171L193.832 182.25L193.753 182.329L193.674 182.408L193.595 182.487L193.516 182.566L193.437 182.645L193.358 182.724L193.279 182.803L193.2 182.882L193.121 182.961L193.042 183.04L192.963 183.119L192.884 183.198L192.805 183.277L192.726 183.356L192.647 183.435L192.568 183.514L192.489 183.593L192.41 183.672L192.331 183.751L192.252 183.83L192.173 183.909L192.095 183.988L192.016 184.067L191.937 184.146L191.858 184.225L191.779 184.304L191.7 184.383L191.621 184.462L191.542 184.54L191.463 184.619L191.384 184.698L191.305 184.777L191.226 184.856L191.147 184.935L191.068 185.014L190.989 185.093L190.91 185.172L190.831 185.251L190.752 185.33L190.673 185.409L190.594 185.488L190.515 185.567L190.436 185.646L190.357 185.725L190.278 185.804L190.199 185.883L190.12 185.962L190.041 186.041L189.963 186.12L189.884 186.199L189.805 186.278L189.726 186.357L189.647 186.436L189.568 186.514L189.489 186.593L189.41 186.672L189.331 186.751L189.252 186.83L189.173 186.909L189.094 186.988L189.015 187.067L188.936 187.146L188.857 187.225L188.778 187.304L188.699 187.383L188.62 187.462L188.541 187.541L188.462 187.62L188.383 187.699L188.304 187.778L188.225 187.857L188.147 187.936L188.068 188.015L187.989 188.094L187.91 188.173L187.831 188.252L187.752 188.33L187.673 188.409L187.594 188.488L187.515 188.567L187.436 188.646L187.357 188.725L187.278 188.804L187.199 188.883L187.12 188.962L187.041 189.041L186.962 189.12L186.883 189.199L186.804 189.278L186.725 189.357L186.646 189.436L186.567 189.515L186.488 189.594L186.409 189.673L186.331 189.752L186.252 189.831L186.173 189.91L186.094 189.989L186.015 190.068L185.936 190.146L185.857 190.225L185.778 190.304L185.699 190.383L185.62 190.462L185.541 190.541L185.462 190.62L185.383 190.699L185.38 190.702M223.45 152.632L185.38 190.702M185.38 190.702C186.608 186.229 187.838 181.755 189.068 177.281C190.559 171.857 192.05 166.434 193.538 161.012L185.38 190.702Z" stroke="black"/>
<path d="M171.362 137.021C180.804 139.551 190.205 142.07 199.586 144.584C207.205 146.625 214.811 148.664 222.417 150.702L219.432 151.501L219.431 151.501C217.863 151.921 216.295 152.341 214.727 152.761C207.557 154.681 200.387 156.602 193.22 158.526L193.219 158.527C193.041 158.575 192.98 158.582 192.943 158.578C192.932 158.577 192.923 158.575 192.91 158.568C192.894 158.56 192.863 158.541 192.817 158.494C186.415 152.073 180.003 145.661 173.592 139.251C172.849 138.507 172.105 137.764 171.362 137.021Z" stroke="black"/>
<path d="M169.669 138.681C172.198 148.123 174.718 157.524 177.232 166.904C179.273 174.524 181.312 182.13 183.349 189.736L184.149 186.75L184.149 186.75C184.569 185.182 184.989 183.614 185.409 182.046C187.329 174.876 189.25 167.706 191.174 160.538L191.175 160.538C191.223 160.36 191.23 160.299 191.226 160.261C191.225 160.251 191.223 160.242 191.216 160.229C191.208 160.213 191.189 160.182 191.142 160.136C184.72 153.734 178.309 147.322 171.899 140.911C171.155 140.168 170.412 139.424 169.669 138.681Z" fill="url(#paint2_linear_318_513)" stroke="black"/>
<path d="M316.581 211.76C303.009 198.187 289.541 184.72 276.066 171.244C276.225 171.073 276.385 171.22 276.522 171.258C286.824 174.086 297.123 176.921 307.424 179.748C307.716 179.828 307.887 179.928 307.976 180.248C310.823 190.632 313.68 201.014 316.534 211.396C316.554 211.47 316.553 211.548 316.581 211.76Z" fill="url(#paint3_radial_318_513)"/>
<path d="M332.236 156.424C327.35 174.665 322.503 192.745 317.659 210.825C317.62 210.824 317.582 210.822 317.541 210.819C317.134 209.297 316.726 207.775 316.319 206.253C313.978 197.516 311.639 188.777 309.293 180.042C309.203 179.707 309.152 179.458 309.455 179.155C316.946 171.688 324.423 164.206 331.901 156.728C331.969 156.66 332.043 156.599 332.236 156.424Z" fill="url(#paint4_linear_318_513)"/>
<path d="M332.236 156.424C327.35 174.665 322.503 192.745 317.659 210.825C317.62 210.824 317.582 210.822 317.541 210.819C317.134 209.297 316.726 207.775 316.319 206.253C313.978 197.516 311.639 188.777 309.293 180.042C309.203 179.707 309.152 179.458 309.455 179.155C316.946 171.688 324.423 164.206 331.901 156.728C331.969 156.66 332.043 156.599 332.236 156.424Z" fill="url(#paint5_linear_318_513)"/>
<path d="M331.252 155.406C313.011 160.293 294.931 165.14 276.851 169.984C276.852 170.023 276.855 170.061 276.857 170.101C278.379 170.509 279.901 170.916 281.423 171.324C290.161 173.665 298.899 176.004 307.635 178.349C307.97 178.44 308.218 178.491 308.521 178.188C315.988 170.697 323.47 163.22 330.948 155.741C331.016 155.674 331.078 155.6 331.252 155.406Z" fill="url(#paint6_linear_318_513)"/>
<path d="M258.14 121.452C259.316 125.726 260.491 130.001 261.666 134.275L261.598 134.208L261.457 134.066L261.315 133.925L261.174 133.783L261.032 133.641L260.89 133.5L260.749 133.358L260.607 133.217L260.466 133.075L260.324 132.933L260.183 132.792L260.041 132.65L259.899 132.509L259.758 132.367L259.616 132.226L259.475 132.084L259.333 131.943L259.192 131.801L259.05 131.659L258.909 131.518L258.767 131.376L258.626 131.235L258.484 131.093L258.343 130.952L258.201 130.81L258.06 130.669L257.918 130.527L257.777 130.386L257.635 130.244L257.494 130.103L257.352 129.961L257.211 129.82L257.069 129.678L256.928 129.537L256.786 129.396L256.645 129.254L256.503 129.113L256.362 128.971L256.22 128.83L256.079 128.688L255.937 128.547L255.796 128.405L255.655 128.264L255.513 128.122L255.372 127.981L255.23 127.84L255.089 127.698L254.947 127.557L254.806 127.415L254.665 127.274L254.523 127.133L254.382 126.991L254.24 126.85L254.099 126.708L253.958 126.567L253.816 126.426L253.675 126.284L253.533 126.143L253.392 126.001L253.251 125.86L253.109 125.719L252.968 125.577L252.827 125.436L252.685 125.295L252.544 125.153L252.403 125.012L252.261 124.87L252.12 124.729L251.979 124.588L251.837 124.446L251.696 124.305L251.555 124.164L251.413 124.022L251.272 123.881L251.131 123.74L250.989 123.599L250.848 123.457L250.707 123.316L250.565 123.175L250.424 123.033L250.283 122.892L250.141 122.751L250 122.609L249.859 122.468L249.718 122.327L249.576 122.186L249.435 122.044L249.294 121.903L249.152 121.762L249.011 121.62L248.87 121.479L248.729 121.338L248.587 121.197L248.446 121.055L248.305 120.914L248.164 120.773L248.022 120.632L247.881 120.49L247.74 120.349L247.599 120.208L247.457 120.067L247.316 119.925L247.175 119.784L247.034 119.643L246.893 119.502L246.751 119.361L246.61 119.219L246.469 119.078L246.328 118.937L246.187 118.796L246.045 118.655L245.904 118.513L245.763 118.372L245.622 118.231L245.481 118.09L245.339 117.949L245.198 117.807L245.057 117.666L244.916 117.525L244.775 117.384L244.633 117.243L244.492 117.102L244.351 116.96L244.21 116.819L244.069 116.678L243.928 116.537L243.787 116.396L243.645 116.255L243.504 116.114L243.363 115.972L243.222 115.831L243.081 115.69L242.94 115.549L242.799 115.408L242.657 115.267L242.516 115.126L242.375 114.985L242.234 114.843L242.093 114.702L241.952 114.561L241.811 114.42L241.67 114.279L241.529 114.138L241.387 113.997L241.246 113.856L241.105 113.715L240.964 113.574L240.823 113.432L240.682 113.291L240.541 113.15L240.4 113.009L240.259 112.868L240.118 112.727L239.977 112.586L239.836 112.445L239.695 112.304L239.553 112.163L239.412 112.022L239.271 111.881L239.13 111.74L238.989 111.599L238.848 111.458L238.707 111.316L238.566 111.175L238.425 111.034L238.284 110.893L238.143 110.752L238.002 110.611L237.861 110.47L237.72 110.329L237.579 110.188L237.438 110.047L237.297 109.906L237.156 109.765L237.015 109.624L236.874 109.483L236.733 109.342L236.592 109.201L236.451 109.06L236.31 108.919L236.169 108.778L236.028 108.637L235.887 108.496L235.746 108.355L235.605 108.214L235.464 108.073L235.323 107.932L235.182 107.791L235.041 107.65L234.9 107.509L234.759 107.368L234.618 107.227L234.477 107.086L234.336 106.945L234.195 106.804L234.054 106.664L233.913 106.523L233.772 106.382L233.631 106.241L233.49 106.1L233.349 105.959L233.209 105.818L233.068 105.677L232.927 105.536L232.786 105.395L232.645 105.254L232.504 105.113L232.363 104.972L232.222 104.831L232.081 104.69L231.94 104.549L231.799 104.409L231.658 104.268L231.517 104.127L231.376 103.986L231.236 103.845L231.095 103.704L230.954 103.563L230.813 103.422L230.672 103.281L230.531 103.14L230.39 102.999L230.249 102.859L230.108 102.718L229.967 102.577L229.827 102.436L229.686 102.295L229.545 102.154L229.404 102.013L229.263 101.872L229.122 101.731L228.981 101.591L228.84 101.45L228.7 101.309L228.559 101.168L228.418 101.027L228.277 100.886L228.136 100.745L227.995 100.605L227.854 100.464L227.714 100.323L227.573 100.182L227.432 100.041L227.291 99.9002L227.15 99.7594L227.009 99.6186L226.868 99.4777L226.728 99.3369L226.587 99.196L226.446 99.0552L226.305 98.9143L226.164 98.7735L226.023 98.6327L225.883 98.4919L225.742 98.351L225.601 98.2102L225.46 98.0694L225.319 97.9285L225.178 97.7877L225.038 97.6469L224.897 97.5061L224.756 97.3653L224.615 97.2245L224.474 97.0836L224.334 96.9428L224.193 96.802L224.052 96.6612L223.911 96.5204L223.77 96.3796L223.63 96.2388L223.489 96.098L223.348 95.9572L223.207 95.8164L223.066 95.6756L222.926 95.5348L222.785 95.394L222.644 95.2532L222.503 95.1125L222.362 94.9717L222.222 94.8309L222.081 94.6901L221.94 94.5493L221.799 94.4085L221.658 94.2678L221.518 94.127L221.377 93.9862L221.236 93.8454L221.095 93.7047L220.955 93.5639L220.814 93.4231L220.673 93.2824L220.532 93.1416L220.392 93.0008L220.251 92.8601L220.11 92.7193L219.969 92.5786L219.829 92.4378L219.688 92.297L219.547 92.1563L219.406 92.0155L219.266 91.8748L219.125 91.734L218.984 91.5933L218.843 91.4526L218.703 91.3118L218.562 91.1711L218.421 91.0303L218.28 90.8896L218.14 90.7488L217.999 90.6081L217.858 90.4674L217.717 90.3266L217.577 90.1859L217.436 90.0452L217.295 89.9044L217.154 89.7637L217.014 89.623L216.873 89.4822L216.732 89.3415L216.592 89.2008L216.451 89.0601L216.31 88.9194L216.169 88.7786L216.029 88.6379L215.888 88.4972L215.747 88.3565L215.606 88.2158L215.466 88.0751L215.325 87.9343L215.184 87.7936L215.044 87.6529L214.903 87.5122L214.762 87.3715L214.622 87.2308L214.481 87.0901L214.34 86.9494L214.199 86.8087L214.059 86.668L213.918 86.5273L213.777 86.3866L213.637 86.2459L213.496 86.1052L213.355 85.9645L213.215 85.8238L213.074 85.6831L212.933 85.5424L212.792 85.4017L212.652 85.261L212.511 85.1203L212.37 84.9797L212.23 84.839L212.089 84.6983L211.948 84.5576L211.808 84.4169L211.667 84.2762L211.526 84.1355L211.386 83.9949L211.245 83.8542L211.104 83.7135L210.964 83.5728L210.823 83.4321L210.682 83.2915L210.542 83.1508L210.401 83.0101L210.26 82.8695L210.119 82.7288L209.979 82.5881L209.838 82.4474L209.697 82.3068L209.557 82.1661L209.416 82.0254L209.275 81.8848L209.135 81.7441L208.994 81.6034L208.853 81.4628L208.713 81.3221L208.572 81.1814L208.431 81.0408L208.291 80.9001L208.15 80.7595L208.01 80.6188L207.869 80.4781L207.728 80.3375L207.588 80.1968L207.447 80.0562L207.306 79.9155L207.166 79.7748L207.025 79.6342L206.884 79.4935L206.744 79.3529L206.603 79.2122L206.462 79.0716L206.322 78.9309L206.181 78.7903L206.04 78.6496L205.9 78.509L205.759 78.3683L205.618 78.2277L205.478 78.087L205.337 77.9464L205.196 77.8057L205.056 77.6651L204.915 77.5244L204.775 77.3838L204.634 77.2432L204.493 77.1025L204.353 76.9619L204.212 76.8212L204.071 76.6806L203.931 76.5399L203.79 76.3993L203.649 76.2587L203.509 76.118L203.368 75.9774L203.227 75.8367L203.087 75.6961L202.946 75.5555L202.806 75.4148L202.665 75.2742L202.524 75.1336L202.384 74.9929L202.243 74.8523L202.102 74.7117L201.962 74.571L201.821 74.4304L201.68 74.2897L201.54 74.1491L201.399 74.0085L201.259 73.8678L201.118 73.7272L200.977 73.5866L200.837 73.446L200.696 73.3053L200.555 73.1647L200.415 73.0241L200.274 72.8834L200.134 72.7428L199.993 72.6022L199.852 72.4615L199.712 72.3209L199.571 72.1803L199.43 72.0396L199.29 71.899L199.149 71.7584L199.008 71.6178L198.868 71.4771L198.727 71.3365L198.587 71.1959L198.446 71.0552L198.305 70.9146L198.165 70.774L198.024 70.6334L197.883 70.4927L197.743 70.3521L197.602 70.2115L197.462 70.0708L197.321 69.9302L197.18 69.7896L197.04 69.649L196.899 69.5083L196.758 69.3677L196.618 69.2271L196.477 69.0865L196.337 68.9458L196.196 68.8052L196.055 68.6646L195.915 68.5239L195.774 68.3833L195.633 68.2427L195.493 68.1021L195.352 67.9614L195.212 67.8208L195.071 67.6802L194.93 67.5396L194.79 67.3989L194.649 67.2583L194.508 67.1177L194.368 66.977L194.227 66.8364L194.087 66.6958L193.946 66.5552L193.805 66.4145L193.665 66.2739L193.524 66.1333L193.383 65.9926L193.243 65.852L193.102 65.7114L192.961 65.5708L192.821 65.4301L192.68 65.2895L192.54 65.1489L192.399 65.0082L192.258 64.8676L192.118 64.727L191.977 64.5864L191.836 64.4457L191.772 64.3811C200.214 66.699 208.657 69.0197 217.099 71.3404C226.758 73.9956 236.418 76.6508 246.076 79.3017C246.319 79.3684 246.441 79.426 246.517 79.4896C246.581 79.5421 246.651 79.63 246.711 79.8429C250.513 93.7148 254.327 107.583 258.14 121.452Z" fill="url(#paint7_radial_318_513)" stroke="black"/>
<path d="M289.457 38.8743C284.827 56.1557 280.217 73.3569 275.618 90.5215C271.852 104.572 268.093 118.598 264.336 132.624L262.535 125.898L262.535 125.898C261.785 123.1 261.036 120.301 260.286 117.503C256.867 104.739 253.448 91.9733 250.022 79.2125L250.022 79.212C249.938 78.9032 249.903 78.7286 249.918 78.5798C249.929 78.464 249.976 78.3217 250.18 78.1173C261.618 66.7156 273.037 55.2954 284.455 43.8767C286.122 42.2092 287.789 40.5417 289.457 38.8743Z" stroke="black"/>
<path d="M287.052 36.4108C269.767 41.0417 252.561 45.6525 235.392 50.2535C221.346 54.0177 207.324 57.7753 193.303 61.5319L195.962 62.244L200.029 63.3327L200.029 63.3328C202.828 64.0826 205.627 64.8323 208.426 65.5821C221.19 69.0009 233.954 72.4198 246.714 75.8458L246.715 75.846C247.024 75.9292 247.198 75.9644 247.347 75.9499C247.463 75.9386 247.605 75.892 247.809 75.6877C259.211 64.2497 270.631 52.8305 282.05 41.4129C283.717 39.7455 285.385 38.0782 287.052 36.4108Z" stroke="black"/>
<path d="M121.452 233.496C125.726 232.32 130.001 231.145 134.276 229.97L134.208 230.037L134.066 230.179L133.925 230.321L133.783 230.462L133.642 230.604L133.5 230.745L133.358 230.887L133.217 231.029L133.075 231.17L132.934 231.312L132.792 231.453L132.651 231.595L132.509 231.736L132.367 231.878L132.226 232.019L132.084 232.161L131.943 232.303L131.801 232.444L131.66 232.586L131.518 232.727L131.377 232.869L131.235 233.01L131.094 233.152L130.952 233.293L130.811 233.435L130.669 233.576L130.528 233.718L130.386 233.859L130.245 234.001L130.103 234.142L129.962 234.284L129.82 234.425L129.679 234.567L129.537 234.708L129.396 234.85L129.254 234.991L129.113 235.133L128.971 235.274L128.83 235.415L128.688 235.557L128.547 235.698L128.406 235.84L128.264 235.981L128.123 236.123L127.981 236.264L127.84 236.405L127.698 236.547L127.557 236.688L127.416 236.83L127.274 236.971L127.133 237.113L126.991 237.254L126.85 237.395L126.709 237.537L126.567 237.678L126.426 237.82L126.284 237.961L126.143 238.102L126.002 238.244L125.86 238.385L125.719 238.526L125.577 238.668L125.436 238.809L125.295 238.951L125.153 239.092L125.012 239.233L124.871 239.375L124.729 239.516L124.588 239.657L124.447 239.799L124.305 239.94L124.164 240.081L124.023 240.223L123.881 240.364L123.74 240.505L123.599 240.647L123.457 240.788L123.316 240.929L123.175 241.071L123.033 241.212L122.892 241.353L122.751 241.494L122.61 241.636L122.468 241.777L122.327 241.918L122.186 242.06L122.044 242.201L121.903 242.342L121.762 242.483L121.621 242.625L121.479 242.766L121.338 242.907L121.197 243.048L121.056 243.19L120.914 243.331L120.773 243.472L120.632 243.613L120.491 243.755L120.349 243.896L120.208 244.037L120.067 244.178L119.926 244.32L119.784 244.461L119.643 244.602L119.502 244.743L119.361 244.884L119.22 245.026L119.078 245.167L118.937 245.308L118.796 245.449L118.655 245.59L118.514 245.732L118.372 245.873L118.231 246.014L118.09 246.155L117.949 246.296L117.808 246.438L117.666 246.579L117.525 246.72L117.384 246.861L117.243 247.002L117.102 247.143L116.961 247.285L116.819 247.426L116.678 247.567L116.537 247.708L116.396 247.849L116.255 247.99L116.114 248.132L115.973 248.273L115.831 248.414L115.69 248.555L115.549 248.696L115.408 248.837L115.267 248.978L115.126 249.119L114.985 249.261L114.844 249.402L114.702 249.543L114.561 249.684L114.42 249.825L114.279 249.966L114.138 250.107L113.997 250.248L113.856 250.389L113.715 250.53L113.574 250.672L113.433 250.813L113.292 250.954L113.15 251.095L113.009 251.236L112.868 251.377L112.727 251.518L112.586 251.659L112.445 251.8L112.304 251.941L112.163 252.082L112.022 252.223L111.881 252.364L111.74 252.505L111.599 252.647L111.458 252.788L111.317 252.929L111.176 253.07L111.035 253.211L110.894 253.352L110.753 253.493L110.612 253.634L110.47 253.775L110.329 253.916L110.188 254.057L110.047 254.198L109.906 254.339L109.765 254.48L109.624 254.621L109.483 254.762L109.342 254.903L109.201 255.044L109.06 255.185L108.919 255.326L108.778 255.467L108.637 255.608L108.496 255.749L108.355 255.89L108.214 256.031L108.073 256.172L107.932 256.313L107.791 256.454L107.65 256.595L107.51 256.736L107.369 256.877L107.228 257.018L107.087 257.159L106.946 257.3L106.805 257.441L106.664 257.582L106.523 257.723L106.382 257.863L106.241 258.004L106.1 258.145L105.959 258.286L105.818 258.427L105.677 258.568L105.536 258.709L105.395 258.85L105.254 258.991L105.113 259.132L104.972 259.273L104.831 259.414L104.691 259.555L104.55 259.696L104.409 259.837L104.268 259.977L104.127 260.118L103.986 260.259L103.845 260.4L103.704 260.541L103.563 260.682L103.422 260.823L103.281 260.964L103.141 261.105L103 261.246L102.859 261.387L102.718 261.527L102.577 261.668L102.436 261.809L102.295 261.95L102.154 262.091L102.013 262.232L101.873 262.373L101.732 262.514L101.591 262.654L101.45 262.795L101.309 262.936L101.168 263.077L101.027 263.218L100.886 263.359L100.746 263.5L100.605 263.641L100.464 263.781L100.323 263.922L100.182 264.063L100.041 264.204L99.9004 264.345L99.7596 264.486L99.6188 264.627L99.4779 264.767L99.3371 264.908L99.1962 265.049L99.0554 265.19L98.9145 265.331L98.7737 265.472L98.6329 265.612L98.492 265.753L98.3512 265.894L98.2104 266.035L98.0696 266.176L97.9287 266.317L97.7879 266.457L97.6471 266.598L97.5063 266.739L97.3655 266.88L97.2247 267.021L97.0838 267.161L96.943 267.302L96.8022 267.443L96.6614 267.584L96.5206 267.725L96.3798 267.865L96.239 268.006L96.0982 268.147L95.9574 268.288L95.8166 268.429L95.6758 268.569L95.535 268.71L95.3942 268.851L95.2534 268.992L95.1127 269.133L94.9719 269.273L94.8311 269.414L94.6903 269.555L94.5495 269.696L94.4087 269.837L94.268 269.977L94.1272 270.118L93.9864 270.259L93.8456 270.4L93.7049 270.54L93.5641 270.681L93.4233 270.822L93.2826 270.963L93.1418 271.103L93.001 271.244L92.8603 271.385L92.7195 271.526L92.5788 271.667L92.438 271.807L92.2972 271.948L92.1565 272.089L92.0157 272.23L91.875 272.37L91.7342 272.511L91.5935 272.652L91.4527 272.793L91.312 272.933L91.1713 273.074L91.0305 273.215L90.8898 273.356L90.749 273.496L90.6083 273.637L90.4676 273.778L90.3268 273.918L90.1861 274.059L90.0454 274.2L89.9046 274.341L89.7639 274.481L89.6232 274.622L89.4824 274.763L89.3417 274.904L89.201 275.044L89.0603 275.185L88.9196 275.326L88.7788 275.466L88.6381 275.607L88.4974 275.748L88.3567 275.889L88.216 276.029L88.0753 276.17L87.9345 276.311L87.7938 276.451L87.6531 276.592L87.5124 276.733L87.3717 276.874L87.231 277.014L87.0903 277.155L86.9496 277.296L86.8089 277.436L86.6682 277.577L86.5275 277.718L86.3868 277.859L86.2461 277.999L86.1054 278.14L85.9647 278.281L85.824 278.421L85.6833 278.562L85.5426 278.703L85.4019 278.843L85.2612 278.984L85.1205 279.125L84.9799 279.265L84.8392 279.406L84.6985 279.547L84.5578 279.687L84.4171 279.828L84.2764 279.969L84.1357 280.11L83.9951 280.25L83.8544 280.391L83.7137 280.532L83.573 280.672L83.4323 280.813L83.2917 280.954L83.151 281.094L83.0103 281.235L82.8696 281.376L82.729 281.516L82.5883 281.657L82.4476 281.798L82.307 281.938L82.1663 282.079L82.0256 282.22L81.885 282.36L81.7443 282.501L81.6036 282.642L81.463 282.782L81.3223 282.923L81.1816 283.064L81.041 283.204L80.9003 283.345L80.7596 283.486L80.619 283.626L80.4783 283.767L80.3377 283.908L80.197 284.048L80.0564 284.189L79.9157 284.33L79.775 284.47L79.6344 284.611L79.4937 284.752L79.3531 284.892L79.2124 285.033L79.0718 285.174L78.9311 285.314L78.7905 285.455L78.6498 285.595L78.5092 285.736L78.3685 285.877L78.2279 286.017L78.0872 286.158L77.9466 286.299L77.8059 286.439L77.6653 286.58L77.5246 286.721L77.384 286.861L77.2434 287.002L77.1027 287.143L76.9621 287.283L76.8214 287.424L76.6808 287.565L76.5401 287.705L76.3995 287.846L76.2589 287.986L76.1182 288.127L75.9776 288.268L75.8369 288.408L75.6963 288.549L75.5557 288.69L75.415 288.83L75.2744 288.971L75.1338 289.112L74.9931 289.252L74.8525 289.393L74.7119 289.533L74.5712 289.674L74.4306 289.815L74.2899 289.955L74.1493 290.096L74.0087 290.237L73.868 290.377L73.7274 290.518L73.5868 290.659L73.4461 290.799L73.3055 290.94L73.1649 291.08L73.0243 291.221L72.8836 291.362L72.743 291.502L72.6024 291.643L72.4617 291.784L72.3211 291.924L72.1805 292.065L72.0398 292.205L71.8992 292.346L71.7586 292.487L71.618 292.627L71.4773 292.768L71.3367 292.909L71.1961 293.049L71.0554 293.19L70.9148 293.33L70.7742 293.471L70.6336 293.612L70.4929 293.752L70.3523 293.893L70.2117 294.034L70.071 294.174L69.9304 294.315L69.7898 294.456L69.6492 294.596L69.5085 294.737L69.3679 294.877L69.2273 295.018L69.0867 295.159L68.946 295.299L68.8054 295.44L68.6648 295.581L68.5241 295.721L68.3835 295.862L68.2429 296.002L68.1023 296.143L67.9616 296.284L67.821 296.424L67.6804 296.565L67.5398 296.706L67.3991 296.846L67.2585 296.987L67.1179 297.127L66.9772 297.268L66.8366 297.409L66.696 297.549L66.5554 297.69L66.4147 297.831L66.2741 297.971L66.1335 298.112L65.9928 298.252L65.8522 298.393L65.7116 298.534L65.571 298.674L65.4303 298.815L65.2897 298.956L65.1491 299.096L65.0084 299.237L64.8678 299.377L64.7272 299.518L64.5866 299.659L64.4459 299.799L64.3813 299.864C66.6992 291.421 69.0199 282.979 71.3406 274.537C73.9958 264.877 76.651 255.218 79.3019 245.559C79.3686 245.316 79.4262 245.195 79.4898 245.118C79.5423 245.055 79.6302 244.984 79.8431 244.925C93.715 241.123 107.584 237.309 121.452 233.496Z" stroke="black"/>
<path d="M38.8746 202.179C56.1648 206.811 73.3749 211.423 90.5482 216.025C104.59 219.788 118.607 223.545 132.624 227.3L132.617 227.302L132.601 227.306L132.585 227.31L132.569 227.315L132.554 227.319L132.538 227.323L132.522 227.328L132.506 227.332L132.49 227.336L132.474 227.34L132.458 227.345L132.442 227.349L132.427 227.353L132.411 227.357L132.395 227.362L132.379 227.366L132.363 227.37L132.347 227.374L132.331 227.379L132.315 227.383L132.299 227.387L132.284 227.391L132.268 227.396L132.252 227.4L132.236 227.404L132.22 227.408L132.204 227.413L132.188 227.417L132.172 227.421L132.157 227.425L132.141 227.43L132.125 227.434L132.109 227.438L132.093 227.442L132.077 227.447L132.061 227.451L132.045 227.455L132.029 227.459L132.014 227.464L131.998 227.468L131.982 227.472L131.966 227.476L131.95 227.481L131.934 227.485L131.918 227.489L131.902 227.493L131.886 227.498L131.871 227.502L131.855 227.506L131.839 227.51L131.823 227.515L131.807 227.519L131.791 227.523L131.775 227.527L131.759 227.532L131.744 227.536L131.728 227.54L131.712 227.544L131.696 227.549L131.68 227.553L131.664 227.557L131.648 227.561L131.632 227.566L131.616 227.57L131.601 227.574L131.585 227.578L131.569 227.583L131.553 227.587L131.537 227.591L131.521 227.595L131.505 227.6L131.489 227.604L131.474 227.608L131.458 227.612L131.442 227.617L131.426 227.621L131.41 227.625L131.394 227.629L131.378 227.634L131.362 227.638L131.346 227.642L131.331 227.646L131.315 227.651L131.299 227.655L131.283 227.659L131.267 227.663L131.251 227.668L131.235 227.672L131.219 227.676L131.203 227.681L131.188 227.685L131.172 227.689L131.156 227.693L131.14 227.698L131.124 227.702L131.108 227.706L131.092 227.71L131.076 227.715L131.061 227.719L131.045 227.723L131.029 227.727L131.013 227.732L130.997 227.736L130.981 227.74L130.965 227.744L130.949 227.749L130.933 227.753L130.918 227.757L130.902 227.761L130.886 227.766L130.87 227.77L130.854 227.774L130.838 227.778L130.822 227.783L130.806 227.787L130.791 227.791L130.775 227.795L130.759 227.8L130.743 227.804L130.727 227.808L130.711 227.812L130.695 227.817L130.679 227.821L130.663 227.825L130.648 227.829L130.632 227.834L130.616 227.838L130.6 227.842L130.584 227.846L130.568 227.851L130.552 227.855L130.536 227.859L130.52 227.863L130.505 227.868L130.489 227.872L130.473 227.876L130.457 227.88L130.441 227.885L130.425 227.889L130.409 227.893L130.393 227.897L130.378 227.902L130.362 227.906L130.346 227.91L130.33 227.914L130.314 227.919L130.298 227.923L130.282 227.927L130.266 227.931L130.25 227.936L130.235 227.94L130.219 227.944L130.203 227.948L130.187 227.953L130.171 227.957L130.155 227.961L130.139 227.965L130.123 227.97L130.108 227.974L130.092 227.978L130.076 227.982L130.06 227.987L130.044 227.991L130.028 227.995L130.012 227.999L129.996 228.004L129.98 228.008L129.965 228.012L129.949 228.016L129.933 228.021L129.917 228.025L129.901 228.029L129.885 228.034L129.869 228.038L129.853 228.042L129.837 228.046L129.822 228.051L129.806 228.055L129.79 228.059L129.774 228.063L129.758 228.068L129.742 228.072L129.726 228.076L129.71 228.08L129.695 228.085L129.679 228.089L129.663 228.093L129.647 228.097L129.631 228.102L129.615 228.106L129.599 228.11L129.583 228.114L129.567 228.119L129.552 228.123L129.536 228.127L129.52 228.131L129.504 228.136L129.488 228.14L129.472 228.144L129.456 228.148L129.44 228.153L129.424 228.157L129.409 228.161L129.393 228.165L129.377 228.17L129.361 228.174L129.345 228.178L129.329 228.182L129.313 228.187L129.297 228.191L129.282 228.195L129.266 228.199L129.25 228.204L129.234 228.208L129.218 228.212L129.202 228.216L129.186 228.221L129.17 228.225L129.154 228.229L129.139 228.233L129.123 228.238L129.107 228.242L129.091 228.246L129.075 228.25L129.059 228.255L129.043 228.259L129.027 228.263L129.012 228.267L128.996 228.272L128.98 228.276L128.964 228.28L128.948 228.284L128.932 228.289L128.916 228.293L128.9 228.297L128.884 228.301L128.869 228.306L128.853 228.31L128.837 228.314L128.821 228.318L128.805 228.323L128.789 228.327L128.773 228.331L128.757 228.335L128.741 228.34L128.726 228.344L128.71 228.348L128.694 228.352L128.678 228.357L128.662 228.361L128.646 228.365L128.63 228.369L128.614 228.374L128.599 228.378L128.583 228.382L128.567 228.387L128.551 228.391L128.535 228.395L128.519 228.399L128.503 228.404L128.487 228.408L128.471 228.412L128.456 228.416L128.44 228.421L128.424 228.425L128.408 228.429L128.392 228.433L128.376 228.438L128.36 228.442L128.344 228.446L128.329 228.45L128.313 228.455L128.297 228.459L128.281 228.463L128.265 228.467L128.249 228.472L128.233 228.476L128.217 228.48L128.201 228.484L128.186 228.489L128.17 228.493L128.154 228.497L128.138 228.501L128.122 228.506L128.106 228.51L128.09 228.514L128.074 228.518L128.058 228.523L128.043 228.527L128.027 228.531L128.011 228.535L127.995 228.54L127.979 228.544L127.963 228.548L127.947 228.552L127.931 228.557L127.916 228.561L127.9 228.565L127.884 228.569L127.868 228.574L127.852 228.578L127.836 228.582L127.82 228.586L127.804 228.591L127.788 228.595L127.773 228.599L127.757 228.603L127.741 228.608L127.725 228.612L127.709 228.616L127.693 228.62L127.677 228.625L127.661 228.629L127.646 228.633L127.63 228.637L127.614 228.642L127.598 228.646L127.582 228.65L127.566 228.654L127.55 228.659L127.534 228.663L127.518 228.667L127.503 228.671L127.487 228.676L127.471 228.68L127.455 228.684L127.439 228.688L127.423 228.693L127.407 228.697L127.391 228.701L127.375 228.705L127.36 228.71L127.344 228.714L127.328 228.718L127.312 228.722L127.296 228.727L127.28 228.731L127.264 228.735L127.248 228.74L127.233 228.744L127.217 228.748L127.201 228.752L127.185 228.757L127.169 228.761L127.153 228.765L127.137 228.769L127.121 228.774L127.105 228.778L127.09 228.782L127.074 228.786L127.058 228.791L127.042 228.795L127.026 228.799L127.01 228.803L126.994 228.808L126.978 228.812L126.963 228.816L126.947 228.82L126.931 228.825L126.915 228.829L126.899 228.833L126.883 228.837L126.867 228.842L126.851 228.846L126.835 228.85L126.82 228.854L126.804 228.859L126.788 228.863L126.772 228.867L126.756 228.871L126.74 228.876L126.724 228.88L126.708 228.884L126.692 228.888L126.677 228.893L126.661 228.897L126.645 228.901L126.629 228.905L126.613 228.91L126.597 228.914L126.581 228.918L126.565 228.922L126.55 228.927L126.534 228.931L126.518 228.935L126.502 228.939L126.486 228.944L126.47 228.948L126.454 228.952L126.438 228.956L126.422 228.961L126.407 228.965L126.391 228.969L126.375 228.973L126.359 228.978L126.343 228.982L126.327 228.986L126.311 228.99L126.295 228.995L126.28 228.999L126.264 229.003L126.248 229.007L126.232 229.012L126.216 229.016L126.2 229.02L126.184 229.024L126.168 229.029L126.152 229.033L126.137 229.037L126.121 229.041L126.105 229.046L126.089 229.05L126.073 229.054L126.057 229.058L126.041 229.063L126.025 229.067L126.009 229.071L125.994 229.076L125.978 229.08L125.962 229.084L125.946 229.088L125.93 229.093L125.914 229.097L125.898 229.101L125.898 229.101C123.101 229.85 120.304 230.6 117.507 231.349C104.741 234.768 91.9747 238.188 79.2128 241.614L79.2123 241.614C78.9035 241.697 78.7289 241.733 78.5801 241.718C78.4643 241.707 78.322 241.66 78.1176 241.456C66.7159 230.018 55.2957 218.599 43.877 207.181C42.2095 205.514 40.542 203.846 38.8746 202.179Z" fill="url(#paint8_linear_318_513)" stroke="black"/>
<path d="M36.4109 204.583C41.0429 221.873 45.6549 239.083 50.2571 256.257C54.0201 270.298 57.7765 284.316 61.5319 298.332L61.5337 298.325L61.538 298.31L61.5422 298.294L61.5465 298.278L61.5507 298.262L61.555 298.246L61.5593 298.23L61.5635 298.214L61.5678 298.198L61.572 298.183L61.5763 298.167L61.5805 298.151L61.5848 298.135L61.589 298.119L61.5933 298.103L61.5975 298.087L61.6018 298.071L61.606 298.055L61.6103 298.04L61.6145 298.024L61.6188 298.008L61.623 297.992L61.6273 297.976L61.6316 297.96L61.6358 297.944L61.6401 297.928L61.6443 297.912L61.6486 297.897L61.6528 297.881L61.6571 297.865L61.6613 297.849L61.6656 297.833L61.6698 297.817L61.6741 297.801L61.6783 297.785L61.6826 297.77L61.6868 297.754L61.6911 297.738L61.6954 297.722L61.6996 297.706L61.7039 297.69L61.7081 297.674L61.7124 297.658L61.7166 297.642L61.7209 297.627L61.7251 297.611L61.7294 297.595L61.7336 297.579L61.7379 297.563L61.7421 297.547L61.7464 297.531L61.7506 297.515L61.7549 297.5L61.7592 297.484L61.7634 297.468L61.7677 297.452L61.7719 297.436L61.7762 297.42L61.7804 297.404L61.7847 297.388L61.7889 297.372L61.7932 297.357L61.7974 297.341L61.8017 297.325L61.8059 297.309L61.8102 297.293L61.8144 297.277L61.8187 297.261L61.8229 297.245L61.8272 297.229L61.8314 297.214L61.8357 297.198L61.84 297.182L61.8442 297.166L61.8485 297.15L61.8527 297.134L61.857 297.118L61.8612 297.102L61.8655 297.087L61.8697 297.071L61.874 297.055L61.8782 297.039L61.8825 297.023L61.8867 297.007L61.891 296.991L61.8952 296.975L61.8995 296.959L61.9038 296.944L61.908 296.928L61.9123 296.912L61.9165 296.896L61.9208 296.88L61.925 296.864L61.9293 296.848L61.9335 296.832L61.9378 296.817L61.942 296.801L61.9463 296.785L61.9505 296.769L61.9548 296.753L61.959 296.737L61.9633 296.721L61.9675 296.705L61.9718 296.689L61.9761 296.674L61.9803 296.658L61.9846 296.642L61.9888 296.626L61.9931 296.61L61.9973 296.594L62.0016 296.578L62.0058 296.562L62.0101 296.546L62.0143 296.531L62.0186 296.515L62.0228 296.499L62.0271 296.483L62.0313 296.467L62.0356 296.451L62.0398 296.435L62.0441 296.419L62.0484 296.404L62.0526 296.388L62.0569 296.372L62.0611 296.356L62.0654 296.34L62.0696 296.324L62.0739 296.308L62.0781 296.292L62.0824 296.276L62.0866 296.261L62.0909 296.245L62.0951 296.229L62.0994 296.213L62.1036 296.197L62.1079 296.181L62.1122 296.165L62.1164 296.149L62.1207 296.133L62.1249 296.118L62.1292 296.102L62.1334 296.086L62.1377 296.07L62.1419 296.054L62.1462 296.038L62.1504 296.022L62.1547 296.006L62.1589 295.991L62.1632 295.975L62.1674 295.959L62.1717 295.943L62.1759 295.927L62.1802 295.911L62.1844 295.895L62.1887 295.879L62.193 295.863L62.1972 295.848L62.2015 295.832L62.2057 295.816L62.21 295.8L62.2142 295.784L62.2185 295.768L62.2227 295.752L62.227 295.736L62.2312 295.721L62.2355 295.705L62.2397 295.689L62.244 295.673L62.2482 295.657L62.2525 295.641L62.2568 295.625L62.261 295.609L62.2653 295.593L62.2695 295.578L62.2738 295.562L62.278 295.546L62.2823 295.53L62.2865 295.514L62.2908 295.498L62.295 295.482L62.2993 295.466L62.3035 295.45L62.3078 295.435L62.312 295.419L62.3163 295.403L62.3205 295.387L62.3248 295.371L62.3291 295.355L62.3333 295.339L62.3376 295.323L62.3418 295.308L62.3461 295.292L62.3503 295.276L62.3546 295.26L62.3588 295.244L62.3631 295.228L62.3673 295.212L62.3716 295.196L62.3758 295.18L62.3801 295.165L62.3843 295.149L62.3886 295.133L62.3928 295.117L62.3971 295.101L62.4014 295.085L62.4056 295.069L62.4099 295.053L62.4141 295.038L62.4184 295.022L62.4226 295.006L62.4269 294.99L62.4311 294.974L62.4354 294.958L62.4396 294.942L62.4439 294.926L62.4481 294.91L62.4524 294.895L62.4566 294.879L62.4609 294.863L62.4652 294.847L62.4694 294.831L62.4737 294.815L62.4779 294.799L62.4822 294.783L62.4864 294.767L62.4907 294.752L62.4949 294.736L62.4992 294.72L62.5034 294.704L62.5077 294.688L62.5119 294.672L62.5162 294.656L62.5204 294.64L62.5247 294.625L62.5289 294.609L62.5332 294.593L62.5375 294.577L62.5417 294.561L62.546 294.545L62.5502 294.529L62.5545 294.513L62.5587 294.497L62.563 294.482L62.5672 294.466L62.5715 294.45L62.5757 294.434L62.58 294.418L62.5842 294.402L62.5885 294.386L62.5927 294.37L62.597 294.355L62.6012 294.339L62.6055 294.323L62.6098 294.307L62.614 294.291L62.6183 294.275L62.6225 294.259L62.6268 294.243L62.631 294.227L62.6353 294.212L62.6395 294.196L62.6438 294.18L62.648 294.164L62.6523 294.148L62.6565 294.132L62.6608 294.116L62.665 294.1L62.6693 294.084L62.6735 294.069L62.6778 294.053L62.6821 294.037L62.6863 294.021L62.6906 294.005L62.6948 293.989L62.6991 293.973L62.7033 293.957L62.7076 293.942L62.7118 293.926L62.7161 293.91L62.7203 293.894L62.7246 293.878L62.7288 293.862L62.7331 293.846L62.7373 293.83L62.7416 293.814L62.7459 293.799L62.7501 293.783L62.7544 293.767L62.7586 293.751L62.7629 293.735L62.7671 293.719L62.7714 293.703L62.7756 293.687L62.7799 293.672L62.7841 293.656L62.7884 293.64L62.7926 293.624L62.7969 293.608L62.8011 293.592L62.8054 293.576L62.8096 293.56L62.8139 293.544L62.8182 293.529L62.8224 293.513L62.8267 293.497L62.8309 293.481L62.8352 293.465L62.8394 293.449L62.8437 293.433L62.8479 293.417L62.8522 293.401L62.8564 293.386L62.8607 293.37L62.8649 293.354L62.8692 293.338L62.8734 293.322L62.8777 293.306L62.8819 293.29L62.8862 293.274L62.8905 293.259L62.8947 293.243L62.899 293.227L62.9032 293.211L62.9075 293.195L62.9117 293.179L62.916 293.163L62.9202 293.147L62.9245 293.131L62.9287 293.116L62.933 293.1L62.9372 293.084L62.9415 293.068L62.9457 293.052L62.95 293.036L62.9542 293.02L62.9585 293.004L62.9628 292.989L62.967 292.973L62.9713 292.957L62.9755 292.941L62.9798 292.925L62.984 292.909L62.9883 292.893L62.9925 292.877L62.9968 292.861L63.001 292.846L63.0053 292.83L63.0095 292.814L63.0138 292.798L63.018 292.782L63.0223 292.766L63.0266 292.75L63.0308 292.734L63.0351 292.718L63.0393 292.703L63.0436 292.687L63.0478 292.671L63.0521 292.655L63.0563 292.639L63.0606 292.623L63.0648 292.607L63.0691 292.591L63.0733 292.576L63.0776 292.56L63.0818 292.544L63.0861 292.528L63.0903 292.512L63.0946 292.496L63.0989 292.48L63.1031 292.464L63.1074 292.448L63.1116 292.433L63.1159 292.417L63.1201 292.401L63.1244 292.385L63.1286 292.369L63.1329 292.353L63.1371 292.337L63.1414 292.321L63.1456 292.306L63.1499 292.29L63.1541 292.274L63.1584 292.258L63.1626 292.242L63.1669 292.226L63.1712 292.21L63.1754 292.194L63.1797 292.178L63.1839 292.163L63.1882 292.147L63.1924 292.131L63.1967 292.115L63.2009 292.099L63.2052 292.083L63.2094 292.067L63.2137 292.051L63.2179 292.035L63.2222 292.02L63.2264 292.004L63.2307 291.988L63.2349 291.972L63.2392 291.956L63.2435 291.94L63.2477 291.924L63.252 291.908L63.2562 291.893L63.2605 291.877L63.2647 291.861L63.269 291.845L63.2732 291.829L63.2775 291.813L63.2817 291.797L63.286 291.781L63.2902 291.765L63.2945 291.75L63.2987 291.734L63.303 291.718L63.3073 291.702L63.3115 291.686L63.3158 291.67L63.32 291.654L63.3243 291.638L63.3285 291.623L63.3328 291.607L63.3328 291.607C64.0821 288.809 64.8313 286.012 65.5806 283.215C68.9999 270.449 72.4193 257.683 75.8459 244.921L75.846 244.921C75.9292 244.612 75.9644 244.437 75.9499 244.288C75.9386 244.173 75.892 244.03 75.6877 243.826C64.2498 232.424 52.8305 221.004 41.4129 209.585C39.7456 207.918 38.0782 206.25 36.4109 204.583Z" stroke="black"/>
<defs>
<radialGradient id="paint0_radial_318_513" cx="0" cy="0" r="1" gradientUnits="userSpaceOnUse" gradientTransform="translate(219.544 259.272) rotate(-45) scale(25.5879 44.9683)">
<stop stop-color="#0072FF"/>
<stop offset="1" stop-color="#00C6FF"/>
</radialGradient>
<linearGradient id="paint1_linear_318_513" x1="233.387" y1="243.264" x2="210.215" y2="220.092" gradientUnits="userSpaceOnUse">
<stop stop-color="#0ED2F7"/>
<stop offset="1" stop-color="#B2FEFA"/>
</linearGradient>
<linearGradient id="paint2_linear_318_513" x1="191.6" y1="159.993" x2="178.59" y2="173.003" gradientUnits="userSpaceOnUse">
<stop stop-color="#0ED2F7"/>
<stop offset="1" stop-color="#B2FEFA"/>
</linearGradient>
<radialGradient id="paint3_radial_318_513" cx="0" cy="0" r="1" gradientUnits="userSpaceOnUse" gradientTransform="translate(300.537 187.28) rotate(-45) scale(14.3664 25.2476)">
<stop stop-color="#0072FF"/>
<stop offset="1" stop-color="#00C6FF"/>
</radialGradient>
<linearGradient id="paint4_linear_318_513" x1="309.35" y1="179.367" x2="322.361" y2="192.377" gradientUnits="userSpaceOnUse">
<stop stop-color="#0ED2F7"/>
<stop offset="1" stop-color="#B2FEFA"/>
</linearGradient>
<linearGradient id="paint5_linear_318_513" x1="309.35" y1="179.367" x2="322.361" y2="192.377" gradientUnits="userSpaceOnUse">
<stop stop-color="#0ED2F7"/>
<stop offset="1" stop-color="#B2FEFA"/>
</linearGradient>
<linearGradient id="paint6_linear_318_513" x1="308.309" y1="178.292" x2="295.299" y2="165.282" gradientUnits="userSpaceOnUse">
<stop stop-color="#0ED2F7"/>
<stop offset="1" stop-color="#B2FEFA"/>
</linearGradient>
<radialGradient id="paint7_radial_318_513" cx="0" cy="0" r="1" gradientUnits="userSpaceOnUse" gradientTransform="translate(233.944 92.235) rotate(-45) scale(25.5879 44.9683)">
<stop stop-color="#0072FF"/>
<stop offset="1" stop-color="#00C6FF"/>
</radialGradient>
<linearGradient id="paint8_linear_318_513" x1="78.1404" y1="241.995" x2="101.313" y2="218.823" gradientUnits="userSpaceOnUse">
<stop stop-color="#0ED2F7"/>
<stop offset="1" stop-color="#B2FEFA"/>
</linearGradient>
</defs>
</svg>
