<svg width="93" height="29" viewBox="0 0 93 29" fill="none" xmlns="http://www.w3.org/2000/svg">
<path d="M1.71729 0.335938V11H0.303711V0.335938H1.71729ZM8.28711 0.335938L3.6582 6.20264H1.15332L0.933594 5.03076H2.81592L6.53662 0.335938H8.28711ZM6.86621 11L2.85986 6.01953L3.65088 4.78174L8.59473 11H6.86621ZM13.8242 1.28076L10.2939 11H8.85107L12.916 0.335938H13.8462L13.8242 1.28076ZM16.7832 11L13.2456 1.28076L13.2236 0.335938H14.1538L18.2334 11H16.7832ZM16.6001 7.05225V8.20947H10.6089V7.05225H16.6001ZM23.5947 6.81787H20.7456V5.66797H23.5947C24.1465 5.66797 24.5933 5.58008 24.9351 5.4043C25.2769 5.22852 25.5259 4.98438 25.6821 4.67188C25.8433 4.35938 25.9238 4.00293 25.9238 3.60254C25.9238 3.23633 25.8433 2.89209 25.6821 2.56982C25.5259 2.24756 25.2769 1.98877 24.9351 1.79346C24.5933 1.59326 24.1465 1.49316 23.5947 1.49316H21.0752V11H19.6616V0.335938H23.5947C24.4004 0.335938 25.0815 0.475098 25.6382 0.753418C26.1948 1.03174 26.6172 1.41748 26.9053 1.91064C27.1934 2.39893 27.3374 2.95801 27.3374 3.58789C27.3374 4.27148 27.1934 4.85498 26.9053 5.33838C26.6172 5.82178 26.1948 6.19043 25.6382 6.44434C25.0815 6.69336 24.4004 6.81787 23.5947 6.81787ZM37.269 0.335938V11H35.8628V1.49316H30.604V11H29.1904V0.335938H37.269ZM48.043 5.33105V6.00488C48.043 6.80566 47.9429 7.52344 47.7427 8.1582C47.5425 8.79297 47.2544 9.33252 46.8784 9.77686C46.5024 10.2212 46.0508 10.5605 45.5234 10.7949C45.001 11.0293 44.415 11.1465 43.7656 11.1465C43.1357 11.1465 42.5571 11.0293 42.0298 10.7949C41.5073 10.5605 41.0532 10.2212 40.6675 9.77686C40.2866 9.33252 39.9912 8.79297 39.7812 8.1582C39.5713 7.52344 39.4663 6.80566 39.4663 6.00488V5.33105C39.4663 4.53027 39.5688 3.81494 39.7739 3.18506C39.9839 2.55029 40.2793 2.01074 40.6602 1.56641C41.041 1.11719 41.4927 0.775391 42.0151 0.541016C42.5425 0.306641 43.1211 0.189453 43.751 0.189453C44.4004 0.189453 44.9863 0.306641 45.5088 0.541016C46.0361 0.775391 46.4878 1.11719 46.8638 1.56641C47.2446 2.01074 47.5352 2.55029 47.7354 3.18506C47.9404 3.81494 48.043 4.53027 48.043 5.33105ZM46.644 6.00488V5.31641C46.644 4.68164 46.5781 4.12012 46.4463 3.63184C46.3193 3.14355 46.1313 2.7334 45.8823 2.40137C45.6333 2.06934 45.3281 1.81787 44.9668 1.64697C44.6104 1.47607 44.2051 1.39062 43.751 1.39062C43.3115 1.39062 42.9136 1.47607 42.5571 1.64697C42.2056 1.81787 41.9028 2.06934 41.6489 2.40137C41.3999 2.7334 41.207 3.14355 41.0703 3.63184C40.9336 4.12012 40.8652 4.68164 40.8652 5.31641V6.00488C40.8652 6.64453 40.9336 7.21094 41.0703 7.7041C41.207 8.19238 41.4023 8.60498 41.6562 8.94189C41.915 9.27393 42.2202 9.52539 42.5718 9.69629C42.9282 9.86719 43.3262 9.95264 43.7656 9.95264C44.2246 9.95264 44.6323 9.86719 44.9888 9.69629C45.3452 9.52539 45.6455 9.27393 45.8896 8.94189C46.1387 8.60498 46.3267 8.19238 46.4536 7.7041C46.5806 7.21094 46.644 6.64453 46.644 6.00488ZM53.9609 6.01221H51.2583L51.2437 4.87695H53.6973C54.1025 4.87695 54.4565 4.80859 54.7593 4.67188C55.062 4.53516 55.2964 4.33984 55.4624 4.08594C55.6333 3.82715 55.7188 3.51953 55.7188 3.16309C55.7188 2.77246 55.6431 2.45508 55.4917 2.21094C55.3452 1.96191 55.1182 1.78125 54.8105 1.66895C54.5078 1.55176 54.1221 1.49316 53.6533 1.49316H51.5732V11H50.1597V0.335938H53.6533C54.2002 0.335938 54.6885 0.39209 55.1182 0.504395C55.5479 0.611816 55.9116 0.782715 56.2095 1.01709C56.5122 1.24658 56.7417 1.53955 56.8979 1.896C57.0542 2.25244 57.1323 2.67969 57.1323 3.17773C57.1323 3.61719 57.02 4.01514 56.7954 4.37158C56.5708 4.72314 56.2583 5.01123 55.8579 5.23584C55.4624 5.46045 54.9985 5.60449 54.4663 5.66797L53.9609 6.01221ZM53.895 11H50.7017L51.5 9.8501H53.895C54.3442 9.8501 54.7251 9.77197 55.0376 9.61572C55.355 9.45947 55.5967 9.23975 55.7627 8.95654C55.9287 8.66846 56.0117 8.3291 56.0117 7.93848C56.0117 7.54297 55.9409 7.20117 55.7993 6.91309C55.6577 6.625 55.4355 6.40283 55.1328 6.24658C54.8301 6.09033 54.4395 6.01221 53.9609 6.01221H51.9468L51.9614 4.87695H54.7153L55.0156 5.28711C55.5283 5.33105 55.9629 5.47754 56.3193 5.72656C56.6758 5.9707 56.9468 6.2832 57.1323 6.66406C57.3228 7.04492 57.418 7.46484 57.418 7.92383C57.418 8.58789 57.2715 9.14941 56.9785 9.6084C56.6904 10.0625 56.2827 10.4092 55.7554 10.6484C55.228 10.8828 54.6079 11 53.895 11ZM1.70996 26.5537L6.96143 18.3359H8.375V29H6.96143V20.7749L1.70996 29H0.303711V18.3359H1.70996V26.5537ZM22.811 18.3359V29H21.4048V19.4932H16.146V29H14.7324V18.3359H22.811ZM29.3223 19.2808L25.792 29H24.3491L28.4141 18.3359H29.3442L29.3223 19.2808ZM32.2812 29L28.7437 19.2808L28.7217 18.3359H29.6519L33.7314 29H32.2812ZM32.0981 25.0522V26.2095H26.1069V25.0522H32.0981ZM39.0928 24.8179H36.2437V23.668H39.0928C39.6445 23.668 40.0913 23.5801 40.4331 23.4043C40.7749 23.2285 41.0239 22.9844 41.1802 22.6719C41.3413 22.3594 41.4219 22.0029 41.4219 21.6025C41.4219 21.2363 41.3413 20.8921 41.1802 20.5698C41.0239 20.2476 40.7749 19.9888 40.4331 19.7935C40.0913 19.5933 39.6445 19.4932 39.0928 19.4932H36.5732V29H35.1597V18.3359H39.0928C39.8984 18.3359 40.5796 18.4751 41.1362 18.7534C41.6929 19.0317 42.1152 19.4175 42.4033 19.9106C42.6914 20.3989 42.8354 20.958 42.8354 21.5879C42.8354 22.2715 42.6914 22.855 42.4033 23.3384C42.1152 23.8218 41.6929 24.1904 41.1362 24.4443C40.5796 24.6934 39.8984 24.8179 39.0928 24.8179ZM48.563 18.3359V29H47.1714V18.3359H48.563ZM51.9907 18.3359V19.4932H43.751V18.3359H51.9907ZM60.5381 22.9209V24.0708H54.7666V22.9209H60.5381ZM54.9863 18.3359V29H53.5728V18.3359H54.9863ZM61.7686 18.3359V29H60.3623V18.3359H61.7686ZM71.0557 27.8501V29H65.4087V27.8501H71.0557ZM65.6943 18.3359V29H64.2808V18.3359H65.6943ZM70.3086 22.9209V24.0708H65.4087V22.9209H70.3086ZM70.9824 18.3359V19.4932H65.4087V18.3359H70.9824ZM76.7393 24.8179H73.8901V23.668H76.7393C77.291 23.668 77.7378 23.5801 78.0796 23.4043C78.4214 23.2285 78.6704 22.9844 78.8267 22.6719C78.9878 22.3594 79.0684 22.0029 79.0684 21.6025C79.0684 21.2363 78.9878 20.8921 78.8267 20.5698C78.6704 20.2476 78.4214 19.9888 78.0796 19.7935C77.7378 19.5933 77.291 19.4932 76.7393 19.4932H74.2197V29H72.8062V18.3359H76.7393C77.5449 18.3359 78.2261 18.4751 78.7827 18.7534C79.3394 19.0317 79.7617 19.4175 80.0498 19.9106C80.3379 20.3989 80.4819 20.958 80.4819 21.5879C80.4819 22.2715 80.3379 22.855 80.0498 23.3384C79.7617 23.8218 79.3394 24.1904 78.7827 24.4443C78.2261 24.6934 77.5449 24.8179 76.7393 24.8179ZM83.4116 22.6792H86.3193C87.1006 22.6792 87.7598 22.811 88.2969 23.0747C88.834 23.3335 89.2417 23.6973 89.52 24.166C89.7983 24.6348 89.9375 25.1841 89.9375 25.814C89.9375 26.2827 89.8594 26.7124 89.7031 27.103C89.5469 27.4888 89.3149 27.8257 89.0073 28.1138C88.6997 28.397 88.3213 28.6167 87.8721 28.7729C87.4229 28.9243 86.9053 29 86.3193 29H82.335V18.3359H83.7485V27.8501H86.3193C86.8418 27.8501 87.2642 27.7549 87.5864 27.5645C87.9136 27.3691 88.1528 27.1152 88.3042 26.8027C88.4556 26.4902 88.5312 26.1558 88.5312 25.7993C88.5312 25.4429 88.4556 25.1157 88.3042 24.8179C88.1528 24.52 87.9136 24.2832 87.5864 24.1074C87.2642 23.9268 86.8418 23.8364 86.3193 23.8364H83.4116V22.6792ZM92.6401 18.3359V29H91.2266V18.3359H92.6401Z" fill="#001047"/>
</svg>
