<svg width="122" height="46" viewBox="0 0 122 46" fill="none" xmlns="http://www.w3.org/2000/svg">
<path d="M76.5488 16.3359V27H75.1572V16.3359H76.5488ZM79.9766 16.3359V17.4932H71.7368V16.3359H79.9766ZM83.9097 27.1465C83.3579 27.1465 82.8574 27.0537 82.4082 26.8682C81.9639 26.6777 81.5806 26.4116 81.2583 26.0698C80.9409 25.728 80.6968 25.3228 80.5259 24.854C80.355 24.3853 80.2695 23.8726 80.2695 23.3159V23.0083C80.2695 22.3638 80.3647 21.79 80.5552 21.2871C80.7456 20.7793 81.0044 20.3496 81.3315 19.998C81.6587 19.6465 82.0298 19.3804 82.4448 19.1997C82.8599 19.019 83.2896 18.9287 83.7339 18.9287C84.3003 18.9287 84.7886 19.0264 85.1987 19.2217C85.6138 19.417 85.9531 19.6904 86.2168 20.042C86.4805 20.3887 86.6758 20.7988 86.8027 21.2725C86.9297 21.7412 86.9932 22.2539 86.9932 22.8105V23.4185H81.0752V22.3125H85.6382V22.21C85.6187 21.8584 85.5454 21.5166 85.4185 21.1846C85.2964 20.8525 85.1011 20.5791 84.8325 20.3643C84.564 20.1494 84.1978 20.042 83.7339 20.042C83.4263 20.042 83.1431 20.1079 82.8843 20.2397C82.6255 20.3667 82.4033 20.5571 82.2178 20.811C82.0322 21.0649 81.8882 21.375 81.7856 21.7412C81.6831 22.1074 81.6318 22.5298 81.6318 23.0083V23.3159C81.6318 23.6919 81.6831 24.0459 81.7856 24.3779C81.8931 24.7051 82.0469 24.9932 82.2471 25.2422C82.4521 25.4912 82.6987 25.6865 82.9868 25.8281C83.2798 25.9697 83.6118 26.0405 83.9829 26.0405C84.4614 26.0405 84.8667 25.9429 85.1987 25.7476C85.5308 25.5522 85.8213 25.291 86.0703 24.9639L86.8906 25.6157C86.7197 25.8745 86.5024 26.1211 86.2388 26.3555C85.9751 26.5898 85.6504 26.7803 85.2646 26.9268C84.8838 27.0732 84.4321 27.1465 83.9097 27.1465ZM93.9512 22.5103V23.6089H89.7617V22.5103H93.9512ZM90.0474 19.0752V27H88.6924V19.0752H90.0474ZM95.0498 19.0752V27H93.6875V19.0752H95.0498ZM98.6606 19.0752H100.016L99.8984 22.0415C99.8691 22.7935 99.7837 23.4429 99.6421 23.9897C99.5005 24.5366 99.3198 25.0029 99.1001 25.3887C98.8804 25.7695 98.6338 26.0894 98.3604 26.3481C98.0918 26.6069 97.8135 26.8242 97.5254 27H96.8516L96.8882 25.894L97.1665 25.8867C97.3276 25.6963 97.4839 25.501 97.6353 25.3008C97.7866 25.0957 97.9258 24.854 98.0527 24.5757C98.1797 24.2925 98.2847 23.9482 98.3677 23.543C98.4556 23.1328 98.5117 22.6323 98.5361 22.0415L98.6606 19.0752ZM98.9976 19.0752H103.766V27H102.411V20.3276H98.9976V19.0752ZM96.5439 25.8867H104.784V29.3364H103.429V27H97.8989V29.3364H96.5366L96.5439 25.8867ZM109.574 27.1465C109.022 27.1465 108.521 27.0537 108.072 26.8682C107.628 26.6777 107.245 26.4116 106.922 26.0698C106.605 25.728 106.361 25.3228 106.19 24.854C106.019 24.3853 105.934 23.8726 105.934 23.3159V23.0083C105.934 22.3638 106.029 21.79 106.219 21.2871C106.41 20.7793 106.668 20.3496 106.996 19.998C107.323 19.6465 107.694 19.3804 108.109 19.1997C108.524 19.019 108.954 18.9287 109.398 18.9287C109.964 18.9287 110.453 19.0264 110.863 19.2217C111.278 19.417 111.617 19.6904 111.881 20.042C112.145 20.3887 112.34 20.7988 112.467 21.2725C112.594 21.7412 112.657 22.2539 112.657 22.8105V23.4185H106.739V22.3125H111.302V22.21C111.283 21.8584 111.209 21.5166 111.083 21.1846C110.96 20.8525 110.765 20.5791 110.497 20.3643C110.228 20.1494 109.862 20.042 109.398 20.042C109.09 20.042 108.807 20.1079 108.548 20.2397C108.29 20.3667 108.067 20.5571 107.882 20.811C107.696 21.0649 107.552 21.375 107.45 21.7412C107.347 22.1074 107.296 22.5298 107.296 23.0083V23.3159C107.296 23.6919 107.347 24.0459 107.45 24.3779C107.557 24.7051 107.711 24.9932 107.911 25.2422C108.116 25.4912 108.363 25.6865 108.651 25.8281C108.944 25.9697 109.276 26.0405 109.647 26.0405C110.125 26.0405 110.531 25.9429 110.863 25.7476C111.195 25.5522 111.485 25.291 111.734 24.9639L112.555 25.6157C112.384 25.8745 112.167 26.1211 111.903 26.3555C111.639 26.5898 111.314 26.7803 110.929 26.9268C110.548 27.0732 110.096 27.1465 109.574 27.1465ZM115.594 20.5986V30.0469H114.232V19.0752H115.477L115.594 20.5986ZM120.934 22.9717V23.1255C120.934 23.7017 120.865 24.2363 120.729 24.7295C120.592 25.2178 120.392 25.6426 120.128 26.0039C119.869 26.3652 119.549 26.646 119.168 26.8462C118.788 27.0464 118.351 27.1465 117.857 27.1465C117.354 27.1465 116.91 27.0635 116.524 26.8975C116.139 26.7314 115.812 26.4897 115.543 26.1724C115.274 25.855 115.06 25.4741 114.898 25.0298C114.742 24.5854 114.635 24.085 114.576 23.5283V22.708C114.635 22.1221 114.745 21.5972 114.906 21.1333C115.067 20.6694 115.279 20.2739 115.543 19.9468C115.812 19.6147 116.136 19.3633 116.517 19.1924C116.898 19.0166 117.337 18.9287 117.835 18.9287C118.333 18.9287 118.775 19.0264 119.161 19.2217C119.547 19.4121 119.872 19.6855 120.135 20.042C120.399 20.3984 120.597 20.8257 120.729 21.3237C120.865 21.8169 120.934 22.3662 120.934 22.9717ZM119.571 23.1255V22.9717C119.571 22.5762 119.53 22.2051 119.447 21.8584C119.364 21.5068 119.234 21.1992 119.059 20.9355C118.888 20.667 118.668 20.457 118.399 20.3057C118.131 20.1494 117.811 20.0713 117.44 20.0713C117.098 20.0713 116.8 20.1299 116.546 20.2471C116.297 20.3643 116.085 20.5229 115.909 20.7231C115.733 20.9185 115.589 21.1431 115.477 21.397C115.37 21.646 115.289 21.9048 115.235 22.1733V24.0703C115.333 24.4121 115.47 24.7344 115.646 25.0371C115.821 25.335 116.056 25.5767 116.349 25.7622C116.642 25.9429 117.01 26.0332 117.455 26.0332C117.821 26.0332 118.136 25.9575 118.399 25.8062C118.668 25.6499 118.888 25.4375 119.059 25.1689C119.234 24.9004 119.364 24.5928 119.447 24.2461C119.53 23.8945 119.571 23.521 119.571 23.1255Z" fill="#001047"/>
<path d="M50.6788 44.8837C48.8362 43.8357 46.9934 42.7878 45.1507 41.7399C38.8286 38.1448 32.5063 34.5496 26.1867 30.9493C26.1021 30.9016 26.0653 30.9027 26.0484 30.9043L50.6788 44.8837ZM50.6788 44.8837H50.5926H50.4914H50.3901H50.2889H50.1876H50.0864H49.9851H49.8839H49.7827H49.6814H49.5802H49.479H49.3777H49.2765H49.1753H49.0741H48.9729H48.8717H48.7705H48.6693H48.5681H48.4669H48.3657H48.2645H48.1633H48.0621H47.9609H47.8597H47.7586H47.6574H47.5562H47.4551H47.3539H47.2527H47.1516H47.0504H46.9493H46.8481H46.747H46.6458H46.5447H46.4435H46.3424H46.2412H46.1401H46.039H45.9379H45.8367H45.7356H45.6345H45.5334H45.4323H45.3311H45.23H45.1289H45.0278H44.9267H44.8256H44.7245H44.6234H44.5223H44.4213H44.3202H44.2191H44.118H44.0169H43.9159H43.8148H43.7137H43.6126H43.5116H43.4105H43.3095H43.2084H43.1073H43.0063H42.9052H42.8042H42.7032H42.6021H42.5011H42.4H42.299H42.198H42.0969H41.9959H41.8949H41.7939H41.6928H41.5918H41.4908H41.3898H41.2888H41.1878H41.0868H40.9858H40.8848H40.7838H40.6828H40.5818H40.4808H40.3798H40.2788H40.1778H40.0768H39.9759H39.8749H39.7739H39.6729H39.572H39.471H39.37H39.2691H39.1681H39.0671H38.9662H38.8652H38.7643H38.6633H38.5624H38.4614H38.3605H38.2595H38.1586H38.0577H37.9567H37.8558H37.7549H37.6539H37.553H37.4521H37.3512H37.2502H37.1493H37.0484H36.9475H36.8466H36.7457H36.6448H36.5439H36.4429H36.342H36.2411H36.1403H36.0394H35.9385H35.8376H35.7367H35.6358H35.5349H35.434H35.3331H35.2323H35.1314H35.0305H34.9296H34.8288H34.7279H34.627H34.5262H34.4253H34.3244H34.2236H34.1227H34.0219H33.921H33.8202H33.7193H33.6185H33.5176H33.4168H33.3159H33.2151H33.1143H33.0134H32.9126H32.8118H32.7109H32.6101H32.5093H32.4084H32.3076H32.2068H32.106H32.0052H31.9043H31.8035H31.7027H31.6019H31.5011H31.4003H31.2995H31.1987H31.0979H30.9971H30.8963H30.7955H30.6947H30.5939H30.4931H30.3923H30.2915H30.1907H30.0899H29.9892H29.8884H29.7876H29.6868H29.586H29.4853H29.3845H29.2837H29.183H29.0822H28.9814H28.8806H28.7799H28.6791H28.5784H28.4776H28.3768H28.2761H28.1753H28.0746H27.9738H27.8731H27.7723H27.6716H27.5708H27.4701H27.3694H27.2686H27.1679H27.0671H26.9664H26.8657H26.7649H26.6642H26.5635H26.4627H26.362H26.2613H26.1606H26.0598H25.9591H25.8584H25.7577H25.657H25.5562H25.4555H25.3548H25.2541H25.1534H25.0527H24.952H24.8513H24.7506H24.6498H24.5491H24.4484H24.3477H24.247H24.1463H24.0456H23.945H23.8443H23.7436H23.6429H23.5422H23.4415H23.3408H23.2401H23.1394H23.0388H22.9381H22.8374H22.7367H22.636H22.5354H22.4347H22.334H22.2333H22.1327H22.032H21.9313H21.8306H21.73H21.6293H21.5286H21.428H21.3273H21.2266H21.126H21.0253H20.9247H20.824H20.7233H20.6227H20.522H20.4214H20.3207H20.2201H20.1194H20.0188H19.9181H19.8175H19.7168H19.6162H19.5155H19.4149H19.3142H19.2136H19.113H19.0123H18.9117H18.811H18.7104H18.6098H18.5091H18.4085H18.3079H18.2072H18.1066H18.006H17.9053H17.8047H17.7041H17.6034H17.5028H17.4022H17.3016H17.2009H17.1003H16.9997H16.8991H16.7985H16.6978H16.5972H16.4966H16.396H16.2954H16.1947H16.0941H15.9935H15.8929H15.7923H15.6917H15.5911H15.4905H15.3898H15.2892H15.1886H15.088H14.9874H14.8868H14.7862H14.6856H14.585H14.4844H14.3838H14.2832H14.1826H14.082H13.9814H13.8808H13.7802H13.6796H13.579H13.4784H13.3778H13.2772H13.1766H13.076H12.9754H12.8748H12.7742H12.6736H12.573H12.4724H12.3719H12.2713H12.1707H12.0701H11.9695H11.8689H11.7683H11.6677H11.5671H11.4666H11.366H11.2654H11.1648H11.0642H10.9636H10.863H10.7625H10.6619H10.5613H10.4607H10.3601H10.2596H10.159H10.0584H9.95781H9.85723H9.75665H9.65607H9.55549H9.45491H9.35433H9.25376H9.15318H9.0526H8.95203H8.85145H8.75087H8.6503H8.54972H8.44915H8.34857H8.248H8.14742H8.04685H7.94627H7.8457H7.74513H7.64455H7.54398H7.44341H7.34283H7.24226H7.14169H7.04112H6.94055H6.83997H6.7394H6.63883H6.53826H6.43769H6.33712H6.23655H6.13598H6.03541H5.93484H5.83427H5.7337H5.63313H5.53256H5.43199H5.33142H5.23085H5.13028H5.02971H4.92914H4.82857H4.728H4.62743H4.52686H4.42629H4.32572H4.22515H4.12458H4.02401H3.92345H3.82288H3.72231H3.62174H3.52117H3.4206H3.32003H3.21946H3.11889H3.01832H2.91775H2.81718H2.71661H2.61604H2.51547H2.4149H2.31433H2.21376H2.11319H2.01262H1.91205H1.81148H1.71091H1.61034H1.50977H1.4284C5.1693 42.7545 8.91122 40.6262 12.6531 38.498C17.0569 35.9932 21.4606 33.4886 25.8625 30.9825L50.6788 44.8837Z" stroke="#001047" stroke-width="0.7"/>
<path d="M26.9675 1.29322C31.4325 9.02615 35.8768 16.7244 40.3117 24.4065C43.9268 30.6685 47.5357 36.9196 51.1445 43.1701L48.4097 41.5905L48.4097 41.5905C47.1423 40.8587 45.8749 40.1268 44.6075 39.3949C38.8194 36.0524 33.0311 32.7098 27.2418 29.3713L27.2415 29.3711C27.0995 29.2894 27.04 29.2474 27.0049 29.2047C26.9845 29.1799 26.9554 29.1355 26.9553 29.0074C26.9683 20.8405 26.9679 12.6736 26.9676 4.50799C26.9675 3.43637 26.9675 2.36478 26.9675 1.29322Z" stroke="#001047" stroke-width="0.7"/>
<path d="M25.0325 1.27204C20.5675 9.00497 16.1232 16.7032 11.6883 24.3853C8.0732 30.6473 4.46434 36.8985 0.855497 43.1489L3.59025 41.5693L3.59029 41.5693C4.85769 40.8375 6.1251 40.1056 7.39252 39.3737C13.1806 36.0312 18.9689 32.6886 24.7582 29.3501L24.7585 29.35C24.9005 29.2682 24.96 29.2263 24.9951 29.1835C25.0155 29.1587 25.0446 29.1143 25.0447 28.9862C25.0317 20.8193 25.0321 12.6524 25.0324 4.48681C25.0325 3.41519 25.0325 2.3436 25.0325 1.27204Z" stroke="#001047" stroke-width="0.7"/>
</svg>
