<svg width="73" height="36" viewBox="0 0 73 36" fill="none" xmlns="http://www.w3.org/2000/svg">
<rect width="73" height="36" rx="18" fill="#FF5752"/>
<path d="M22.6621 10.7812V12.7344H16.0508V25H13.6094V10.7812H22.6621ZM15.3086 16.2402H18.8828C19.9635 16.2402 20.888 16.4225 21.6562 16.7871C22.4245 17.1452 23.0104 17.6497 23.4141 18.3008C23.8177 18.9518 24.0195 19.7103 24.0195 20.5762C24.0195 21.2272 23.9056 21.8229 23.6777 22.3633C23.4499 22.9036 23.1146 23.3724 22.6719 23.7695C22.2292 24.1602 21.6888 24.4629 21.0508 24.6777C20.4193 24.8926 19.6966 25 18.8828 25H13.6094V10.7812H16.0703V23.0566H18.8828C19.5013 23.0566 20.0091 22.9427 20.4062 22.7148C20.8034 22.4805 21.0964 22.1745 21.2852 21.7969C21.4805 21.4193 21.5781 21.0059 21.5781 20.5566C21.5781 20.1204 21.4805 19.7233 21.2852 19.3652C21.0964 19.0072 20.8034 18.7207 20.4062 18.5059C20.0091 18.291 19.5013 18.1836 18.8828 18.1836H15.3086V16.2402ZM35.5332 23.0566V25H27.9844V23.0566H35.5332ZM28.6777 10.7812V25H26.2266V10.7812H28.6777ZM34.5469 16.7188V18.6328H27.9844V16.7188H34.5469ZM35.4844 10.7812V12.7344H27.9844V10.7812H35.4844ZM43.5801 10.7812V25H41.1484V10.7812H43.5801ZM48.043 10.7812V12.7344H36.7246V10.7812H48.043ZM54.5176 12.6758L50.2695 25H47.7012L53.0527 10.7812H54.6934L54.5176 12.6758ZM58.0723 25L53.8145 12.6758L53.6289 10.7812H55.2793L60.6504 25H58.0723ZM57.8672 19.7266V21.6699H50.1328V19.7266H57.8672Z" fill="white"/>
</svg>
