<svg width="20" height="20" viewBox="0 0 20 20" fill="none" xmlns="http://www.w3.org/2000/svg">
<path d="M9.9999 0.779785C4.7103 0.779785 0.399902 5.09019 0.399902 10.3798C0.399902 15.6694 4.7103 19.9798 9.9999 19.9798C15.2895 19.9798 19.5999 15.6694 19.5999 10.3798C19.5999 5.09019 15.2895 0.779785 9.9999 0.779785ZM13.8399 11.0998H10.7199V14.2198C10.7199 14.6134 10.3935 14.9398 9.9999 14.9398C9.6063 14.9398 9.2799 14.6134 9.2799 14.2198V11.0998H6.1599C5.7663 11.0998 5.4399 10.7734 5.4399 10.3798C5.4399 9.98618 5.7663 9.65978 6.1599 9.65978H9.2799V6.53979C9.2799 6.14619 9.6063 5.81979 9.9999 5.81979C10.3935 5.81979 10.7199 6.14619 10.7199 6.53979V9.65978H13.8399C14.2335 9.65978 14.5599 9.98618 14.5599 10.3798C14.5599 10.7734 14.2335 11.0998 13.8399 11.0998Z" fill="#2D62FF"/>
</svg>
