<svg width="39" height="24" viewBox="0 0 39 24" fill="none" xmlns="http://www.w3.org/2000/svg">
<rect width="39" height="24" rx="5" fill="#D7F870"/>
<path d="M6.34912 11.9097V13.0229H2.7749V11.9097H6.34912ZM14.5156 15.8867V17H7.53564V16.0259L11.0293 12.1367C11.459 11.6582 11.791 11.2529 12.0254 10.9209C12.2646 10.584 12.4307 10.2837 12.5234 10.02C12.6211 9.75146 12.6699 9.47803 12.6699 9.19971C12.6699 8.84814 12.5967 8.53076 12.4502 8.24756C12.3086 7.95947 12.0986 7.72998 11.8203 7.55908C11.542 7.38818 11.2051 7.30273 10.8096 7.30273C10.3359 7.30273 9.94043 7.39551 9.62305 7.58105C9.31055 7.76172 9.07617 8.01562 8.91992 8.34277C8.76367 8.66992 8.68555 9.0459 8.68555 9.4707H7.33057C7.33057 8.87012 7.4624 8.3208 7.72607 7.82275C7.98975 7.32471 8.38037 6.9292 8.89795 6.63623C9.41553 6.33838 10.0527 6.18945 10.8096 6.18945C11.4834 6.18945 12.0596 6.30908 12.5381 6.54834C13.0166 6.78271 13.3828 7.11475 13.6367 7.54443C13.8955 7.96924 14.0249 8.46729 14.0249 9.03857C14.0249 9.35107 13.9712 9.66846 13.8638 9.99072C13.7612 10.3081 13.6172 10.6255 13.4316 10.9429C13.251 11.2603 13.0386 11.5728 12.7944 11.8804C12.5552 12.188 12.2988 12.4907 12.0254 12.7886L9.16895 15.8867H14.5156ZM22.6602 10.8184V12.4443C22.6602 13.3184 22.582 14.0557 22.4258 14.6562C22.2695 15.2568 22.0449 15.7402 21.752 16.1064C21.459 16.4727 21.105 16.7388 20.6899 16.9048C20.2798 17.0659 19.8159 17.1465 19.2983 17.1465C18.8882 17.1465 18.5098 17.0952 18.1631 16.9927C17.8164 16.8901 17.5039 16.7266 17.2256 16.502C16.9521 16.2725 16.7178 15.9746 16.5225 15.6084C16.3271 15.2422 16.1782 14.7979 16.0757 14.2754C15.9731 13.7529 15.9219 13.1426 15.9219 12.4443V10.8184C15.9219 9.94434 16 9.21191 16.1562 8.62109C16.3174 8.03027 16.5444 7.55664 16.8374 7.2002C17.1304 6.83887 17.4819 6.58008 17.8921 6.42383C18.3071 6.26758 18.771 6.18945 19.2837 6.18945C19.6987 6.18945 20.0796 6.24072 20.4263 6.34326C20.7778 6.44092 21.0903 6.59961 21.3638 6.81934C21.6372 7.03418 21.8691 7.32227 22.0596 7.68359C22.2549 8.04004 22.4038 8.47705 22.5063 8.99463C22.6089 9.51221 22.6602 10.1201 22.6602 10.8184ZM21.2979 12.6641V10.5913C21.2979 10.1128 21.2686 9.69287 21.21 9.33154C21.1562 8.96533 21.0757 8.65283 20.9683 8.39404C20.8608 8.13525 20.7241 7.92529 20.5581 7.76416C20.397 7.60303 20.209 7.48584 19.9941 7.4126C19.7842 7.33447 19.5474 7.29541 19.2837 7.29541C18.9614 7.29541 18.6758 7.35645 18.4268 7.47852C18.1777 7.5957 17.9678 7.78369 17.7969 8.04248C17.6309 8.30127 17.5039 8.64062 17.416 9.06055C17.3281 9.48047 17.2842 9.99072 17.2842 10.5913V12.6641C17.2842 13.1426 17.311 13.5649 17.3647 13.9312C17.4233 14.2974 17.5088 14.6147 17.6211 14.8833C17.7334 15.147 17.8701 15.3643 18.0312 15.5352C18.1924 15.7061 18.3779 15.833 18.5879 15.916C18.8027 15.9941 19.0396 16.0332 19.2983 16.0332C19.6304 16.0332 19.9209 15.9697 20.1699 15.8428C20.4189 15.7158 20.6265 15.5181 20.7925 15.2495C20.9634 14.9761 21.0903 14.627 21.1733 14.2021C21.2563 13.7725 21.2979 13.2598 21.2979 12.6641ZM24.2861 8.95068V8.38672C24.2861 7.98145 24.374 7.61279 24.5498 7.28076C24.7256 6.94873 24.9771 6.68262 25.3042 6.48242C25.6313 6.28223 26.0195 6.18213 26.4688 6.18213C26.9277 6.18213 27.3184 6.28223 27.6406 6.48242C27.9678 6.68262 28.2192 6.94873 28.395 7.28076C28.5708 7.61279 28.6587 7.98145 28.6587 8.38672V8.95068C28.6587 9.34619 28.5708 9.70996 28.395 10.042C28.2241 10.374 27.9751 10.6401 27.6479 10.8403C27.3257 11.0405 26.9375 11.1406 26.4834 11.1406C26.0293 11.1406 25.6362 11.0405 25.3042 10.8403C24.9771 10.6401 24.7256 10.374 24.5498 10.042C24.374 9.70996 24.2861 9.34619 24.2861 8.95068ZM25.3042 8.38672V8.95068C25.3042 9.17529 25.3457 9.3877 25.4287 9.58789C25.5166 9.78809 25.6484 9.95166 25.8242 10.0786C26 10.2007 26.2197 10.2617 26.4834 10.2617C26.7471 10.2617 26.9644 10.2007 27.1353 10.0786C27.3062 9.95166 27.4331 9.78809 27.5161 9.58789C27.5991 9.3877 27.6406 9.17529 27.6406 8.95068V8.38672C27.6406 8.15723 27.5967 7.94238 27.5088 7.74219C27.4258 7.53711 27.2964 7.37354 27.1206 7.25146C26.9497 7.12451 26.7324 7.06104 26.4688 7.06104C26.21 7.06104 25.9927 7.12451 25.8169 7.25146C25.646 7.37354 25.5166 7.53711 25.4287 7.74219C25.3457 7.94238 25.3042 8.15723 25.3042 8.38672ZM29.479 14.9565V14.3853C29.479 13.9849 29.5669 13.6187 29.7427 13.2866C29.9185 12.9546 30.1699 12.6885 30.4971 12.4883C30.8242 12.2881 31.2124 12.188 31.6616 12.188C32.1206 12.188 32.5112 12.2881 32.8335 12.4883C33.1606 12.6885 33.4121 12.9546 33.5879 13.2866C33.7637 13.6187 33.8516 13.9849 33.8516 14.3853V14.9565C33.8516 15.3569 33.7637 15.7231 33.5879 16.0552C33.417 16.3872 33.168 16.6533 32.8408 16.8535C32.5186 17.0537 32.1304 17.1538 31.6763 17.1538C31.2222 17.1538 30.8315 17.0537 30.5044 16.8535C30.1772 16.6533 29.9233 16.3872 29.7427 16.0552C29.5669 15.7231 29.479 15.3569 29.479 14.9565ZM30.4971 14.3853V14.9565C30.4971 15.1812 30.5386 15.396 30.6216 15.6011C30.7095 15.8013 30.8413 15.9648 31.0171 16.0918C31.1929 16.2139 31.4126 16.2749 31.6763 16.2749C31.9399 16.2749 32.1572 16.2139 32.3281 16.0918C32.5039 15.9648 32.6333 15.8013 32.7163 15.6011C32.7993 15.4009 32.8408 15.186 32.8408 14.9565V14.3853C32.8408 14.1558 32.7969 13.9409 32.709 13.7407C32.626 13.5405 32.4966 13.3794 32.3208 13.2573C32.1499 13.1304 31.9302 13.0669 31.6616 13.0669C31.4028 13.0669 31.1855 13.1304 31.0098 13.2573C30.8389 13.3794 30.7095 13.5405 30.6216 13.7407C30.5386 13.9409 30.4971 14.1558 30.4971 14.3853ZM31.9985 7.85205L26.791 16.187L26.0293 15.7036L31.2368 7.36865L31.9985 7.85205Z" fill="#262626"/>
</svg>
