<svg width="224" height="252" viewBox="0 0 224 252" fill="none" xmlns="http://www.w3.org/2000/svg">
<g clip-path="url(#clip0_72_5684)">
<path d="M209.455 0H14.5455C6.51222 0 0 6.50284 0 14.5245V237.476C0 245.497 6.51222 252 14.5455 252H209.455C217.488 252 224 245.497 224 237.476V14.5245C224 6.50284 217.488 0 209.455 0Z" fill="white"/>
<mask id="mask0_72_5684" style="mask-type:luminance" maskUnits="userSpaceOnUse" x="18" y="24" width="10" height="7">
<path d="M27.6363 24.6917H18.9091V30.5014H27.6363V24.6917Z" fill="white"/>
</mask>
<g mask="url(#mask0_72_5684)">
<path d="M26.9091 25.418L23.2727 29.0491L19.6364 25.418" stroke="#334059" stroke-width="2"/>
</g>
<path d="M48.9347 30.8625L48.8133 34.3188H47.646V31.954H46.6811V30.8625H48.9347ZM40.4535 31.954V22.1443H41.7624V30.8962H46.6002V22.1443H47.9024V31.954H40.4535ZM53.3608 32.0887C52.8525 32.0887 52.3915 32.0034 51.9776 31.8327C51.5683 31.6575 51.2152 31.4127 50.9184 31.0983C50.626 30.7839 50.4011 30.4111 50.2437 29.9799C50.0862 29.5487 50.0075 29.0771 50.0075 28.5651V28.282C50.0075 27.6892 50.0952 27.1614 50.2707 26.6988C50.4461 26.2316 50.6845 25.8364 50.9859 25.513C51.2872 25.1896 51.6291 24.9448 52.0114 24.7786C52.3937 24.6124 52.7896 24.5294 53.1989 24.5294C53.7207 24.5294 54.1705 24.6192 54.5483 24.7989C54.9307 24.9785 55.2433 25.23 55.4862 25.5534C55.7291 25.8724 55.909 26.2496 56.0259 26.6853C56.1429 27.1165 56.2014 27.5881 56.2014 28.1002V28.6594H50.7497V27.642H54.9531V27.5477C54.9352 27.2243 54.8677 26.9099 54.7507 26.6045C54.6383 26.299 54.4584 26.0475 54.2109 25.8498C53.9636 25.6522 53.6262 25.5534 53.1989 25.5534C52.9155 25.5534 52.6547 25.614 52.4163 25.7353C52.1779 25.8521 51.9732 26.0273 51.8022 26.2608C51.6313 26.4944 51.4986 26.7796 51.4042 27.1165C51.3097 27.4534 51.2624 27.8419 51.2624 28.282V28.5651C51.2624 28.9109 51.3097 29.2365 51.4042 29.542C51.5031 29.8429 51.6448 30.1079 51.8292 30.337C52.0181 30.5661 52.2453 30.7458 52.5107 30.876C52.7805 31.0063 53.0864 31.0714 53.4283 31.0714C53.8691 31.0714 54.2424 30.9816 54.5483 30.8019C54.8542 30.6222 55.1219 30.3819 55.3512 30.081L56.1069 30.6806C55.9495 30.9187 55.7493 31.1455 55.5064 31.3611C55.2635 31.5767 54.9644 31.7519 54.6091 31.8866C54.2582 32.0214 53.8421 32.0887 53.3608 32.0887ZM62.6112 27.8239V28.8346H58.7518V27.8239H62.6112ZM59.0149 24.6641V31.954H57.7667V24.6641H59.0149ZM63.6232 24.6641V31.954H62.3683V24.6641H63.6232ZM69.9386 30.7076V26.9548C69.9386 26.6674 69.8801 26.418 69.7632 26.2069C69.6507 25.9914 69.4798 25.8252 69.2504 25.7084C69.021 25.5916 68.7376 25.5332 68.4003 25.5332C68.0854 25.5332 67.8088 25.5871 67.5704 25.6949C67.3365 25.8027 67.152 25.9442 67.0171 26.1194C66.8867 26.2945 66.8214 26.4832 66.8214 26.6853H65.5732C65.5732 26.4248 65.6407 26.1666 65.7756 25.9105C65.9106 25.6545 66.104 25.4232 66.3559 25.2166C66.6123 25.0055 66.9181 24.8392 67.2735 24.718C67.6333 24.5922 68.0336 24.5294 68.4744 24.5294C69.0053 24.5294 69.4731 24.6192 69.8779 24.7989C70.2872 24.9785 70.6066 25.2502 70.836 25.614C71.0699 25.9734 71.1868 26.4248 71.1868 26.9683V30.3639C71.1868 30.6065 71.2071 30.8648 71.2475 31.1387C71.2925 31.4127 71.3578 31.6485 71.4432 31.8462V31.954H70.141C70.0781 31.8103 70.0285 31.6193 69.9925 31.3813C69.9566 31.1387 69.9386 30.9142 69.9386 30.7076ZM70.1545 27.5343L70.168 28.4101H68.9063C68.5509 28.4101 68.2339 28.4393 67.9549 28.4977C67.676 28.5515 67.4421 28.6347 67.2532 28.747C67.0643 28.8593 66.9204 29.0007 66.8214 29.1715C66.7224 29.3376 66.673 29.533 66.673 29.7576C66.673 29.9866 66.7247 30.1955 66.8282 30.3842C66.9316 30.5728 67.0868 30.7233 67.2937 30.8356C67.5051 30.9434 67.7637 30.9973 68.0696 30.9973C68.452 30.9973 68.7893 30.9164 69.0817 30.7547C69.3741 30.593 69.6057 30.3954 69.7767 30.1618C69.9521 29.9283 70.0466 29.7015 70.06 29.4813L70.5931 30.081C70.5616 30.2697 70.4761 30.4785 70.3367 30.7076C70.1973 30.9366 70.0106 31.1567 69.7767 31.3679C69.5472 31.5745 69.2729 31.7474 68.9535 31.8866C68.6387 32.0214 68.2833 32.0887 67.8875 32.0887C67.3927 32.0887 66.9586 31.9922 66.5853 31.799C66.2164 31.6059 65.9285 31.3476 65.7216 31.0242C65.5192 30.6963 65.418 30.3303 65.418 29.926C65.418 29.5352 65.4945 29.1916 65.6474 28.8952C65.8003 28.5943 66.0208 28.3449 66.3086 28.1473C66.5965 27.9452 66.9429 27.7925 67.3477 27.6892C67.7525 27.5859 68.2045 27.5343 68.7039 27.5343H70.1545Z" fill="#334059"/>
<path d="M22.1729 63.7319V70.4439H21.2957V63.7319H22.1729ZM24.3334 63.7319V64.4603H19.1399V63.7319H24.3334ZM25.6168 69.0931L27.9204 65.456H28.7791V70.4439H27.9204V66.8067L25.6168 70.4439H24.7674V65.456H25.6168V69.0931ZM33.4787 65.456V66.1613H30.9534V65.456H33.4787ZM31.0781 65.456V70.4439H30.224V65.456H31.0781ZM34.2357 65.456V70.4439H33.3771V65.456H34.2357ZM38.0259 70.4439V65.456H38.88V69.7432H41.1789V65.456H42.0376V70.4439H38.0259ZM42.6285 69.7432L42.5454 71.9236H41.7837V70.4439H41.1328V69.7432H42.6285ZM45.6292 70.5361C45.2814 70.5361 44.966 70.4776 44.6829 70.3608C44.4028 70.241 44.1612 70.0735 43.9581 69.8584C43.758 69.6433 43.6041 69.3882 43.4964 69.0931C43.3887 68.7982 43.3348 68.4755 43.3348 68.1251V67.9315C43.3348 67.5258 43.3949 67.1647 43.5149 66.8482C43.6349 66.5286 43.798 66.2581 44.0043 66.0368C44.2104 65.8156 44.4443 65.6481 44.7059 65.5344C44.9675 65.4207 45.2384 65.3638 45.5184 65.3638C45.8755 65.3638 46.1832 65.4253 46.4417 65.5482C46.7033 65.6712 46.9172 65.8432 47.0834 66.0645C47.2496 66.2827 47.3727 66.5409 47.4528 66.8389C47.5328 67.134 47.5728 67.4567 47.5728 67.807V68.1897H43.8427V67.4936H46.7187V67.429C46.7064 67.2077 46.6603 66.9926 46.5803 66.7837C46.5033 66.5747 46.3802 66.4026 46.2109 66.2673C46.0416 66.1321 45.8108 66.0645 45.5184 66.0645C45.3245 66.0645 45.146 66.106 44.983 66.189C44.8198 66.2689 44.6797 66.3888 44.5628 66.5485C44.4459 66.7084 44.3551 66.9035 44.2904 67.134C44.2258 67.3645 44.1935 67.6303 44.1935 67.9315V68.1251C44.1935 68.3618 44.2258 68.5846 44.2904 68.7935C44.3581 68.9995 44.4551 69.1807 44.5813 69.3375C44.7106 69.4942 44.866 69.6172 45.0475 69.7063C45.2322 69.7954 45.4415 69.84 45.6754 69.84C45.977 69.84 46.2325 69.7785 46.4417 69.6556C46.651 69.5327 46.8342 69.3682 46.9911 69.1624L47.5081 69.5726C47.4004 69.7355 47.2635 69.8907 47.0973 70.0382C46.9311 70.1857 46.7264 70.3056 46.4833 70.3977C46.2432 70.49 45.9585 70.5361 45.6292 70.5361ZM51.9584 67.618V68.3095H49.3178V67.618H51.9584ZM49.4979 65.456V70.4439H48.6438V65.456H49.4979ZM52.6509 65.456V70.4439H51.7923V65.456H52.6509ZM54.7283 67.1709H56.2287C56.6318 67.1709 56.9719 67.2416 57.2489 67.383C57.5259 67.5212 57.7352 67.7133 57.8768 67.9591C58.0214 68.2019 58.0937 68.4785 58.0937 68.7889C58.0937 69.0194 58.0537 69.2361 57.9737 69.4389C57.8936 69.6387 57.7736 69.8138 57.6136 69.9644C57.4566 70.115 57.2612 70.2333 57.0273 70.3194C56.7965 70.4024 56.5303 70.4439 56.2287 70.4439H54.1051V65.456H54.9591V69.7432H56.2287C56.4749 69.7432 56.6718 69.6986 56.8196 69.6095C56.9673 69.5204 57.0735 69.4051 57.1381 69.2637C57.2027 69.1223 57.235 68.9748 57.235 68.8212C57.235 68.6706 57.2027 68.5231 57.1381 68.3786C57.0735 68.2342 56.9673 68.1143 56.8196 68.0191C56.6718 67.9207 56.4749 67.8716 56.2287 67.8716H54.7283V67.1709ZM59.8711 65.456V70.4439H59.017V65.456H59.8711Z" fill="#6F7C98"/>
<path d="M21.0909 78.0691H202.909C203.913 78.0691 204.727 78.8817 204.727 79.8847V108.934C204.727 109.937 203.913 110.749 202.909 110.749H21.0909C20.0867 110.749 19.2727 109.937 19.2727 108.934V79.8847C19.2727 78.8817 20.0867 78.0691 21.0909 78.0691Z" stroke="#DAE4EE"/>
<mask id="mask1_72_5684" style="mask-type:luminance" maskUnits="userSpaceOnUse" x="189" y="92" width="6" height="4">
<path d="M194.909 92.9568H189.091V95.8617H194.909V92.9568Z" fill="white"/>
</mask>
<g mask="url(#mask1_72_5684)">
<path d="M189.091 92.9568L192 95.8617L194.909 92.9568H189.091Z" fill="#909EBB"/>
</g>
<path d="M36.0455 93.7825V94.4506H32.6875V93.7825H36.0455ZM32.8154 91.1187V97.3141H31.9929V91.1187H32.8154ZM36.7614 91.1187V97.3141H35.9432V91.1187H36.7614ZM40.8225 96.5269V94.1565C40.8225 93.9749 40.7856 93.8181 40.7117 93.6844C40.6407 93.5479 40.5327 93.4433 40.3878 93.3693C40.243 93.2959 40.064 93.2589 39.8509 93.2589C39.652 93.2589 39.4773 93.293 39.3267 93.3613C39.179 93.4288 39.0625 93.5181 38.9774 93.6293C38.895 93.7396 38.8537 93.8587 38.8537 93.9866H38.0654C38.0654 93.8217 38.108 93.659 38.1932 93.4971C38.2784 93.3351 38.4006 93.1892 38.5597 93.0592C38.7216 92.9255 38.9148 92.8202 39.1392 92.744C39.3665 92.6648 39.6194 92.6249 39.8978 92.6249C40.233 92.6249 40.5285 92.6815 40.7841 92.7948C41.0427 92.9088 41.2443 93.0802 41.3893 93.3097C41.537 93.537 41.6108 93.8217 41.6108 94.1652V96.3098C41.6108 96.463 41.6236 96.6264 41.6492 96.7992C41.6776 96.9721 41.7188 97.1209 41.7728 97.2459V97.3141H40.9503C40.9106 97.2233 40.8793 97.1028 40.8566 96.9525C40.8339 96.7992 40.8225 96.6576 40.8225 96.5269ZM40.9589 94.5225L40.9674 95.0759H40.1705C39.9461 95.0759 39.7458 95.0941 39.5696 95.1311C39.3935 95.1652 39.2458 95.2175 39.1264 95.2887C39.0072 95.3598 38.9163 95.4492 38.8537 95.5567C38.7912 95.662 38.76 95.7854 38.76 95.927C38.76 96.0715 38.7926 96.2037 38.858 96.3228C38.9233 96.4419 39.0214 96.5371 39.152 96.6075C39.2856 96.6758 39.4489 96.7099 39.6421 96.7099C39.8835 96.7099 40.0966 96.6591 40.2813 96.5567C40.4659 96.4543 40.6123 96.3301 40.7202 96.1819C40.831 96.0345 40.8907 95.8914 40.8992 95.7527L41.2358 96.1311C41.216 96.2502 41.162 96.3824 41.0739 96.5269C40.9859 96.6714 40.868 96.8108 40.7202 96.9437C40.5753 97.0745 40.402 97.1834 40.2003 97.2713C40.0015 97.357 39.7771 97.3991 39.527 97.3991C39.2145 97.3991 38.9404 97.3381 38.7046 97.2161C38.4716 97.0941 38.2898 96.9314 38.1592 96.7266C38.0313 96.5196 37.9674 96.2887 37.9674 96.0331C37.9674 95.7861 38.0157 95.5697 38.1123 95.3824C38.2088 95.1921 38.348 95.0345 38.5299 94.9096C38.7117 94.7825 38.9304 94.6859 39.1862 94.6206C39.4418 94.5552 39.7273 94.5225 40.0427 94.5225H40.9589ZM46.3282 92.7099V97.3141H45.5398V92.7099H46.3282ZM46.0597 94.8246V95.4717C45.9006 95.5312 45.7387 95.585 45.5739 95.6336C45.412 95.6787 45.2401 95.7157 45.0583 95.744C44.8793 95.7694 44.6847 95.7825 44.4744 95.7825C44.1108 95.7825 43.7955 95.7201 43.5285 95.5951C43.2614 95.4673 43.0555 95.2756 42.9106 95.0207C42.7656 94.7622 42.6932 94.4375 42.6932 94.0461V92.7011H43.4816V94.0461C43.4816 94.3017 43.5199 94.5087 43.5966 94.667C43.6734 94.8261 43.7856 94.9437 43.9333 95.0207C44.081 95.094 44.2614 95.1311 44.4744 95.1311C44.679 95.1311 44.8708 95.1187 45.0498 95.0926C45.2316 95.0643 45.4048 95.028 45.5696 94.9822C45.7373 94.9372 45.9006 94.8842 46.0597 94.8246ZM50.3168 96.5269V94.1565C50.3168 93.9749 50.2799 93.8181 50.206 93.6844C50.135 93.5479 50.027 93.4433 49.8822 93.3693C49.7373 93.2959 49.5583 93.2589 49.3452 93.2589C49.1464 93.2589 48.9716 93.293 48.8211 93.3613C48.6734 93.4288 48.5568 93.5181 48.4716 93.6293C48.3893 93.7396 48.348 93.8587 48.348 93.9866H47.5597C47.5597 93.8217 47.6023 93.659 47.6875 93.4971C47.7728 93.3351 47.895 93.1892 48.054 93.0592C48.216 92.9255 48.4091 92.8202 48.6336 92.744C48.8608 92.6648 49.1136 92.6249 49.3921 92.6249C49.7273 92.6249 50.0227 92.6815 50.2784 92.7948C50.537 92.9088 50.7387 93.0802 50.8835 93.3097C51.0313 93.537 51.1051 93.8217 51.1051 94.1652V96.3098C51.1051 96.463 51.1179 96.6264 51.1435 96.7992C51.1719 96.9721 51.2131 97.1209 51.2671 97.2459V97.3141H50.4446C50.4048 97.2233 50.3736 97.1028 50.3509 96.9525C50.3282 96.7992 50.3168 96.6576 50.3168 96.5269ZM50.4531 94.5225L50.4617 95.0759H49.6648C49.4404 95.0759 49.2401 95.0941 49.064 95.1311C48.8878 95.1652 48.7401 95.2175 48.6208 95.2887C48.5015 95.3598 48.4106 95.4492 48.348 95.5567C48.2856 95.662 48.2543 95.7854 48.2543 95.927C48.2543 96.0715 48.287 96.2037 48.3523 96.3228C48.4176 96.4419 48.5157 96.5371 48.6464 96.6075C48.7799 96.6758 48.9432 96.7099 49.1364 96.7099C49.3779 96.7099 49.591 96.6591 49.7756 96.5567C49.9603 96.4543 50.1066 96.3301 50.2145 96.1819C50.3254 96.0345 50.385 95.8914 50.3935 95.7527L50.7302 96.1311C50.7103 96.2502 50.6563 96.3824 50.5682 96.5269C50.4802 96.6714 50.3622 96.8108 50.2145 96.9437C50.0696 97.0745 49.8963 97.1834 49.6947 97.2713C49.4958 97.357 49.2713 97.3991 49.0214 97.3991C48.7088 97.3991 48.4347 97.3381 48.1989 97.2161C47.9659 97.0941 47.7841 96.9314 47.6534 96.7266C47.5256 96.5196 47.4617 96.2887 47.4617 96.0331C47.4617 95.7861 47.51 95.5697 47.6066 95.3824C47.7032 95.1921 47.8424 95.0345 48.0242 94.9096C48.206 94.7825 48.4248 94.6859 48.6804 94.6206C48.9361 94.5552 49.2216 94.5225 49.537 94.5225H50.4531ZM55.4262 92.7099V93.3613H53.1975V92.7099H55.4262ZM56.1208 92.7099V97.3141H55.3324V92.7099H56.1208ZM53.0057 92.7099H53.7984L53.679 94.9314C53.6591 95.2741 53.6264 95.5777 53.581 95.8421C53.5384 96.1028 53.4787 96.3272 53.402 96.5138C53.3282 96.7012 53.2344 96.8544 53.1208 96.9735C53.01 97.0897 52.8765 97.1769 52.7202 97.2335C52.564 97.2873 52.3835 97.3141 52.179 97.3141H51.9318V96.6206L52.1023 96.6075C52.2245 96.5995 52.3282 96.5712 52.4134 96.5225C52.5015 96.4746 52.5753 96.4034 52.635 96.3098C52.6947 96.2132 52.743 96.0897 52.7799 95.9394C52.8197 95.789 52.8495 95.6104 52.8694 95.4034C52.8921 95.1965 52.9091 94.9553 52.9205 94.6801L53.0057 92.7099ZM58.0384 94.293H59.4233C59.7955 94.293 60.1094 94.3584 60.3651 94.4884C60.6208 94.6162 60.8139 94.7934 60.9446 95.0207C61.0782 95.2444 61.1449 95.5 61.1449 95.7861C61.1449 95.9989 61.108 96.1994 61.0342 96.3867C60.9603 96.5712 60.8495 96.7324 60.7017 96.8719C60.5568 97.0106 60.3765 97.1195 60.1606 97.1994C59.9475 97.2756 59.7017 97.3141 59.4233 97.3141H57.4631V92.7099H58.2515V96.667H59.4233C59.6506 96.667 59.8324 96.6264 59.9688 96.5436C60.1051 96.4615 60.2032 96.3555 60.2628 96.2248C60.3225 96.0941 60.3523 95.9583 60.3523 95.8166C60.3523 95.6772 60.3225 95.5414 60.2628 95.4078C60.2032 95.2742 60.1051 95.1638 59.9688 95.0759C59.8324 94.9851 59.6506 94.9394 59.4233 94.9394H58.0384V94.293ZM65.2571 94.7055V95.3439H62.8197V94.7055H65.2571ZM62.9859 92.7099V97.3141H62.1975V92.7099H62.9859ZM65.8963 92.7099V97.3141H65.1038V92.7099H65.8963ZM69.885 96.5269V94.1565C69.885 93.9749 69.848 93.8181 69.7742 93.6844C69.7032 93.5479 69.5952 93.4433 69.4503 93.3693C69.3054 93.2959 69.1264 93.2589 68.9134 93.2589C68.7145 93.2589 68.5398 93.293 68.3893 93.3613C68.2415 93.4288 68.1251 93.5181 68.0398 93.6293C67.9574 93.7396 67.9163 93.8587 67.9163 93.9866H67.1279C67.1279 93.8217 67.1705 93.659 67.2558 93.4971C67.341 93.3351 67.4631 93.1892 67.6222 93.0592C67.7841 92.9255 67.9774 92.8202 68.2017 92.744C68.429 92.6648 68.6819 92.6249 68.9603 92.6249C69.2955 92.6249 69.591 92.6815 69.8467 92.7948C70.1051 92.9088 70.3069 93.0802 70.4518 93.3097C70.5995 93.537 70.6734 93.8217 70.6734 94.1652V96.3098C70.6734 96.463 70.6862 96.6264 70.7117 96.7992C70.7401 96.9721 70.7813 97.1209 70.8352 97.2459V97.3141H70.0128C69.9731 97.2233 69.9418 97.1028 69.9191 96.9525C69.8963 96.7992 69.885 96.6576 69.885 96.5269ZM70.0214 94.5225L70.0299 95.0759H69.233C69.0086 95.0759 68.8083 95.0941 68.6321 95.1311C68.4561 95.1652 68.3083 95.2175 68.189 95.2887C68.0697 95.3598 67.9787 95.4492 67.9163 95.5567C67.8537 95.662 67.8225 95.7854 67.8225 95.927C67.8225 96.0715 67.8552 96.2037 67.9205 96.3228C67.9859 96.4419 68.0838 96.5371 68.2145 96.6075C68.348 96.6758 68.5114 96.7099 68.7046 96.7099C68.9461 96.7099 69.1592 96.6591 69.3438 96.5567C69.5285 96.4543 69.6747 96.3301 69.7827 96.1819C69.8935 96.0345 69.9531 95.8914 69.9617 95.7527L70.2984 96.1311C70.2785 96.2502 70.2245 96.3824 70.1364 96.5269C70.0483 96.6714 69.9305 96.8108 69.7827 96.9437C69.6379 97.0745 69.4646 97.1834 69.2628 97.2713C69.064 97.357 68.8395 97.3991 68.5895 97.3991C68.2771 97.3991 68.0029 97.3381 67.7671 97.2161C67.5342 97.0941 67.3523 96.9314 67.2216 96.7266C67.0938 96.5196 67.0299 96.2887 67.0299 96.0331C67.0299 95.7861 67.0782 95.5697 67.1747 95.3824C67.2713 95.1921 67.4106 95.0345 67.5924 94.9096C67.7742 94.7825 67.9929 94.6859 68.2486 94.6206C68.5043 94.5552 68.7898 94.5225 69.1051 94.5225H70.0214ZM72.8466 95.1187H73.699L72.3651 97.3141H71.5128L72.8466 95.1187ZM73.507 92.7099H75.4335V97.3141H74.6451V93.3482H73.507C73.283 93.3482 73.0997 93.3867 72.9571 93.463C72.8153 93.537 72.7117 93.6336 72.6464 93.7527C72.581 93.8718 72.5483 93.9953 72.5483 94.1224C72.5483 94.2473 72.5782 94.3678 72.6379 94.4848C72.6975 94.598 72.7913 94.6917 72.9193 94.7651C73.0466 94.8391 73.2117 94.8762 73.4131 94.8762H74.8582V95.5225H73.4131C73.1491 95.5225 72.915 95.4869 72.7103 95.4165C72.5057 95.3453 72.3324 95.2473 72.1904 95.1224C72.0483 94.9953 71.9404 94.8464 71.8665 94.6757C71.7926 94.5029 71.7558 94.3155 71.7558 94.1144C71.7558 93.9125 71.7941 93.7273 71.8708 93.5566C71.9503 93.3867 72.064 93.2378 72.2117 93.11C72.3622 92.9822 72.5455 92.8841 72.7615 92.8166C72.9804 92.7454 73.2284 92.7099 73.507 92.7099ZM78.8379 94.8377V94.7948C78.8379 94.1768 78.9077 93.6176 79.0466 93.1187C79.1862 92.6162 79.3637 92.1768 79.5797 91.7992C79.7957 91.4223 80.0226 91.11 80.2611 90.8631C80.5004 90.6132 80.7201 90.4331 80.9222 90.3228L81.088 90.842C80.9208 90.9698 80.7499 91.1456 80.5768 91.3692C80.4066 91.5936 80.2488 91.8689 80.104 92.195C79.9615 92.521 79.8466 92.9001 79.7586 93.3315C79.6706 93.7622 79.6262 94.2473 79.6262 94.7869V94.8464C79.6262 95.3853 79.6706 95.8718 79.7586 96.3054C79.8466 96.7368 79.9615 97.1173 80.104 97.4463C80.2488 97.7753 80.4066 98.0549 80.5768 98.2844C80.7499 98.5167 80.9208 98.7012 81.088 98.8377L80.9222 99.3141C80.7201 99.2038 80.5004 99.0236 80.2611 98.7738C80.0226 98.5269 79.7957 98.2146 79.5797 97.8377C79.3637 97.463 79.1862 97.0251 79.0466 96.5225C78.9077 96.0207 78.8379 95.4586 78.8379 94.8377ZM84.5099 96.2676L86.0779 92.7099H86.8364L84.7826 97.3141H84.2371L82.1921 92.7099H82.9506L84.5099 96.2676ZM82.7201 92.7099V97.3141H81.9317V92.7099H82.7201ZM86.2742 97.3141V92.7099H87.067V97.3141H86.2742ZM91.0553 96.5269V94.1565C91.0553 93.9749 91.0182 93.8181 90.9448 93.6844C90.8735 93.5479 90.7659 93.4433 90.6211 93.3693C90.4757 93.2959 90.2968 93.2589 90.0837 93.2589C89.8851 93.2589 89.7106 93.293 89.5601 93.3613C89.4117 93.4288 89.2953 93.5181 89.2102 93.6293C89.128 93.7396 89.0866 93.8587 89.0866 93.9866H88.2982C88.2982 93.8217 88.3411 93.659 88.4262 93.4971C88.5113 93.3351 88.6335 93.1892 88.7928 93.0592C88.9542 92.9255 89.1477 92.8202 89.3724 92.744C89.5993 92.6648 89.8524 92.6249 90.131 92.6249C90.4662 92.6249 90.7615 92.6815 91.0168 92.7948C91.2757 92.9088 91.4771 93.0802 91.6219 93.3097C91.7702 93.537 91.8437 93.8217 91.8437 94.1652V96.3098C91.8437 96.463 91.8568 96.6264 91.8822 96.7992C91.9106 96.9721 91.9521 97.1209 92.0059 97.2459V97.3141H91.1833C91.1433 97.2233 91.112 97.1028 91.0895 96.9525C91.067 96.7992 91.0553 96.6576 91.0553 96.5269ZM91.1921 94.5225L91.2001 95.0759H90.4037C90.179 95.0759 89.979 95.0941 89.803 95.1311C89.6262 95.1652 89.4786 95.2175 89.3593 95.2887C89.24 95.3598 89.1491 95.4492 89.0866 95.5567C89.024 95.662 88.9928 95.7854 88.9928 95.927C88.9928 96.0715 89.0255 96.2037 89.091 96.3228C89.1564 96.4419 89.2546 96.5371 89.3848 96.6075C89.5186 96.6758 89.6815 96.7099 89.875 96.7099C90.1164 96.7099 90.3295 96.6591 90.5142 96.5567C90.699 96.4543 90.8451 96.3301 90.9535 96.1819C91.064 96.0345 91.1237 95.8914 91.1324 95.7527L91.4691 96.1311C91.4488 96.2502 91.395 96.3824 91.307 96.5269C91.219 96.6714 91.1011 96.8108 90.9535 96.9437C90.808 97.0745 90.635 97.1834 90.4335 97.2713C90.2342 97.357 90.0102 97.3991 89.76 97.3991C89.4473 97.3991 89.1731 97.3381 88.9375 97.2161C88.7048 97.0941 88.523 96.9314 88.392 96.7266C88.264 96.5196 88.2001 96.2887 88.2001 96.0331C88.2001 95.7861 88.2488 95.5697 88.3455 95.3824C88.4415 95.1921 88.5811 95.0345 88.763 94.9096C88.9448 94.7825 89.1637 94.6859 89.419 94.6206C89.675 94.5552 89.96 94.5225 90.2757 94.5225H91.1921ZM93.9404 92.7099V97.3141H93.152V92.7099H93.9404ZM96.9659 92.7099L94.7797 95.3482H93.6764L93.5571 94.659H94.4604L96.0073 92.7099H96.9659ZM96.1179 97.3141L94.4219 95.2291L94.9288 94.659L97.1193 97.3141H96.1179ZM99.5826 96.7528C99.7702 96.7528 99.9433 96.7143 100.103 96.6373C100.261 96.561 100.392 96.4557 100.495 96.3228C100.596 96.1863 100.655 96.0316 100.669 95.8588H101.419C101.405 96.1311 101.313 96.3853 101.142 96.6206C100.975 96.853 100.754 97.0418 100.482 97.1863C100.209 97.3286 99.9091 97.3991 99.5826 97.3991C99.2357 97.3991 98.9331 97.3381 98.6749 97.2161C98.419 97.0941 98.2059 96.927 98.0357 96.7143C97.8677 96.5015 97.7419 96.2575 97.656 95.9822C97.5739 95.7041 97.5324 95.4107 97.5324 95.1013V94.9227C97.5324 94.6133 97.5739 94.3213 97.656 94.0461C97.7419 93.768 97.8677 93.5225 98.0357 93.3097C98.2059 93.0969 98.419 92.9299 98.6749 92.8079C98.9331 92.6859 99.2357 92.6249 99.5826 92.6249C99.9433 92.6249 100.258 92.699 100.529 92.8464C100.799 92.9909 101.01 93.1892 101.164 93.4419C101.319 93.6917 101.405 93.9749 101.419 94.293H100.669C100.655 94.1028 100.601 93.9314 100.507 93.7781C100.416 93.6249 100.291 93.5029 100.132 93.4121C99.9761 93.3184 99.7928 93.272 99.5826 93.272C99.3411 93.272 99.1375 93.3199 98.9731 93.4165C98.811 93.5102 98.6822 93.638 98.5855 93.7992C98.4917 93.9582 98.4233 94.1354 98.3804 94.3315C98.3411 94.524 98.3208 94.7215 98.3208 94.9227V95.1013C98.3208 95.3025 98.3411 95.5015 98.3804 95.6968C98.4204 95.8929 98.4873 96.0701 98.5811 96.2291C98.6779 96.3882 98.8066 96.5153 98.9688 96.6119C99.1339 96.7055 99.3382 96.7528 99.5826 96.7528ZM103.158 96.0672L105.284 92.7099H106.076V97.3141H105.284V93.9568L103.158 97.3141H102.374V92.7099H103.158V96.0672ZM109.993 96.2676L111.561 92.7099H112.319L110.266 97.3141H109.72L107.675 92.7099H108.433L109.993 96.2676ZM108.203 92.7099V97.3141H107.415V92.7099H108.203ZM111.757 97.3141V92.7099H112.55V97.3141H111.757ZM116.538 96.5269V94.1565C116.538 93.9749 116.501 93.8181 116.428 93.6844C116.356 93.5479 116.249 93.4433 116.104 93.3693C115.959 93.2959 115.78 93.2589 115.567 93.2589C115.368 93.2589 115.194 93.293 115.043 93.3613C114.895 93.4288 114.778 93.5181 114.693 93.6293C114.611 93.7396 114.57 93.8587 114.57 93.9866H113.781C113.781 93.8217 113.824 93.659 113.909 93.4971C113.994 93.3351 114.116 93.1892 114.276 93.0592C114.438 92.9255 114.631 92.8202 114.855 92.744C115.082 92.6648 115.335 92.6249 115.614 92.6249C115.949 92.6249 116.244 92.6815 116.5 92.7948C116.759 92.9088 116.96 93.0802 117.106 93.3097C117.253 93.537 117.327 93.8217 117.327 94.1652V96.3098C117.327 96.463 117.34 96.6264 117.365 96.7992C117.394 96.9721 117.435 97.1209 117.489 97.2459V97.3141H116.666C116.626 97.2233 116.595 97.1028 116.572 96.9525C116.55 96.7992 116.538 96.6576 116.538 96.5269ZM116.675 94.5225L116.683 95.0759H115.887C115.662 95.0759 115.462 95.0941 115.286 95.1311C115.109 95.1652 114.962 95.2175 114.842 95.2887C114.723 95.3598 114.632 95.4492 114.57 95.5567C114.507 95.662 114.476 95.7854 114.476 95.927C114.476 96.0715 114.508 96.2037 114.574 96.3228C114.639 96.4419 114.737 96.5371 114.868 96.6075C115.001 96.6758 115.165 96.7099 115.358 96.7099C115.599 96.7099 115.812 96.6591 115.997 96.5567C116.182 96.4543 116.328 96.3301 116.436 96.1819C116.547 96.0345 116.607 95.8914 116.615 95.7527L116.952 96.1311C116.932 96.2502 116.878 96.3824 116.79 96.5269C116.702 96.6714 116.584 96.8108 116.436 96.9437C116.291 97.0745 116.118 97.1834 115.916 97.2713C115.717 97.357 115.493 97.3991 115.243 97.3991C114.93 97.3991 114.656 97.3381 114.42 97.2161C114.188 97.0941 114.006 96.9314 113.875 96.7266C113.747 96.5196 113.683 96.2887 113.683 96.0331C113.683 95.7861 113.732 95.5697 113.828 95.3824C113.924 95.1921 114.064 95.0345 114.246 94.9096C114.428 94.7825 114.647 94.6859 114.902 94.6206C115.158 94.5552 115.443 94.5225 115.759 94.5225H116.675ZM121.648 92.7099V93.3613H119.419V92.7099H121.648ZM122.343 92.7099V97.3141H121.554V92.7099H122.343ZM119.228 92.7099H120.02L119.9 94.9314C119.881 95.2741 119.848 95.5777 119.803 95.8421C119.76 96.1028 119.7 96.3272 119.623 96.5138C119.55 96.7012 119.456 96.8544 119.343 96.9735C119.231 97.0897 119.098 97.1769 118.942 97.2335C118.785 97.2873 118.605 97.3141 118.401 97.3141H118.154V96.6206L118.324 96.6075C118.446 96.5995 118.55 96.5712 118.635 96.5225C118.723 96.4746 118.797 96.4034 118.857 96.3098C118.916 96.2132 118.964 96.0897 119.002 95.9394C119.042 95.789 119.071 95.6104 119.091 95.4034C119.114 95.1965 119.131 94.9553 119.142 94.6801L119.228 92.7099ZM124.26 94.293H125.645C126.017 94.293 126.331 94.3584 126.587 94.4884C126.842 94.6162 127.036 94.7934 127.167 95.0207C127.3 95.2444 127.367 95.5 127.367 95.7861C127.367 95.9989 127.33 96.1994 127.256 96.3867C127.182 96.5712 127.071 96.7324 126.924 96.8719C126.778 97.0106 126.598 97.1195 126.382 97.1994C126.169 97.2756 125.924 97.3141 125.645 97.3141H123.684V92.7099H124.473V96.667H125.645C125.872 96.667 126.054 96.6264 126.191 96.5436C126.327 96.4615 126.425 96.3555 126.484 96.2248C126.544 96.0941 126.574 95.9583 126.574 95.8166C126.574 95.6772 126.544 95.5414 126.484 95.4078C126.425 95.2742 126.327 95.1638 126.191 95.0759C126.054 94.9851 125.872 94.9394 125.645 94.9394H124.26V94.293ZM131.479 94.7055V95.3439H129.042V94.7055H131.479ZM129.207 92.7099V97.3141H128.419V92.7099H129.207ZM132.118 92.7099V97.3141H131.325V92.7099H132.118ZM136.106 96.5269V94.1565C136.106 93.9749 136.07 93.8181 135.996 93.6844C135.924 93.5479 135.817 93.4433 135.672 93.3693C135.527 93.2959 135.348 93.2589 135.135 93.2589C134.936 93.2589 134.761 93.293 134.611 93.3613C134.463 93.4288 134.347 93.5181 134.261 93.6293C134.179 93.7396 134.137 93.8587 134.137 93.9866H133.349C133.349 93.8217 133.392 93.659 133.477 93.4971C133.562 93.3351 133.684 93.1892 133.844 93.0592C134.006 92.9255 134.199 92.8202 134.423 92.744C134.651 92.6648 134.903 92.6249 135.182 92.6249C135.517 92.6249 135.812 92.6815 136.068 92.7948C136.327 92.9088 136.529 93.0802 136.674 93.3097C136.821 93.537 136.895 93.8217 136.895 94.1652V96.3098C136.895 96.463 136.908 96.6264 136.933 96.7992C136.962 96.9721 137.003 97.1209 137.057 97.2459V97.3141H136.234C136.195 97.2233 136.164 97.1028 136.14 96.9525C136.118 96.7992 136.106 96.6576 136.106 96.5269ZM136.243 94.5225L136.252 95.0759H135.455C135.23 95.0759 135.03 95.0941 134.854 95.1311C134.678 95.1652 134.53 95.2175 134.41 95.2887C134.291 95.3598 134.2 95.4492 134.137 95.5567C134.076 95.662 134.044 95.7854 134.044 95.927C134.044 96.0715 134.076 96.2037 134.142 96.3228C134.207 96.4419 134.306 96.5371 134.436 96.6075C134.57 96.6758 134.733 96.7099 134.926 96.7099C135.167 96.7099 135.38 96.6591 135.565 96.5567C135.75 96.4543 135.896 96.3301 136.004 96.1819C136.115 96.0345 136.175 95.8914 136.183 95.7527L136.52 96.1311C136.5 96.2502 136.446 96.3824 136.358 96.5269C136.27 96.6714 136.152 96.8108 136.004 96.9437C135.86 97.0745 135.686 97.1834 135.484 97.2713C135.286 97.357 135.061 97.3991 134.811 97.3991C134.499 97.3991 134.225 97.3381 133.988 97.2161C133.756 97.0941 133.574 96.9314 133.443 96.7266C133.316 96.5196 133.252 96.2887 133.252 96.0331C133.252 95.7861 133.3 95.5697 133.396 95.3824C133.493 95.1921 133.632 95.0345 133.814 94.9096C133.996 94.7825 134.215 94.6859 134.47 94.6206C134.726 94.5552 135.012 94.5225 135.327 94.5225H136.243ZM139.068 95.1187H139.921L138.587 97.3141H137.735L139.068 95.1187ZM139.729 92.7099H141.655V97.3141H140.866V93.3482H139.729C139.504 93.3482 139.321 93.3867 139.179 93.463C139.037 93.537 138.933 93.6336 138.868 93.7527C138.803 93.8718 138.77 93.9953 138.77 94.1224C138.77 94.2473 138.8 94.3678 138.86 94.4848C138.919 94.598 139.013 94.6917 139.14 94.7651C139.268 94.8391 139.434 94.8762 139.635 94.8762H141.079V95.5225H139.635C139.371 95.5225 139.136 95.4869 138.932 95.4165C138.727 95.3453 138.554 95.2473 138.412 95.1224C138.27 94.9953 138.162 94.8464 138.088 94.6757C138.015 94.5029 137.978 94.3155 137.978 94.1144C137.978 93.9125 138.015 93.7273 138.092 93.5566C138.172 93.3867 138.286 93.2378 138.433 93.11C138.584 92.9822 138.767 92.8841 138.983 92.8166C139.202 92.7454 139.45 92.7099 139.729 92.7099ZM144.74 94.7948V94.8377C144.74 95.4586 144.671 96.0207 144.531 96.5225C144.392 97.0251 144.215 97.463 143.999 97.8377C143.783 98.2146 143.556 98.5269 143.317 98.7738C143.078 99.0236 142.858 99.2038 142.656 99.3141L142.49 98.8377C142.658 98.7099 142.827 98.5313 142.997 98.3011C143.167 98.0745 143.325 97.7934 143.47 97.4586C143.615 97.1268 143.732 96.744 143.82 96.3098C143.908 95.8733 143.952 95.3853 143.952 94.8464V94.7869C143.952 94.2473 143.905 93.7607 143.811 93.3271C143.717 92.89 143.595 92.5058 143.444 92.1739C143.297 91.842 143.138 91.5624 142.967 91.3358C142.8 91.1056 142.641 90.9284 142.49 90.8035L142.656 90.3228C142.858 90.4331 143.078 90.6132 143.317 90.8631C143.556 91.11 143.783 91.4223 143.999 91.7992C144.215 92.1768 144.392 92.6162 144.531 93.1187C144.671 93.6176 144.74 94.1768 144.74 94.7948ZM148.2 97.3141V92.7099H148.988V96.667H151.111V92.7099H151.903V97.3141H148.2ZM152.449 96.667L152.372 98.6801H151.669V97.3141H151.068V96.667H152.449ZM155.219 97.3991C154.897 97.3991 154.607 97.3453 154.346 97.2379C154.087 97.1268 153.863 96.9721 153.676 96.7738C153.492 96.5748 153.349 96.3395 153.25 96.0672C153.151 95.7949 153.101 95.4971 153.101 95.1739V94.9953C153.101 94.6206 153.156 94.2872 153.267 93.9953C153.378 93.6997 153.529 93.4506 153.719 93.2458C153.909 93.0417 154.125 92.8871 154.367 92.7825C154.608 92.6772 154.858 92.6249 155.116 92.6249C155.446 92.6249 155.73 92.6815 155.969 92.7948C156.21 92.9088 156.408 93.0672 156.561 93.272C156.714 93.4731 156.828 93.7113 156.902 93.9866C156.976 94.2589 157.013 94.5566 157.013 94.8798V95.2335H153.57V94.5908H156.225V94.5312C156.213 94.3272 156.17 94.1282 156.097 93.9357C156.025 93.7426 155.912 93.5835 155.756 93.4586C155.599 93.3344 155.386 93.272 155.116 93.272C154.938 93.272 154.772 93.3097 154.622 93.3867C154.471 93.46 154.343 93.5712 154.234 93.7186C154.127 93.866 154.043 94.0461 153.983 94.2589C153.924 94.4717 153.894 94.7171 153.894 94.9953V95.1739C153.894 95.3925 153.924 95.598 153.983 95.7905C154.045 95.9808 154.135 96.1485 154.252 96.293C154.371 96.4376 154.514 96.5509 154.682 96.6329C154.852 96.7157 155.046 96.7564 155.261 96.7564C155.54 96.7564 155.775 96.6997 155.969 96.5864C156.162 96.4732 156.331 96.3214 156.476 96.1311L156.954 96.5102C156.854 96.6605 156.727 96.8036 156.574 96.9394C156.42 97.0759 156.231 97.1863 156.007 97.2713C155.785 97.357 155.523 97.3991 155.219 97.3991ZM161.061 94.7055V95.3439H158.623V94.7055H161.061ZM158.79 92.7099V97.3141H158.002V92.7099H158.79ZM161.7 92.7099V97.3141H160.908V92.7099H161.7ZM165.689 96.5269V94.1565C165.689 93.9749 165.652 93.8181 165.578 93.6844C165.507 93.5479 165.399 93.4433 165.255 93.3693C165.109 93.2959 164.93 93.2589 164.717 93.2589C164.519 93.2589 164.344 93.293 164.194 93.3613C164.045 93.4288 163.929 93.5181 163.844 93.6293C163.762 93.7396 163.72 93.8587 163.72 93.9866H162.932C162.932 93.8217 162.975 93.659 163.06 93.4971C163.145 93.3351 163.267 93.1892 163.426 93.0592C163.588 92.9255 163.781 92.8202 164.006 92.744C164.233 92.6648 164.486 92.6249 164.764 92.6249C165.1 92.6249 165.395 92.6815 165.651 92.7948C165.909 92.9088 166.111 93.0802 166.256 93.3097C166.404 93.537 166.477 93.8217 166.477 94.1652V96.3098C166.477 96.463 166.49 96.6264 166.516 96.7992C166.544 96.9721 166.585 97.1209 166.639 97.2459V97.3141H165.817C165.777 97.2233 165.745 97.1028 165.723 96.9525C165.7 96.7992 165.689 96.6576 165.689 96.5269ZM165.826 94.5225L165.833 95.0759H165.037C164.812 95.0759 164.612 95.0941 164.436 95.1311C164.26 95.1652 164.112 95.2175 163.993 95.2887C163.874 95.3598 163.783 95.4492 163.72 95.5567C163.658 95.662 163.626 95.7854 163.626 95.927C163.626 96.0715 163.659 96.2037 163.724 96.3228C163.79 96.4419 163.888 96.5371 164.018 96.6075C164.152 96.6758 164.316 96.7099 164.508 96.7099C164.75 96.7099 164.963 96.6591 165.148 96.5567C165.332 96.4543 165.479 96.3301 165.587 96.1819C165.698 96.0345 165.757 95.8914 165.766 95.7527L166.103 96.1311C166.082 96.2502 166.028 96.3824 165.94 96.5269C165.852 96.6714 165.735 96.8108 165.587 96.9437C165.442 97.0745 165.268 97.1834 165.067 97.2713C164.868 97.357 164.644 97.3991 164.394 97.3991C164.081 97.3991 163.807 97.3381 163.571 97.2161C163.338 97.0941 163.156 96.9314 163.026 96.7266C162.898 96.5196 162.833 96.2887 162.833 96.0331C162.833 95.7861 162.882 95.5697 162.979 95.3824C163.076 95.1921 163.215 95.0345 163.396 94.9096C163.578 94.7825 163.797 94.6859 164.052 94.6206C164.308 94.5552 164.594 94.5225 164.909 94.5225H165.826ZM170.739 92.7099V97.3141H169.951V92.7099H170.739ZM173.764 92.7099L171.578 95.3482H170.474L170.355 94.659H171.258L172.805 92.7099H173.764ZM172.916 97.3141L171.22 95.2291L171.727 94.659L173.918 97.3141H172.916ZM174.301 95.0628V94.9655C174.301 94.6336 174.349 94.3257 174.446 94.0418C174.543 93.7556 174.682 93.5072 174.864 93.2974C175.046 93.0846 175.266 92.9197 175.524 92.8035C175.783 92.6844 176.073 92.6249 176.394 92.6249C176.717 92.6249 177.009 92.6844 177.267 92.8035C177.529 92.9197 177.75 93.0846 177.932 93.2974C178.116 93.5072 178.257 93.7556 178.354 94.0418C178.45 94.3257 178.499 94.6336 178.499 94.9655V95.0628C178.499 95.3947 178.45 95.7026 178.354 95.9866C178.257 96.2698 178.116 96.5182 177.932 96.731C177.75 96.9408 177.53 97.1057 177.271 97.2248C177.015 97.341 176.726 97.3991 176.402 97.3991C176.078 97.3991 175.787 97.341 175.529 97.2248C175.27 97.1057 175.048 96.9408 174.864 96.731C174.682 96.5182 174.543 96.2698 174.446 95.9866C174.349 95.7026 174.301 95.3947 174.301 95.0628ZM175.09 94.9655V95.0628C175.09 95.293 175.116 95.5102 175.17 95.7142C175.225 95.9154 175.305 96.0941 175.413 96.2502C175.524 96.4063 175.662 96.5298 175.827 96.6206C175.991 96.7084 176.183 96.7528 176.402 96.7528C176.618 96.7528 176.807 96.7084 176.969 96.6206C177.134 96.5298 177.27 96.4063 177.378 96.2502C177.486 96.0941 177.567 95.9154 177.621 95.7142C177.678 95.5102 177.706 95.293 177.706 95.0628V94.9655C177.706 94.7382 177.678 94.524 177.621 94.3228C177.567 94.1187 177.484 93.9386 177.374 93.7825C177.266 93.6234 177.13 93.4985 176.964 93.4078C176.803 93.317 176.612 93.272 176.394 93.272C176.178 93.272 175.987 93.317 175.823 93.4078C175.66 93.4985 175.524 93.6234 175.413 93.7825C175.305 93.9386 175.225 94.1187 175.17 94.3228C175.116 94.524 175.09 94.7382 175.09 94.9655ZM179.5 96.8973C179.5 96.7636 179.541 96.6518 179.623 96.561C179.709 96.4673 179.831 96.4209 179.99 96.4209C180.149 96.4209 180.27 96.4673 180.352 96.561C180.438 96.6518 180.48 96.7636 180.48 96.8973C180.48 97.0273 180.438 97.1384 180.352 97.2291C180.27 97.3199 180.149 97.365 179.99 97.365C179.831 97.365 179.709 97.3199 179.623 97.2291C179.541 97.1384 179.5 97.0273 179.5 96.8973ZM181.802 96.8973C181.802 96.7636 181.842 96.6518 181.924 96.561C182.01 96.4673 182.132 96.4209 182.291 96.4209C182.45 96.4209 182.571 96.4673 182.653 96.561C182.739 96.6518 182.781 96.7636 182.781 96.8973C182.781 97.0273 182.739 97.1384 182.653 97.2291C182.571 97.3199 182.45 97.365 182.291 97.365C182.132 97.365 182.01 97.3199 181.924 97.2291C181.842 97.1384 181.802 97.0273 181.802 96.8973Z" fill="#334059"/>
<path d="M19.9709 124.735H20.8342L23.0362 130.206L25.2337 124.735H26.1015L23.3686 131.447H22.6946L19.9709 124.735ZM19.6893 124.735H20.451L20.5757 128.829V131.447H19.6893V124.735ZM25.6168 124.735H26.3786V131.447H25.4922V128.829L25.6168 124.735ZM28.7376 130.096L31.0412 126.459H31.8999V131.447H31.0412V127.81L28.7376 131.447H27.8882V126.459H28.7376V130.096ZM36.6594 128.621V129.312H34.0189V128.621H36.6594ZM34.1989 126.459V131.447H33.3448V126.459H34.1989ZM37.3519 126.459V131.447H36.4933V126.459H37.3519ZM39.6509 130.096L41.9546 126.459H42.8133V131.447H41.9546V127.81L39.6509 131.447H38.8015V126.459H39.6509V130.096ZM47.0558 130.312L48.7546 126.459H49.5764L47.3512 131.447H46.7603L44.5444 126.459H45.3661L47.0558 130.312ZM45.1168 126.459V131.447H44.2628V126.459H45.1168ZM48.967 131.447V126.459H49.8257V131.447H48.967ZM54.1467 130.594V128.026C54.1467 127.829 54.1066 127.659 54.0266 127.514C53.9497 127.367 53.8327 127.253 53.6758 127.174C53.5189 127.094 53.325 127.054 53.0941 127.054C52.8787 127.054 52.6894 127.09 52.5263 127.164C52.3663 127.238 52.2401 127.335 52.1477 127.455C52.0585 127.574 52.0138 127.704 52.0138 127.842H51.1598C51.1598 127.664 51.206 127.487 51.2984 127.312C51.3906 127.136 51.523 126.978 51.6954 126.837C51.8708 126.692 52.08 126.579 52.3232 126.496C52.5694 126.41 52.8433 126.367 53.1449 126.367C53.5081 126.367 53.8282 126.428 54.1051 126.551C54.3852 126.674 54.6037 126.86 54.7607 127.109C54.9207 127.354 55.0008 127.664 55.0008 128.036V130.359C55.0008 130.524 55.0146 130.702 55.0423 130.889C55.073 131.076 55.1177 131.237 55.1762 131.373V131.447H54.2852C54.2421 131.349 54.2082 131.218 54.1836 131.054C54.159 130.889 54.1467 130.735 54.1467 130.594ZM54.2944 128.423L54.3037 129.022H53.4404C53.1973 129.022 52.9802 129.042 52.7894 129.082C52.5986 129.118 52.4386 129.176 52.3093 129.253C52.1801 129.329 52.0815 129.426 52.0138 129.542C51.9461 129.656 51.9123 129.79 51.9123 129.944C51.9123 130.1 51.9477 130.243 52.0185 130.373C52.0893 130.502 52.1954 130.604 52.337 130.681C52.4817 130.755 52.6586 130.792 52.868 130.792C53.1295 130.792 53.3603 130.736 53.5604 130.626C53.7605 130.516 53.9189 130.381 54.0359 130.221C54.156 130.06 54.2205 129.906 54.2298 129.755L54.5945 130.165C54.573 130.294 54.5145 130.437 54.4191 130.594C54.3237 130.751 54.1959 130.901 54.0359 131.046C53.8789 131.187 53.6912 131.305 53.4727 131.401C53.2573 131.492 53.0141 131.539 52.7433 131.539C52.4048 131.539 52.1077 131.473 51.8523 131.341C51.5999 131.208 51.4029 131.032 51.2614 130.81C51.1229 130.586 51.0536 130.336 51.0536 130.059C51.0536 129.792 51.106 129.556 51.2106 129.354C51.3152 129.148 51.4661 128.977 51.663 128.842C51.86 128.704 52.097 128.599 52.374 128.529C52.6509 128.458 52.9602 128.423 53.3018 128.423H54.2944ZM59.6818 126.459V127.164H57.2674V126.459H59.6818ZM60.4343 126.459V131.447H59.5803V126.459H60.4343ZM57.0597 126.459H57.9184L57.7891 128.865C57.7675 129.237 57.7322 129.566 57.6829 129.852C57.6368 130.134 57.5721 130.377 57.489 130.58C57.409 130.783 57.3074 130.948 57.1843 131.078C57.0643 131.204 56.9197 131.298 56.7504 131.359C56.5811 131.418 56.3857 131.447 56.1641 131.447H55.8963V130.695L56.081 130.681C56.2133 130.672 56.3257 130.641 56.418 130.589C56.5134 130.537 56.5934 130.46 56.6581 130.359C56.7227 130.254 56.775 130.121 56.815 129.958C56.8581 129.794 56.8904 129.601 56.9119 129.377C56.9366 129.152 56.9551 128.891 56.9674 128.593L57.0597 126.459ZM62.5117 128.174H64.0121C64.4153 128.174 64.7554 128.244 65.0323 128.386C65.3093 128.524 65.5186 128.716 65.6602 128.962C65.8048 129.205 65.8772 129.481 65.8772 129.792C65.8772 130.023 65.8371 130.239 65.7571 130.442C65.6771 130.641 65.5571 130.816 65.397 130.967C65.2401 131.118 65.0447 131.236 64.8107 131.322C64.58 131.405 64.3137 131.447 64.0121 131.447H61.8885V126.459H62.7426V130.746H64.0121C64.2583 130.746 64.4553 130.702 64.603 130.612C64.7507 130.523 64.8569 130.408 64.9216 130.267C64.9862 130.125 65.0185 129.977 65.0185 129.824C65.0185 129.673 64.9862 129.526 64.9216 129.381C64.8569 129.237 64.7507 129.117 64.603 129.022C64.4553 128.924 64.2583 128.874 64.0121 128.874H62.5117V128.174ZM70.332 128.621V129.312H67.6914V128.621H70.332ZM67.8714 126.459V131.447H67.0174V126.459H67.8714ZM71.0245 126.459V131.447H70.1658V126.459H71.0245ZM75.3455 130.594V128.026C75.3455 127.829 75.3055 127.659 75.2255 127.514C75.1484 127.367 75.0313 127.253 74.8749 127.174C74.7178 127.094 74.5237 127.054 74.2931 127.054C74.0778 127.054 73.888 127.09 73.7251 127.164C73.5651 127.238 73.4393 127.335 73.3469 127.455C73.2575 127.574 73.2124 127.704 73.2124 127.842H72.3587C72.3587 127.664 72.4048 127.487 72.4972 127.312C72.5895 127.136 72.7218 126.978 72.8938 126.837C73.0698 126.692 73.2786 126.579 73.5222 126.496C73.768 126.41 74.0422 126.367 74.344 126.367C74.7069 126.367 75.0269 126.428 75.304 126.551C75.584 126.674 75.8029 126.86 75.9593 127.109C76.1193 127.354 76.1993 127.664 76.1993 128.036V130.359C76.1993 130.524 76.2131 130.702 76.2415 130.889C76.272 131.076 76.3164 131.237 76.3753 131.373V131.447H75.4844C75.4408 131.349 75.4073 131.218 75.3826 131.054C75.3578 130.889 75.3455 130.735 75.3455 130.594ZM75.4931 128.423L75.5026 129.022H74.6393C74.3964 129.022 74.1789 129.042 73.9884 129.082C73.7978 129.118 73.6371 129.176 73.5084 129.253C73.3789 129.329 73.2808 129.426 73.2124 129.542C73.1448 129.656 73.1113 129.79 73.1113 129.944C73.1113 130.1 73.1462 130.243 73.2175 130.373C73.288 130.502 73.3942 130.604 73.536 130.681C73.6808 130.755 73.8575 130.792 74.0669 130.792C74.328 130.792 74.5593 130.736 74.7593 130.626C74.9593 130.516 75.1178 130.381 75.2349 130.221C75.3549 130.06 75.4197 129.906 75.4284 129.755L75.7935 130.165C75.7717 130.294 75.7135 130.437 75.6182 130.594C75.5222 130.751 75.3949 130.901 75.2349 131.046C75.0778 131.187 74.8902 131.305 74.6713 131.401C74.456 131.492 74.2131 131.539 73.9418 131.539C73.6037 131.539 73.3069 131.473 73.0509 131.341C72.7986 131.208 72.6018 131.032 72.4602 130.81C72.3218 130.586 72.2525 130.336 72.2525 130.059C72.2525 129.792 72.3048 129.556 72.4095 129.354C72.5141 129.148 72.6649 128.977 72.8618 128.842C73.0589 128.704 73.296 128.599 73.5731 128.529C73.8495 128.458 74.1593 128.423 74.5004 128.423H75.4931ZM78.5542 129.068H79.4771L78.032 131.447H77.1091L78.5542 129.068ZM79.2698 126.459H81.3564V131.447H80.5018V127.15H79.2698C79.0262 127.15 78.8277 127.192 78.6742 127.274C78.52 127.354 78.408 127.459 78.3368 127.588C78.2662 127.717 78.2306 127.851 78.2306 127.989C78.2306 128.124 78.2633 128.255 78.328 128.381C78.3927 128.504 78.4938 128.606 78.6328 128.686C78.7709 128.765 78.9498 128.805 79.168 128.805H80.7331V129.506H79.168C78.8815 129.506 78.6277 129.468 78.4066 129.391C78.1847 129.314 77.9971 129.208 77.8429 129.073C77.6895 128.935 77.5724 128.773 77.4924 128.588C77.4124 128.401 77.3724 128.198 77.3724 127.98C77.3724 127.762 77.4138 127.561 77.4967 127.376C77.5833 127.192 77.7062 127.03 77.8662 126.892C78.0291 126.754 78.2277 126.648 78.4618 126.574C78.6989 126.497 78.968 126.459 79.2698 126.459Z" fill="#6F7C98"/>
<path d="M21.0909 139.072H132.364C133.368 139.072 134.182 139.885 134.182 140.888V169.937C134.182 170.939 133.368 171.752 132.364 171.752H21.0909C20.0867 171.752 19.2727 170.939 19.2727 169.937V140.888C19.2727 139.885 20.0867 139.072 21.0909 139.072Z" fill="white" stroke="#DAE4EE"/>
<path d="M35.6833 154.726V155.67C35.6833 156.178 35.6379 156.607 35.547 156.955C35.4561 157.304 35.3254 157.585 35.1549 157.798C34.9844 158.011 34.7785 158.165 34.537 158.262C34.2984 158.355 34.0285 158.402 33.7273 158.402C33.4887 158.402 33.2685 158.372 33.0668 158.313C32.8651 158.253 32.6833 158.158 32.5214 158.028C32.3622 157.894 32.2259 157.722 32.1123 157.509C31.9986 157.296 31.912 157.037 31.8523 156.734C31.7926 156.43 31.7628 156.076 31.7628 155.67V154.726C31.7628 154.217 31.8083 153.793 31.8992 153.449C31.9929 153.106 32.1251 152.83 32.2955 152.623C32.4659 152.414 32.6705 152.263 32.9091 152.172C33.1506 152.082 33.4205 152.037 33.7188 152.037C33.9603 152.037 34.1819 152.066 34.3835 152.126C34.5881 152.183 34.7699 152.275 34.929 152.402C35.0881 152.527 35.223 152.695 35.3339 152.904C35.4475 153.111 35.5342 153.366 35.5938 153.666C35.6534 153.967 35.6833 154.32 35.6833 154.726ZM34.8907 155.798V154.594C34.8907 154.316 34.8737 154.072 34.8395 153.862C34.8083 153.649 34.7614 153.467 34.6989 153.317C34.6364 153.167 34.5569 153.045 34.4603 152.951C34.3665 152.857 34.2571 152.79 34.1321 152.747C34.01 152.702 33.8722 152.679 33.7188 152.679C33.5313 152.679 33.3651 152.714 33.2202 152.785C33.0753 152.854 32.9531 152.963 32.8537 153.113C32.7571 153.263 32.6833 153.46 32.6321 153.704C32.581 153.948 32.5555 154.245 32.5555 154.594V155.798C32.5555 156.076 32.5711 156.321 32.6023 156.534C32.6364 156.747 32.6862 156.931 32.7515 157.088C32.8168 157.241 32.8963 157.366 32.9901 157.466C33.0838 157.565 33.1918 157.639 33.3139 157.687C33.439 157.732 33.5768 157.756 33.7273 157.756C33.9205 157.756 34.0895 157.719 34.2345 157.645C34.3793 157.571 34.5001 157.456 34.5966 157.3C34.6961 157.141 34.7699 156.939 34.8182 156.692C34.8665 156.442 34.8907 156.144 34.8907 155.798Z" fill="#6F7C98"/>
<path d="M19.9709 185.738H20.8342L23.0362 191.209L25.2337 185.738H26.1015L23.3686 192.45H22.6946L19.9709 185.738ZM19.6893 185.738H20.451L20.5757 189.832V192.45H19.6893V185.738ZM25.6168 185.738H26.3786V192.45H25.4922V189.832L25.6168 185.738ZM30.7596 191.597V189.029C30.7596 188.832 30.7196 188.662 30.6396 188.517C30.5626 188.37 30.4457 188.256 30.2887 188.176C30.1318 188.097 29.9379 188.057 29.7071 188.057C29.4916 188.057 29.3023 188.093 29.1392 188.167C28.9792 188.241 28.853 188.338 28.7607 188.458C28.6714 188.577 28.6268 188.707 28.6268 188.845H27.7727C27.7727 188.667 27.8189 188.489 27.9112 188.314C28.0036 188.139 28.1359 187.981 28.3082 187.839C28.4837 187.695 28.693 187.582 28.9361 187.499C29.1824 187.412 29.4562 187.37 29.7578 187.37C30.121 187.37 30.441 187.431 30.7181 187.554C30.9981 187.677 31.2167 187.863 31.3736 188.112C31.5336 188.357 31.6137 188.667 31.6137 189.038V191.362C31.6137 191.527 31.6275 191.704 31.6552 191.892C31.686 192.079 31.7306 192.24 31.7891 192.375V192.45H30.8981C30.855 192.352 30.8212 192.221 30.7965 192.057C30.7719 191.892 30.7596 191.738 30.7596 191.597ZM30.9074 189.426L30.9166 190.025H30.0533C29.8101 190.025 29.5932 190.045 29.4023 190.085C29.2116 190.121 29.0515 190.179 28.9223 190.256C28.793 190.332 28.6945 190.429 28.6268 190.545C28.5591 190.659 28.5253 190.793 28.5253 190.947C28.5253 191.103 28.5606 191.246 28.6314 191.375C28.7022 191.505 28.8084 191.607 28.95 191.684C29.0946 191.758 29.2716 191.795 29.4808 191.795C29.7424 191.795 29.9733 191.739 30.1733 191.629C30.3733 191.519 30.5319 191.383 30.6488 191.224C30.7688 191.063 30.8335 190.909 30.8427 190.757L31.2074 191.168C31.1858 191.297 31.1274 191.44 31.0319 191.597C30.9366 191.754 30.8088 191.904 30.6488 192.049C30.4919 192.19 30.3041 192.308 30.0856 192.404C29.8702 192.495 29.627 192.542 29.3562 192.542C29.0177 192.542 28.7207 192.476 28.4652 192.344C28.2128 192.211 28.0159 192.035 27.8743 191.813C27.7358 191.589 27.6666 191.338 27.6666 191.062C27.6666 190.794 27.7189 190.559 27.8235 190.357C27.9282 190.151 28.079 189.98 28.2759 189.845C28.4729 189.707 28.7099 189.602 28.9869 189.532C29.2639 189.461 29.5732 189.426 29.9148 189.426H30.9074ZM33.885 187.462V192.45H33.0309V187.462H33.885ZM37.1626 187.462L34.7944 190.32H33.5987L33.4695 189.573H34.4482L36.1239 187.462H37.1626ZM36.2439 192.45L34.4066 190.191L34.956 189.573L37.3288 192.45H36.2439ZM39.9972 191.841C40.2003 191.841 40.388 191.8 40.5604 191.717C40.7327 191.633 40.8743 191.52 40.9851 191.375C41.0959 191.228 41.159 191.06 41.1743 190.873H41.9869C41.9715 191.168 41.8714 191.443 41.6868 191.698C41.5053 191.95 41.2667 192.155 40.9712 192.312C40.6758 192.465 40.3511 192.542 39.9972 192.542C39.6217 192.542 39.2939 192.476 39.0138 192.344C38.7369 192.211 38.5061 192.03 38.3214 191.8C38.1398 191.569 38.0029 191.305 37.9106 191.007C37.8213 190.705 37.7767 190.387 37.7767 190.052V189.859C37.7767 189.524 37.8213 189.207 37.9106 188.909C38.0029 188.608 38.1398 188.342 38.3214 188.112C38.5061 187.881 38.7369 187.7 39.0138 187.568C39.2939 187.436 39.6217 187.37 39.9972 187.37C40.388 187.37 40.7297 187.45 41.0221 187.609C41.3144 187.766 41.5437 187.981 41.7099 188.255C41.8791 188.525 41.9715 188.832 41.9869 189.176H41.1743C41.159 188.971 41.1005 188.785 40.9989 188.619C40.9005 188.453 40.765 188.321 40.5927 188.222C40.4234 188.121 40.2249 188.07 39.9972 188.07C39.7356 188.07 39.5155 188.123 39.337 188.227C39.1616 188.328 39.0215 188.467 38.9169 188.642C38.8154 188.814 38.7415 189.006 38.6954 189.218C38.6522 189.427 38.6307 189.641 38.6307 189.859V190.052C38.6307 190.271 38.6522 190.486 38.6954 190.698C38.7384 190.91 38.8107 191.102 38.9123 191.274C39.017 191.446 39.157 191.585 39.3324 191.689C39.5109 191.79 39.7325 191.841 39.9972 191.841ZM43.8704 191.099L46.1741 187.462H47.0327V192.45H46.1741V188.813L43.8704 192.45H43.021V187.462H43.8704V191.099ZM51.2752 191.315L52.9741 187.462H53.7958L51.5707 192.45H50.9798L48.7639 187.462H49.5856L51.2752 191.315ZM49.3363 187.462V192.45H48.4823V187.462H49.3363ZM53.1864 192.45V187.462H54.0451V192.45H53.1864ZM58.3661 191.597V189.029C58.3661 188.832 58.3261 188.662 58.2461 188.517C58.1692 188.37 58.0522 188.256 57.8953 188.176C57.7383 188.097 57.5444 188.057 57.3136 188.057C57.0981 188.057 56.9089 188.093 56.7458 188.167C56.5857 188.241 56.4595 188.338 56.3672 188.458C56.278 188.577 56.2333 188.707 56.2333 188.845H55.3793C55.3793 188.667 55.4255 188.489 55.5178 188.314C55.6101 188.139 55.7424 187.981 55.9148 187.839C56.0902 187.695 56.2995 187.582 56.5426 187.499C56.7888 187.412 57.0628 187.37 57.3644 187.37C57.7275 187.37 58.0476 187.431 58.3246 187.554C58.6047 187.677 58.8232 187.863 58.9802 188.112C59.1402 188.357 59.2202 188.667 59.2202 189.038V191.362C59.2202 191.527 59.2341 191.704 59.2618 191.892C59.2925 192.079 59.3371 192.24 59.3956 192.375V192.45H58.5046C58.4615 192.352 58.4277 192.221 58.4031 192.057C58.3784 191.892 58.3661 191.738 58.3661 191.597ZM58.5138 189.426L58.5231 190.025H57.6598C57.4167 190.025 57.1997 190.045 57.0089 190.085C56.8181 190.121 56.6581 190.179 56.5288 190.256C56.3995 190.332 56.301 190.429 56.2333 190.545C56.1656 190.659 56.1318 190.793 56.1318 190.947C56.1318 191.103 56.1671 191.246 56.2379 191.375C56.3088 191.505 56.4149 191.607 56.5565 191.684C56.7011 191.758 56.8781 191.795 57.0874 191.795C57.349 191.795 57.5798 191.739 57.7799 191.629C57.9799 191.519 58.1384 191.383 58.2554 191.224C58.3754 191.063 58.44 190.909 58.4493 190.757L58.8139 191.168C58.7924 191.297 58.7339 191.44 58.6385 191.597C58.5431 191.754 58.4154 191.904 58.2554 192.049C58.0984 192.19 57.9106 192.308 57.6922 192.404C57.4767 192.495 57.2335 192.542 56.9627 192.542C56.6242 192.542 56.3272 192.476 56.0717 192.344C55.8194 192.211 55.6224 192.035 55.4808 191.813C55.3424 191.589 55.2731 191.338 55.2731 191.062C55.2731 190.794 55.3254 190.559 55.4301 190.357C55.5347 190.151 55.6855 189.98 55.8825 189.845C56.0794 189.707 56.3165 189.602 56.5934 189.532C56.8704 189.461 57.1797 189.426 57.5213 189.426H58.5138ZM63.9013 187.462V188.167H61.4869V187.462H63.9013ZM64.6538 187.462V192.45H63.7997V187.462H64.6538ZM61.2791 187.462H62.1378L62.0085 189.868C61.987 190.24 61.9516 190.569 61.9023 190.855C61.8562 191.137 61.7916 191.38 61.7085 191.583C61.6285 191.786 61.5269 191.951 61.4038 192.081C61.2837 192.207 61.1391 192.301 60.9698 192.362C60.8005 192.421 60.6051 192.45 60.3835 192.45H60.1158V191.698L60.3005 191.684C60.4328 191.675 60.5451 191.644 60.6375 191.592C60.7328 191.54 60.8129 191.463 60.8775 191.362C60.9421 191.257 60.9945 191.123 61.0345 190.961C61.0775 190.797 61.1098 190.604 61.1314 190.38C61.156 190.155 61.1745 189.894 61.1868 189.596L61.2791 187.462ZM66.7312 189.176H68.2316C68.6347 189.176 68.9748 189.247 69.2518 189.389C69.5288 189.527 69.7381 189.719 69.8797 189.965C70.0243 190.208 70.0966 190.484 70.0966 190.795C70.0966 191.025 70.0566 191.242 69.9766 191.444C69.8965 191.644 69.7765 191.819 69.6165 191.97C69.4595 192.121 69.2641 192.239 69.0302 192.325C68.7994 192.408 68.5332 192.45 68.2316 192.45H66.1079V187.462H66.9621V191.749H68.2316C68.4778 191.749 68.6747 191.704 68.8225 191.615C68.9702 191.526 69.0764 191.411 69.141 191.269C69.2056 191.128 69.2379 190.98 69.2379 190.827C69.2379 190.676 69.2056 190.529 69.141 190.384C69.0764 190.24 68.9702 190.12 68.8225 190.025C68.6747 189.927 68.4778 189.877 68.2316 189.877H66.7312V189.176ZM74.5513 189.624V190.315H71.9109V189.624H74.5513ZM72.0909 187.462V192.45H71.2369V187.462H72.0909ZM75.2437 187.462V192.45H74.3855V187.462H75.2437ZM79.5651 191.597V189.029C79.5651 188.832 79.5251 188.662 79.4451 188.517C79.368 188.37 79.2509 188.256 79.0938 188.176C78.9375 188.097 78.7433 188.057 78.5127 188.057C78.2967 188.057 78.1077 188.093 77.9447 188.167C77.7847 188.241 77.6582 188.338 77.5658 188.458C77.4771 188.577 77.432 188.707 77.432 188.845H76.5782C76.5782 188.667 76.624 188.489 76.7164 188.314C76.8087 188.139 76.9411 187.981 77.1135 187.839C77.2887 187.695 77.4982 187.582 77.7418 187.499C77.9877 187.412 78.2618 187.37 78.5629 187.37C78.9266 187.37 79.2466 187.431 79.5237 187.554C79.8037 187.677 80.0218 187.863 80.1789 188.112C80.3389 188.357 80.4189 188.667 80.4189 189.038V191.362C80.4189 191.527 80.4327 191.704 80.4604 191.892C80.4917 192.079 80.536 192.24 80.5942 192.375V192.45H79.7033C79.6604 192.352 79.6262 192.221 79.6022 192.057C79.5775 191.892 79.5651 191.738 79.5651 191.597ZM79.7127 189.426L79.7222 190.025H78.8589C78.6153 190.025 78.3986 190.045 78.208 190.085C78.0168 190.121 77.8567 190.179 77.7273 190.256C77.5986 190.332 77.4997 190.429 77.432 190.545C77.3644 190.659 77.3309 190.793 77.3309 190.947C77.3309 191.103 77.3658 191.246 77.4371 191.375C77.5077 191.505 77.6138 191.607 77.7557 191.684C77.8997 191.758 78.0771 191.795 78.2866 191.795C78.5477 191.795 78.7789 191.739 78.9789 191.629C79.1789 191.519 79.3375 191.383 79.4546 191.224C79.5746 191.063 79.6386 190.909 79.648 190.757L80.0131 191.168C79.9913 191.297 79.9331 191.44 79.8371 191.597C79.7418 191.754 79.6146 191.904 79.4546 192.049C79.2975 192.19 79.1098 192.308 78.8909 192.404C78.6757 192.495 78.4327 192.542 78.1615 192.542C77.8233 192.542 77.5258 192.476 77.2706 192.344C77.0182 192.211 76.8211 192.035 76.68 191.813C76.5411 191.589 76.472 191.338 76.472 191.062C76.472 190.794 76.5244 190.559 76.6291 190.357C76.7338 190.151 76.8844 189.98 77.0815 189.845C77.2786 189.707 77.5149 189.602 77.792 189.532C78.0691 189.461 78.3789 189.426 78.72 189.426H79.7127ZM82.7731 190.071H83.6967L82.2517 192.45H81.3288L82.7731 190.071ZM83.4887 187.462H85.576V192.45H84.7215V188.153H83.4887C83.2458 188.153 83.0473 188.195 82.8938 188.277C82.7397 188.357 82.6269 188.462 82.5564 188.591C82.4858 188.72 82.4502 188.854 82.4502 188.992C82.4502 189.127 82.4829 189.258 82.5469 189.384C82.6117 189.507 82.7135 189.609 82.8517 189.688C82.9906 189.768 83.1687 189.808 83.3877 189.808H84.9527V190.509H83.3877C83.1011 190.509 82.8473 190.471 82.6255 190.394C82.4044 190.317 82.2167 190.211 82.0626 190.076C81.9084 189.938 81.792 189.776 81.712 189.591C81.6313 189.404 81.5913 189.201 81.5913 188.983C81.5913 188.765 81.6335 188.564 81.7164 188.379C81.8022 188.195 81.9258 188.033 82.0858 187.895C82.2487 187.757 82.4473 187.651 82.6815 187.577C82.9178 187.5 83.1877 187.462 83.4887 187.462Z" fill="#6F7C98"/>
<path d="M21.0909 200.075H132.364C133.368 200.075 134.182 200.888 134.182 201.891V230.94C134.182 231.942 133.368 232.755 132.364 232.755H21.0909C20.0867 232.755 19.2727 231.942 19.2727 230.94V201.891C19.2727 200.888 20.0867 200.075 21.0909 200.075Z" fill="white" stroke="#DAE4EE"/>
<path d="M32.5725 218.661H32.6534C33.1079 218.661 33.4773 218.597 33.7614 218.469C34.0455 218.341 34.2642 218.17 34.4176 217.954C34.5711 217.738 34.6762 217.496 34.733 217.226C34.7898 216.954 34.8182 216.674 34.8182 216.388V215.439C34.8182 215.159 34.7855 214.909 34.7202 214.69C34.6577 214.472 34.5696 214.289 34.456 214.141C34.3452 213.994 34.2188 213.882 34.0767 213.805C33.9347 213.729 33.7841 213.69 33.625 213.69C33.4432 213.69 33.2799 213.727 33.1349 213.801C32.9929 213.872 32.8722 213.973 32.7727 214.103C32.6762 214.233 32.6023 214.387 32.5511 214.562C32.5 214.738 32.4744 214.93 32.4744 215.137C32.4744 215.321 32.4972 215.5 32.5426 215.674C32.5881 215.846 32.6577 216.003 32.7514 216.141C32.8452 216.28 32.9617 216.391 33.1009 216.473C33.2429 216.552 33.4091 216.592 33.5994 216.592C33.7756 216.592 33.9404 216.558 34.0938 216.491C34.2501 216.419 34.3878 216.324 34.5071 216.205C34.6293 216.083 34.7258 215.946 34.7969 215.793C34.8708 215.639 34.9134 215.479 34.9247 215.311H35.2997C35.2997 215.547 35.2529 215.78 35.1591 216.009C35.0682 216.236 34.9404 216.443 34.7756 216.631C34.6108 216.818 34.4176 216.968 34.196 217.082C33.9744 217.192 33.733 217.247 33.4716 217.247C33.1648 217.247 32.8991 217.188 32.6747 217.069C32.4503 216.95 32.2656 216.791 32.1207 216.592C31.9787 216.394 31.8722 216.172 31.8012 215.928C31.733 215.682 31.6989 215.432 31.6989 215.18C31.6989 214.885 31.7401 214.608 31.8225 214.35C31.9048 214.092 32.027 213.865 32.189 213.669C32.3509 213.47 32.5511 213.316 32.7898 213.205C33.0313 213.095 33.3097 213.04 33.625 213.04C33.9802 213.04 34.2827 213.11 34.5327 213.252C34.7827 213.394 34.9858 213.584 35.1421 213.822C35.3012 214.061 35.4176 214.329 35.4915 214.626C35.5653 214.924 35.6023 215.231 35.6023 215.546V215.83C35.6023 216.151 35.581 216.478 35.5383 216.809C35.4986 217.138 35.4205 217.454 35.304 217.754C35.1903 218.055 35.0242 218.324 34.8054 218.562C34.5866 218.798 34.3012 218.985 33.9489 219.124C33.5994 219.26 33.1677 219.329 32.6534 219.329H32.5725V218.661ZM42.7571 215.729V216.673C42.7571 217.181 42.7117 217.61 42.6207 217.958C42.5298 218.307 42.3991 218.588 42.2287 218.801C42.0583 219.013 41.8523 219.168 41.6108 219.265C41.3722 219.358 41.1023 219.405 40.8012 219.405C40.5625 219.405 40.3423 219.375 40.1407 219.316C39.9389 219.256 39.7571 219.161 39.5952 219.031C39.4361 218.897 39.2997 218.724 39.1861 218.512C39.0725 218.299 38.9858 218.04 38.9261 217.737C38.8665 217.433 38.8367 217.079 38.8367 216.673V215.729C38.8367 215.22 38.8821 214.796 38.973 214.452C39.0668 214.109 39.1989 213.833 39.3693 213.626C39.5398 213.416 39.7443 213.266 39.983 213.175C40.2245 213.085 40.4943 213.04 40.7926 213.04C41.0341 213.04 41.2557 213.069 41.4574 213.129C41.662 213.186 41.8438 213.278 42.0029 213.405C42.162 213.53 42.2969 213.698 42.4077 213.907C42.5213 214.114 42.6079 214.369 42.6677 214.669C42.7273 214.97 42.7571 215.323 42.7571 215.729ZM41.9645 216.801V215.597C41.9645 215.318 41.9474 215.074 41.9134 214.865C41.8821 214.652 41.8352 214.47 41.7727 214.32C41.7103 214.17 41.6307 214.048 41.5341 213.954C41.4404 213.86 41.331 213.793 41.206 213.75C41.0838 213.705 40.9461 213.682 40.7926 213.682C40.6051 213.682 40.4389 213.717 40.2941 213.788C40.1492 213.857 40.027 213.966 39.9276 214.116C39.831 214.266 39.7571 214.463 39.706 214.707C39.6549 214.951 39.6293 215.248 39.6293 215.597V216.801C39.6293 217.079 39.6449 217.324 39.6762 217.537C39.7103 217.75 39.7599 217.934 39.8253 218.09C39.8906 218.244 39.9702 218.369 40.0639 218.469C40.1577 218.568 40.2656 218.642 40.3878 218.69C40.5128 218.735 40.6506 218.759 40.8012 218.759C40.9943 218.759 41.1634 218.722 41.3082 218.647C41.4531 218.574 41.5739 218.459 41.6705 218.303C41.7699 218.144 41.8438 217.942 41.8921 217.695C41.9404 217.445 41.9645 217.147 41.9645 216.801ZM47.6662 215.729V216.673C47.6662 217.181 47.6207 217.61 47.5298 217.958C47.4389 218.307 47.3082 218.588 47.1378 218.801C46.9674 219.013 46.7614 219.168 46.5199 219.265C46.2813 219.358 46.0114 219.405 45.7103 219.405C45.4716 219.405 45.2514 219.375 45.0498 219.316C44.848 219.256 44.6662 219.161 44.5043 219.031C44.3452 218.897 44.2088 218.724 44.0952 218.512C43.9815 218.299 43.8949 218.04 43.8352 217.737C43.7756 217.433 43.7458 217.079 43.7458 216.673V215.729C43.7458 215.22 43.7912 214.796 43.8821 214.452C43.9759 214.109 44.1079 213.833 44.2784 213.626C44.4489 213.416 44.6534 213.266 44.8921 213.175C45.1335 213.085 45.4034 213.04 45.7017 213.04C45.9432 213.04 46.1648 213.069 46.3665 213.129C46.5711 213.186 46.7529 213.278 46.9119 213.405C47.0711 213.53 47.206 213.698 47.3167 213.907C47.4304 214.114 47.517 214.369 47.5767 214.669C47.6364 214.97 47.6662 215.323 47.6662 215.729ZM46.8736 216.801V215.597C46.8736 215.318 46.8565 215.074 46.8225 214.865C46.7912 214.652 46.7443 214.47 46.6818 214.32C46.6194 214.17 46.5398 214.048 46.4432 213.954C46.3495 213.86 46.2401 213.793 46.1151 213.75C45.9929 213.705 45.8551 213.682 45.7017 213.682C45.5142 213.682 45.348 213.717 45.2031 213.788C45.0583 213.857 44.9361 213.966 44.8367 214.116C44.7401 214.266 44.6662 214.463 44.6151 214.707C44.5639 214.951 44.5383 215.248 44.5383 215.597V216.801C44.5383 217.079 44.554 217.324 44.5853 217.537C44.6194 217.75 44.669 217.934 44.7344 218.09C44.7997 218.244 44.8793 218.369 44.973 218.469C45.0668 218.568 45.1747 218.642 45.2969 218.69C45.4219 218.735 45.5597 218.759 45.7103 218.759C45.9034 218.759 46.0725 218.722 46.2173 218.647C46.3622 218.574 46.483 218.459 46.5796 218.303C46.679 218.144 46.7529 217.942 46.8012 217.695C46.8495 217.445 46.8736 217.147 46.8736 216.801ZM52.5753 215.729V216.673C52.5753 217.181 52.5298 217.61 52.4389 217.958C52.348 218.307 52.2173 218.588 52.0469 218.801C51.8765 219.013 51.6705 219.168 51.429 219.265C51.1903 219.358 50.9205 219.405 50.6194 219.405C50.3807 219.405 50.1605 219.375 49.9589 219.316C49.7571 219.256 49.5753 219.161 49.4134 219.031C49.2543 218.897 49.1179 218.724 49.0043 218.512C48.8906 218.299 48.804 218.04 48.7443 217.737C48.6847 217.433 48.6549 217.079 48.6549 216.673V215.729C48.6549 215.22 48.7003 214.796 48.7912 214.452C48.885 214.109 49.017 213.833 49.1875 213.626C49.358 213.416 49.5625 213.266 49.8012 213.175C50.0426 213.085 50.3125 213.04 50.6108 213.04C50.8523 213.04 51.0739 213.069 51.2756 213.129C51.4802 213.186 51.662 213.278 51.821 213.405C51.9802 213.53 52.1151 213.698 52.2258 213.907C52.3395 214.114 52.4261 214.369 52.4858 214.669C52.5455 214.97 52.5753 215.323 52.5753 215.729ZM51.7827 216.801V215.597C51.7827 215.318 51.7656 215.074 51.7316 214.865C51.7003 214.652 51.6534 214.47 51.5909 214.32C51.5285 214.17 51.4489 214.048 51.3523 213.954C51.2586 213.86 51.1492 213.793 51.0242 213.75C50.902 213.705 50.7642 213.682 50.6108 213.682C50.4233 213.682 50.2571 213.717 50.1122 213.788C49.9674 213.857 49.8452 213.966 49.7458 214.116C49.6492 214.266 49.5753 214.463 49.5242 214.707C49.473 214.951 49.4474 215.248 49.4474 215.597V216.801C49.4474 217.079 49.4631 217.324 49.4943 217.537C49.5285 217.75 49.5781 217.934 49.6435 218.09C49.7088 218.244 49.7884 218.369 49.8821 218.469C49.9759 218.568 50.0838 218.642 50.206 218.69C50.331 218.735 50.4687 218.759 50.6194 218.759C50.8125 218.759 50.9815 218.722 51.1264 218.647C51.2713 218.574 51.3921 218.459 51.4887 218.303C51.5881 218.144 51.662 217.942 51.7103 217.695C51.7586 217.445 51.7827 217.147 51.7827 216.801ZM59.6492 215.729V216.673C59.6492 217.181 59.6037 217.61 59.5128 217.958C59.4219 218.307 59.2912 218.588 59.1207 218.801C58.9503 219.013 58.7443 219.168 58.5029 219.265C58.2642 219.358 57.9943 219.405 57.6932 219.405C57.4546 219.405 57.2344 219.375 57.0327 219.316C56.831 219.256 56.6492 219.161 56.4872 219.031C56.3282 218.897 56.1918 218.724 56.0781 218.512C55.9645 218.299 55.8778 218.04 55.8182 217.737C55.7586 217.433 55.7287 217.079 55.7287 216.673V215.729C55.7287 215.22 55.7742 214.796 55.8651 214.452C55.9589 214.109 56.0909 213.833 56.2614 213.626C56.4319 213.416 56.6364 213.266 56.875 213.175C57.1165 213.085 57.3863 213.04 57.6847 213.04C57.9261 213.04 58.1477 213.069 58.3495 213.129C58.554 213.186 58.7358 213.278 58.8949 213.405C59.054 213.53 59.189 213.698 59.2997 213.907C59.4134 214.114 59.5 214.369 59.5597 214.669C59.6194 214.97 59.6492 215.323 59.6492 215.729ZM58.8565 216.801V215.597C58.8565 215.318 58.8395 215.074 58.8054 214.865C58.7742 214.652 58.7273 214.47 58.6648 214.32C58.6023 214.17 58.5228 214.048 58.4261 213.954C58.3324 213.86 58.223 213.793 58.0981 213.75C57.9759 213.705 57.8381 213.682 57.6847 213.682C57.4972 213.682 57.331 213.717 57.1861 213.788C57.0412 213.857 56.9191 213.966 56.8197 214.116C56.723 214.266 56.6492 214.463 56.5981 214.707C56.5469 214.951 56.5213 215.248 56.5213 215.597V216.801C56.5213 217.079 56.537 217.324 56.5682 217.537C56.6023 217.75 56.652 217.934 56.7173 218.09C56.7827 218.244 56.8622 218.369 56.956 218.469C57.0498 218.568 57.1577 218.642 57.2799 218.69C57.4048 218.735 57.5426 218.759 57.6932 218.759C57.8864 218.759 58.0554 218.722 58.2003 218.647C58.3452 218.574 58.4659 218.459 58.5625 218.303C58.662 218.144 58.7358 217.942 58.7841 217.695C58.8324 217.445 58.8565 217.147 58.8565 216.801ZM64.5583 215.729V216.673C64.5583 217.181 64.5128 217.61 64.4219 217.958C64.331 218.307 64.2003 218.588 64.0298 218.801C63.8594 219.013 63.6534 219.168 63.4119 219.265C63.1733 219.358 62.9034 219.405 62.6023 219.405C62.3637 219.405 62.1435 219.375 61.9418 219.316C61.7401 219.256 61.5583 219.161 61.3963 219.031C61.2373 218.897 61.1009 218.724 60.9872 218.512C60.8736 218.299 60.7869 218.04 60.7273 217.737C60.6677 217.433 60.6378 217.079 60.6378 216.673V215.729C60.6378 215.22 60.6833 214.796 60.7742 214.452C60.8679 214.109 61 213.833 61.1705 213.626C61.341 213.416 61.5455 213.266 61.7841 213.175C62.0256 213.085 62.2954 213.04 62.5938 213.04C62.8352 213.04 63.0568 213.069 63.2586 213.129C63.4631 213.186 63.6449 213.278 63.804 213.405C63.9631 213.53 64.0981 213.698 64.2088 213.907C64.3225 214.114 64.4091 214.369 64.4687 214.669C64.5285 214.97 64.5583 215.323 64.5583 215.729ZM63.7656 216.801V215.597C63.7656 215.318 63.7486 215.074 63.7145 214.865C63.6833 214.652 63.6364 214.47 63.5739 214.32C63.5114 214.17 63.4319 214.048 63.3352 213.954C63.2415 213.86 63.1321 213.793 63.0071 213.75C62.885 213.705 62.7471 213.682 62.5938 213.682C62.4063 213.682 62.2401 213.717 62.0952 213.788C61.9503 213.857 61.8282 213.966 61.7287 214.116C61.6321 214.266 61.5583 214.463 61.5071 214.707C61.456 214.951 61.4304 215.248 61.4304 215.597V216.801C61.4304 217.079 61.446 217.324 61.4772 217.537C61.5114 217.75 61.5611 217.934 61.6264 218.09C61.6918 218.244 61.7713 218.369 61.8651 218.469C61.9589 218.568 62.0668 218.642 62.189 218.69C62.3139 218.735 62.4517 218.759 62.6023 218.759C62.7955 218.759 62.9645 218.722 63.1094 218.647C63.2543 218.574 63.375 218.459 63.4716 218.303C63.5711 218.144 63.6449 217.942 63.6932 217.695C63.7415 217.445 63.7656 217.147 63.7656 216.801ZM69.4674 215.729V216.673C69.4674 217.181 69.4219 217.61 69.331 217.958C69.2401 218.307 69.1094 218.588 68.9389 218.801C68.7685 219.013 68.5625 219.168 68.321 219.265C68.0824 219.358 67.8125 219.405 67.5114 219.405C67.2727 219.405 67.0526 219.375 66.8508 219.316C66.6492 219.256 66.4674 219.161 66.3054 219.031C66.1463 218.897 66.01 218.724 65.8963 218.512C65.7827 218.299 65.696 218.04 65.6364 217.737C65.5767 217.433 65.5469 217.079 65.5469 216.673V215.729C65.5469 215.22 65.5924 214.796 65.6833 214.452C65.777 214.109 65.9091 213.833 66.0796 213.626C66.25 213.416 66.4546 213.266 66.6932 213.175C66.9347 213.085 67.2045 213.04 67.5028 213.04C67.7443 213.04 67.9659 213.069 68.1677 213.129C68.3722 213.186 68.554 213.278 68.7131 213.405C68.8722 213.53 69.0071 213.698 69.1179 213.907C69.2316 214.114 69.3182 214.369 69.3778 214.669C69.4375 214.97 69.4674 215.323 69.4674 215.729ZM68.6747 216.801V215.597C68.6747 215.318 68.6577 215.074 68.6236 214.865C68.5924 214.652 68.5455 214.47 68.483 214.32C68.4205 214.17 68.341 214.048 68.2443 213.954C68.1506 213.86 68.0412 213.793 67.9162 213.75C67.7941 213.705 67.6562 213.682 67.5028 213.682C67.3154 213.682 67.1492 213.717 67.0043 213.788C66.8594 213.857 66.7373 213.966 66.6378 214.116C66.5412 214.266 66.4674 214.463 66.4162 214.707C66.3651 214.951 66.3395 215.248 66.3395 215.597V216.801C66.3395 217.079 66.3551 217.324 66.3863 217.537C66.4204 217.75 66.4702 217.934 66.5355 218.09C66.6009 218.244 66.6804 218.369 66.7742 218.469C66.8679 218.568 66.9759 218.642 67.0981 218.69C67.223 218.735 67.3608 218.759 67.5114 218.759C67.7046 218.759 67.8736 218.722 68.0185 218.647C68.1634 218.574 68.2841 218.459 68.3807 218.303C68.4802 218.144 68.554 217.942 68.6023 217.695C68.6506 217.445 68.6747 217.147 68.6747 216.801ZM76.5411 215.729V216.673C76.5411 217.181 76.496 217.61 76.4051 217.958C76.3142 218.307 76.1833 218.588 76.0131 218.801C75.8422 219.013 75.6364 219.168 75.3949 219.265C75.1564 219.358 74.8866 219.405 74.5855 219.405C74.3469 219.405 74.1266 219.375 73.9244 219.316C73.7229 219.256 73.5411 219.161 73.3789 219.031C73.2204 218.897 73.0836 218.724 72.9702 218.512C72.8567 218.299 72.7702 218.04 72.7103 217.737C72.6506 217.433 72.6207 217.079 72.6207 216.673V215.729C72.6207 215.22 72.6662 214.796 72.7571 214.452C72.8509 214.109 72.9833 213.833 73.1535 213.626C73.3237 213.416 73.5287 213.266 73.7673 213.175C74.0087 213.085 74.2786 213.04 74.5767 213.04C74.8182 213.04 75.04 213.069 75.2415 213.129C75.4458 213.186 75.6277 213.278 75.7869 213.405C75.9462 213.53 76.0807 213.698 76.192 213.907C76.3055 214.114 76.392 214.369 76.4517 214.669C76.5113 214.97 76.5411 215.323 76.5411 215.729ZM75.7484 216.801V215.597C75.7484 215.318 75.7317 215.074 75.6975 214.865C75.6662 214.652 75.6196 214.47 75.5571 214.32C75.4946 214.17 75.4146 214.048 75.3178 213.954C75.2247 213.86 75.1149 213.793 74.9898 213.75C74.8676 213.705 74.7302 213.682 74.5767 213.682C74.3891 213.682 74.2233 213.717 74.0778 213.788C73.9331 213.857 73.8109 213.966 73.712 214.116C73.6153 214.266 73.5411 214.463 73.4902 214.707C73.4393 214.951 73.4131 215.248 73.4131 215.597V216.801C73.4131 217.079 73.4291 217.324 73.4604 217.537C73.4946 217.75 73.544 217.934 73.6095 218.09C73.6749 218.244 73.7542 218.369 73.848 218.469C73.9418 218.568 74.0495 218.642 74.1716 218.69C74.2967 218.735 74.4349 218.759 74.5855 218.759C74.7782 218.759 74.9477 218.722 75.0924 218.647C75.2371 218.574 75.3578 218.459 75.4546 218.303C75.5542 218.144 75.6277 217.942 75.6764 217.695C75.7244 217.445 75.7484 217.147 75.7484 216.801ZM81.4502 215.729V216.673C81.4502 217.181 81.4051 217.61 81.3142 217.958C81.2233 218.307 81.0924 218.588 80.9222 218.801C80.7513 219.013 80.5455 219.168 80.304 219.265C80.0655 219.358 79.7957 219.405 79.4946 219.405C79.256 219.405 79.0357 219.375 78.8335 219.316C78.632 219.256 78.4502 219.161 78.288 219.031C78.1295 218.897 77.9927 218.724 77.8793 218.512C77.7658 218.299 77.6793 218.04 77.6196 217.737C77.56 217.433 77.5302 217.079 77.5302 216.673V215.729C77.5302 215.22 77.5753 214.796 77.6662 214.452C77.76 214.109 77.8924 213.833 78.0626 213.626C78.2327 213.416 78.4378 213.266 78.6764 213.175C78.9178 213.085 79.1876 213.04 79.4858 213.04C79.7273 213.04 79.9491 213.069 80.1506 213.129C80.3549 213.186 80.5367 213.278 80.696 213.405C80.8553 213.53 80.9898 213.698 81.1011 213.907C81.2146 214.114 81.3011 214.369 81.3607 214.669C81.4204 214.97 81.4502 215.323 81.4502 215.729ZM80.6575 216.801V215.597C80.6575 215.318 80.6407 215.074 80.6066 214.865C80.5753 214.652 80.5287 214.47 80.4662 214.32C80.4036 214.17 80.3236 214.048 80.2269 213.954C80.1338 213.86 80.024 213.793 79.8989 213.75C79.7767 213.705 79.6393 213.682 79.4858 213.682C79.2982 213.682 79.1324 213.717 78.9869 213.788C78.8422 213.857 78.72 213.966 78.6211 214.116C78.5244 214.266 78.4502 214.463 78.3993 214.707C78.3484 214.951 78.3222 215.248 78.3222 215.597V216.801C78.3222 217.079 78.3382 217.324 78.3695 217.537C78.4037 217.75 78.4531 217.934 78.5186 218.09C78.584 218.244 78.6633 218.369 78.7571 218.469C78.8509 218.568 78.9586 218.642 79.0807 218.69C79.2058 218.735 79.344 218.759 79.4946 218.759C79.6873 218.759 79.8567 218.722 80.0015 218.647C80.1462 218.574 80.2669 218.459 80.3637 218.303C80.4633 218.144 80.5367 217.942 80.5855 217.695C80.6335 217.445 80.6575 217.147 80.6575 216.801ZM86.3593 215.729V216.673C86.3593 217.181 86.3142 217.61 86.2233 217.958C86.1324 218.307 86.0015 218.588 85.8313 218.801C85.6604 219.013 85.4546 219.168 85.2131 219.265C84.9746 219.358 84.7047 219.405 84.4037 219.405C84.1651 219.405 83.9447 219.375 83.7426 219.316C83.5411 219.256 83.3593 219.161 83.1971 219.031C83.0386 218.897 82.9018 218.724 82.7884 218.512C82.6749 218.299 82.5884 218.04 82.5287 217.737C82.4691 217.433 82.4393 217.079 82.4393 216.673V215.729C82.4393 215.22 82.4844 214.796 82.5753 214.452C82.6691 214.109 82.8015 213.833 82.9716 213.626C83.1418 213.416 83.3469 213.266 83.5855 213.175C83.8269 213.085 84.0967 213.04 84.3949 213.04C84.6364 213.04 84.8582 213.069 85.0597 213.129C85.264 213.186 85.4458 213.278 85.6051 213.405C85.7644 213.53 85.8989 213.698 86.0102 213.907C86.1236 214.114 86.2102 214.369 86.2698 214.669C86.3295 214.97 86.3593 215.323 86.3593 215.729ZM85.5666 216.801V215.597C85.5666 215.318 85.5498 215.074 85.5157 214.865C85.4844 214.652 85.4378 214.47 85.3753 214.32C85.3127 214.17 85.2327 214.048 85.136 213.954C85.0429 213.86 84.9331 213.793 84.808 213.75C84.6858 213.705 84.5484 213.682 84.3949 213.682C84.2073 213.682 84.0415 213.717 83.896 213.788C83.7513 213.857 83.6291 213.966 83.5302 214.116C83.4335 214.266 83.3593 214.463 83.3084 214.707C83.2575 214.951 83.2313 215.248 83.2313 215.597V216.801C83.2313 217.079 83.2473 217.324 83.2786 217.537C83.3127 217.75 83.3622 217.934 83.4276 218.09C83.4931 218.244 83.5724 218.369 83.6662 218.469C83.76 218.568 83.8676 218.642 83.9898 218.69C84.1149 218.735 84.2531 218.759 84.4037 218.759C84.5964 218.759 84.7658 218.722 84.9106 218.647C85.0553 218.574 85.176 218.459 85.2727 218.303C85.3724 218.144 85.4458 217.942 85.4946 217.695C85.5426 217.445 85.5666 217.147 85.5666 216.801Z" fill="#6F7C98"/>
</g>
<defs>
<clipPath id="clip0_72_5684">
<rect width="224" height="252" rx="20" fill="white"/>
</clipPath>
</defs>
</svg>
