<svg width="311" height="295" viewBox="0 0 311 295" fill="none" xmlns="http://www.w3.org/2000/svg">
<g clip-path="url(#clip0_72_5635)">
<path d="M289.328 0H21.6725C9.7031 0 0 9.71147 0 21.6912V273.309C0 285.289 9.7031 295 21.6725 295H289.328C301.297 295 311 285.289 311 273.309V21.6912C311 9.71147 301.297 0 289.328 0Z" fill="white"/>
<mask id="mask0_72_5635" style="mask-type:luminance" maskUnits="userSpaceOnUse" x="28" y="36" width="14" height="10">
<path d="M41.1777 36.875H28.1742V45.5515H41.1777V36.875Z" fill="white"/>
</mask>
<g mask="url(#mask0_72_5635)">
<path d="M40.094 37.9595L34.6759 43.3823L29.2578 37.9595" stroke="#334059" stroke-width="2"/>
</g>
<path d="M65.02 40.6975H62.9893V39.2587H64.7386C65.3619 39.2587 65.8679 39.1682 66.2567 38.9871C66.6454 38.7992 66.9268 38.541 67.1011 38.2122C67.282 37.8769 67.3725 37.4878 67.3725 37.045C67.3725 36.6493 67.272 36.287 67.0709 35.9584C66.8766 35.6297 66.5749 35.3681 66.1662 35.1736C65.7573 34.9723 65.2312 34.8717 64.5878 34.8717C64.1052 34.8717 63.6663 34.9589 63.2708 35.1333C62.8754 35.3078 62.5604 35.5526 62.3258 35.8679C62.0979 36.1831 61.984 36.5554 61.984 36.9847H59.4607C59.4607 36.3475 59.5948 35.7773 59.8628 35.2742C60.1375 34.7644 60.5095 34.3317 60.9786 33.9762C61.4546 33.6207 62.0007 33.3491 62.6174 33.1612C63.2407 32.9667 63.8975 32.8694 64.5878 32.8694C65.392 32.8694 66.1193 32.9599 66.7693 33.1411C67.4194 33.3155 67.9791 33.5771 68.4482 33.926C68.9174 34.2748 69.276 34.7107 69.5239 35.2339C69.7718 35.7505 69.8959 36.3508 69.8959 37.0351C69.8959 37.5381 69.7785 38.0111 69.5439 38.4538C69.3162 38.8965 68.9877 39.2855 68.5588 39.6209C68.1298 39.9563 67.6138 40.2213 67.0106 40.4157C66.4141 40.6036 65.7506 40.6975 65.02 40.6975ZM62.9893 39.8222H65.02C65.831 39.8222 66.5515 39.906 67.1815 40.0737C67.8115 40.2413 68.3443 40.4862 68.78 40.8082C69.2156 41.1301 69.5473 41.5293 69.7752 42.0056C70.0031 42.4751 70.1171 43.0151 70.1171 43.6255C70.1171 44.3097 69.9797 44.9201 69.7049 45.4568C69.4368 45.9867 69.0547 46.4361 68.5588 46.8051C68.0628 47.174 67.4764 47.4524 66.7994 47.6402C66.1292 47.8281 65.392 47.9219 64.5878 47.9219C63.9377 47.9219 63.2942 47.8414 62.6576 47.6804C62.0276 47.5128 61.4546 47.2578 60.9384 46.9157C60.4291 46.5669 60.0203 46.1242 59.712 45.5876C59.4037 45.0509 59.2495 44.407 59.2495 43.6558H61.7829C61.7829 44.0716 61.9003 44.454 62.1348 44.8028C62.3761 45.1449 62.7045 45.4199 63.12 45.6278C63.5423 45.8291 64.0315 45.9296 64.5878 45.9296C65.2245 45.9296 65.764 45.8291 66.2064 45.6278C66.6554 45.4266 66.9972 45.1516 67.2318 44.8028C67.473 44.454 67.5936 44.0615 67.5936 43.6255C67.5936 43.2097 67.53 42.8508 67.4027 42.5489C67.282 42.2403 67.1011 41.9921 66.8598 41.8043C66.6185 41.6098 66.3203 41.4656 65.9651 41.3717C65.6098 41.2778 65.201 41.2308 64.7386 41.2308H62.9893V39.8222ZM78.4008 45.5372V40.3454C78.4008 39.9563 78.3304 39.6209 78.1897 39.3392C78.049 39.0574 77.8345 38.8394 77.5463 38.6851C77.2648 38.5309 76.9095 38.4538 76.4806 38.4538C76.0852 38.4538 75.7435 38.5208 75.4552 38.655C75.1671 38.7891 74.9425 38.9702 74.7816 39.1983C74.6208 39.4264 74.5404 39.6846 74.5404 39.973H72.1276C72.1276 39.5438 72.2315 39.1278 72.4393 38.7255C72.6471 38.323 72.9487 37.9641 73.3441 37.6488C73.7395 37.3335 74.212 37.0853 74.7616 36.9043C75.3111 36.7231 75.9278 36.6326 76.6113 36.6326C77.429 36.6326 78.1528 36.7701 78.7828 37.045C79.4195 37.3201 79.9189 37.736 80.2807 38.2927C80.6493 38.8428 80.8337 39.5337 80.8337 40.3655V45.2053C80.8337 45.7016 80.8672 46.1476 80.9342 46.5435C81.0079 46.9325 81.1118 47.2712 81.2459 47.5597V47.7207H78.7628C78.6488 47.4591 78.5583 47.127 78.4913 46.7245C78.4309 46.3154 78.4008 45.9197 78.4008 45.5372ZM78.7527 41.1L78.7727 42.5992H77.0336C76.5846 42.5992 76.1892 42.6428 75.8473 42.73C75.5055 42.8106 75.2207 42.9313 74.9928 43.0922C74.7649 43.2533 74.5941 43.4477 74.4801 43.6758C74.3662 43.9039 74.3092 44.1621 74.3092 44.4506C74.3092 44.739 74.3762 45.004 74.5103 45.2455C74.6443 45.4802 74.8386 45.6647 75.0933 45.7988C75.3548 45.933 75.6697 46.0001 76.0383 46.0001C76.5343 46.0001 76.9665 45.8995 77.3352 45.6983C77.7105 45.4903 78.0054 45.2388 78.2199 44.9437C78.4343 44.6417 78.5483 44.3567 78.5616 44.0884L79.3459 45.165C79.2653 45.44 79.1279 45.7352 78.9336 46.0505C78.7392 46.3657 78.4846 46.6676 78.1696 46.956C77.8613 47.2377 77.4893 47.4692 77.0537 47.6503C76.6248 47.8314 76.1288 47.9219 75.5658 47.9219C74.8554 47.9219 74.2221 47.7811 73.6658 47.4993C73.1095 47.2108 72.6739 46.8252 72.3589 46.3422C72.0439 45.8525 71.8864 45.2992 71.8864 44.682C71.8864 44.1051 71.9936 43.5953 72.208 43.1526C72.4292 42.7032 72.7509 42.3275 73.1732 42.0257C73.6021 41.7238 74.1248 41.4957 74.7414 41.3415C75.358 41.1805 76.0618 41.1 76.8526 41.1H78.7527ZM85.9809 36.8338V47.7207H83.5581V36.8338H85.9809ZM93.0784 36.8338L88.1825 43.3841H85.4179L85.0962 41.1906H87.1168L90.0524 36.8338H93.0784ZM90.2434 47.7207L86.9661 42.9715L88.8762 41.593L93.4303 47.7207H90.2434ZM97.9039 46.5334L100.86 36.8338H103.453L99.0902 49.3809C98.9897 49.6492 98.859 49.941 98.6981 50.2563C98.5373 50.5716 98.3262 50.87 98.0648 51.1518C97.81 51.4402 97.4918 51.6716 97.1097 51.846C96.7277 52.0271 96.2652 52.1177 95.7223 52.1177C95.5079 52.1177 95.3002 52.0975 95.0991 52.0573C94.9047 52.0238 94.7204 51.9869 94.5462 51.9467L94.5361 50.0953C94.6032 50.1019 94.6836 50.1087 94.7774 50.1154C94.878 50.1221 94.9584 50.1255 95.0186 50.1255C95.4208 50.1255 95.7559 50.0751 96.024 49.9745C96.2921 49.8806 96.5099 49.7264 96.6774 49.5117C96.8517 49.2971 96.9992 49.0086 97.1198 48.6464L97.9039 46.5334ZM96.2351 36.8338L98.8188 44.9839L99.251 47.5396L97.5722 47.9722L93.6213 36.8338H96.2351ZM112.139 36.8338V38.7657H106.771V36.8338H112.139ZM107.344 36.8338V47.7207H104.921V36.8338H107.344ZM114.039 36.8338V47.7207H111.607V36.8338H114.039ZM119.217 36.8338V47.7207H116.794V36.8338H119.217ZM126.314 36.8338L121.418 43.3841H118.654L118.332 41.1906H120.353L123.288 36.8338H126.314ZM123.479 47.7207L120.202 42.9715L122.111 41.593L126.666 47.7207H123.479ZM130.487 44.1789L134.758 36.8338H137.181V47.7207H134.758V40.3655L130.487 47.7207H128.064V36.8338H130.487V44.1789Z" fill="#334059"/>
<path d="M32.6246 99.3123H31.2352V98.3278H32.432C32.8585 98.3278 33.2047 98.2659 33.4707 98.1419C33.7366 98.0134 33.9293 97.8367 34.0485 97.6119C34.1723 97.3824 34.2342 97.1162 34.2342 96.8132C34.2342 96.5425 34.1654 96.2946 34.0279 96.0698C33.8948 95.8448 33.6885 95.6659 33.4088 95.5328C33.129 95.3951 32.769 95.3262 32.3289 95.3262C31.9987 95.3262 31.6983 95.386 31.4277 95.5053C31.1572 95.6246 30.9417 95.7921 30.7812 96.0079C30.6253 96.2236 30.5473 96.4782 30.5473 96.772H28.8208C28.8208 96.3359 28.9125 95.9458 29.096 95.6016C29.284 95.2528 29.5385 94.9568 29.8595 94.7135C30.185 94.4703 30.5588 94.2844 30.9806 94.1559C31.4071 94.0228 31.8565 93.9563 32.3289 93.9563C32.8791 93.9563 33.3766 94.0182 33.8214 94.1421C34.2663 94.2615 34.6492 94.4405 34.9702 94.6792C35.2912 94.9178 35.5365 95.2161 35.7062 95.5741C35.8759 95.9275 35.9606 96.3382 35.9606 96.8064C35.9606 97.1506 35.8804 97.4742 35.7199 97.7771C35.564 98.08 35.3393 98.3462 35.0458 98.5757C34.7524 98.8051 34.3992 98.9865 33.9866 99.1196C33.5784 99.2481 33.1244 99.3123 32.6246 99.3123ZM31.2352 98.7134H32.6246C33.1795 98.7134 33.6724 98.7708 34.1035 98.8855C34.5346 99.0003 34.8991 99.1677 35.1972 99.3881C35.4952 99.6084 35.7222 99.8815 35.8782 100.207C36.0341 100.529 36.112 100.898 36.112 101.316C36.112 101.784 36.0179 102.201 35.8299 102.569C35.6466 102.931 35.3852 103.239 35.0458 103.491C34.7065 103.744 34.3053 103.934 33.8421 104.063C33.3835 104.191 32.8791 104.255 32.3289 104.255C31.884 104.255 31.4439 104.2 31.0081 104.09C30.5771 103.975 30.185 103.801 29.832 103.567C29.4835 103.328 29.2037 103.025 28.9928 102.658C28.7818 102.291 28.6764 101.85 28.6764 101.336H30.4098C30.4098 101.621 30.4899 101.882 30.6505 102.121C30.8156 102.355 31.0403 102.543 31.3246 102.686C31.6134 102.823 31.9482 102.892 32.3289 102.892C32.7645 102.892 33.1337 102.823 33.4363 102.686C33.7435 102.548 33.9774 102.36 34.1379 102.121C34.303 101.882 34.3855 101.614 34.3855 101.316C34.3855 101.031 34.3419 100.786 34.2548 100.579C34.1723 100.368 34.0485 100.198 33.8834 100.07C33.7183 99.9366 33.5142 99.8379 33.2712 99.7735C33.0281 99.7093 32.7484 99.6772 32.432 99.6772H31.2352V98.7134ZM41.7799 102.624V99.0714C41.7799 98.8051 41.7317 98.5757 41.6355 98.3829C41.5391 98.1902 41.3924 98.041 41.1952 97.9354C41.0026 97.8299 40.7596 97.7771 40.4661 97.7771C40.1955 97.7771 39.9617 97.823 39.7645 97.9148C39.5672 98.0066 39.4137 98.1305 39.3036 98.2865C39.1935 98.4426 39.1386 98.6193 39.1386 98.8166H37.4877C37.4877 98.5229 37.5587 98.2384 37.7009 97.963C37.8431 97.6876 38.0494 97.4421 38.32 97.2264C38.5906 97.0106 38.9138 96.8408 39.2898 96.7169C39.6659 96.593 40.0877 96.531 40.5555 96.531C41.115 96.531 41.6102 96.6251 42.0413 96.8132C42.4769 97.0014 42.8185 97.286 43.0662 97.6669C43.3183 98.0434 43.4445 98.516 43.4445 99.0852V102.397C43.4445 102.736 43.4674 103.041 43.5133 103.312C43.5636 103.578 43.6347 103.81 43.7265 104.007V104.118H42.0275C41.9495 103.939 41.8876 103.711 41.8418 103.436C41.8005 103.156 41.7799 102.885 41.7799 102.624ZM42.0206 99.5877L42.0343 100.613H40.8444C40.5372 100.613 40.2666 100.643 40.0328 100.703C39.7988 100.758 39.604 100.841 39.448 100.951C39.2921 101.061 39.1752 101.194 39.0973 101.35C39.0193 101.506 38.9804 101.683 38.9804 101.88C38.9804 102.078 39.0262 102.259 39.1179 102.424C39.2096 102.585 39.3426 102.711 39.5169 102.803C39.6957 102.894 39.9112 102.94 40.1635 102.94C40.5027 102.94 40.7986 102.872 41.0507 102.734C41.3075 102.592 41.5093 102.419 41.656 102.217C41.8028 102.011 41.8808 101.816 41.8899 101.632L42.4264 102.369C42.3714 102.557 42.2774 102.759 42.1444 102.975C42.0115 103.191 41.8372 103.397 41.6217 103.594C41.4107 103.787 41.1562 103.946 40.8582 104.069C40.5646 104.193 40.2253 104.255 39.8401 104.255C39.3541 104.255 38.9208 104.159 38.5401 103.966C38.1595 103.769 37.8614 103.505 37.6459 103.175C37.4303 102.839 37.3226 102.461 37.3226 102.039C37.3226 101.644 37.396 101.295 37.5427 100.992C37.6941 100.685 37.9142 100.428 38.2031 100.221C38.4965 100.015 38.8542 99.8585 39.2761 99.7529C39.6979 99.6428 40.1795 99.5877 40.7205 99.5877H42.0206ZM46.9662 96.6687V104.118H45.3085V96.6687H46.9662ZM51.8224 96.6687L48.4726 101.151H46.581L46.3609 99.6497H47.7435L49.752 96.6687H51.8224ZM49.8827 104.118L47.6404 100.868L48.9472 99.9251L52.0632 104.118H49.8827ZM52.4002 100.476V100.317C52.4002 99.7805 52.4782 99.2825 52.6341 98.8236C52.7899 98.3599 53.0147 97.9584 53.3081 97.6187C53.6062 97.2745 53.9685 97.0084 54.395 96.8202C54.8261 96.6275 55.3121 96.531 55.8532 96.531C56.3988 96.531 56.885 96.6275 57.3115 96.8202C57.7425 97.0084 58.1071 97.2745 58.4051 97.6187C58.7032 97.9584 58.9302 98.3599 59.0861 98.8236C59.242 99.2825 59.32 99.7805 59.32 100.317V100.476C59.32 101.013 59.242 101.511 59.0861 101.97C58.9302 102.429 58.7032 102.83 58.4051 103.175C58.1071 103.514 57.7448 103.78 57.3183 103.973C56.8919 104.161 56.4081 104.255 55.867 104.255C55.3213 104.255 54.8329 104.161 54.4018 103.973C53.9754 103.78 53.6131 103.514 53.3151 103.175C53.017 102.83 52.7899 102.429 52.6341 101.97C52.4782 101.511 52.4002 101.013 52.4002 100.476ZM54.0579 100.317V100.476C54.0579 100.811 54.0924 101.128 54.1611 101.426C54.2299 101.724 54.3377 101.986 54.4844 102.211C54.6311 102.436 54.8191 102.612 55.0484 102.741C55.2777 102.869 55.5506 102.934 55.867 102.934C56.1742 102.934 56.4401 102.869 56.6649 102.741C56.8942 102.612 57.0822 102.436 57.2289 102.211C57.3756 101.986 57.4834 101.724 57.5521 101.426C57.6255 101.128 57.6622 100.811 57.6622 100.476V100.317C57.6622 99.987 57.6255 99.6749 57.5521 99.3812C57.4834 99.0828 57.3733 98.8189 57.2221 98.5894C57.0752 98.3599 56.8872 98.181 56.6579 98.0525C56.4333 97.9194 56.165 97.8528 55.8532 97.8528C55.5414 97.8528 55.2708 97.9194 55.0415 98.0525C54.8169 98.181 54.6311 98.3599 54.4844 98.5894C54.3377 98.8189 54.2299 99.0828 54.1611 99.3812C54.0924 99.6749 54.0579 99.987 54.0579 100.317ZM65.7926 99.7805V101.088H61.9406V99.7805H65.7926ZM62.4222 96.6687V104.118H60.7644V96.6687H62.4222ZM66.9894 96.6687V104.118H65.3317V96.6687H66.9894Z" fill="#334059"/>
<path d="M39.1007 210.404H29.1676C28.9041 210.404 28.6514 210.51 28.4651 210.695C28.2789 210.882 28.1742 211.135 28.1742 211.399V221.34C28.1742 221.603 28.2789 221.857 28.4651 222.044C28.6514 222.229 28.9041 222.334 29.1676 222.334H39.1007C39.3641 222.334 39.6168 222.229 39.8031 222.044C39.9894 221.857 40.0941 221.603 40.0941 221.34V211.399C40.0941 211.135 39.9894 210.882 39.8031 210.695C39.6168 210.51 39.3641 210.404 39.1007 210.404ZM29.1676 221.34V211.399H39.1007V221.34H29.1676Z" fill="#DDE0E5"/>
<path d="M65.1598 211.227V221.25H63.8391V212.314H58.9004V221.25H57.5729V211.227H65.1598ZM75.2161 211.227V221.25H73.8955V212.314H68.9568V221.25H67.6292V211.227H75.2161ZM84.8116 217.319H82.1359V216.238H84.8116C85.3298 216.238 85.7494 216.156 86.0703 215.99C86.3913 215.825 86.6253 215.595 86.772 215.302C86.9233 215.008 86.999 214.673 86.999 214.297C86.999 213.952 86.9233 213.629 86.772 213.326C86.6253 213.024 86.3913 212.78 86.0703 212.596C85.7494 212.408 85.3298 212.314 84.8116 212.314H82.4454V221.25H81.1179V211.227H84.8116C85.5682 211.227 86.208 211.357 86.7307 211.619C87.2534 211.881 87.6501 212.243 87.9206 212.707C88.1912 213.166 88.3265 213.691 88.3265 214.283C88.3265 214.926 88.1912 215.474 87.9206 215.928C87.6501 216.383 87.2534 216.73 86.7307 216.968C86.208 217.203 85.5682 217.319 84.8116 217.319ZM93.4784 212.224H95.1362C95.7139 212.224 96.2482 212.323 96.7388 212.52C97.2341 212.714 97.6652 212.989 98.032 213.347C98.4035 213.705 98.6924 214.132 98.8987 214.628C99.105 215.118 99.2082 215.662 99.2082 216.259C99.2082 216.855 99.105 217.402 98.8987 217.898C98.6924 218.393 98.4035 218.822 98.032 219.185C97.6652 219.543 97.2341 219.821 96.7388 220.018C96.2482 220.211 95.7139 220.307 95.1362 220.307H93.4784C92.9006 220.307 92.3664 220.211 91.8757 220.018C91.3851 219.821 90.9541 219.543 90.5827 219.185C90.2157 218.827 89.9292 218.402 89.7228 217.911C89.521 217.415 89.4201 216.87 89.4201 216.273C89.4201 215.677 89.521 215.132 89.7228 214.641C89.9292 214.145 90.2157 213.719 90.5827 213.361C90.9541 212.998 91.3851 212.718 91.8757 212.52C92.3664 212.323 92.9006 212.224 93.4784 212.224ZM93.4784 213.271C92.8778 213.271 92.3688 213.397 91.9515 213.649C91.5342 213.898 91.2178 214.246 91.0022 214.696C90.7867 215.146 90.679 215.671 90.679 216.273C90.679 216.727 90.7386 217.137 90.8578 217.505C90.9815 217.872 91.1627 218.186 91.4012 218.449C91.6396 218.71 91.9331 218.912 92.2817 219.054C92.6302 219.196 93.029 219.267 93.4784 219.267H95.1499C95.7461 219.267 96.2505 219.144 96.6632 218.895C97.0805 218.643 97.3969 218.292 97.6124 217.842C97.8325 217.388 97.9426 216.86 97.9426 216.259C97.9426 215.809 97.8806 215.401 97.7569 215.033C97.633 214.667 97.452 214.352 97.2135 214.09C96.9796 213.828 96.6884 213.627 96.3399 213.485C95.996 213.343 95.5993 213.271 95.1499 213.271H93.4784ZM94.9504 210.813V221.663H93.6779V210.813H94.9504ZM108.935 211.212H109.044V212.294H108.935C108.26 212.294 107.696 212.403 107.242 212.623C106.788 212.839 106.428 213.131 106.162 213.499C105.896 213.861 105.704 214.269 105.585 214.723C105.47 215.178 105.413 215.64 105.413 216.107V217.581C105.413 218.026 105.465 218.42 105.571 218.764C105.676 219.105 105.821 219.391 106.004 219.625C106.188 219.86 106.394 220.036 106.623 220.156C106.857 220.275 107.1 220.335 107.352 220.335C107.646 220.335 107.907 220.279 108.136 220.169C108.366 220.055 108.559 219.897 108.715 219.694C108.875 219.488 108.996 219.245 109.079 218.965C109.161 218.684 109.202 218.377 109.202 218.042C109.202 217.744 109.166 217.456 109.093 217.182C109.019 216.901 108.906 216.654 108.756 216.438C108.604 216.218 108.414 216.045 108.185 215.922C107.96 215.793 107.692 215.729 107.38 215.729C107.027 215.729 106.697 215.816 106.389 215.99C106.087 216.16 105.837 216.385 105.64 216.665C105.447 216.94 105.337 217.242 105.309 217.567L104.635 217.56C104.7 217.046 104.819 216.608 104.993 216.245C105.172 215.878 105.392 215.58 105.653 215.35C105.919 215.116 106.215 214.947 106.541 214.84C106.871 214.731 107.219 214.675 107.586 214.675C108.086 214.675 108.517 214.77 108.879 214.957C109.241 215.146 109.539 215.398 109.773 215.714C110.007 216.027 110.18 216.38 110.289 216.775C110.404 217.166 110.461 217.567 110.461 217.98C110.461 218.453 110.395 218.896 110.262 219.309C110.129 219.722 109.929 220.084 109.664 220.397C109.402 220.709 109.079 220.952 108.694 221.126C108.308 221.301 107.861 221.388 107.352 221.388C106.811 221.388 106.339 221.277 105.935 221.057C105.532 220.833 105.197 220.534 104.931 220.162C104.665 219.79 104.466 219.377 104.333 218.923C104.2 218.469 104.133 218.007 104.133 217.54V216.94C104.133 216.234 104.204 215.541 104.346 214.861C104.489 214.182 104.734 213.567 105.082 213.016C105.436 212.465 105.924 212.027 106.548 211.702C107.171 211.375 107.967 211.212 108.935 211.212ZM116.157 211.171V221.25H114.885V212.761L112.319 213.698V212.549L115.958 211.171H116.157ZM121.508 216.479L120.49 216.218L120.992 211.227H126.131V212.403H122.072L121.77 215.13C121.953 215.025 122.185 214.926 122.465 214.834C122.749 214.742 123.074 214.696 123.441 214.696C123.904 214.696 124.319 214.776 124.686 214.937C125.053 215.093 125.364 215.318 125.621 215.611C125.882 215.905 126.083 216.259 126.219 216.672C126.357 217.085 126.426 217.546 126.426 218.056C126.426 218.538 126.36 218.98 126.227 219.385C126.098 219.788 125.904 220.142 125.642 220.444C125.381 220.743 125.05 220.975 124.651 221.139C124.257 221.305 123.792 221.388 123.256 221.388C122.852 221.388 122.469 221.333 122.107 221.223C121.75 221.108 121.428 220.936 121.144 220.707C120.864 220.472 120.634 220.183 120.456 219.839C120.281 219.49 120.172 219.081 120.125 218.614H121.337C121.391 218.99 121.501 219.307 121.666 219.564C121.832 219.821 122.048 220.016 122.313 220.148C122.584 220.277 122.898 220.341 123.256 220.341C123.558 220.341 123.827 220.288 124.06 220.183C124.294 220.078 124.491 219.926 124.651 219.728C124.812 219.531 124.933 219.292 125.017 219.013C125.103 218.733 125.147 218.418 125.147 218.069C125.147 217.752 125.103 217.46 125.017 217.188C124.929 216.917 124.799 216.681 124.624 216.479C124.454 216.277 124.246 216.121 123.998 216.011C123.751 215.897 123.466 215.839 123.145 215.839C122.719 215.839 122.395 215.897 122.175 216.011C121.96 216.126 121.738 216.282 121.508 216.479ZM131.407 217.244V217.174C131.407 216.174 131.518 215.27 131.744 214.462C131.968 213.649 132.255 212.938 132.603 212.327C132.952 211.718 133.318 211.212 133.704 210.813C134.089 210.41 134.444 210.118 134.77 209.939L135.038 210.779C134.768 210.986 134.493 211.27 134.212 211.632C133.938 211.996 133.683 212.44 133.449 212.968C133.22 213.495 133.034 214.108 132.892 214.807C132.75 215.504 132.679 216.288 132.679 217.16V217.257C132.679 218.129 132.75 218.916 132.892 219.619C133.034 220.316 133.22 220.931 133.449 221.464C133.683 221.996 133.938 222.447 134.212 222.819C134.493 223.196 134.768 223.494 135.038 223.714L134.77 224.485C134.444 224.306 134.089 224.016 133.704 223.611C133.318 223.212 132.952 222.708 132.603 222.097C132.255 221.491 131.968 220.782 131.744 219.969C131.518 219.157 131.407 218.248 131.407 217.244ZM137.865 211.227V221.25H136.538V211.227H137.865ZM144.035 211.227L139.688 216.74H137.335L137.129 215.64H138.897L142.391 211.227H144.035ZM142.7 221.25L138.938 216.569L139.681 215.405L144.325 221.25H142.7ZM149.723 219.977V216.142C149.723 215.848 149.664 215.593 149.544 215.377C149.431 215.157 149.256 214.988 149.022 214.869C148.788 214.749 148.5 214.69 148.155 214.69C147.835 214.69 147.553 214.744 147.309 214.854C147.071 214.965 146.883 215.109 146.745 215.288C146.612 215.467 146.546 215.66 146.546 215.866H145.273C145.273 215.601 145.342 215.336 145.48 215.075C145.617 214.813 145.815 214.577 146.071 214.365C146.333 214.149 146.645 213.98 147.007 213.857C147.374 213.728 147.781 213.664 148.231 213.664C148.772 213.664 149.249 213.756 149.661 213.939C150.079 214.122 150.405 214.4 150.639 214.772C150.877 215.139 150.997 215.601 150.997 216.156V219.625C150.997 219.873 151.017 220.137 151.058 220.417C151.104 220.697 151.171 220.938 151.258 221.139V221.25H149.93C149.866 221.104 149.815 220.908 149.779 220.664C149.742 220.417 149.723 220.187 149.723 219.977ZM149.944 216.734L149.957 217.629H148.671C148.309 217.629 147.986 217.659 147.701 217.719C147.417 217.773 147.179 217.859 146.986 217.974C146.793 218.088 146.647 218.233 146.546 218.406C146.445 218.577 146.394 218.776 146.394 219.006C146.394 219.239 146.447 219.453 146.553 219.646C146.658 219.839 146.816 219.992 147.027 220.107C147.243 220.218 147.506 220.273 147.818 220.273C148.208 220.273 148.552 220.189 148.85 220.025C149.148 219.86 149.384 219.658 149.559 219.419C149.737 219.18 149.834 218.949 149.848 218.723L150.391 219.336C150.359 219.529 150.272 219.743 150.13 219.977C149.988 220.211 149.797 220.436 149.559 220.651C149.324 220.862 149.045 221.039 148.72 221.182C148.398 221.318 148.036 221.388 147.633 221.388C147.128 221.388 146.686 221.289 146.306 221.092C145.929 220.894 145.636 220.631 145.425 220.3C145.219 219.965 145.116 219.591 145.116 219.177C145.116 218.778 145.193 218.427 145.349 218.124C145.505 217.817 145.73 217.563 146.023 217.361C146.316 217.154 146.67 216.998 147.082 216.892C147.495 216.787 147.956 216.734 148.465 216.734H149.944ZM157.958 213.801V214.854H154.194V213.801H157.958ZM154.381 213.801V221.25H153.107V213.801H154.381ZM159.086 213.801V221.25H157.806V213.801H159.086ZM162.504 219.233L165.936 213.801H167.216V221.25H165.936V215.819L162.504 221.25H161.238V213.801H162.504V219.233ZM172.292 213.801V221.25H171.012V213.801H172.292ZM174.789 213.801V214.834H168.564V213.801H174.789ZM180.319 219.977V216.142C180.319 215.848 180.26 215.593 180.141 215.377C180.026 215.157 179.851 214.988 179.617 214.869C179.384 214.749 179.095 214.69 178.751 214.69C178.43 214.69 178.148 214.744 177.905 214.854C177.667 214.965 177.478 215.109 177.34 215.288C177.208 215.467 177.141 215.66 177.141 215.866H175.869C175.869 215.601 175.937 215.336 176.075 215.075C176.212 214.813 176.41 214.577 176.666 214.365C176.928 214.149 177.24 213.98 177.602 213.857C177.969 213.728 178.378 213.664 178.826 213.664C179.368 213.664 179.845 213.756 180.258 213.939C180.675 214.122 181 214.4 181.234 214.772C181.472 215.139 181.592 215.601 181.592 216.156V219.625C181.592 219.873 181.612 220.137 181.653 220.417C181.7 220.697 181.766 220.938 181.853 221.139V221.25H180.525C180.461 221.104 180.41 220.908 180.375 220.664C180.338 220.417 180.319 220.187 180.319 219.977ZM180.539 216.734L180.553 217.629H179.267C178.904 217.629 178.581 217.659 178.297 217.719C178.012 217.773 177.774 217.859 177.581 217.974C177.389 218.088 177.242 218.233 177.141 218.406C177.04 218.577 176.99 218.776 176.99 219.006C176.99 219.239 177.042 219.453 177.149 219.646C177.254 219.839 177.412 219.992 177.623 220.107C177.838 220.218 178.102 220.273 178.414 220.273C178.803 220.273 179.148 220.189 179.446 220.025C179.744 219.86 179.98 219.658 180.154 219.419C180.333 219.18 180.429 218.949 180.443 218.723L180.987 219.336C180.954 219.529 180.868 219.743 180.725 219.977C180.583 220.211 180.393 220.436 180.154 220.651C179.921 220.862 179.641 221.039 179.315 221.182C178.994 221.318 178.632 221.388 178.228 221.388C177.724 221.388 177.281 221.289 176.901 221.092C176.525 220.894 176.231 220.631 176.021 220.3C175.814 219.965 175.711 219.591 175.711 219.177C175.711 218.778 175.789 218.427 175.945 218.124C176.101 217.817 176.325 217.563 176.619 217.361C176.912 217.154 177.265 216.998 177.677 216.892C178.09 216.787 178.551 216.734 179.06 216.734H180.539ZM188.567 213.801V214.854H184.969V213.801H188.567ZM189.687 213.801V221.25H188.415V213.801H189.687ZM184.659 213.801H185.939L185.746 217.394C185.714 217.95 185.662 218.441 185.588 218.868C185.52 219.29 185.423 219.653 185.3 219.956C185.179 220.259 185.029 220.506 184.846 220.699C184.667 220.888 184.451 221.028 184.199 221.119C183.946 221.207 183.655 221.25 183.325 221.25H182.927V220.128L183.201 220.107C183.398 220.094 183.566 220.047 183.704 219.969C183.845 219.891 183.965 219.777 184.061 219.625C184.158 219.469 184.236 219.27 184.295 219.027C184.359 218.783 184.407 218.494 184.439 218.159C184.476 217.824 184.503 217.434 184.522 216.989L184.659 213.801ZM192.783 216.362H195.019C195.619 216.362 196.126 216.467 196.539 216.679C196.951 216.886 197.263 217.172 197.474 217.54C197.69 217.902 197.797 218.315 197.797 218.778C197.797 219.123 197.738 219.446 197.618 219.749C197.499 220.047 197.32 220.309 197.082 220.534C196.848 220.759 196.557 220.936 196.209 221.065C195.865 221.188 195.467 221.25 195.019 221.25H191.855V213.801H193.127V220.203H195.019C195.385 220.203 195.679 220.137 195.899 220.004C196.119 219.871 196.277 219.699 196.373 219.488C196.47 219.276 196.518 219.056 196.518 218.827C196.518 218.602 196.47 218.381 196.373 218.166C196.277 217.95 196.119 217.771 195.899 217.629C195.679 217.482 195.385 217.409 195.019 217.409H192.783V216.362ZM204.435 217.03V218.063H200.501V217.03H204.435ZM200.768 213.801V221.25H199.496V213.801H200.768ZM205.467 213.801V221.25H204.187V213.801H205.467ZM208.562 216.362H210.797C211.399 216.362 211.905 216.467 212.318 216.679C212.731 216.886 213.043 217.172 213.253 217.54C213.469 217.902 213.577 218.315 213.577 218.778C213.577 219.123 213.517 219.446 213.398 219.749C213.279 220.047 213.1 220.309 212.862 220.534C212.628 220.759 212.336 220.936 211.987 221.065C211.644 221.188 211.247 221.25 210.797 221.25H207.633V213.801H208.906V220.203H210.797C211.165 220.203 211.458 220.137 211.678 220.004C211.898 219.871 212.057 219.699 212.153 219.488C212.249 219.276 212.297 219.056 212.297 218.827C212.297 218.602 212.249 218.381 212.153 218.166C212.057 217.95 211.898 217.771 211.678 217.629C211.458 217.482 211.165 217.409 210.797 217.409H208.562V216.362ZM216.225 213.801V221.25H214.952V213.801H216.225ZM219.829 219.233L223.261 213.801H224.541V221.25H223.261V215.819L219.829 221.25H218.564V213.801H219.829V219.233ZM222.567 211.103H223.598C223.598 211.461 223.516 211.78 223.351 212.06C223.185 212.335 222.949 212.551 222.642 212.707C222.335 212.862 221.971 212.94 221.549 212.94C220.911 212.94 220.407 212.771 220.035 212.432C219.669 212.087 219.485 211.644 219.485 211.103H220.517C220.517 211.373 220.594 211.612 220.75 211.819C220.906 212.025 221.173 212.128 221.549 212.128C221.915 212.128 222.176 212.025 222.333 211.819C222.489 211.612 222.567 211.373 222.567 211.103ZM231.35 215.233V224.114H230.071V213.801H231.241L231.35 215.233ZM236.365 217.464V217.608C236.365 218.149 236.3 218.653 236.173 219.116C236.044 219.574 235.856 219.975 235.608 220.314C235.365 220.654 235.065 220.917 234.708 221.106C234.35 221.293 233.939 221.388 233.475 221.388C233.004 221.388 232.587 221.31 232.224 221.154C231.862 220.997 231.554 220.771 231.303 220.472C231.05 220.174 230.849 219.816 230.697 219.398C230.551 218.98 230.45 218.51 230.395 217.987V217.216C230.45 216.665 230.553 216.172 230.704 215.736C230.855 215.3 231.055 214.928 231.303 214.62C231.554 214.308 231.86 214.072 232.217 213.911C232.575 213.746 232.988 213.664 233.455 213.664C233.923 213.664 234.338 213.756 234.7 213.939C235.063 214.118 235.367 214.375 235.616 214.71C235.863 215.045 236.049 215.447 236.173 215.915C236.3 216.378 236.365 216.894 236.365 217.464ZM235.086 217.608V217.464C235.086 217.092 235.047 216.743 234.969 216.417C234.891 216.086 234.769 215.798 234.605 215.55C234.443 215.297 234.237 215.1 233.985 214.957C233.732 214.811 233.432 214.737 233.084 214.737C232.762 214.737 232.483 214.793 232.244 214.902C232.01 215.013 231.811 215.162 231.646 215.35C231.482 215.533 231.346 215.745 231.241 215.983C231.139 216.218 231.064 216.461 231.013 216.713V218.496C231.106 218.817 231.233 219.12 231.399 219.405C231.564 219.685 231.784 219.912 232.059 220.086C232.334 220.257 232.68 220.341 233.097 220.341C233.442 220.341 233.738 220.271 233.985 220.128C234.237 219.981 234.443 219.782 234.605 219.529C234.769 219.276 234.891 218.988 234.969 218.661C235.047 218.332 235.086 217.98 235.086 217.608ZM241.077 221.388C240.558 221.388 240.089 221.301 239.666 221.126C239.249 220.947 238.889 220.697 238.587 220.376C238.289 220.055 238.059 219.673 237.899 219.233C237.738 218.792 237.658 218.311 237.658 217.787V217.499C237.658 216.892 237.747 216.353 237.926 215.88C238.105 215.403 238.349 214.999 238.655 214.669C238.963 214.338 239.311 214.088 239.701 213.918C240.091 213.748 240.494 213.664 240.911 213.664C241.443 213.664 241.902 213.756 242.287 213.939C242.678 214.122 242.996 214.379 243.243 214.71C243.491 215.036 243.674 215.422 243.794 215.866C243.913 216.307 243.973 216.789 243.973 217.312V217.884H238.415V216.845H242.7V216.748C242.682 216.417 242.613 216.096 242.493 215.784C242.378 215.472 242.195 215.214 241.943 215.013C241.691 214.811 241.347 214.71 240.911 214.71C240.623 214.71 240.356 214.772 240.114 214.896C239.871 215.015 239.662 215.194 239.487 215.433C239.314 215.671 239.179 215.963 239.082 216.307C238.986 216.652 238.938 217.048 238.938 217.499V217.787C238.938 218.141 238.986 218.474 239.082 218.786C239.183 219.093 239.327 219.364 239.516 219.598C239.707 219.831 239.939 220.016 240.21 220.148C240.485 220.282 240.797 220.348 241.145 220.348C241.595 220.348 241.975 220.257 242.287 220.073C242.6 219.889 242.872 219.644 243.106 219.336L243.876 219.949C243.716 220.193 243.512 220.424 243.264 220.644C243.017 220.865 242.711 221.044 242.349 221.182C241.992 221.318 241.567 221.388 241.077 221.388ZM249.736 219.556L252.268 213.801H253.492L250.177 221.25H249.296L245.995 213.801H247.219L249.736 219.556ZM246.847 213.801V221.25H245.575V213.801H246.847ZM252.584 221.25V213.801H253.864V221.25H252.584ZM255.577 217.608V217.45C255.577 216.913 255.654 216.415 255.81 215.956C255.966 215.492 256.191 215.091 256.484 214.751C256.778 214.407 257.133 214.141 257.55 213.952C257.968 213.76 258.436 213.664 258.954 213.664C259.477 213.664 259.946 213.76 260.363 213.952C260.786 214.141 261.144 214.407 261.437 214.751C261.735 215.091 261.962 215.492 262.118 215.956C262.274 216.415 262.352 216.913 262.352 217.45V217.608C262.352 218.145 262.274 218.643 262.118 219.103C261.962 219.561 261.735 219.963 261.437 220.307C261.144 220.647 260.788 220.913 260.371 221.106C259.958 221.293 259.49 221.388 258.968 221.388C258.444 221.388 257.975 221.293 257.558 221.106C257.141 220.913 256.782 220.647 256.484 220.307C256.191 219.963 255.966 219.561 255.81 219.103C255.654 218.643 255.577 218.145 255.577 217.608ZM256.849 217.45V217.608C256.849 217.98 256.893 218.332 256.979 218.661C257.067 218.988 257.197 219.276 257.372 219.529C257.55 219.782 257.774 219.981 258.039 220.128C258.305 220.271 258.614 220.341 258.968 220.341C259.317 220.341 259.621 220.271 259.882 220.128C260.149 219.981 260.369 219.782 260.543 219.529C260.717 219.276 260.848 218.988 260.934 218.661C261.027 218.332 261.072 217.98 261.072 217.608V217.45C261.072 217.083 261.027 216.736 260.934 216.411C260.848 216.08 260.714 215.788 260.536 215.536C260.361 215.278 260.141 215.077 259.876 214.93C259.615 214.783 259.307 214.71 258.954 214.71C258.606 214.71 258.298 214.783 258.033 214.93C257.77 215.077 257.55 215.278 257.372 215.536C257.197 215.788 257.067 216.08 256.979 216.411C256.893 216.736 256.849 217.083 256.849 217.45ZM268.997 217.03V218.063H265.062V217.03H268.997ZM265.33 213.801V221.25H264.057V213.801H265.33ZM270.028 213.801V221.25H268.748V213.801H270.028ZM275.112 213.801V221.25H273.832V213.801H275.112ZM277.608 213.801V214.834H271.383V213.801H277.608ZM281.79 217.174V217.244C281.79 218.248 281.678 219.157 281.453 219.969C281.229 220.782 280.943 221.491 280.594 222.097C280.245 222.708 279.878 223.212 279.493 223.611C279.108 224.016 278.753 224.306 278.426 224.485L278.159 223.714C278.43 223.508 278.702 223.219 278.977 222.848C279.252 222.48 279.507 222.026 279.741 221.484C279.975 220.947 280.162 220.327 280.304 219.625C280.447 218.918 280.518 218.129 280.518 217.257V217.16C280.518 216.288 280.442 215.502 280.291 214.799C280.14 214.093 279.942 213.471 279.7 212.934C279.461 212.397 279.204 211.945 278.929 211.578C278.658 211.206 278.401 210.919 278.159 210.717L278.426 209.939C278.753 210.118 279.108 210.41 279.493 210.813C279.878 211.212 280.245 211.718 280.594 212.327C280.943 212.938 281.229 213.649 281.453 214.462C281.678 215.27 281.79 216.174 281.79 217.174Z" fill="#334059"/>
<path d="M39.1007 249.448H29.1676C28.9041 249.448 28.6514 249.554 28.4651 249.739C28.2789 249.926 28.1742 250.179 28.1742 250.443V260.384C28.1742 260.648 28.2789 260.901 28.4651 261.088C28.6514 261.273 28.9041 261.379 29.1676 261.379H39.1007C39.3641 261.379 39.6168 261.273 39.8031 261.088C39.9894 260.901 40.0941 260.648 40.0941 260.384V250.443C40.0941 250.179 39.9894 249.926 39.8031 249.739C39.6168 249.554 39.3641 249.448 39.1007 249.448ZM29.1676 260.384V250.443H39.1007V260.384H29.1676Z" fill="#DDE0E5"/>
<path d="M58.4464 259.227H58.5771C59.3108 259.227 59.907 259.124 60.3655 258.917C60.8241 258.711 61.1772 258.433 61.4248 258.084C61.6724 257.736 61.8421 257.343 61.9338 256.907C62.0255 256.467 62.0713 256.014 62.0713 255.55V254.016C62.0713 253.561 62.0187 253.158 61.9132 252.804C61.8123 252.451 61.6702 252.155 61.4867 251.916C61.3079 251.677 61.1038 251.496 60.8746 251.371C60.6453 251.248 60.4022 251.186 60.1454 251.186C59.852 251.186 59.5882 251.246 59.3544 251.365C59.1251 251.48 58.9302 251.643 58.7697 251.854C58.6138 252.065 58.4946 252.313 58.412 252.597C58.3295 252.882 58.2882 253.191 58.2882 253.526C58.2882 253.825 58.3249 254.114 58.3983 254.394C58.4716 254.674 58.584 254.927 58.7353 255.151C58.8867 255.377 59.0747 255.556 59.2993 255.688C59.5286 255.817 59.7969 255.881 60.1041 255.881C60.3885 255.881 60.6544 255.826 60.902 255.716C61.1543 255.601 61.3766 255.447 61.5693 255.255C61.7664 255.058 61.9223 254.834 62.037 254.587C62.1562 254.339 62.225 254.08 62.2433 253.81H62.8486C62.8486 254.19 62.773 254.567 62.6217 254.939C62.4749 255.305 62.2685 255.64 62.0026 255.943C61.7366 256.247 61.4248 256.489 61.0671 256.673C60.7094 256.852 60.3196 256.942 59.8978 256.942C59.4026 256.942 58.9738 256.845 58.6115 256.652C58.2493 256.459 57.9512 256.202 57.7173 255.881C57.488 255.56 57.3161 255.202 57.2014 254.807C57.0913 254.408 57.0364 254.004 57.0364 253.596C57.0364 253.119 57.1028 252.671 57.2358 252.253C57.3688 251.836 57.5659 251.468 57.8273 251.151C58.0888 250.83 58.412 250.58 58.7973 250.401C59.187 250.222 59.6364 250.133 60.1454 250.133C60.7186 250.133 61.207 250.248 61.6106 250.477C62.0141 250.707 62.3419 251.014 62.5942 251.4C62.851 251.785 63.039 252.218 63.1582 252.701C63.2774 253.183 63.337 253.678 63.337 254.188V254.649C63.337 255.167 63.3026 255.696 63.2338 256.232C63.1697 256.765 63.0436 257.274 62.8555 257.761C62.6721 258.248 62.4039 258.684 62.0507 259.069C61.6977 259.449 61.2368 259.753 60.6681 259.977C60.1041 260.198 59.4071 260.308 58.5771 260.308H58.4464V259.227ZM71.8732 256.921V257.967H64.637V257.217L69.1218 250.271H70.1605L69.0462 252.28L66.0815 256.921H71.8732ZM70.4769 250.271V260.294H69.2044V250.271H70.4769ZM75.8146 255.509V256.556H72.4579V255.509H75.8146ZM80.7258 251.268H82.3835C82.9613 251.268 83.4955 251.367 83.9862 251.565C84.4814 251.758 84.9125 252.033 85.2793 252.391C85.6508 252.749 85.9397 253.176 86.146 253.672C86.3524 254.162 86.4556 254.706 86.4556 255.303C86.4556 255.899 86.3524 256.446 86.146 256.942C85.9397 257.437 85.6508 257.866 85.2793 258.229C84.9125 258.587 84.4814 258.865 83.9862 259.062C83.4955 259.255 82.9613 259.351 82.3835 259.351H80.7258C80.148 259.351 79.6138 259.255 79.1231 259.062C78.6325 258.865 78.2014 258.587 77.8299 258.229C77.4631 257.871 77.1765 257.446 76.9702 256.955C76.7684 256.459 76.6675 255.914 76.6675 255.317C76.6675 254.721 76.7684 254.176 76.9702 253.685C77.1765 253.189 77.4631 252.763 77.8299 252.405C78.2014 252.042 78.6325 251.762 79.1231 251.565C79.6138 251.367 80.148 251.268 80.7258 251.268ZM80.7258 252.315C80.125 252.315 79.6161 252.441 79.1988 252.694C78.7815 252.942 78.465 253.29 78.2495 253.74C78.034 254.19 77.9263 254.715 77.9263 255.317C77.9263 255.772 77.9859 256.181 78.1051 256.549C78.2289 256.916 78.41 257.23 78.6485 257.493C78.887 257.754 79.1804 257.956 79.5289 258.098C79.8774 258.24 80.2764 258.312 80.7258 258.312H82.3973C82.9934 258.312 83.4978 258.188 83.9106 257.94C84.3278 257.687 84.6442 257.337 84.8597 256.886C85.0799 256.432 85.1899 255.904 85.1899 255.303C85.1899 254.853 85.128 254.445 85.0042 254.077C84.8804 253.711 84.6992 253.396 84.4608 253.134C84.227 252.872 83.9357 252.671 83.5872 252.529C83.2433 252.387 82.8467 252.315 82.3973 252.315H80.7258ZM82.1978 249.857V260.707H80.9253V249.857H82.1978ZM91.2017 255.482H90.0117V254.635H91.1535C91.6579 254.635 92.0661 254.564 92.3779 254.421C92.6898 254.279 92.9168 254.082 93.0589 253.83C93.201 253.577 93.2721 253.286 93.2721 252.955C93.2721 252.638 93.1942 252.35 93.0383 252.088C92.8823 251.822 92.6417 251.61 92.316 251.455C91.9904 251.293 91.5708 251.213 91.0573 251.213C90.6721 251.213 90.3236 251.287 90.0117 251.434C89.6999 251.576 89.4523 251.776 89.2689 252.033C89.0854 252.286 88.9937 252.576 88.9937 252.907H87.6662C87.6662 252.48 87.7556 252.097 87.9344 251.758C88.1133 251.414 88.3586 251.122 88.6704 250.883C88.9823 250.639 89.3422 250.454 89.7503 250.326C90.1631 250.197 90.5987 250.133 91.0573 250.133C91.5938 250.133 92.0799 250.195 92.5155 250.318C92.9511 250.438 93.3249 250.617 93.6366 250.855C93.9485 251.094 94.187 251.39 94.352 251.743C94.5171 252.097 94.5997 252.508 94.5997 252.976C94.5997 253.32 94.5195 253.644 94.3589 253.946C94.1984 254.25 93.9691 254.516 93.6711 254.746C93.373 254.974 93.0153 255.157 92.598 255.289C92.1808 255.418 91.7153 255.482 91.2017 255.482ZM90.0117 254.896H91.2017C91.7658 254.896 92.2679 254.954 92.7081 255.069C93.1484 255.184 93.5197 255.351 93.8224 255.572C94.125 255.792 94.3543 256.064 94.5103 256.391C94.6707 256.712 94.751 257.082 94.751 257.499C94.751 257.967 94.6592 258.382 94.4759 258.745C94.297 259.108 94.0426 259.416 93.7124 259.667C93.3822 259.92 92.9901 260.111 92.5361 260.239C92.0867 260.368 91.5938 260.432 91.0573 260.432C90.6262 260.432 90.1997 260.377 89.7779 260.267C89.3605 260.152 88.9823 259.977 88.6429 259.743C88.3036 259.505 88.0307 259.202 87.8244 258.834C87.6226 258.468 87.5217 258.027 87.5217 257.513H88.8493C88.8493 257.847 88.941 258.155 89.1244 258.435C89.3124 258.715 89.5715 258.941 89.9017 259.11C90.2319 259.276 90.617 259.358 91.0573 259.358C91.5617 259.358 91.9881 259.28 92.3366 259.124C92.6898 258.963 92.958 258.745 93.1414 258.47C93.3294 258.19 93.4235 257.876 93.4235 257.526C93.4235 257.219 93.373 256.953 93.2721 256.728C93.1759 256.498 93.0314 256.311 92.8388 256.163C92.6508 256.017 92.4146 255.909 92.1303 255.84C91.8506 255.766 91.525 255.73 91.1535 255.73H90.0117V254.896Z" fill="#334059"/>
<path d="M63.9492 139.789V140.834H56.713V140.085L61.1978 133.138H62.2365L61.1222 135.148L58.1575 139.789H63.9492ZM62.5529 133.138V143.162H61.2804V133.138H62.5529ZM71.8732 139.789V140.834H64.637V140.085L69.1218 133.138H70.1605L69.0462 135.148L66.0815 139.789H71.8732ZM70.4769 133.138V143.162H69.2044V133.138H70.4769ZM75.8146 138.377V139.423H72.4579V138.377H75.8146ZM80.7258 134.136H82.3835C82.9613 134.136 83.4955 134.235 83.9862 134.432C84.4814 134.625 84.9125 134.901 85.2793 135.259C85.6507 135.617 85.9396 136.044 86.146 136.539C86.3524 137.03 86.4556 137.574 86.4556 138.171C86.4556 138.767 86.3524 139.314 86.146 139.809C85.9396 140.305 85.6507 140.733 85.2793 141.097C84.9125 141.455 84.4814 141.732 83.9862 141.93C83.4955 142.123 82.9613 142.218 82.3835 142.218H80.7258C80.148 142.218 79.6138 142.123 79.1231 141.93C78.6324 141.732 78.2014 141.455 77.8299 141.097C77.4631 140.739 77.1765 140.314 76.9702 139.822C76.7684 139.327 76.6675 138.781 76.6675 138.185C76.6675 137.588 76.7684 137.044 76.9702 136.553C77.1765 136.057 77.4631 135.631 77.8299 135.273C78.2014 134.909 78.6324 134.63 79.1231 134.432C79.6138 134.235 80.148 134.136 80.7258 134.136ZM80.7258 135.183C80.125 135.183 79.616 135.309 79.1987 135.561C78.7814 135.81 78.465 136.158 78.2495 136.608C78.034 137.058 77.9262 137.583 77.9262 138.185C77.9262 138.639 77.9858 139.049 78.105 139.417C78.2289 139.783 78.41 140.098 78.6485 140.36C78.887 140.622 79.1804 140.824 79.5289 140.966C79.8774 141.108 80.2764 141.179 80.7258 141.179H82.3973C82.9934 141.179 83.4978 141.056 83.9106 140.807C84.3277 140.555 84.6442 140.204 84.8597 139.754C85.0799 139.3 85.1899 138.772 85.1899 138.171C85.1899 137.721 85.128 137.313 85.0041 136.945C84.8804 136.579 84.6992 136.264 84.4608 136.002C84.227 135.74 83.9357 135.538 83.5872 135.396C83.2433 135.254 82.8467 135.183 82.3973 135.183H80.7258ZM82.1978 132.725V143.575H80.9253V132.725H82.1978ZM91.2017 138.35H90.0117V137.503H91.1535C91.6579 137.503 92.0661 137.432 92.3779 137.289C92.6898 137.147 92.9168 136.949 93.0588 136.698C93.201 136.445 93.2721 136.153 93.2721 135.823C93.2721 135.506 93.1942 135.217 93.0382 134.956C92.8823 134.689 92.6416 134.478 92.316 134.323C91.9904 134.161 91.5708 134.081 91.0573 134.081C90.672 134.081 90.3236 134.155 90.0117 134.302C89.6999 134.444 89.4523 134.644 89.2689 134.901C89.0854 135.153 88.9937 135.444 88.9937 135.775H87.6662C87.6662 135.348 87.7556 134.965 87.9344 134.625C88.1133 134.281 88.3586 133.99 88.6704 133.751C88.9822 133.507 89.3422 133.322 89.7503 133.194C90.1631 133.065 90.5987 133.001 91.0573 133.001C91.5938 133.001 92.0799 133.062 92.5155 133.186C92.9511 133.305 93.3249 133.484 93.6366 133.723C93.9485 133.961 94.187 134.258 94.352 134.611C94.5171 134.965 94.5996 135.376 94.5996 135.843C94.5996 136.188 94.5195 136.511 94.3589 136.814C94.1984 137.118 93.9691 137.383 93.6711 137.613C93.373 137.842 93.0153 138.024 92.598 138.157C92.1808 138.286 91.7152 138.35 91.2017 138.35ZM90.0117 137.764H91.2017C91.7657 137.764 92.2679 137.821 92.7081 137.936C93.1483 138.051 93.5197 138.218 93.8224 138.44C94.125 138.66 94.3543 138.932 94.5102 139.258C94.6707 139.58 94.751 139.949 94.751 140.367C94.751 140.834 94.6592 141.25 94.4759 141.613C94.297 141.975 94.0425 142.283 93.7124 142.535C93.3822 142.788 92.9901 142.979 92.5361 143.107C92.0867 143.236 91.5938 143.3 91.0573 143.3C90.6262 143.3 90.1997 143.244 89.7778 143.135C89.3605 143.02 88.9822 142.845 88.6429 142.611C88.3036 142.372 88.0307 142.07 87.8244 141.702C87.6226 141.335 87.5217 140.895 87.5217 140.381H88.8493C88.8493 140.715 88.941 141.023 89.1244 141.303C89.3124 141.583 89.5715 141.808 89.9017 141.977C90.2319 142.143 90.617 142.226 91.0573 142.226C91.5617 142.226 91.9881 142.148 92.3366 141.992C92.6898 141.831 92.9579 141.613 93.1414 141.338C93.3294 141.058 93.4235 140.743 93.4235 140.394C93.4235 140.087 93.373 139.82 93.2721 139.596C93.1759 139.366 93.0314 139.178 92.8388 139.031C92.6507 138.884 92.4146 138.777 92.1303 138.708C91.8506 138.634 91.525 138.598 91.1535 138.598H90.0117V137.764Z" fill="#334059"/>
<path fill-rule="evenodd" clip-rule="evenodd" d="M29.5287 132.316C29.1695 132.316 28.8249 132.459 28.5709 132.713C28.3169 132.968 28.1742 133.312 28.1742 133.672V143.162C28.1742 143.522 28.3169 143.866 28.5709 144.121C28.8249 144.374 29.1695 144.517 29.5287 144.517H39.0104C39.3697 144.517 39.7142 144.374 39.9682 144.121C40.2222 143.866 40.365 143.522 40.365 143.162V133.672C40.365 133.312 40.2222 132.968 39.9682 132.713C39.7142 132.459 39.3697 132.316 39.0104 132.316H29.5287ZM37.6221 136.922C37.7491 136.795 37.8205 136.623 37.8206 136.444C37.8207 136.264 37.7494 136.092 37.6224 135.964C37.4954 135.837 37.3231 135.765 37.1435 135.765C36.9638 135.765 36.7915 135.837 36.6644 135.964L33.312 139.319L31.8754 137.881C31.8126 137.818 31.7379 137.768 31.6558 137.735C31.5735 137.7 31.4855 137.683 31.3966 137.683C31.2169 137.683 31.0445 137.754 30.9175 137.881C30.7904 138.008 30.719 138.18 30.7189 138.36C30.7189 138.54 30.7902 138.713 30.9171 138.84L32.785 140.71C32.8541 140.779 32.9363 140.833 33.0268 140.871C33.1171 140.908 33.214 140.928 33.312 140.928C33.4098 140.928 33.5067 140.908 33.5971 140.871C33.6876 140.833 33.7697 140.779 33.8388 140.71L37.6221 136.922Z" fill="#0065DD"/>
<path d="M63.174 181.24V182.206H57.123V181.361L60.1518 177.986C60.5242 177.572 60.812 177.219 61.0152 176.932C61.2226 176.639 61.3666 176.379 61.447 176.15C61.5316 175.917 61.574 175.679 61.574 175.438C61.574 175.133 61.5105 174.858 61.3835 174.612C61.2607 174.362 61.0787 174.163 60.8375 174.014C60.5962 173.867 60.3041 173.792 59.9613 173.792C59.5507 173.792 59.2078 173.872 58.9327 174.034C58.6618 174.19 58.4586 174.41 58.3231 174.694C58.1877 174.978 58.12 175.305 58.12 175.674H56.9453C56.9453 175.152 57.0595 174.676 57.2882 174.243C57.5167 173.811 57.8553 173.468 58.3041 173.214C58.7528 172.956 59.3051 172.827 59.9613 172.827C60.5453 172.827 61.0449 172.93 61.4597 173.138C61.8745 173.341 62.192 173.629 62.4121 174.002C62.6364 174.37 62.7486 174.803 62.7486 175.298C62.7486 175.569 62.7021 175.845 62.6089 176.125C62.52 176.399 62.3952 176.675 62.2343 176.95C62.0777 177.226 61.8936 177.497 61.6819 177.764C61.4745 178.03 61.2523 178.294 61.0152 178.552L58.539 181.24H63.174ZM70.4884 181.24V182.206H64.4375V181.361L67.4662 177.986C67.8387 177.572 68.1265 177.219 68.3296 176.932C68.5371 176.639 68.6811 176.379 68.7615 176.15C68.8461 175.917 68.8885 175.679 68.8885 175.438C68.8885 175.133 68.825 174.858 68.698 174.612C68.5752 174.362 68.3931 174.163 68.1519 174.014C67.9106 173.867 67.6186 173.792 67.2757 173.792C66.8651 173.792 66.5223 173.872 66.2471 174.034C65.9762 174.19 65.7731 174.41 65.6376 174.694C65.5021 174.978 65.4344 175.305 65.4344 175.674H64.2598C64.2598 175.152 64.374 174.676 64.6026 174.243C64.8312 173.811 65.1698 173.468 65.6185 173.214C66.0673 172.956 66.6196 172.827 67.2757 172.827C67.8598 172.827 68.3593 172.93 68.7741 173.138C69.189 173.341 69.5065 173.629 69.7265 174.002C69.9509 174.37 70.063 174.803 70.063 175.298C70.063 175.569 70.0165 175.845 69.9233 176.125C69.8345 176.399 69.7096 176.675 69.5487 176.95C69.3921 177.226 69.208 177.497 68.9964 177.764C68.789 178.03 68.5667 178.294 68.3296 178.552L65.8535 181.24H70.4884ZM73.46 177.001H74.2981C74.7087 177.001 75.0474 176.934 75.314 176.798C75.5849 176.658 75.786 176.47 75.9172 176.232C76.0526 175.991 76.1204 175.72 76.1204 175.419C76.1204 175.063 76.0611 174.765 75.9425 174.523C75.8241 174.281 75.6463 174.099 75.4092 173.976C75.1722 173.854 74.8717 173.792 74.5076 173.792C74.1774 173.792 73.8854 173.858 73.6314 173.989C73.3817 174.116 73.1848 174.298 73.0409 174.536C72.9012 174.772 72.8313 175.052 72.8313 175.374H71.6568C71.6568 174.905 71.7752 174.476 72.0123 174.091C72.2493 173.705 72.5817 173.398 73.0092 173.169C73.4409 172.941 73.9404 172.827 74.5076 172.827C75.0663 172.827 75.5552 172.925 75.9743 173.125C76.3933 173.32 76.7193 173.612 76.9522 174.002C77.1849 174.387 77.3013 174.868 77.3013 175.445C77.3013 175.677 77.2464 175.927 77.1363 176.194C77.0304 176.457 76.8632 176.703 76.6347 176.932C76.4103 177.161 76.1182 177.348 75.7584 177.497C75.3987 177.641 74.9668 177.713 74.4632 177.713H73.46V177.001ZM73.46 177.967V177.261H74.4632C75.0516 177.261 75.5383 177.332 75.9236 177.472C76.3087 177.612 76.6113 177.798 76.8314 178.03C77.0558 178.264 77.2124 178.521 77.3013 178.799C77.3945 179.075 77.441 179.35 77.441 179.626C77.441 180.058 77.367 180.441 77.2188 180.776C77.0749 181.111 76.8696 181.395 76.6029 181.628C76.3404 181.861 76.0315 182.037 75.6759 182.155C75.3203 182.273 74.933 182.333 74.514 182.333C74.1119 182.333 73.733 182.275 73.3774 182.161C73.0261 182.048 72.715 181.882 72.4441 181.666C72.1732 181.446 71.9615 181.177 71.8092 180.859C71.6568 180.537 71.5805 180.17 71.5805 179.759H72.7552C72.7552 180.081 72.8251 180.363 72.9647 180.604C73.1086 180.846 73.3118 181.035 73.5743 181.17C73.841 181.301 74.1541 181.368 74.514 181.368C74.8738 181.368 75.1828 181.306 75.4409 181.183C75.7034 181.055 75.9045 180.865 76.0442 180.611C76.1881 180.357 76.26 180.037 76.26 179.652C76.26 179.266 76.1796 178.95 76.0187 178.704C75.8579 178.454 75.6294 178.27 75.333 178.152C75.041 178.028 74.6959 177.967 74.2981 177.967H73.46ZM81.6316 177.79V178.755H78.5332V177.79H81.6316ZM86.165 173.874H87.6952C88.2286 173.874 88.7217 173.965 89.1747 174.148C89.6317 174.326 90.0296 174.58 90.3683 174.91C90.7111 175.241 90.9778 175.635 91.1683 176.092C91.3588 176.546 91.4541 177.048 91.4541 177.599C91.4541 178.15 91.3588 178.654 91.1683 179.111C90.9778 179.568 90.7111 179.965 90.3683 180.299C90.0296 180.63 89.6317 180.886 89.1747 181.068C88.7217 181.246 88.2286 181.335 87.6952 181.335H86.165C85.6317 181.335 85.1386 181.246 84.6856 181.068C84.2327 180.886 83.8348 180.63 83.4919 180.299C83.1533 179.97 82.8888 179.577 82.6983 179.124C82.512 178.666 82.4189 178.162 82.4189 177.612C82.4189 177.061 82.512 176.559 82.6983 176.105C82.8888 175.648 83.1533 175.254 83.4919 174.923C83.8348 174.589 84.2327 174.33 84.6856 174.148C85.1386 173.965 85.6317 173.874 86.165 173.874ZM86.165 174.841C85.6105 174.841 85.1407 174.957 84.7554 175.19C84.3703 175.419 84.0782 175.741 83.8792 176.156C83.6804 176.572 83.5809 177.056 83.5809 177.612C83.5809 178.03 83.6358 178.41 83.7459 178.748C83.8603 179.088 84.0275 179.378 84.2475 179.619C84.4676 179.861 84.7385 180.048 85.0603 180.179C85.382 180.31 85.7502 180.375 86.165 180.375H87.708C88.2582 180.375 88.7239 180.261 89.1048 180.032C89.49 179.799 89.782 179.475 89.981 179.061C90.1842 178.641 90.2858 178.154 90.2858 177.599C90.2858 177.183 90.2286 176.806 90.1144 176.468C90.0001 176.128 89.8329 175.838 89.6128 175.597C89.3968 175.356 89.1281 175.169 88.8063 175.038C88.489 174.907 88.1228 174.841 87.708 174.841H86.165ZM87.5238 172.572V182.588H86.3491V172.572H87.5238ZM95.8352 177.764H94.7367V176.983H95.7906C96.2563 176.983 96.633 176.917 96.9208 176.785C97.2087 176.654 97.4182 176.472 97.5495 176.239C97.6807 176.005 97.7462 175.737 97.7462 175.432C97.7462 175.139 97.6743 174.872 97.5304 174.631C97.3865 174.385 97.1642 174.19 96.8637 174.047C96.5631 173.898 96.1758 173.823 95.7018 173.823C95.3462 173.823 95.0245 173.892 94.7367 174.027C94.4489 174.158 94.2202 174.343 94.051 174.58C93.8816 174.814 93.797 175.083 93.797 175.387H92.5715C92.5715 174.994 92.6541 174.639 92.8191 174.325C92.9842 174.008 93.2107 173.739 93.4985 173.519C93.7864 173.294 94.1187 173.123 94.4954 173.005C94.8764 172.885 95.2785 172.827 95.7018 172.827C96.197 172.827 96.6457 172.883 97.0478 172.998C97.45 173.108 97.7949 173.273 98.0828 173.494C98.3706 173.714 98.5907 173.987 98.7431 174.314C98.8955 174.639 98.9717 175.019 98.9717 175.45C98.9717 175.768 98.8976 176.067 98.7495 176.347C98.6013 176.626 98.3897 176.872 98.1146 177.084C97.8394 177.296 97.5093 177.463 97.124 177.586C96.7388 177.705 96.3092 177.764 95.8352 177.764ZM94.7367 177.223H95.8352C96.3557 177.223 96.8193 177.277 97.2257 177.383C97.632 177.488 97.9749 177.643 98.2542 177.846C98.5336 178.05 98.7452 178.301 98.8891 178.603C99.0373 178.899 99.1114 179.241 99.1114 179.626C99.1114 180.058 99.0268 180.441 98.8574 180.776C98.6924 181.111 98.4574 181.395 98.1526 181.628C97.8479 181.861 97.486 182.037 97.0669 182.155C96.6521 182.273 96.197 182.333 95.7018 182.333C95.3039 182.333 94.9102 182.282 94.5208 182.181C94.1356 182.075 93.7864 181.913 93.4732 181.697C93.1599 181.477 92.9081 181.197 92.7176 180.859C92.5313 180.519 92.4382 180.113 92.4382 179.639H93.6636C93.6636 179.948 93.7483 180.232 93.9176 180.49C94.0912 180.748 94.3303 180.957 94.635 181.113C94.9399 181.266 95.2954 181.342 95.7018 181.342C96.1674 181.342 96.5611 181.27 96.8827 181.126C97.2086 180.977 97.4563 180.776 97.6256 180.522C97.7992 180.263 97.8859 179.973 97.8859 179.652C97.8859 179.368 97.8394 179.121 97.7462 178.914C97.6574 178.703 97.524 178.528 97.3463 178.393C97.1727 178.257 96.9548 178.158 96.6923 178.094C96.4341 178.026 96.1335 177.992 95.7906 177.992H94.7367V177.223Z" fill="#334059"/>
<path fill-rule="evenodd" clip-rule="evenodd" d="M29.5287 171.36C29.1695 171.36 28.8249 171.504 28.5709 171.757C28.3169 172.012 28.1742 172.356 28.1742 172.716V182.206C28.1742 182.566 28.3169 182.91 28.5709 183.165C28.8249 183.418 29.1695 183.562 29.5287 183.562H39.0104C39.3697 183.562 39.7142 183.418 39.9682 183.165C40.2222 182.91 40.365 182.566 40.365 182.206V172.716C40.365 172.356 40.2222 172.012 39.9682 171.757C39.7142 171.504 39.3697 171.36 39.0104 171.36H29.5287ZM37.6221 175.966C37.7491 175.84 37.8205 175.667 37.8206 175.488C37.8207 175.308 37.7494 175.136 37.6224 175.008C37.4954 174.881 37.3231 174.809 37.1435 174.809C36.9638 174.809 36.7915 174.881 36.6644 175.008L33.312 178.363L31.8754 176.925C31.8126 176.862 31.7379 176.812 31.6558 176.779C31.5735 176.744 31.4855 176.727 31.3966 176.727C31.2169 176.727 31.0445 176.798 30.9175 176.925C30.7904 177.052 30.719 177.225 30.7189 177.405C30.7189 177.585 30.7902 177.757 30.9171 177.884L32.785 179.754C32.8541 179.823 32.9363 179.877 33.0268 179.915C33.1171 179.952 33.214 179.972 33.312 179.972C33.4098 179.972 33.5067 179.952 33.5971 179.915C33.6876 179.877 33.7697 179.823 33.8388 179.754L37.6221 175.966Z" fill="#0065DD"/>
</g>
<defs>
<clipPath id="clip0_72_5635">
<rect width="311" height="295" rx="20" fill="white"/>
</clipPath>
</defs>
</svg>
