<svg width="224" height="252" viewBox="0 0 224 252" fill="none" xmlns="http://www.w3.org/2000/svg">
<g clip-path="url(#clip0_72_5790)">
<path d="M209.455 0H14.5455C6.51222 0 0 6.50284 0 14.5245V237.476C0 245.497 6.51222 252 14.5455 252H209.455C217.488 252 224 245.497 224 237.476V14.5245C224 6.50284 217.488 0 209.455 0Z" fill="white"/>
<path d="M48.0305 30.6132V31.954H40.7908V30.6132H48.0305ZM41.2091 30.6132V34.366H39.5898L39.5291 30.6132H41.2091ZM49.3394 30.6132L49.2382 34.3592H47.6459V30.6132H49.3394ZM46.843 22.1443V23.4918H42.3089V22.1443H46.843ZM48.1384 22.1443V31.954H46.4517V22.1443H48.1384ZM41.9715 22.1443H43.6651L43.4289 26.1194C43.393 26.7482 43.3277 27.3141 43.2333 27.8172C43.1388 28.3202 43.0241 28.7717 42.8892 29.1715C42.7587 29.5667 42.6103 29.917 42.4439 30.2224C42.2774 30.5234 42.0997 30.7839 41.9108 31.004C41.7219 31.2241 41.5285 31.4127 41.3306 31.57C41.1371 31.7227 40.946 31.8506 40.7571 31.954H39.853V30.6132H40.2915C40.413 30.501 40.5479 30.3392 40.6963 30.1281C40.8448 29.9126 40.9887 29.6318 41.1282 29.286C41.2721 28.9356 41.3981 28.5022 41.506 27.9856C41.6139 27.4691 41.6882 26.847 41.7287 26.1194L41.9715 22.1443ZM54.5752 30.492V27.0154C54.5752 26.7549 54.528 26.5303 54.4336 26.3417C54.3391 26.153 54.1952 26.0071 54.0017 25.9037C53.8128 25.8005 53.5744 25.7488 53.2865 25.7488C53.0211 25.7488 52.7917 25.7937 52.5984 25.8835C52.4049 25.9734 52.2542 26.0947 52.1463 26.2474C52.0383 26.4001 51.9843 26.573 51.9843 26.7661H50.3651C50.3651 26.4787 50.4347 26.2002 50.5742 25.9308C50.7136 25.6612 50.916 25.4209 51.1814 25.2098C51.4468 24.9987 51.764 24.8325 52.1328 24.7113C52.5016 24.59 52.9155 24.5294 53.3742 24.5294C53.923 24.5294 54.4088 24.6214 54.8317 24.8055C55.2589 24.9897 55.5941 25.2682 55.837 25.641C56.0843 26.0093 56.208 26.4719 56.208 27.0289V30.2697C56.208 30.602 56.2306 30.9007 56.2755 31.1657C56.325 31.4262 56.3947 31.653 56.4847 31.8462V31.954H54.8181C54.7417 31.7788 54.681 31.5565 54.636 31.2869C54.5954 31.013 54.5752 30.748 54.5752 30.492ZM54.8114 27.5207L54.8249 28.5246H53.6576C53.3562 28.5246 53.0909 28.5538 52.8615 28.6122C52.632 28.6661 52.4409 28.747 52.288 28.8547C52.135 28.9626 52.0203 29.0928 51.9439 29.2455C51.8674 29.3983 51.8291 29.5712 51.8291 29.7643C51.8291 29.9574 51.8741 30.1349 51.9641 30.2966C52.0541 30.4538 52.1845 30.5773 52.3555 30.6671C52.5309 30.7569 52.7423 30.8019 52.9896 30.8019C53.3225 30.8019 53.6126 30.7345 53.86 30.5998C54.112 30.4605 54.3099 30.2921 54.4538 30.0945C54.5977 29.8923 54.6742 29.7015 54.6832 29.5218L55.2095 30.2427C55.1555 30.4268 55.0633 30.6245 54.9328 30.8356C54.8024 31.0467 54.6315 31.2488 54.42 31.4419C54.2131 31.6306 53.9635 31.7856 53.6712 31.9069C53.3832 32.0281 53.0504 32.0887 52.6725 32.0887C52.1957 32.0887 51.7707 31.9944 51.3973 31.8058C51.024 31.6126 50.7316 31.3543 50.5202 31.031C50.3088 30.7031 50.2031 30.3325 50.2031 29.9192C50.2031 29.533 50.2751 29.1916 50.419 28.8952C50.5675 28.5943 50.7833 28.3427 51.0667 28.1406C51.3546 27.9385 51.7055 27.7857 52.1193 27.6825C52.5331 27.5746 53.0054 27.5207 53.5362 27.5207H54.8114ZM61.1874 24.6641V31.954H59.5547V24.6641H61.1874ZM63.5827 24.6641V25.9442H57.1999V24.6641H63.5827ZM68.6768 30.492V27.0154C68.6768 26.7549 68.6296 26.5303 68.5351 26.3417C68.4407 26.153 68.2967 26.0071 68.1033 25.9037C67.9144 25.8005 67.676 25.7488 67.3881 25.7488C67.1227 25.7488 66.8933 25.7937 66.6999 25.8835C66.5065 25.9734 66.3558 26.0947 66.2478 26.2474C66.1399 26.4001 66.0859 26.573 66.0859 26.7661H64.4666C64.4666 26.4787 64.5363 26.2002 64.6757 25.9308C64.8152 25.6612 65.0176 25.4209 65.283 25.2098C65.5484 24.9987 65.8655 24.8325 66.2344 24.7113C66.6032 24.59 67.017 24.5294 67.4758 24.5294C68.0246 24.5294 68.5104 24.6214 68.9332 24.8055C69.3605 24.9897 69.6956 25.2682 69.9385 25.641C70.1859 26.0093 70.3096 26.4719 70.3096 27.0289V30.2697C70.3096 30.602 70.3321 30.9007 70.3771 31.1657C70.4266 31.4262 70.4963 31.653 70.5863 31.8462V31.954H68.9197C68.8432 31.7788 68.7825 31.5565 68.7376 31.2869C68.6971 31.013 68.6768 30.748 68.6768 30.492ZM68.913 27.5207L68.9264 28.5246H67.7592C67.4578 28.5246 67.1924 28.5538 66.963 28.6122C66.7336 28.6661 66.5424 28.747 66.3895 28.8547C66.2366 28.9626 66.1219 29.0928 66.0454 29.2455C65.969 29.3983 65.9307 29.5712 65.9307 29.7643C65.9307 29.9574 65.9757 30.1349 66.0656 30.2966C66.1556 30.4538 66.2861 30.5773 66.457 30.6671C66.6324 30.7569 66.8438 30.8019 67.0912 30.8019C67.4241 30.8019 67.7142 30.7345 67.9616 30.5998C68.2135 30.4605 68.4115 30.2921 68.5554 30.0945C68.6993 29.8923 68.7757 29.7015 68.7848 29.5218L69.311 30.2427C69.257 30.4268 69.1648 30.6245 69.0344 30.8356C68.904 31.0467 68.7331 31.2488 68.5216 31.4419C68.3147 31.6306 68.0651 31.7856 67.7727 31.9069C67.4848 32.0281 67.152 32.0887 66.7741 32.0887C66.2973 32.0887 65.8722 31.9944 65.4989 31.8058C65.1256 31.6126 64.8332 31.3543 64.6218 31.031C64.4104 30.7031 64.3046 30.3325 64.3046 29.9192C64.3046 29.533 64.3766 29.1916 64.5205 28.8952C64.669 28.5943 64.8849 28.3427 65.1683 28.1406C65.4562 27.9385 65.807 27.7857 66.2208 27.6825C66.6347 27.5746 67.1069 27.5207 67.6378 27.5207H68.913Z" fill="#334059"/>
<mask id="mask0_72_5790" style="mask-type:luminance" maskUnits="userSpaceOnUse" x="18" y="24" width="10" height="7">
<path d="M27.6363 24.6917H18.9091V30.5014H27.6363V24.6917Z" fill="white"/>
</mask>
<g mask="url(#mask0_72_5790)">
<path d="M26.9091 25.418L23.2727 29.0491L19.6364 25.418" stroke="#334059" stroke-width="2"/>
</g>
<path d="M22.1683 67.8117H20.3725V67.0879H22.1683C22.5161 67.0879 22.7977 67.0326 23.0132 66.9219C23.2286 66.8113 23.3856 66.6577 23.484 66.4609C23.5856 66.2643 23.6364 66.0399 23.6364 65.7879C23.6364 65.5574 23.5856 65.3407 23.484 65.1379C23.3856 64.9351 23.2286 64.7723 23.0132 64.6493C22.7977 64.5233 22.5161 64.4603 22.1683 64.4603H20.5803V70.4439H19.6893V63.7319H22.1683C22.6762 63.7319 23.1055 63.8195 23.4563 63.9947C23.8072 64.1698 24.0734 64.4126 24.255 64.7231C24.4366 65.0304 24.5274 65.3823 24.5274 65.7787C24.5274 66.2089 24.4366 66.5762 24.255 66.8805C24.0734 67.1847 23.8072 67.4167 23.4563 67.5766C23.1055 67.7333 22.6762 67.8117 22.1683 67.8117ZM28.4144 69.591V67.0233C28.4144 66.8267 28.3744 66.6561 28.2944 66.5116C28.2175 66.3641 28.1005 66.2504 27.9436 66.1705C27.7866 66.0906 27.5927 66.0507 27.3619 66.0507C27.1464 66.0507 26.9572 66.0876 26.7941 66.1613C26.634 66.2351 26.5078 66.3319 26.4155 66.4517C26.3263 66.5716 26.2816 66.7007 26.2816 66.8389H25.4276C25.4276 66.6607 25.4738 66.484 25.5661 66.3089C25.6584 66.1336 25.7907 65.9754 25.9631 65.834C26.1385 65.6896 26.3478 65.5759 26.5909 65.4929C26.8371 65.4068 27.1111 65.3638 27.4127 65.3638C27.7758 65.3638 28.0959 65.4253 28.3729 65.5482C28.653 65.6712 28.8714 65.8571 29.0285 66.106C29.1885 66.3519 29.2685 66.6607 29.2685 67.0326V69.356C29.2685 69.5219 29.2823 69.6986 29.3101 69.886C29.3408 70.0736 29.3854 70.2348 29.444 70.3701V70.4439H28.553C28.5098 70.3455 28.476 70.2149 28.4514 70.052C28.4268 69.886 28.4144 69.7324 28.4144 69.591ZM28.5621 67.4198L28.5714 68.0191H27.7081C27.465 68.0191 27.248 68.039 27.0572 68.079C26.8664 68.1159 26.7063 68.1727 26.5771 68.2496C26.4478 68.3264 26.3493 68.4232 26.2816 68.54C26.2139 68.6537 26.1801 68.7874 26.1801 68.9411C26.1801 69.0978 26.2154 69.2407 26.2863 69.3698C26.357 69.4988 26.4632 69.6018 26.6048 69.6786C26.7494 69.7524 26.9264 69.7892 27.1357 69.7892C27.3973 69.7892 27.6281 69.734 27.8282 69.6233C28.0282 69.5127 28.1867 69.3775 28.3037 69.2176C28.4237 69.0579 28.4883 68.9027 28.4976 68.752L28.8622 69.1624C28.8407 69.2914 28.7822 69.4343 28.6868 69.591C28.5914 69.7478 28.4637 69.8984 28.3037 70.0428C28.1467 70.1842 27.9589 70.3025 27.7405 70.3977C27.525 70.49 27.2818 70.5361 27.011 70.5361C26.6725 70.5361 26.3755 70.47 26.12 70.3378C25.8677 70.2056 25.6707 70.029 25.5291 69.8077C25.3906 69.5833 25.3214 69.3329 25.3214 69.0563C25.3214 68.7889 25.3737 68.5539 25.4783 68.351C25.583 68.1451 25.7338 67.9745 25.9308 67.8393C26.1277 67.701 26.3648 67.5965 26.6417 67.5258C26.9187 67.4551 27.228 67.4198 27.5696 67.4198H28.5621ZM32.477 68.0606H31.5583V67.535H32.4077C32.6447 67.535 32.8324 67.5058 32.9709 67.4474C33.1094 67.386 33.2079 67.3015 33.2663 67.1939C33.3248 67.0864 33.3541 66.9604 33.3541 66.8159C33.3541 66.6869 33.3202 66.5654 33.2525 66.4517C33.1879 66.3349 33.0832 66.2413 32.9386 66.1705C32.7939 66.0968 32.6 66.0599 32.3569 66.0599C32.1599 66.0599 31.9814 66.0952 31.8214 66.1659C31.6613 66.2336 31.5336 66.3272 31.4382 66.4471C31.3459 66.5639 31.2997 66.6961 31.2997 66.8436H30.4457C30.4457 66.5393 30.5319 66.2781 30.7042 66.0599C30.8797 65.8386 31.112 65.668 31.4013 65.5482C31.6937 65.4284 32.0122 65.3684 32.3569 65.3684C32.6462 65.3684 32.9047 65.4007 33.1325 65.4652C33.3633 65.5267 33.5587 65.6189 33.7188 65.7418C33.8788 65.8617 34.0004 66.0123 34.0834 66.1936C34.1696 66.3718 34.2127 66.5792 34.2127 66.8159C34.2127 66.9849 34.1727 67.1448 34.0927 67.2954C34.0127 67.4459 33.8973 67.5796 33.7465 67.6964C33.5957 67.8101 33.4125 67.8992 33.1971 67.9638C32.9847 68.0283 32.7447 68.0606 32.477 68.0606ZM31.5583 67.7379H32.477C32.7754 67.7379 33.0386 67.7671 33.2663 67.8254C33.4941 67.8808 33.6849 67.9638 33.8388 68.0744C33.9927 68.185 34.1081 68.3218 34.185 68.4846C34.265 68.6445 34.305 68.8289 34.305 69.0379C34.305 69.2714 34.2573 69.482 34.162 69.6694C34.0696 69.8538 33.9373 70.0105 33.765 70.1396C33.5926 70.2687 33.3863 70.367 33.1463 70.4346C32.9093 70.5022 32.6462 70.5361 32.3569 70.5361C32.0338 70.5361 31.7198 70.4807 31.4152 70.3701C31.1105 70.2595 30.8597 70.0889 30.6626 69.8584C30.4657 69.6248 30.3672 69.3283 30.3672 68.9687H31.2213C31.2213 69.1193 31.269 69.2622 31.3644 69.3974C31.4598 69.5327 31.5921 69.6417 31.7614 69.7247C31.9338 69.8077 32.1322 69.8492 32.3569 69.8492C32.597 69.8492 32.797 69.8123 32.957 69.7385C33.1171 69.6648 33.2371 69.5664 33.3171 69.4435C33.4002 69.3206 33.4418 69.1869 33.4418 69.0425C33.4418 68.855 33.4048 68.7044 33.331 68.5907C33.2571 68.477 33.1432 68.394 32.9894 68.3418C32.8386 68.2865 32.6447 68.2588 32.4077 68.2588H31.5583V67.7379ZM38.2845 69.3098L39.9834 65.456H40.805L38.58 70.4439H37.989L35.7731 65.456H36.5949L38.2845 69.3098ZM36.3456 65.456V70.4439H35.4915V65.456H36.3456ZM40.1957 70.4439V65.456H41.0543V70.4439H40.1957ZM44.5029 70.5361C44.1551 70.5361 43.8397 70.4776 43.5565 70.3608C43.2764 70.241 43.0349 70.0735 42.8317 69.8584C42.6317 69.6433 42.4778 69.3882 42.3701 69.0931C42.2624 68.7982 42.2085 68.4755 42.2085 68.1251V67.9315C42.2085 67.5258 42.2685 67.1647 42.3885 66.8482C42.5085 66.5286 42.6717 66.2581 42.8778 66.0368C43.0841 65.8156 43.318 65.6481 43.5796 65.5344C43.8412 65.4207 44.112 65.3638 44.3921 65.3638C44.749 65.3638 45.0568 65.4253 45.3154 65.5482C45.577 65.6712 45.7909 65.8432 45.957 66.0645C46.1232 66.2827 46.2463 66.5409 46.3264 66.8389C46.4064 67.134 46.4464 67.4567 46.4464 67.807V68.1897H42.7163V67.4936H45.5924V67.429C45.58 67.2077 45.5338 66.9926 45.4538 66.7837C45.3769 66.5747 45.2538 66.4026 45.0845 66.2673C44.9153 66.1321 44.6845 66.0645 44.3921 66.0645C44.1982 66.0645 44.0197 66.106 43.8565 66.189C43.6935 66.2689 43.5534 66.3888 43.4365 66.5485C43.3195 66.7084 43.2288 66.9035 43.1641 67.134C43.0994 67.3645 43.0672 67.6303 43.0672 67.9315V68.1251C43.0672 68.3618 43.0994 68.5846 43.1641 68.7935C43.2318 68.9995 43.3288 69.1807 43.4549 69.3375C43.5842 69.4942 43.7396 69.6172 43.9212 69.7063C44.1058 69.7954 44.3152 69.84 44.549 69.84C44.8506 69.84 45.1061 69.7785 45.3154 69.6556C45.5247 69.5327 45.7077 69.3682 45.8647 69.1624L46.3818 69.5726C46.2741 69.7355 46.1371 69.8907 45.9709 70.0382C45.8047 70.1857 45.6 70.3056 45.3569 70.3977C45.1168 70.49 44.8322 70.5361 44.5029 70.5361ZM54.3867 69.7432L54.3037 71.9236H53.5419V70.4439H52.891V69.7432H54.3867ZM47.4666 65.456H48.3207V69.7432H50.1488V65.456H51.0075V69.7432H52.831V65.456H53.685V70.4439H47.4666V65.456ZM57.4013 70.5361C57.0536 70.5361 56.7381 70.4776 56.4549 70.3608C56.1749 70.241 55.9333 70.0735 55.7301 69.8584C55.5301 69.6433 55.3762 69.3882 55.2685 69.0931C55.1608 68.7982 55.1069 68.4755 55.1069 68.1251V67.9315C55.1069 67.5258 55.1669 67.1647 55.2869 66.8482C55.407 66.5286 55.5701 66.2581 55.7763 66.0368C55.9825 65.8156 56.2164 65.6481 56.478 65.5344C56.7396 65.4207 57.0104 65.3638 57.2905 65.3638C57.6475 65.3638 57.9553 65.4253 58.2138 65.5482C58.4754 65.6712 58.6893 65.8432 58.8555 66.0645C59.0217 66.2827 59.1448 66.5409 59.2248 66.8389C59.3048 67.134 59.3448 67.4567 59.3448 67.807V68.1897H55.6147V67.4936H58.4908V67.429C58.4785 67.2077 58.4323 66.9926 58.3523 66.7837C58.2754 66.5747 58.1522 66.4026 57.983 66.2673C57.8137 66.1321 57.5829 66.0645 57.2905 66.0645C57.0966 66.0645 56.9181 66.106 56.755 66.189C56.5919 66.2689 56.4519 66.3888 56.3349 66.5485C56.2179 66.7084 56.1272 66.9035 56.0625 67.134C55.9979 67.3645 55.9655 67.6303 55.9655 67.9315V68.1251C55.9655 68.3618 55.9979 68.5846 56.0625 68.7935C56.1302 68.9995 56.2271 69.1807 56.3533 69.3375C56.4826 69.4942 56.6381 69.6172 56.8197 69.7063C57.0043 69.7954 57.2135 69.84 57.4474 69.84C57.749 69.84 58.0045 69.7785 58.2138 69.6556C58.4231 69.5327 58.6062 69.3682 58.7632 69.1624L59.2802 69.5726C59.1725 69.7355 59.0355 69.8907 58.8693 70.0382C58.7031 70.1857 58.4985 70.3056 58.2554 70.3977C58.0153 70.49 57.7306 70.5361 57.4013 70.5361ZM63.7305 67.618V68.3095H61.0898V67.618H63.7305ZM61.2699 65.456V70.4439H60.4159V65.456H61.2699ZM64.4229 65.456V70.4439H63.5643V65.456H64.4229ZM66.722 69.0931L69.0256 65.456H69.8842V70.4439H69.0256V66.8067L66.722 70.4439H65.8725V65.456H66.722V69.0931ZM73.328 70.5361C72.9804 70.5361 72.6649 70.4776 72.3818 70.3608C72.1017 70.241 71.8601 70.0735 71.657 69.8584C71.457 69.6433 71.3031 69.3882 71.1954 69.0931C71.0876 68.7982 71.0338 68.4755 71.0338 68.1251V67.9315C71.0338 67.5258 71.0938 67.1647 71.2138 66.8482C71.3338 66.5286 71.497 66.2581 71.7031 66.0368C71.9093 65.8156 72.1432 65.6481 72.4048 65.5344C72.6664 65.4207 72.9375 65.3638 73.2175 65.3638C73.5746 65.3638 73.8822 65.4253 74.1404 65.5482C74.4022 65.6712 74.616 65.8432 74.7826 66.0645C74.9484 66.2827 75.0713 66.5409 75.1513 66.8389C75.232 67.134 75.272 67.4567 75.272 67.807V68.1897H71.5415V67.4936H74.4175V67.429C74.4051 67.2077 74.3593 66.9926 74.2793 66.7837C74.2022 66.5747 74.0793 66.4026 73.9098 66.2673C73.7404 66.1321 73.5098 66.0645 73.2175 66.0645C73.0233 66.0645 72.8451 66.106 72.6818 66.189C72.5187 66.2689 72.3787 66.3888 72.2618 66.5485C72.1448 66.7084 72.054 66.9035 71.9894 67.134C71.9247 67.3645 71.8925 67.6303 71.8925 67.9315V68.1251C71.8925 68.3618 71.9247 68.5846 71.9894 68.7935C72.0571 68.9995 72.1541 69.1807 72.2802 69.3375C72.4095 69.4942 72.5649 69.6172 72.7462 69.7063C72.9309 69.7954 73.1404 69.84 73.3746 69.84C73.6757 69.84 73.9317 69.7785 74.1404 69.6556C74.3498 69.5327 74.5331 69.3682 74.6902 69.1624L75.2073 69.5726C75.0997 69.7355 74.9622 69.8907 74.7964 70.0382C74.6298 70.1857 74.4255 70.3056 74.1818 70.3977C73.9418 70.49 73.6575 70.5361 73.328 70.5361Z" fill="#6F7C98"/>
<path d="M21.0909 78.0691H202.909C203.913 78.0691 204.727 78.8817 204.727 79.8847V108.934C204.727 109.937 203.913 110.749 202.909 110.749H21.0909C20.0867 110.749 19.2727 109.937 19.2727 108.934V79.8847C19.2727 78.8817 20.0867 78.0691 21.0909 78.0691Z" stroke="#DAE4EE"/>
<path fill-rule="evenodd" clip-rule="evenodd" d="M195.636 89.6889V87.8733H193.818V89.6889H188.364V87.8733H186.545V89.6889H184.727V100.582H197.455V89.6889H195.636ZM186.545 91.5044V93.32H195.636V91.5044H186.545ZM195.636 98.7667V95.1355H186.545V98.7667H195.636Z" fill="#909EBB"/>
<path d="M32.8239 92.3264H33.6779L33.6041 94.1935C33.5856 94.6663 33.5317 95.0752 33.4425 95.4194C33.3533 95.7636 33.2394 96.057 33.1009 96.3003C32.9623 96.54 32.8069 96.7411 32.6346 96.9038C32.4653 97.0665 32.2899 97.2037 32.1083 97.3141H31.6836L31.7067 96.6184L31.8821 96.6133C31.9837 96.4935 32.0822 96.3708 32.1775 96.2444C32.273 96.1158 32.3607 95.9633 32.4407 95.7883C32.5207 95.6097 32.5869 95.3933 32.6392 95.1384C32.6946 94.8798 32.73 94.5654 32.7454 94.1935L32.8239 92.3264ZM33.0362 92.3264H36.0415V97.3141H35.1875V93.1144H33.0362V92.3264ZM31.4897 96.6133H36.6833V98.7847H35.8292V97.3141H32.3438V98.7847H31.4851L31.4897 96.6133ZM38.6222 92.3264H39.4762L39.4023 94.1935C39.3839 94.6663 39.3301 95.0752 39.2408 95.4194C39.1515 95.7636 39.0377 96.057 38.8991 96.3003C38.7607 96.54 38.6053 96.7411 38.4329 96.9038C38.2637 97.0665 38.0882 97.2037 37.9066 97.3141H37.4819L37.505 96.6184L37.6804 96.6133C37.782 96.4935 37.8805 96.3708 37.9759 96.2444C38.0713 96.1158 38.159 95.9633 38.239 95.7883C38.319 95.6097 38.3852 95.3933 38.4375 95.1384C38.4929 94.8798 38.5283 94.5654 38.5437 94.1935L38.6222 92.3264ZM38.8346 92.3264H41.8399V97.3141H40.9858V93.1144H38.8346V92.3264ZM37.288 96.6133H42.4815V98.7847H41.6275V97.3141H38.1421V98.7847H37.2834L37.288 96.6133ZM43.4418 96.8624C43.4418 96.7179 43.4864 96.5966 43.5757 96.4979C43.668 96.3969 43.8003 96.3461 43.9727 96.3461C44.145 96.3461 44.2758 96.3969 44.3651 96.4979C44.4574 96.5966 44.5036 96.7179 44.5036 96.8624C44.5036 97.004 44.4574 97.1239 44.3651 97.2219C44.2758 97.3199 44.145 97.3693 43.9727 97.3693C43.8003 97.3693 43.668 97.3199 43.5757 97.2219C43.4864 97.1239 43.4418 97.004 43.4418 96.8624ZM48.7923 96.1798L50.4911 92.3264H51.3129L49.0877 97.3141H48.4968L46.2809 92.3264H47.1026L48.7923 96.1798ZM46.8533 92.3264V97.3141H45.9993V92.3264H46.8533ZM50.7035 97.3141V92.3264H51.5621V97.3141H50.7035ZM55.8093 96.1798L57.5082 92.3264H58.3299L56.1047 97.3141H55.5138L53.298 92.3264H54.1197L55.8093 96.1798ZM53.8704 92.3264V97.3141H53.0164V92.3264H53.8704ZM57.7205 97.3141V92.3264H58.5792V97.3141H57.7205ZM59.9687 96.8624C59.9687 96.7179 60.0134 96.5966 60.1026 96.4979C60.195 96.3969 60.3273 96.3461 60.4997 96.3461C60.672 96.3461 60.8028 96.3969 60.8921 96.4979C60.9844 96.5966 61.0306 96.7179 61.0306 96.8624C61.0306 97.004 60.9844 97.1239 60.8921 97.2219C60.8028 97.3199 60.672 97.3693 60.4997 97.3693C60.3273 97.3693 60.195 97.3199 60.1026 97.2219C60.0134 97.1239 59.9687 97.004 59.9687 96.8624ZM65.6747 92.3264V93.0316H63.3665V97.3141H62.5125V92.3264H65.6747ZM69.6449 92.3264V93.0316H67.3367V97.3141H66.4826V92.3264H69.6449ZM73.6153 92.3264V93.0316H71.3069V97.3141H70.4528V92.3264H73.6153ZM77.5855 92.3264V93.0316H75.2771V97.3141H74.4233V92.3264H77.5855ZM86.8553 93.6126V94.3134H80.6873V93.6126H86.8553ZM91.3055 92.3264H92.1593L92.0858 94.1935C92.0669 94.6663 92.0131 95.0752 91.9244 95.4194C91.8349 95.7636 91.7207 96.057 91.5826 96.3003C91.4437 96.54 91.2887 96.7411 91.1164 96.9038C90.9469 97.0665 90.7717 97.2037 90.5898 97.3141H90.1651L90.1884 96.6184L90.3637 96.6133C90.4655 96.4935 90.5637 96.3708 90.6589 96.2444C90.7542 96.1158 90.8422 95.9633 90.9222 95.7883C91.0022 95.6097 91.0684 95.3933 91.1207 95.1384C91.176 94.8798 91.2117 94.5654 91.2269 94.1935L91.3055 92.3264ZM91.5178 92.3264H94.5229V97.3141H93.6691V93.1144H91.5178V92.3264ZM89.9709 96.6133H95.1651V98.7847H94.3106V97.3141H90.8255V98.7847H89.9666L89.9709 96.6133ZM97.104 92.3264H97.9578L97.8837 94.1935C97.8655 94.6663 97.8117 95.0752 97.7222 95.4194C97.6327 95.7636 97.5193 96.057 97.3804 96.3003C97.2422 96.54 97.0866 96.7411 96.9142 96.9038C96.7455 97.0665 96.5695 97.2037 96.3884 97.3141H95.9637L95.9862 96.6184L96.1622 96.6133C96.2633 96.4935 96.3622 96.3708 96.4575 96.2444C96.5527 96.1158 96.6407 95.9633 96.7207 95.7883C96.8007 95.6097 96.8669 95.3933 96.9193 95.1384C96.9746 94.8798 97.0102 94.5654 97.0255 94.1935L97.104 92.3264ZM97.3164 92.3264H100.321V97.3141H99.4677V93.1144H97.3164V92.3264ZM95.7695 96.6133H100.963V98.7847H100.109V97.3141H96.6233V98.7847H95.7651L95.7695 96.6133ZM101.924 96.8624C101.924 96.7179 101.968 96.5966 102.057 96.4979C102.15 96.3969 102.282 96.3461 102.455 96.3461C102.626 96.3461 102.757 96.3969 102.847 96.4979C102.939 96.5966 102.985 96.7179 102.985 96.8624C102.985 97.004 102.939 97.1239 102.847 97.2219C102.757 97.3199 102.626 97.3693 102.455 97.3693C102.282 97.3693 102.15 97.3199 102.057 97.2219C101.968 97.1239 101.924 97.004 101.924 96.8624ZM107.273 96.1798L108.972 92.3264H109.794L107.569 97.3141H106.978L104.762 92.3264H105.584L107.273 96.1798ZM105.335 92.3264V97.3141H104.481V92.3264H105.335ZM109.185 97.3141V92.3264H110.044V97.3141H109.185ZM114.291 96.1798L115.99 92.3264H116.812L114.586 97.3141H113.996L111.78 92.3264H112.601L114.291 96.1798ZM112.352 92.3264V97.3141H111.498V92.3264H112.352ZM116.202 97.3141V92.3264H117.06V97.3141H116.202ZM118.45 96.8624C118.45 96.7179 118.495 96.5966 118.584 96.4979C118.676 96.3969 118.809 96.3461 118.981 96.3461C119.153 96.3461 119.284 96.3969 119.374 96.4979C119.466 96.5966 119.512 96.7179 119.512 96.8624C119.512 97.004 119.466 97.1239 119.374 97.2219C119.284 97.3199 119.153 97.3693 118.981 97.3693C118.809 97.3693 118.676 97.3199 118.584 97.2219C118.495 97.1239 118.45 97.004 118.45 96.8624ZM124.156 92.3264V93.0316H121.848V97.3141H120.994V92.3264H124.156ZM128.127 92.3264V93.0316H125.818V97.3141H124.964V92.3264H128.127ZM132.097 92.3264V93.0316H129.788V97.3141H128.935V92.3264H132.097ZM136.067 92.3264V93.0316H133.759V97.3141H132.905V92.3264H136.067Z" fill="#909EBB"/>
<path d="M24.8644 127.879V128.303C24.8644 128.807 24.8013 129.259 24.6751 129.658C24.5489 130.057 24.3673 130.397 24.1304 130.677C23.8934 130.957 23.6087 131.17 23.2763 131.317C22.947 131.465 22.5777 131.539 22.1683 131.539C21.7713 131.539 21.4066 131.465 21.0743 131.317C20.745 131.17 20.4587 130.957 20.2156 130.677C19.9755 130.397 19.7893 130.057 19.657 129.658C19.5247 129.259 19.4585 128.807 19.4585 128.303V127.879C19.4585 127.375 19.5231 126.925 19.6524 126.528C19.7847 126.129 19.9709 125.789 20.2109 125.509C20.451 125.227 20.7357 125.012 21.065 124.864C21.3974 124.716 21.7621 124.643 22.1592 124.643C22.5685 124.643 22.9378 124.716 23.2671 124.864C23.5994 125.012 23.8842 125.227 24.1211 125.509C24.3612 125.789 24.5443 126.129 24.6705 126.528C24.7997 126.925 24.8644 127.375 24.8644 127.879ZM23.9826 128.303V127.869C23.9826 127.47 23.941 127.116 23.858 126.809C23.778 126.502 23.6594 126.244 23.5025 126.035C23.3456 125.826 23.1532 125.667 22.9255 125.56C22.7008 125.452 22.4453 125.399 22.1592 125.399C21.8821 125.399 21.6313 125.452 21.4066 125.56C21.185 125.667 20.9942 125.826 20.8342 126.035C20.6773 126.244 20.5557 126.502 20.4695 126.809C20.3833 127.116 20.3402 127.47 20.3402 127.869V128.303C20.3402 128.705 20.3833 129.062 20.4695 129.373C20.5557 129.68 20.6788 129.939 20.8388 130.151C21.0019 130.36 21.1943 130.519 21.4159 130.626C21.6405 130.734 21.8914 130.787 22.1683 130.787C22.4576 130.787 22.7146 130.734 22.9393 130.626C23.164 130.519 23.3533 130.36 23.5072 130.151C23.6641 129.939 23.7826 129.68 23.8626 129.373C23.9426 129.062 23.9826 128.705 23.9826 128.303ZM29.2731 124.288H29.9748C29.9748 124.589 29.9287 124.829 29.8363 125.007C29.7439 125.182 29.6178 125.317 29.4578 125.413C29.3008 125.508 29.1223 125.58 28.9223 125.629C28.7253 125.678 28.5206 125.726 28.3082 125.772C28.0436 125.827 27.7974 125.915 27.5696 126.035C27.345 126.152 27.1511 126.317 26.9879 126.532C26.8279 126.748 26.7094 127.028 26.6325 127.372C26.5586 127.716 26.5386 128.142 26.5725 128.649V129.073H25.8708V128.649C25.8708 128.08 25.9246 127.584 26.0323 127.16C26.1432 126.736 26.2986 126.378 26.4986 126.086C26.6986 125.794 26.9357 125.561 27.2096 125.389C27.4865 125.217 27.7912 125.099 28.1236 125.034C28.3637 124.988 28.5698 124.939 28.7422 124.887C28.9146 124.832 29.0453 124.758 29.1346 124.666C29.2269 124.574 29.2731 124.447 29.2731 124.288ZM28.2621 126.744C28.5883 126.744 28.8792 126.802 29.1346 126.915C29.3901 127.029 29.607 127.187 29.7856 127.39C29.964 127.593 30.0994 127.832 30.1918 128.109C30.2872 128.383 30.3349 128.681 30.3349 129.004V129.105C30.3349 129.453 30.2841 129.775 30.1826 130.073C30.0841 130.368 29.9379 130.626 29.744 130.848C29.5532 131.065 29.3193 131.236 29.0423 131.359C28.7684 131.482 28.456 131.543 28.1051 131.543C27.7543 131.543 27.4404 131.482 27.1634 131.359C26.8895 131.236 26.6556 131.065 26.4617 130.848C26.2678 130.626 26.12 130.368 26.0185 130.073C25.92 129.775 25.8708 129.453 25.8708 129.105V129.004C25.8708 128.927 25.8846 128.851 25.9123 128.778C25.94 128.704 25.9738 128.628 26.0138 128.552C26.057 128.475 26.0954 128.394 26.1293 128.307C26.2432 128.031 26.3986 127.774 26.5955 127.537C26.7956 127.301 27.0341 127.11 27.3111 126.966C27.5912 126.818 27.9082 126.744 28.2621 126.744ZM28.0959 127.441C27.782 127.441 27.5234 127.513 27.3203 127.657C27.1203 127.802 26.971 127.994 26.8725 128.234C26.7741 128.471 26.7248 128.727 26.7248 129.004V129.105C26.7248 129.338 26.7525 129.56 26.8079 129.768C26.8633 129.978 26.9464 130.163 27.0572 130.327C27.1711 130.487 27.3142 130.612 27.4865 130.705C27.662 130.797 27.8682 130.843 28.1051 130.843C28.3421 130.843 28.5468 130.797 28.7192 130.705C28.8914 130.612 29.033 130.487 29.1439 130.327C29.2546 130.163 29.3378 129.978 29.3931 129.768C29.4485 129.56 29.4762 129.338 29.4762 129.105V129.004C29.4762 128.795 29.4485 128.596 29.3931 128.409C29.3378 128.222 29.2531 128.055 29.1392 127.911C29.0285 127.766 28.8853 127.653 28.7099 127.57C28.5376 127.484 28.3329 127.441 28.0959 127.441ZM34.6098 128.621V129.312H31.9691V128.621H34.6098ZM32.1492 126.459V131.447H31.2952V126.459H32.1492ZM35.3022 126.459V131.447H34.4436V126.459H35.3022ZM36.4517 129.008V128.902C36.4517 128.543 36.504 128.209 36.6087 127.902C36.7133 127.591 36.8642 127.322 37.0611 127.095C37.2581 126.864 37.4966 126.686 37.7767 126.56C38.0568 126.431 38.3706 126.367 38.7184 126.367C39.0693 126.367 39.3848 126.431 39.6648 126.56C39.948 126.686 40.188 126.864 40.385 127.095C40.585 127.322 40.7373 127.591 40.842 127.902C40.9466 128.209 40.9989 128.543 40.9989 128.902V129.008C40.9989 129.368 40.9466 129.701 40.842 130.009C40.7373 130.316 40.585 130.585 40.385 130.815C40.188 131.043 39.9495 131.221 39.6694 131.35C39.3925 131.476 39.0785 131.539 38.7277 131.539C38.3768 131.539 38.0613 131.476 37.7813 131.35C37.5012 131.221 37.2611 131.043 37.0611 130.815C36.8642 130.585 36.7133 130.316 36.6087 130.009C36.504 129.701 36.4517 129.368 36.4517 129.008ZM37.3058 128.902V129.008C37.3058 129.257 37.335 129.492 37.3935 129.713C37.452 129.932 37.5397 130.125 37.6566 130.294C37.7767 130.463 37.9259 130.597 38.1045 130.695C38.2829 130.791 38.4906 130.838 38.7277 130.838C38.9616 130.838 39.1662 130.791 39.3416 130.695C39.5202 130.597 39.6679 130.463 39.7848 130.294C39.9018 130.125 39.9895 129.932 40.048 129.713C40.1096 129.492 40.1403 129.257 40.1403 129.008V128.902C40.1403 128.657 40.1096 128.424 40.048 128.206C39.9895 127.985 39.9002 127.789 39.7802 127.62C39.6632 127.448 39.5155 127.313 39.337 127.215C39.1616 127.116 38.9554 127.068 38.7184 127.068C38.4845 127.068 38.2783 127.116 38.0998 127.215C37.9244 127.313 37.7767 127.448 37.6566 127.62C37.5397 127.789 37.452 127.985 37.3935 128.206C37.335 128.424 37.3058 128.657 37.3058 128.902ZM44.4152 129.253H42.7763L42.7671 128.57H44.1058C44.3705 128.57 44.5906 128.544 44.766 128.492C44.9445 128.439 45.0784 128.361 45.1677 128.256C45.2569 128.153 45.3016 128.023 45.3016 127.869C45.3016 127.75 45.2754 127.645 45.223 127.556C45.1738 127.464 45.0984 127.389 44.9968 127.33C44.8953 127.269 44.7691 127.224 44.6183 127.196C44.4706 127.166 44.2967 127.15 44.0966 127.15H43.0025V131.447H42.1485V126.459H44.0966C44.4136 126.459 44.6983 126.487 44.9506 126.542C45.2061 126.597 45.4231 126.682 45.6016 126.795C45.7832 126.906 45.9217 127.047 46.017 127.219C46.1125 127.391 46.1602 127.594 46.1602 127.828C46.1602 127.978 46.1294 128.121 46.0679 128.256C46.0063 128.392 45.9155 128.512 45.7955 128.617C45.6754 128.72 45.5277 128.807 45.3523 128.874C45.1769 128.939 44.9753 128.98 44.7475 128.999L44.4152 129.253ZM44.4152 131.447H42.467L42.8917 130.755H44.4152C44.6521 130.755 44.8491 130.726 45.0061 130.667C45.163 130.606 45.2799 130.52 45.3569 130.41C45.4369 130.296 45.477 130.161 45.477 130.004C45.477 129.847 45.4369 129.713 45.3569 129.603C45.2799 129.489 45.163 129.403 45.0061 129.344C44.8491 129.283 44.6521 129.253 44.4152 129.253H43.1179L43.1272 128.57H44.7475L45.0568 128.829C45.3308 128.85 45.5631 128.917 45.7539 129.031C45.9447 129.145 46.0894 129.289 46.1879 129.465C46.2864 129.636 46.3356 129.824 46.3356 130.027C46.3356 130.261 46.291 130.466 46.2017 130.645C46.1156 130.823 45.9894 130.972 45.8232 131.092C45.657 131.209 45.4554 131.298 45.2184 131.359C44.9814 131.418 44.7137 131.447 44.4152 131.447ZM50.8182 126.459V127.164H48.4038V126.459H50.8182ZM51.5707 126.459V131.447H50.7167V126.459H51.5707ZM48.196 126.459H49.0547L48.9255 128.865C48.9039 129.237 48.8685 129.566 48.8193 129.852C48.7731 130.134 48.7085 130.377 48.6254 130.58C48.5453 130.783 48.4438 130.949 48.3207 131.078C48.2007 131.204 48.056 131.298 47.8867 131.359C47.7175 131.418 47.5221 131.447 47.3005 131.447H47.0327V130.695L47.2173 130.681C47.3497 130.673 47.4621 130.641 47.5543 130.589C47.6498 130.537 47.7298 130.461 47.7944 130.359C47.8591 130.254 47.9114 130.121 47.9514 129.958C47.9945 129.795 48.0268 129.601 48.0483 129.377C48.073 129.153 48.0914 128.891 48.1037 128.593L48.196 126.459ZM55.0192 131.539C54.6714 131.539 54.3559 131.481 54.0728 131.364C53.7927 131.244 53.5512 131.076 53.348 130.861C53.148 130.646 52.9941 130.391 52.8864 130.096C52.7786 129.801 52.7248 129.479 52.7248 129.128V128.935C52.7248 128.529 52.7848 128.168 52.9048 127.851C53.0249 127.532 53.188 127.261 53.3942 127.04C53.6004 126.818 53.8343 126.651 54.0959 126.537C54.3575 126.423 54.6283 126.367 54.9084 126.367C55.2654 126.367 55.5732 126.429 55.8317 126.551C56.0933 126.674 56.3072 126.846 56.4734 127.068C56.6396 127.285 56.7627 127.544 56.8427 127.842C56.9227 128.137 56.9627 128.46 56.9627 128.81V129.193H53.2326V128.497H56.1087V128.432C56.0964 128.211 56.0502 127.996 55.9702 127.787C55.8933 127.577 55.7701 127.405 55.6009 127.27C55.4316 127.135 55.2008 127.068 54.9084 127.068C54.7145 127.068 54.536 127.109 54.3729 127.192C54.2098 127.272 54.0698 127.391 53.9528 127.551C53.8359 127.711 53.745 127.906 53.6804 128.137C53.6158 128.368 53.5834 128.633 53.5834 128.935V129.128C53.5834 129.365 53.6158 129.588 53.6804 129.797C53.7481 130.002 53.845 130.184 53.9712 130.341C54.1005 130.497 54.256 130.62 54.4375 130.709C54.6222 130.798 54.8314 130.843 55.0653 130.843C55.367 130.843 55.6224 130.781 55.8317 130.659C56.041 130.535 56.2241 130.371 56.381 130.165L56.8981 130.575C56.7904 130.739 56.6534 130.893 56.4872 131.041C56.321 131.189 56.1164 131.309 55.8733 131.401C55.6332 131.492 55.3485 131.539 55.0192 131.539ZM61.3484 128.621V129.312H58.7077V128.621H61.3484ZM58.8878 126.459V131.447H58.0338V126.459H58.8878ZM62.0409 126.459V131.447H61.1822V126.459H62.0409ZM64.3399 130.096L66.6435 126.459H67.5021V131.447H66.6435V127.81L64.3399 131.447H63.4904V126.459H64.3399V130.096ZM70.9461 131.539C70.5983 131.539 70.2828 131.481 69.9997 131.364C69.7196 131.244 69.478 131.076 69.2749 130.861C69.0749 130.646 68.921 130.391 68.8133 130.096C68.7056 129.801 68.6517 129.479 68.6517 129.128V128.935C68.6517 128.529 68.7117 128.168 68.8317 127.851C68.9517 127.532 69.1149 127.261 69.321 127.04C69.5272 126.818 69.7611 126.651 70.0227 126.537C70.2844 126.423 70.5551 126.367 70.8352 126.367C71.1922 126.367 71.5 126.429 71.7586 126.551C72.0202 126.674 72.2341 126.846 72.4002 127.068C72.5664 127.285 72.6895 127.544 72.7695 127.842C72.8495 128.137 72.8895 128.46 72.8895 128.81V129.193H69.1594V128.497H72.0355V128.432C72.0232 128.211 71.977 127.996 71.897 127.787C71.8201 127.577 71.697 127.405 71.5277 127.27C71.3584 127.135 71.1277 127.068 70.8352 127.068C70.6413 127.068 70.4629 127.109 70.2997 127.192C70.1366 127.272 69.9966 127.391 69.8797 127.551C69.7627 127.711 69.6719 127.906 69.6073 128.137C69.5426 128.368 69.5103 128.633 69.5103 128.935V129.128C69.5103 129.365 69.5426 129.588 69.6073 129.797C69.675 130.002 69.772 130.184 69.8981 130.341C70.0274 130.497 70.1828 130.62 70.3644 130.709C70.549 130.798 70.7583 130.843 70.9922 130.843C71.2938 130.843 71.5493 130.781 71.7586 130.659C71.9678 130.535 72.1509 130.371 72.3079 130.165L72.8248 130.575C72.7173 130.739 72.5803 130.893 72.4141 131.041C72.2479 131.189 72.0432 131.309 71.8001 131.401C71.56 131.492 71.2754 131.539 70.9461 131.539Z" fill="#6F7C98"/>
<path d="M21.0909 139.072H202.909C203.913 139.072 204.727 139.885 204.727 140.888V169.937C204.727 170.939 203.913 171.752 202.909 171.752H21.0909C20.0867 171.752 19.2727 170.939 19.2727 169.937V140.888C19.2727 139.885 20.0867 139.072 21.0909 139.072Z" stroke="#DAE4EE"/>
<path fill-rule="evenodd" clip-rule="evenodd" d="M195.636 150.692V148.876H193.818V150.692H188.364V148.876H186.545V150.692H184.727V161.585H197.455V150.692H195.636ZM186.545 152.507V154.323H195.636V152.507H186.545ZM195.636 159.769V156.138H186.545V159.769H195.636Z" fill="#909EBB"/>
<path d="M32.8239 153.329H33.6779L33.6041 155.196C33.5856 155.669 33.5317 156.078 33.4425 156.422C33.3533 156.767 33.2394 157.06 33.1009 157.303C32.9623 157.543 32.8069 157.744 32.6346 157.907C32.4653 158.069 32.2899 158.207 32.1083 158.317H31.6836L31.7067 157.621L31.8821 157.616C31.9837 157.496 32.0822 157.374 32.1775 157.247C32.273 157.119 32.3607 156.966 32.4407 156.791C32.5207 156.613 32.5869 156.396 32.6392 156.141C32.6946 155.883 32.73 155.568 32.7454 155.196L32.8239 153.329ZM33.0362 153.329H36.0415V158.317H35.1875V154.117H33.0362V153.329ZM31.4897 157.616H36.6833V159.788H35.8292V158.317H32.3438V159.788H31.4851L31.4897 157.616ZM38.6222 153.329H39.4762L39.4023 155.196C39.3839 155.669 39.3301 156.078 39.2408 156.422C39.1515 156.767 39.0377 157.06 38.8991 157.303C38.7607 157.543 38.6053 157.744 38.4329 157.907C38.2637 158.069 38.0882 158.207 37.9066 158.317H37.4819L37.505 157.621L37.6804 157.616C37.782 157.496 37.8805 157.374 37.9759 157.247C38.0713 157.119 38.159 156.966 38.239 156.791C38.319 156.613 38.3852 156.396 38.4375 156.141C38.4929 155.883 38.5283 155.568 38.5437 155.196L38.6222 153.329ZM38.8346 153.329H41.8399V158.317H40.9858V154.117H38.8346V153.329ZM37.288 157.616H42.4815V159.788H41.6275V158.317H38.1421V159.788H37.2834L37.288 157.616ZM43.4418 157.865C43.4418 157.721 43.4864 157.6 43.5757 157.501C43.668 157.4 43.8003 157.349 43.9727 157.349C44.145 157.349 44.2758 157.4 44.3651 157.501C44.4574 157.6 44.5036 157.721 44.5036 157.865C44.5036 158.007 44.4574 158.127 44.3651 158.225C44.2758 158.323 44.145 158.372 43.9727 158.372C43.8003 158.372 43.668 158.323 43.5757 158.225C43.4864 158.127 43.4418 158.007 43.4418 157.865ZM48.7923 157.183L50.4911 153.329H51.3129L49.0877 158.317H48.4968L46.2809 153.329H47.1026L48.7923 157.183ZM46.8533 153.329V158.317H45.9993V153.329H46.8533ZM50.7035 158.317V153.329H51.5621V158.317H50.7035ZM55.8093 157.183L57.5082 153.329H58.3299L56.1047 158.317H55.5138L53.298 153.329H54.1197L55.8093 157.183ZM53.8704 153.329V158.317H53.0164V153.329H53.8704ZM57.7205 158.317V153.329H58.5792V158.317H57.7205ZM59.9687 157.865C59.9687 157.721 60.0134 157.6 60.1026 157.501C60.195 157.4 60.3273 157.349 60.4997 157.349C60.672 157.349 60.8028 157.4 60.8921 157.501C60.9844 157.6 61.0306 157.721 61.0306 157.865C61.0306 158.007 60.9844 158.127 60.8921 158.225C60.8028 158.323 60.672 158.372 60.4997 158.372C60.3273 158.372 60.195 158.323 60.1026 158.225C60.0134 158.127 59.9687 158.007 59.9687 157.865ZM65.6747 153.329V154.035H63.3665V158.317H62.5125V153.329H65.6747ZM69.6449 153.329V154.035H67.3367V158.317H66.4826V153.329H69.6449ZM73.6153 153.329V154.035H71.3069V158.317H70.4528V153.329H73.6153ZM77.5855 153.329V154.035H75.2771V158.317H74.4233V153.329H77.5855ZM86.8553 154.615V155.316H80.6873V154.615H86.8553ZM91.3055 153.329H92.1593L92.0858 155.196C92.0669 155.669 92.0131 156.078 91.9244 156.422C91.8349 156.767 91.7207 157.06 91.5826 157.303C91.4437 157.543 91.2887 157.744 91.1164 157.907C90.9469 158.069 90.7717 158.207 90.5898 158.317H90.1651L90.1884 157.621L90.3637 157.616C90.4655 157.496 90.5637 157.374 90.6589 157.247C90.7542 157.119 90.8422 156.966 90.9222 156.791C91.0022 156.613 91.0684 156.396 91.1207 156.141C91.176 155.883 91.2117 155.568 91.2269 155.196L91.3055 153.329ZM91.5178 153.329H94.5229V158.317H93.6691V154.117H91.5178V153.329ZM89.9709 157.616H95.1651V159.788H94.3106V158.317H90.8255V159.788H89.9666L89.9709 157.616ZM97.104 153.329H97.9578L97.8837 155.196C97.8655 155.669 97.8117 156.078 97.7222 156.422C97.6327 156.767 97.5193 157.06 97.3804 157.303C97.2422 157.543 97.0866 157.744 96.9142 157.907C96.7455 158.069 96.5695 158.207 96.3884 158.317H95.9637L95.9862 157.621L96.1622 157.616C96.2633 157.496 96.3622 157.374 96.4575 157.247C96.5527 157.119 96.6407 156.966 96.7207 156.791C96.8007 156.613 96.8669 156.396 96.9193 156.141C96.9746 155.883 97.0102 155.568 97.0255 155.196L97.104 153.329ZM97.3164 153.329H100.321V158.317H99.4677V154.117H97.3164V153.329ZM95.7695 157.616H100.963V159.788H100.109V158.317H96.6233V159.788H95.7651L95.7695 157.616ZM101.924 157.865C101.924 157.721 101.968 157.6 102.057 157.501C102.15 157.4 102.282 157.349 102.455 157.349C102.626 157.349 102.757 157.4 102.847 157.501C102.939 157.6 102.985 157.721 102.985 157.865C102.985 158.007 102.939 158.127 102.847 158.225C102.757 158.323 102.626 158.372 102.455 158.372C102.282 158.372 102.15 158.323 102.057 158.225C101.968 158.127 101.924 158.007 101.924 157.865ZM107.273 157.183L108.972 153.329H109.794L107.569 158.317H106.978L104.762 153.329H105.584L107.273 157.183ZM105.335 153.329V158.317H104.481V153.329H105.335ZM109.185 158.317V153.329H110.044V158.317H109.185ZM114.291 157.183L115.99 153.329H116.812L114.586 158.317H113.996L111.78 153.329H112.601L114.291 157.183ZM112.352 153.329V158.317H111.498V153.329H112.352ZM116.202 158.317V153.329H117.06V158.317H116.202ZM118.45 157.865C118.45 157.721 118.495 157.6 118.584 157.501C118.676 157.4 118.809 157.349 118.981 157.349C119.153 157.349 119.284 157.4 119.374 157.501C119.466 157.6 119.512 157.721 119.512 157.865C119.512 158.007 119.466 158.127 119.374 158.225C119.284 158.323 119.153 158.372 118.981 158.372C118.809 158.372 118.676 158.323 118.584 158.225C118.495 158.127 118.45 158.007 118.45 157.865ZM124.156 153.329V154.035H121.848V158.317H120.994V153.329H124.156ZM128.127 153.329V154.035H125.818V158.317H124.964V153.329H128.127ZM132.097 153.329V154.035H129.788V158.317H128.935V153.329H132.097ZM136.067 153.329V154.035H133.759V158.317H132.905V153.329H136.067Z" fill="#909EBB"/>
<path d="M24.8644 188.882V189.306C24.8644 189.81 24.8013 190.261 24.6751 190.661C24.5489 191.06 24.3673 191.4 24.1304 191.68C23.8934 191.959 23.6087 192.173 23.2763 192.32C22.947 192.468 22.5777 192.542 22.1683 192.542C21.7713 192.542 21.4066 192.468 21.0743 192.32C20.745 192.173 20.4587 191.959 20.2156 191.68C19.9755 191.4 19.7893 191.06 19.657 190.661C19.5247 190.261 19.4585 189.81 19.4585 189.306V188.882C19.4585 188.378 19.5231 187.927 19.6524 187.531C19.7847 187.131 19.9709 186.791 20.2109 186.512C20.451 186.229 20.7357 186.014 21.065 185.867C21.3974 185.719 21.7621 185.646 22.1592 185.646C22.5685 185.646 22.9378 185.719 23.2671 185.867C23.5994 186.014 23.8842 186.229 24.1211 186.512C24.3612 186.791 24.5443 187.131 24.6705 187.531C24.7997 187.927 24.8644 188.378 24.8644 188.882ZM23.9826 189.306V188.872C23.9826 188.473 23.941 188.119 23.858 187.812C23.778 187.505 23.6594 187.247 23.5025 187.038C23.3456 186.829 23.1532 186.67 22.9255 186.563C22.7008 186.455 22.4453 186.402 22.1592 186.402C21.8821 186.402 21.6313 186.455 21.4066 186.563C21.185 186.67 20.9942 186.829 20.8342 187.038C20.6773 187.247 20.5557 187.505 20.4695 187.812C20.3833 188.119 20.3402 188.473 20.3402 188.872V189.306C20.3402 189.708 20.3833 190.065 20.4695 190.375C20.5557 190.683 20.6788 190.942 20.8388 191.154C21.0019 191.363 21.1943 191.521 21.4159 191.629C21.6405 191.736 21.8914 191.79 22.1683 191.79C22.4576 191.79 22.7146 191.736 22.9393 191.629C23.164 191.521 23.3533 191.363 23.5072 191.154C23.6641 190.942 23.7826 190.683 23.8626 190.375C23.9426 190.065 23.9826 189.708 23.9826 189.306ZM26.9972 187.462V192.45H26.1432V187.462H26.9972ZM30.2749 187.462L27.9066 190.319H26.7109L26.5817 189.573H27.5604L29.2362 187.462H30.2749ZM29.3562 192.45L27.5189 190.191L28.0682 189.573L30.441 192.45H29.3562ZM30.8565 190.011V189.905C30.8565 189.545 30.9089 189.212 31.0136 188.905C31.1181 188.594 31.269 188.325 31.4659 188.098C31.6629 187.867 31.9014 187.689 32.1815 187.563C32.4616 187.434 32.7754 187.37 33.1232 187.37C33.4741 187.37 33.7896 187.434 34.0696 187.563C34.3528 187.689 34.5928 187.867 34.7898 188.098C34.9898 188.325 35.1422 188.594 35.2469 188.905C35.3514 189.212 35.4038 189.545 35.4038 189.905V190.011C35.4038 190.37 35.3514 190.704 35.2469 191.012C35.1422 191.319 34.9898 191.587 34.7898 191.818C34.5928 192.046 34.3543 192.224 34.0743 192.353C33.7973 192.479 33.4834 192.542 33.1325 192.542C32.7816 192.542 32.4662 192.479 32.1861 192.353C31.9061 192.224 31.666 192.046 31.4659 191.818C31.269 191.587 31.1181 191.319 31.0136 191.012C30.9089 190.704 30.8565 190.37 30.8565 190.011ZM31.7106 189.905V190.011C31.7106 190.26 31.7399 190.495 31.7984 190.716C31.8568 190.935 31.9445 191.128 32.0615 191.297C32.1815 191.466 32.3308 191.6 32.5093 191.698C32.6877 191.794 32.8955 191.841 33.1325 191.841C33.3664 191.841 33.5711 191.794 33.7465 191.698C33.925 191.6 34.0727 191.466 34.1896 191.297C34.3066 191.128 34.3944 190.935 34.4528 190.716C34.5144 190.495 34.5451 190.26 34.5451 190.011V189.905C34.5451 189.659 34.5144 189.427 34.4528 189.209C34.3944 188.988 34.305 188.792 34.185 188.623C34.0681 188.451 33.9204 188.316 33.7418 188.218C33.5664 188.119 33.3602 188.07 33.1232 188.07C32.8893 188.07 32.6832 188.119 32.5046 188.218C32.3292 188.316 32.1815 188.451 32.0615 188.623C31.9445 188.792 31.8568 188.988 31.7984 189.209C31.7399 189.427 31.7106 189.659 31.7106 189.905ZM39.8633 189.624V190.315H37.2227V189.624H39.8633ZM37.4027 187.462V192.45H36.5487V187.462H37.4027ZM40.5558 187.462V192.45H39.6971V187.462H40.5558ZM45.6985 187.462V192.45H44.8445V187.462H45.6985ZM45.4077 189.753V190.453C45.2354 190.518 45.0599 190.577 44.8814 190.629C44.706 190.678 44.5198 190.717 44.3228 190.749C44.1289 190.776 43.9181 190.79 43.6904 190.79C43.2965 190.79 42.9548 190.723 42.6655 190.587C42.3762 190.449 42.153 190.241 41.9961 189.965C41.8391 189.686 41.7607 189.333 41.7607 188.909V187.452H42.6147V188.909C42.6147 189.186 42.6562 189.41 42.7394 189.582C42.8225 189.754 42.944 189.882 43.1041 189.965C43.2641 190.045 43.4595 190.085 43.6904 190.085C43.912 190.085 44.1197 190.071 44.3136 190.044C44.5106 190.012 44.6983 189.972 44.8768 189.923C45.0584 189.874 45.2354 189.817 45.4077 189.753ZM50.0196 191.597V189.029C50.0196 188.832 49.9795 188.662 49.8995 188.517C49.8226 188.37 49.7056 188.256 49.5487 188.176C49.3917 188.097 49.1978 188.057 48.967 188.057C48.7516 188.057 48.5623 188.093 48.3991 188.167C48.2391 188.241 48.113 188.338 48.0206 188.457C47.9314 188.577 47.8867 188.707 47.8867 188.845H47.0327C47.0327 188.667 47.0789 188.489 47.1712 188.314C47.2635 188.139 47.3959 187.981 47.5682 187.839C47.7437 187.695 47.9529 187.582 48.196 187.499C48.4423 187.412 48.7162 187.37 49.0178 187.37C49.381 187.37 49.701 187.431 49.978 187.554C50.2581 187.677 50.4766 187.863 50.6336 188.112C50.7936 188.357 50.8736 188.667 50.8736 189.038V191.362C50.8736 191.527 50.8874 191.704 50.9152 191.892C50.9459 192.079 50.9906 192.24 51.049 192.375V192.45H50.1581C50.1149 192.351 50.0811 192.221 50.0565 192.057C50.0319 191.892 50.0196 191.738 50.0196 191.597ZM50.1673 189.426L50.1765 190.025H49.3133C49.0701 190.025 48.8531 190.045 48.6623 190.085C48.4715 190.121 48.3114 190.179 48.1822 190.256C48.053 190.332 47.9544 190.429 47.8867 190.545C47.819 190.659 47.7852 190.793 47.7852 190.947C47.7852 191.103 47.8206 191.246 47.8914 191.375C47.9621 191.505 48.0683 191.607 48.2099 191.684C48.3546 191.758 48.5315 191.795 48.7408 191.795C49.0024 191.795 49.2332 191.739 49.4333 191.629C49.6333 191.518 49.7918 191.383 49.9087 191.224C50.0288 191.063 50.0934 190.908 50.1026 190.757L50.4674 191.168C50.4458 191.297 50.3874 191.44 50.2919 191.597C50.1965 191.754 50.0688 191.904 49.9087 192.049C49.7518 192.19 49.5641 192.308 49.3455 192.404C49.1301 192.495 48.887 192.542 48.6162 192.542C48.2776 192.542 47.9806 192.476 47.7252 192.343C47.4728 192.211 47.2758 192.035 47.1343 191.813C46.9957 191.589 46.9265 191.338 46.9265 191.062C46.9265 190.794 46.9789 190.559 47.0834 190.357C47.1881 190.151 47.3389 189.98 47.5359 189.845C47.7328 189.707 47.9698 189.602 48.2469 189.532C48.5238 189.461 48.8331 189.426 49.1747 189.426H50.1673ZM55.6055 189.624V190.315H52.9649V189.624H55.6055ZM53.1449 187.462V192.45H52.2909V187.462H53.1449ZM56.298 187.462V192.45H55.4393V187.462H56.298ZM58.597 191.099L60.9006 187.462H61.7592V192.45H60.9006V188.813L58.597 192.45H57.7475V187.462H58.597V191.099ZM65.2031 192.542C64.8554 192.542 64.5399 192.484 64.2567 192.367C63.9767 192.247 63.7351 192.079 63.532 191.864C63.332 191.649 63.1781 191.394 63.0704 191.099C62.9626 190.804 62.9087 190.481 62.9087 190.131V189.937C62.9087 189.532 62.9688 189.171 63.0888 188.854C63.2088 188.534 63.3719 188.264 63.5781 188.043C63.7844 187.821 64.0183 187.654 64.2799 187.54C64.5415 187.426 64.8123 187.37 65.0924 187.37C65.4493 187.37 65.7571 187.431 66.0157 187.554C66.2773 187.677 66.4911 187.849 66.6573 188.07C66.8235 188.288 66.9466 188.547 67.0266 188.845C67.1066 189.139 67.1467 189.463 67.1467 189.813V190.195H63.4166V189.5H66.2926V189.435C66.2803 189.213 66.2341 188.998 66.1541 188.789C66.0772 188.58 65.9541 188.408 65.7848 188.273C65.6156 188.138 65.3848 188.07 65.0924 188.07C64.8985 188.07 64.72 188.112 64.5568 188.195C64.3937 188.274 64.2537 188.394 64.1368 188.554C64.0198 188.714 63.929 188.909 63.8644 189.139C63.7997 189.37 63.7674 189.636 63.7674 189.937V190.131C63.7674 190.367 63.7997 190.59 63.8644 190.8C63.9321 191.005 64.029 191.187 64.1552 191.343C64.2845 191.5 64.4399 191.623 64.6215 191.712C64.8061 191.801 65.0154 191.845 65.2493 191.845C65.5509 191.845 65.8064 191.784 66.0157 191.662C66.2249 191.538 66.408 191.374 66.565 191.168L67.0821 191.578C66.9743 191.741 66.8374 191.896 66.6712 192.044C66.505 192.192 66.3003 192.312 66.0572 192.404C65.8171 192.495 65.5325 192.542 65.2031 192.542ZM73.8175 187.462V188.167H71.2923V187.462H73.8175ZM71.4169 187.462V192.45H70.5629V187.462H71.4169ZM74.5746 187.462V192.45H73.7157V187.462H74.5746ZM75.7193 190.011V189.905C75.7193 189.545 75.7717 189.212 75.8764 188.905C75.9811 188.594 76.1317 188.325 76.3288 188.098C76.5258 187.867 76.7644 187.689 77.0444 187.563C77.3244 187.434 77.6386 187.37 77.9862 187.37C78.3368 187.37 78.6524 187.434 78.9324 187.563C79.216 187.689 79.456 187.867 79.6524 188.098C79.8531 188.325 80.0051 188.594 80.1098 188.905C80.2146 189.212 80.2669 189.545 80.2669 189.905V190.011C80.2669 190.37 80.2146 190.704 80.1098 191.012C80.0051 191.319 79.8531 191.587 79.6524 191.818C79.456 192.046 79.2175 192.224 78.9375 192.353C78.6604 192.479 78.3462 192.542 77.9957 192.542C77.6444 192.542 77.3288 192.479 77.0488 192.353C76.7688 192.224 76.5288 192.046 76.3288 191.818C76.1317 191.587 75.9811 191.319 75.8764 191.012C75.7717 190.704 75.7193 190.37 75.7193 190.011ZM76.5738 189.905V190.011C76.5738 190.26 76.6029 190.495 76.6611 190.716C76.72 190.935 76.8073 191.128 76.9244 191.297C77.0444 191.466 77.1935 191.6 77.3724 191.698C77.5506 191.794 77.7586 191.841 77.9957 191.841C78.2291 191.841 78.4342 191.794 78.6095 191.698C78.7877 191.6 78.9353 191.466 79.0524 191.297C79.1695 191.128 79.2575 190.935 79.3157 190.716C79.3775 190.495 79.408 190.26 79.408 190.011V189.905C79.408 189.659 79.3775 189.427 79.3157 189.209C79.2575 188.988 79.168 188.792 79.048 188.623C78.9309 188.451 78.7833 188.316 78.6051 188.218C78.4291 188.119 78.2233 188.07 77.9862 188.07C77.752 188.07 77.5462 188.119 77.3673 188.218C77.192 188.316 77.0444 188.451 76.9244 188.623C76.8073 188.792 76.72 188.988 76.6611 189.209C76.6029 189.427 76.5738 189.659 76.5738 189.905ZM81.9055 187.462H82.7593L82.6858 189.329C82.6669 189.802 82.6131 190.211 82.5244 190.555C82.4349 190.899 82.3208 191.192 82.1826 191.436C82.0444 191.675 81.8888 191.877 81.7164 192.039C81.5469 192.202 81.3717 192.339 81.1898 192.45H80.7651L80.7884 191.754L80.9637 191.749C81.0655 191.629 81.1637 191.506 81.2589 191.38C81.3549 191.251 81.4422 191.099 81.5222 190.924C81.6022 190.745 81.6684 190.529 81.7207 190.274C81.776 190.015 81.8117 189.701 81.8269 189.329L81.9055 187.462ZM82.1178 187.462H85.1229V192.45H84.2691V188.25H82.1178V187.462ZM80.5717 191.749H85.7651V193.92H84.9106V192.45H81.4255V193.92H80.5666L80.5717 191.749ZM89.6568 191.597V189.029C89.6568 188.832 89.6168 188.662 89.5368 188.517C89.4597 188.37 89.3426 188.256 89.1855 188.176C89.0291 188.097 88.8349 188.057 88.6044 188.057C88.3884 188.057 88.1993 188.093 88.0364 188.167C87.8764 188.241 87.7498 188.338 87.6575 188.457C87.5687 188.577 87.5237 188.707 87.5237 188.845H86.6698C86.6698 188.667 86.7157 188.489 86.808 188.314C86.9004 188.139 87.0328 187.981 87.2051 187.839C87.3804 187.695 87.5898 187.582 87.8335 187.499C88.0793 187.412 88.3535 187.37 88.6546 187.37C89.0182 187.37 89.3382 187.431 89.6153 187.554C89.8953 187.677 90.1135 187.863 90.2706 188.112C90.4306 188.357 90.5106 188.667 90.5106 189.038V191.362C90.5106 191.527 90.5244 191.704 90.552 191.892C90.5833 192.079 90.6277 192.24 90.6858 192.375V192.45H89.7949C89.752 192.351 89.7178 192.221 89.6938 192.057C89.6691 191.892 89.6568 191.738 89.6568 191.597ZM89.8044 189.426L89.8138 190.025H88.9506C88.7069 190.025 88.4902 190.045 88.2997 190.085C88.1084 190.121 87.9484 190.179 87.8189 190.256C87.6902 190.332 87.5913 190.429 87.5237 190.545C87.456 190.659 87.4226 190.793 87.4226 190.947C87.4226 191.103 87.4575 191.246 87.5287 191.375C87.5993 191.505 87.7055 191.607 87.8473 191.684C87.9913 191.758 88.1687 191.795 88.3782 191.795C88.6393 191.795 88.8706 191.739 89.0706 191.629C89.2706 191.518 89.4291 191.383 89.5455 191.224C89.6662 191.063 89.7302 190.908 89.7397 190.757L90.1048 191.168C90.0829 191.297 90.0247 191.44 89.9287 191.597C89.8335 191.754 89.7062 191.904 89.5455 192.049C89.3891 192.19 89.2015 192.308 88.9826 192.404C88.7673 192.495 88.5244 192.542 88.2531 192.542C87.9149 192.542 87.6175 192.476 87.3622 192.343C87.1098 192.211 86.9128 192.035 86.7717 191.813C86.6328 191.589 86.5637 191.338 86.5637 191.062C86.5637 190.794 86.616 190.559 86.7207 190.357C86.8255 190.151 86.976 189.98 87.1731 189.845C87.3702 189.707 87.6066 189.602 87.8837 189.532C88.1608 189.461 88.4698 189.426 88.8117 189.426H89.8044ZM95.6211 187.462V192.45H94.7673V187.462H95.6211ZM95.3302 189.753V190.453C95.1578 190.518 94.9826 190.577 94.8037 190.629C94.6284 190.678 94.4422 190.717 94.2451 190.749C94.0517 190.776 93.8408 190.79 93.6131 190.79C93.2189 190.79 92.8771 190.723 92.5884 190.587C92.2989 190.449 92.0757 190.241 91.9186 189.965C91.7615 189.686 91.6829 189.333 91.6829 188.909V187.452H92.5375V188.909C92.5375 189.186 92.5789 189.41 92.6618 189.582C92.7448 189.754 92.8669 189.882 93.0269 189.965C93.1869 190.045 93.3818 190.085 93.6131 190.085C93.8342 190.085 94.0422 190.071 94.2364 190.044C94.4335 190.012 94.6211 189.972 94.7993 189.923C94.9811 189.874 95.1578 189.817 95.3302 189.753ZM97.92 191.099L100.224 187.462H101.082V192.45H100.224V188.813L97.92 192.45H97.0706V187.462H97.92V191.099ZM106.664 190.066H105.745V189.541H106.594C106.831 189.541 107.019 189.511 107.158 189.453C107.296 189.391 107.395 189.307 107.453 189.2C107.511 189.092 107.541 188.966 107.541 188.821C107.541 188.693 107.507 188.571 107.439 188.457C107.375 188.341 107.27 188.247 107.125 188.176C106.98 188.102 106.787 188.065 106.544 188.065C106.347 188.065 106.168 188.101 106.008 188.171C105.848 188.239 105.721 188.333 105.625 188.453C105.532 188.569 105.487 188.701 105.487 188.849H104.633C104.633 188.545 104.719 188.284 104.891 188.065C105.066 187.845 105.299 187.674 105.588 187.554C105.881 187.434 106.199 187.374 106.544 187.374C106.833 187.374 107.092 187.407 107.319 187.471C107.55 187.532 107.745 187.624 107.905 187.747C108.065 187.867 108.187 188.018 108.271 188.199C108.356 188.378 108.399 188.585 108.399 188.821C108.399 188.99 108.359 189.15 108.279 189.301C108.199 189.452 108.084 189.585 107.933 189.702C107.783 189.816 107.599 189.905 107.384 189.969C107.172 190.034 106.932 190.066 106.664 190.066ZM105.745 189.744H106.664C106.962 189.744 107.225 189.773 107.453 189.831C107.681 189.887 107.872 189.969 108.025 190.08C108.18 190.191 108.295 190.327 108.372 190.49C108.452 190.65 108.492 190.834 108.492 191.044C108.492 191.277 108.444 191.487 108.348 191.675C108.257 191.86 108.124 192.016 107.952 192.145C107.78 192.274 107.573 192.373 107.333 192.44C107.096 192.508 106.833 192.542 106.544 192.542C106.22 192.542 105.907 192.487 105.602 192.375C105.297 192.265 105.047 192.094 104.849 191.864C104.652 191.63 104.554 191.334 104.554 190.975H105.408C105.408 191.125 105.456 191.268 105.551 191.403C105.647 191.538 105.779 191.648 105.948 191.731C106.121 191.813 106.319 191.855 106.544 191.855C106.784 191.855 106.984 191.818 107.144 191.744C107.304 191.67 107.424 191.572 107.504 191.449C107.587 191.326 107.628 191.192 107.628 191.048C107.628 190.861 107.591 190.71 107.518 190.596C107.444 190.483 107.33 190.399 107.176 190.347C107.025 190.292 106.831 190.264 106.594 190.264H105.745V189.744ZM112.545 191.597V189.029C112.545 188.832 112.505 188.662 112.425 188.517C112.348 188.37 112.231 188.256 112.074 188.176C111.917 188.097 111.724 188.057 111.492 188.057C111.277 188.057 111.088 188.093 110.924 188.167C110.764 188.241 110.639 188.338 110.546 188.457C110.457 188.577 110.412 188.707 110.412 188.845H109.559C109.559 188.667 109.604 188.489 109.697 188.314C109.789 188.139 109.921 187.981 110.094 187.839C110.269 187.695 110.479 187.582 110.721 187.499C110.968 187.412 111.241 187.37 111.543 187.37C111.906 187.37 112.227 187.431 112.503 187.554C112.783 187.677 113.002 187.863 113.159 188.112C113.319 188.357 113.399 188.667 113.399 189.038V191.362C113.399 191.527 113.413 191.704 113.441 191.892C113.471 192.079 113.516 192.24 113.575 192.375V192.45H112.684C112.641 192.351 112.607 192.221 112.582 192.057C112.557 191.892 112.545 191.738 112.545 191.597ZM112.693 189.426L112.702 190.025H111.839C111.596 190.025 111.379 190.045 111.188 190.085C110.997 190.121 110.837 190.179 110.708 190.256C110.578 190.332 110.48 190.429 110.412 190.545C110.345 190.659 110.311 190.793 110.311 190.947C110.311 191.103 110.346 191.246 110.417 191.375C110.488 191.505 110.594 191.607 110.735 191.684C110.88 191.758 111.057 191.795 111.266 191.795C111.528 191.795 111.759 191.739 111.959 191.629C112.159 191.518 112.317 191.383 112.434 191.224C112.554 191.063 112.619 190.908 112.628 190.757L112.993 191.168C112.972 191.297 112.913 191.44 112.817 191.597C112.722 191.754 112.594 191.904 112.434 192.049C112.277 192.19 112.089 192.308 111.871 192.404C111.656 192.495 111.412 192.542 111.142 192.542C110.803 192.542 110.506 192.476 110.251 192.343C109.999 192.211 109.801 192.035 109.66 191.813C109.521 191.589 109.452 191.338 109.452 191.062C109.452 190.794 109.505 190.559 109.609 190.357C109.713 190.151 109.865 189.98 110.061 189.845C110.258 189.707 110.495 189.602 110.772 189.532C111.049 189.461 111.359 189.426 111.7 189.426H112.693ZM115.753 190.071H116.677L115.232 192.45H114.308L115.753 190.071ZM116.469 187.462H118.556V192.45H117.702V188.153H116.469C116.226 188.153 116.028 188.195 115.873 188.277C115.72 188.357 115.607 188.462 115.537 188.591C115.465 188.72 115.431 188.854 115.431 188.992C115.431 189.127 115.463 189.258 115.527 189.384C115.592 189.507 115.694 189.609 115.832 189.688C115.97 189.768 116.149 189.808 116.367 189.808H117.932V190.509H116.367C116.081 190.509 115.828 190.471 115.606 190.394C115.384 190.317 115.196 190.211 115.043 190.075C114.889 189.937 114.772 189.776 114.692 189.591C114.612 189.404 114.572 189.201 114.572 188.983C114.572 188.765 114.613 188.563 114.697 188.379C114.783 188.195 114.905 188.033 115.065 187.895C115.229 187.757 115.428 187.651 115.661 187.577C115.898 187.5 116.167 187.462 116.469 187.462ZM122.276 190.256H120.638L120.628 189.573H121.967C122.232 189.573 122.452 189.547 122.628 189.495C122.806 189.442 122.94 189.364 123.029 189.259C123.119 189.155 123.163 189.026 123.163 188.872C123.163 188.752 123.137 188.648 123.084 188.559C123.036 188.467 122.96 188.391 122.858 188.333C122.757 188.272 122.631 188.227 122.48 188.199C122.332 188.168 122.158 188.153 121.958 188.153H120.864V192.45H120.01V187.462H121.958C122.275 187.462 122.56 187.489 122.812 187.545C123.068 187.6 123.284 187.685 123.463 187.798C123.644 187.909 123.783 188.05 123.879 188.222C123.974 188.394 124.022 188.597 124.022 188.831C124.022 188.981 123.991 189.124 123.929 189.259C123.868 189.395 123.777 189.515 123.657 189.619C123.537 189.723 123.389 189.81 123.214 189.877C123.039 189.942 122.837 189.983 122.609 190.001L122.276 190.256ZM122.276 192.45H120.329L120.753 191.758H122.276C122.513 191.758 122.711 191.729 122.868 191.67C123.025 191.609 123.141 191.523 123.218 191.412C123.298 191.298 123.338 191.163 123.338 191.007C123.338 190.85 123.298 190.716 123.218 190.606C123.141 190.492 123.025 190.406 122.868 190.347C122.711 190.286 122.513 190.256 122.276 190.256H120.98L120.988 189.573H122.609L122.919 189.831C123.192 189.853 123.425 189.92 123.615 190.034C123.807 190.147 123.951 190.292 124.049 190.468C124.148 190.639 124.197 190.827 124.197 191.03C124.197 191.264 124.153 191.469 124.063 191.648C123.977 191.826 123.851 191.975 123.684 192.094C123.519 192.211 123.317 192.301 123.08 192.362C122.843 192.42 122.575 192.45 122.276 192.45ZM125.116 190.011V189.905C125.116 189.545 125.168 189.212 125.273 188.905C125.377 188.594 125.528 188.325 125.725 188.098C125.922 187.867 126.161 187.689 126.441 187.563C126.721 187.434 127.035 187.37 127.383 187.37C127.733 187.37 128.049 187.434 128.329 187.563C128.612 187.689 128.852 187.867 129.049 188.098C129.249 188.325 129.401 188.594 129.506 188.905C129.611 189.212 129.663 189.545 129.663 189.905V190.011C129.663 190.37 129.611 190.704 129.506 191.012C129.401 191.319 129.249 191.587 129.049 191.818C128.852 192.046 128.614 192.224 128.333 192.353C128.057 192.479 127.743 192.542 127.392 192.542C127.041 192.542 126.725 192.479 126.445 192.353C126.165 192.224 125.925 192.046 125.725 191.818C125.528 191.587 125.377 191.319 125.273 191.012C125.168 190.704 125.116 190.37 125.116 190.011ZM125.969 189.905V190.011C125.969 190.26 125.999 190.495 126.057 190.716C126.116 190.935 126.204 191.128 126.321 191.297C126.441 191.466 126.59 191.6 126.769 191.698C126.947 191.794 127.155 191.841 127.392 191.841C127.625 191.841 127.831 191.794 128.006 191.698C128.184 191.6 128.332 191.466 128.449 191.297C128.566 191.128 128.654 190.935 128.712 190.716C128.774 190.495 128.804 190.26 128.804 190.011V189.905C128.804 189.659 128.774 189.427 128.712 189.209C128.654 188.988 128.564 188.792 128.444 188.623C128.327 188.451 128.18 188.316 128.001 188.218C127.825 188.119 127.62 188.07 127.383 188.07C127.148 188.07 126.943 188.119 126.764 188.218C126.588 188.316 126.441 188.451 126.321 188.623C126.204 188.792 126.116 188.988 126.057 189.209C125.999 189.427 125.969 189.659 125.969 189.905ZM131.662 187.462V192.45H130.808V187.462H131.662ZM134.94 187.462L132.572 190.319H131.376L131.247 189.573H132.225L133.901 187.462H134.94ZM134.021 192.45L132.183 190.191L132.733 189.573L135.106 192.45H134.021Z" fill="#6F7C98"/>
<path d="M21.0909 200.075H202.909C203.913 200.075 204.727 200.888 204.727 201.891V230.94C204.727 231.942 203.913 232.755 202.909 232.755H21.0909C20.0867 232.755 19.2727 231.942 19.2727 230.94V201.891C19.2727 200.888 20.0867 200.075 21.0909 200.075Z" stroke="#DAE4EE"/>
<path fill-rule="evenodd" clip-rule="evenodd" d="M195.636 211.694V209.879H193.818V211.694H188.364V209.879H186.545V211.694H184.727V222.588H197.455V211.694H195.636ZM186.545 213.51V215.326H195.636V213.51H186.545ZM195.636 220.772V217.141H186.545V220.772H195.636Z" fill="#909EBB"/>
<path d="M32.8239 214.332H33.6779L33.6041 216.199C33.5856 216.672 33.5317 217.081 33.4425 217.425C33.3533 217.769 33.2394 218.063 33.1009 218.306C32.9623 218.546 32.8069 218.747 32.6346 218.91C32.4653 219.072 32.2899 219.21 32.1083 219.32H31.6836L31.7067 218.624L31.8821 218.619C31.9837 218.499 32.0822 218.377 32.1775 218.25C32.273 218.122 32.3607 217.969 32.4407 217.794C32.5207 217.616 32.5869 217.399 32.6392 217.144C32.6946 216.886 32.73 216.571 32.7454 216.199L32.8239 214.332ZM33.0362 214.332H36.0415V219.32H35.1875V215.12H33.0362V214.332ZM31.4897 218.619H36.6833V220.791H35.8292V219.32H32.3438V220.791H31.4851L31.4897 218.619ZM38.6222 214.332H39.4762L39.4023 216.199C39.3839 216.672 39.3301 217.081 39.2408 217.425C39.1515 217.769 39.0377 218.063 38.8991 218.306C38.7607 218.546 38.6053 218.747 38.4329 218.91C38.2637 219.072 38.0882 219.21 37.9066 219.32H37.4819L37.505 218.624L37.6804 218.619C37.782 218.499 37.8805 218.377 37.9759 218.25C38.0713 218.122 38.159 217.969 38.239 217.794C38.319 217.616 38.3852 217.399 38.4375 217.144C38.4929 216.886 38.5283 216.571 38.5437 216.199L38.6222 214.332ZM38.8346 214.332H41.8399V219.32H40.9858V215.12H38.8346V214.332ZM37.288 218.619H42.4815V220.791H41.6275V219.32H38.1421V220.791H37.2834L37.288 218.619ZM43.4418 218.868C43.4418 218.724 43.4864 218.602 43.5757 218.504C43.668 218.403 43.8003 218.352 43.9727 218.352C44.145 218.352 44.2758 218.403 44.3651 218.504C44.4574 218.602 44.5036 218.724 44.5036 218.868C44.5036 219.01 44.4574 219.13 44.3651 219.228C44.2758 219.326 44.145 219.375 43.9727 219.375C43.8003 219.375 43.668 219.326 43.5757 219.228C43.4864 219.13 43.4418 219.01 43.4418 218.868ZM48.7923 218.186L50.4911 214.332H51.3129L49.0877 219.32H48.4968L46.2809 214.332H47.1026L48.7923 218.186ZM46.8533 214.332V219.32H45.9993V214.332H46.8533ZM50.7035 219.32V214.332H51.5621V219.32H50.7035ZM55.8093 218.186L57.5082 214.332H58.3299L56.1047 219.32H55.5138L53.298 214.332H54.1197L55.8093 218.186ZM53.8704 214.332V219.32H53.0164V214.332H53.8704ZM57.7205 219.32V214.332H58.5792V219.32H57.7205ZM59.9687 218.868C59.9687 218.724 60.0134 218.602 60.1026 218.504C60.195 218.403 60.3273 218.352 60.4997 218.352C60.672 218.352 60.8028 218.403 60.8921 218.504C60.9844 218.602 61.0306 218.724 61.0306 218.868C61.0306 219.01 60.9844 219.13 60.8921 219.228C60.8028 219.326 60.672 219.375 60.4997 219.375C60.3273 219.375 60.195 219.326 60.1026 219.228C60.0134 219.13 59.9687 219.01 59.9687 218.868ZM65.6747 214.332V215.037H63.3665V219.32H62.5125V214.332H65.6747ZM69.6449 214.332V215.037H67.3367V219.32H66.4826V214.332H69.6449ZM73.6153 214.332V215.037H71.3069V219.32H70.4528V214.332H73.6153ZM77.5855 214.332V215.037H75.2771V219.32H74.4233V214.332H77.5855ZM86.8553 215.618V216.319H80.6873V215.618H86.8553ZM91.3055 214.332H92.1593L92.0858 216.199C92.0669 216.672 92.0131 217.081 91.9244 217.425C91.8349 217.769 91.7207 218.063 91.5826 218.306C91.4437 218.546 91.2887 218.747 91.1164 218.91C90.9469 219.072 90.7717 219.21 90.5898 219.32H90.1651L90.1884 218.624L90.3637 218.619C90.4655 218.499 90.5637 218.377 90.6589 218.25C90.7542 218.122 90.8422 217.969 90.9222 217.794C91.0022 217.616 91.0684 217.399 91.1207 217.144C91.176 216.886 91.2117 216.571 91.2269 216.199L91.3055 214.332ZM91.5178 214.332H94.5229V219.32H93.6691V215.12H91.5178V214.332ZM89.9709 218.619H95.1651V220.791H94.3106V219.32H90.8255V220.791H89.9666L89.9709 218.619ZM97.104 214.332H97.9578L97.8837 216.199C97.8655 216.672 97.8117 217.081 97.7222 217.425C97.6327 217.769 97.5193 218.063 97.3804 218.306C97.2422 218.546 97.0866 218.747 96.9142 218.91C96.7455 219.072 96.5695 219.21 96.3884 219.32H95.9637L95.9862 218.624L96.1622 218.619C96.2633 218.499 96.3622 218.377 96.4575 218.25C96.5527 218.122 96.6407 217.969 96.7207 217.794C96.8007 217.616 96.8669 217.399 96.9193 217.144C96.9746 216.886 97.0102 216.571 97.0255 216.199L97.104 214.332ZM97.3164 214.332H100.321V219.32H99.4677V215.12H97.3164V214.332ZM95.7695 218.619H100.963V220.791H100.109V219.32H96.6233V220.791H95.7651L95.7695 218.619ZM101.924 218.868C101.924 218.724 101.968 218.602 102.057 218.504C102.15 218.403 102.282 218.352 102.455 218.352C102.626 218.352 102.757 218.403 102.847 218.504C102.939 218.602 102.985 218.724 102.985 218.868C102.985 219.01 102.939 219.13 102.847 219.228C102.757 219.326 102.626 219.375 102.455 219.375C102.282 219.375 102.15 219.326 102.057 219.228C101.968 219.13 101.924 219.01 101.924 218.868ZM107.273 218.186L108.972 214.332H109.794L107.569 219.32H106.978L104.762 214.332H105.584L107.273 218.186ZM105.335 214.332V219.32H104.481V214.332H105.335ZM109.185 219.32V214.332H110.044V219.32H109.185ZM114.291 218.186L115.99 214.332H116.812L114.586 219.32H113.996L111.78 214.332H112.601L114.291 218.186ZM112.352 214.332V219.32H111.498V214.332H112.352ZM116.202 219.32V214.332H117.06V219.32H116.202ZM118.45 218.868C118.45 218.724 118.495 218.602 118.584 218.504C118.676 218.403 118.809 218.352 118.981 218.352C119.153 218.352 119.284 218.403 119.374 218.504C119.466 218.602 119.512 218.724 119.512 218.868C119.512 219.01 119.466 219.13 119.374 219.228C119.284 219.326 119.153 219.375 118.981 219.375C118.809 219.375 118.676 219.326 118.584 219.228C118.495 219.13 118.45 219.01 118.45 218.868ZM124.156 214.332V215.037H121.848V219.32H120.994V214.332H124.156ZM128.127 214.332V215.037H125.818V219.32H124.964V214.332H128.127ZM132.097 214.332V215.037H129.788V219.32H128.935V214.332H132.097ZM136.067 214.332V215.037H133.759V219.32H132.905V214.332H136.067Z" fill="#909EBB"/>
</g>
<defs>
<clipPath id="clip0_72_5790">
<rect width="224" height="252" rx="20" fill="white"/>
</clipPath>
</defs>
</svg>
