<svg width="19" height="19" viewBox="0 0 19 19" fill="none" xmlns="http://www.w3.org/2000/svg">
<path d="M19 9.5C19 4.25329 14.7467 0 9.5 0C4.25329 0 0 4.25329 0 9.5C0 14.7467 4.25329 19 9.5 19C14.7467 19 19 14.7467 19 9.5Z" fill="#42FF00" fill-opacity="0.5"/>
<path d="M14.9361 6.25281L7.81116 13.3778C7.76981 13.4192 7.72069 13.4521 7.66663 13.4745C7.61257 13.4969 7.55462 13.5084 7.4961 13.5084C7.43758 13.5084 7.37963 13.4969 7.32557 13.4745C7.27152 13.4521 7.2224 13.4192 7.18104 13.3778L4.06386 10.2606C3.9803 10.1771 3.93335 10.0637 3.93335 9.94553C3.93335 9.82742 3.9803 9.71405 4.06386 9.63053C4.14742 9.54693 4.26074 9.49998 4.37892 9.49998C4.49708 9.49998 4.61041 9.54693 4.69398 9.63053L7.4961 12.4332L14.3061 5.62269C14.3896 5.53913 14.5029 5.49219 14.6211 5.49219C14.7393 5.49219 14.8526 5.53913 14.9361 5.62269C15.0197 5.70625 15.0667 5.81957 15.0667 5.93775C15.0667 6.05592 15.0197 6.16924 14.9361 6.25281Z" fill="#0C8459"/>
</svg>
