<svg width="19" height="19" viewBox="0 0 19 19" fill="none" xmlns="http://www.w3.org/2000/svg">
<g clip-path="url(#clip0_187_3018)">
<path d="M19 9.5C19 4.25329 14.7467 0 9.5 0C4.25329 0 0 4.25329 0 9.5C0 14.7467 4.25329 19 9.5 19C14.7467 19 19 14.7467 19 9.5Z" fill="#136DF4" fill-opacity="0.3"/>
<path d="M14.9361 6.25256L7.81116 13.3776C7.76981 13.419 7.72069 13.4518 7.66663 13.4742C7.61257 13.4966 7.55462 13.5082 7.4961 13.5082C7.43758 13.5082 7.37963 13.4966 7.32557 13.4742C7.27152 13.4518 7.2224 13.419 7.18104 13.3776L4.06386 10.2604C3.9803 10.1769 3.93335 10.0635 3.93335 9.94529C3.93335 9.82717 3.9803 9.71381 4.06386 9.63029C4.14742 9.54669 4.26074 9.49974 4.37892 9.49974C4.49708 9.49974 4.61041 9.54669 4.69398 9.63029L7.4961 12.4329L14.3061 5.62244C14.3896 5.53888 14.5029 5.49194 14.6211 5.49194C14.7393 5.49194 14.8526 5.53888 14.9361 5.62244C15.0197 5.706 15.0667 5.81933 15.0667 5.9375C15.0667 6.05567 15.0197 6.169 14.9361 6.25256Z" fill="#136DF4"/>
</g>
<defs>
<clipPath id="clip0_187_3018">
<rect width="19" height="19" fill="white"/>
</clipPath>
</defs>
</svg>
