<svg width="1441" height="992" viewBox="0 0 1441 992" fill="none" xmlns="http://www.w3.org/2000/svg">
<g clip-path="url(#clip0_142_24209)">
<path d="M0.163086 0.401367V721.528" stroke="#F4F4F4" stroke-width="0.554081"/>
<path d="M45.043 0.401367V721.528" stroke="#F4F4F4" stroke-width="0.554081"/>
<path d="M90.4785 0.401367V721.528" stroke="#F4F4F4" stroke-width="0.554081"/>
<path d="M135.359 0.401367V721.528" stroke="#F4F4F4" stroke-width="0.554081"/>
<path d="M180.239 0.401367V721.528" stroke="#F4F4F4" stroke-width="0.554081"/>
<path d="M225.674 0.401367V721.528" stroke="#F4F4F4" stroke-width="0.554081"/>
<path d="M270.555 0.401367V721.528" stroke="#F4F4F4" stroke-width="0.554081"/>
<path d="M315.436 0.401367V721.528" stroke="#F4F4F4" stroke-width="0.554081"/>
<path d="M360.315 0.401367V721.528" stroke="#F4F4F4" stroke-width="0.554081"/>
<path d="M405.75 0.401367V721.528" stroke="#F4F4F4" stroke-width="0.554081"/>
<path d="M450.631 0.401367V721.528" stroke="#F4F4F4" stroke-width="0.554081"/>
<path d="M495.512 0.401367V721.528" stroke="#F4F4F4" stroke-width="0.554081"/>
<path d="M540.946 0.401367V721.528" stroke="#F4F4F4" stroke-width="0.554081"/>
<path d="M585.827 0.401367V721.528" stroke="#F4F4F4" stroke-width="0.554081"/>
<path d="M630.707 0.401367V721.528" stroke="#F4F4F4" stroke-width="0.554081"/>
<path d="M676.142 0.401367V721.528" stroke="#F4F4F4" stroke-width="0.554081"/>
<path d="M721.022 0.401367V721.528" stroke="#F4F4F4" stroke-width="0.554081"/>
<path d="M720.756 0.401367L0.161874 0.401367" stroke="#F4F4F4" stroke-width="0.554081"/>
<path d="M720.756 45.2817L0.161874 45.2817" stroke="#F4F4F4" stroke-width="0.554081"/>
<path d="M720.756 90.7168L0.161874 90.7168" stroke="#F4F4F4" stroke-width="0.554081"/>
<path d="M720.756 135.597L0.161874 135.597" stroke="#F4F4F4" stroke-width="0.554081"/>
<path d="M720.756 180.478L0.161874 180.478" stroke="#F4F4F4" stroke-width="0.554081"/>
<path d="M720.756 225.913L0.161874 225.913" stroke="#F4F4F4" stroke-width="0.554081"/>
<path d="M720.756 270.793L0.161874 270.793" stroke="#F4F4F4" stroke-width="0.554081"/>
<path d="M720.756 315.673L0.161874 315.673" stroke="#F4F4F4" stroke-width="0.554081"/>
<path d="M720.756 360.554L0.161874 360.554" stroke="#F4F4F4" stroke-width="0.554081"/>
<path d="M720.756 405.989L0.161874 405.989" stroke="#F4F4F4" stroke-width="0.554081"/>
<path d="M720.756 450.869L0.161874 450.869" stroke="#F4F4F4" stroke-width="0.554081"/>
<path d="M720.756 495.75L0.161874 495.75" stroke="#F4F4F4" stroke-width="0.554081"/>
<path d="M720.756 541.185H0.161874" stroke="#F4F4F4" stroke-width="0.554081"/>
<path d="M720.756 586.065H0.161874" stroke="#F4F4F4" stroke-width="0.554081"/>
<path d="M720.756 630.946H0.161874" stroke="#F4F4F4" stroke-width="0.554081"/>
<path d="M720.756 676.38H0.161874" stroke="#F4F4F4" stroke-width="0.554081"/>
<path d="M720.756 721.261H0.161874" stroke="#F4F4F4" stroke-width="0.554081"/>
<path d="M0.0292969 721.262V1442.39" stroke="#F4F4F4" stroke-width="0.554081"/>
<path d="M44.9102 721.262V1442.39" stroke="#F4F4F4" stroke-width="0.554081"/>
<path d="M90.3447 721.262V1442.39" stroke="#F4F4F4" stroke-width="0.554081"/>
<path d="M135.225 721.262V1442.39" stroke="#F4F4F4" stroke-width="0.554081"/>
<path d="M180.105 721.262V1442.39" stroke="#F4F4F4" stroke-width="0.554081"/>
<path d="M225.541 721.262V1442.39" stroke="#F4F4F4" stroke-width="0.554081"/>
<path d="M270.421 721.262V1442.39" stroke="#F4F4F4" stroke-width="0.554081"/>
<path d="M315.301 721.262V1442.39" stroke="#F4F4F4" stroke-width="0.554081"/>
<path d="M360.182 721.262V1442.39" stroke="#F4F4F4" stroke-width="0.554081"/>
<path d="M405.616 721.262V1442.39" stroke="#F4F4F4" stroke-width="0.554081"/>
<path d="M450.497 721.262V1442.39" stroke="#F4F4F4" stroke-width="0.554081"/>
<path d="M495.378 721.262V1442.39" stroke="#F4F4F4" stroke-width="0.554081"/>
<path d="M540.812 721.262V1442.39" stroke="#F4F4F4" stroke-width="0.554081"/>
<path d="M585.693 721.262V1442.39" stroke="#F4F4F4" stroke-width="0.554081"/>
<path d="M630.573 721.262V1442.39" stroke="#F4F4F4" stroke-width="0.554081"/>
<path d="M676.008 721.262V1442.39" stroke="#F4F4F4" stroke-width="0.554081"/>
<path d="M720.889 721.262V1442.39" stroke="#F4F4F4" stroke-width="0.554081"/>
<path d="M720.623 721.262H0.0290616" stroke="#F4F4F4" stroke-width="0.554081"/>
<path d="M720.623 766.142H0.0290616" stroke="#F4F4F4" stroke-width="0.554081"/>
<path d="M720.623 811.577H0.0290616" stroke="#F4F4F4" stroke-width="0.554081"/>
<path d="M720.623 856.458H0.0290616" stroke="#F4F4F4" stroke-width="0.554081"/>
<path d="M720.623 901.338H0.0290616" stroke="#F4F4F4" stroke-width="0.554081"/>
<path d="M720.623 946.773H0.0290616" stroke="#F4F4F4" stroke-width="0.554081"/>
<path d="M720.623 991.653H0.0290616" stroke="#F4F4F4" stroke-width="0.554081"/>
<path d="M721.022 0.401367V721.358" stroke="#F4F4F4" stroke-width="0.554081"/>
<path d="M765.902 0.401367V721.358" stroke="#F4F4F4" stroke-width="0.554081"/>
<path d="M811.338 0.401367V721.358" stroke="#F4F4F4" stroke-width="0.554081"/>
<path d="M856.219 0.401367V721.358" stroke="#F4F4F4" stroke-width="0.554081"/>
<path d="M901.099 0.401367V721.358" stroke="#F4F4F4" stroke-width="0.554081"/>
<path d="M946.533 0.401367V721.358" stroke="#F4F4F4" stroke-width="0.554081"/>
<path d="M991.414 0.401367V721.358" stroke="#F4F4F4" stroke-width="0.554081"/>
<path d="M1036.29 0.401367V721.358" stroke="#F4F4F4" stroke-width="0.554081"/>
<path d="M1081.17 0.401367V721.358" stroke="#F4F4F4" stroke-width="0.554081"/>
<path d="M1126.61 0.401367V721.358" stroke="#F4F4F4" stroke-width="0.554081"/>
<path d="M1171.49 0.401367V721.358" stroke="#F4F4F4" stroke-width="0.554081"/>
<path d="M1216.37 0.401367V721.358" stroke="#F4F4F4" stroke-width="0.554081"/>
<path d="M1261.81 0.401367V721.358" stroke="#F4F4F4" stroke-width="0.554081"/>
<path d="M1306.69 0.401367V721.358" stroke="#F4F4F4" stroke-width="0.554081"/>
<path d="M1351.57 0.401367V721.358" stroke="#F4F4F4" stroke-width="0.554081"/>
<path d="M1397 0.401367V721.358" stroke="#F4F4F4" stroke-width="0.554081"/>
<path d="M1441.62 0.401367L721.022 0.401367" stroke="#F4F4F4" stroke-width="0.554081"/>
<path d="M1441.62 45.2817L721.022 45.2817" stroke="#F4F4F4" stroke-width="0.554081"/>
<path d="M1441.62 90.7168L721.022 90.7168" stroke="#F4F4F4" stroke-width="0.554081"/>
<path d="M1441.62 135.597L721.022 135.597" stroke="#F4F4F4" stroke-width="0.554081"/>
<path d="M1441.62 180.478L721.022 180.478" stroke="#F4F4F4" stroke-width="0.554081"/>
<path d="M1441.62 225.913L721.022 225.913" stroke="#F4F4F4" stroke-width="0.554081"/>
<path d="M1441.62 270.793L721.022 270.793" stroke="#F4F4F4" stroke-width="0.554081"/>
<path d="M1441.62 315.673L721.022 315.673" stroke="#F4F4F4" stroke-width="0.554081"/>
<path d="M1441.62 360.554L721.022 360.554" stroke="#F4F4F4" stroke-width="0.554081"/>
<path d="M1441.62 405.989L721.022 405.989" stroke="#F4F4F4" stroke-width="0.554081"/>
<path d="M1441.62 450.869L721.022 450.869" stroke="#F4F4F4" stroke-width="0.554081"/>
<path d="M1441.62 495.75L721.022 495.75" stroke="#F4F4F4" stroke-width="0.554081"/>
<path d="M1441.62 541.185H721.022" stroke="#F4F4F4" stroke-width="0.554081"/>
<path d="M1441.62 586.065H721.022" stroke="#F4F4F4" stroke-width="0.554081"/>
<path d="M1441.62 630.946H721.022" stroke="#F4F4F4" stroke-width="0.554081"/>
<path d="M1441.62 676.38H721.022" stroke="#F4F4F4" stroke-width="0.554081"/>
<path d="M1441.62 721.261H721.022" stroke="#F4F4F4" stroke-width="0.554081"/>
<path d="M721.021 721.202V1442.16" stroke="#F4F4F4" stroke-width="0.554081"/>
<path d="M765.902 721.202V1442.16" stroke="#F4F4F4" stroke-width="0.554081"/>
<path d="M811.337 721.202V1442.16" stroke="#F4F4F4" stroke-width="0.554081"/>
<path d="M856.217 721.202V1442.16" stroke="#F4F4F4" stroke-width="0.554081"/>
<path d="M901.098 721.202V1442.16" stroke="#F4F4F4" stroke-width="0.554081"/>
<path d="M946.533 721.202V1442.16" stroke="#F4F4F4" stroke-width="0.554081"/>
<path d="M991.413 721.202V1442.16" stroke="#F4F4F4" stroke-width="0.554081"/>
<path d="M1036.29 721.202V1442.16" stroke="#F4F4F4" stroke-width="0.554081"/>
<path d="M1081.17 721.202V1442.16" stroke="#F4F4F4" stroke-width="0.554081"/>
<path d="M1126.61 721.202V1442.16" stroke="#F4F4F4" stroke-width="0.554081"/>
<path d="M1171.49 721.202V1442.16" stroke="#F4F4F4" stroke-width="0.554081"/>
<path d="M1216.37 721.202V1442.16" stroke="#F4F4F4" stroke-width="0.554081"/>
<path d="M1261.8 721.202V1442.16" stroke="#F4F4F4" stroke-width="0.554081"/>
<path d="M1306.69 721.202V1442.16" stroke="#F4F4F4" stroke-width="0.554081"/>
<path d="M1351.57 721.202V1442.16" stroke="#F4F4F4" stroke-width="0.554081"/>
<path d="M1397 721.202V1442.16" stroke="#F4F4F4" stroke-width="0.554081"/>
<path d="M1441.62 721.202H721.021" stroke="#F4F4F4" stroke-width="0.554081"/>
<path d="M1441.62 766.082H721.021" stroke="#F4F4F4" stroke-width="0.554081"/>
<path d="M1441.62 811.517H721.021" stroke="#F4F4F4" stroke-width="0.554081"/>
<path d="M1441.62 856.397H721.021" stroke="#F4F4F4" stroke-width="0.554081"/>
<path d="M1441.62 901.278H721.021" stroke="#F4F4F4" stroke-width="0.554081"/>
<path d="M1441.62 946.713H721.021" stroke="#F4F4F4" stroke-width="0.554081"/>
<path d="M1441.62 991.593H721.021" stroke="#F4F4F4" stroke-width="0.554081"/>
</g>
<defs>
<clipPath id="clip0_142_24209">
<rect width="1440" height="991" fill="white" transform="translate(0.162109 0.401367)"/>
</clipPath>
</defs>
</svg>
