<?xml version="1.0" encoding="utf-8"?>
<!-- Generator: Adobe Illustrator 27.1.1, SVG Export Plug-In . SVG Version: 6.00 Build 0)  -->
<svg version="1.1" id="Слой_1" xmlns="http://www.w3.org/2000/svg" xmlns:xlink="http://www.w3.org/1999/xlink" x="0px" y="0px"
	 viewBox="0 0 700.7 283.5" style="enable-background:new 0 0 700.7 283.5;" xml:space="preserve">
<style type="text/css">
	.st0{fill:#001047;}
</style>
<g>
	<g>
		<polygon class="st0" points="177.3,71.1 110,71.1 110,114.3 164.8,99.5 		"/>
		<polygon class="st0" points="110,129.6 110,212.9 179.9,213.1 165.3,115.1 		"/>
	</g>
	<g>
		<polygon class="st0" points="387.3,74 375.8,98.4 375.8,74 367,74 367,129.9 375.8,129.9 375.8,112.8 378.5,107.6 387.1,129.9 
			396.1,129.9 383.9,98.9 396.1,74 		"/>
		<path class="st0" d="M422.8,129.9h8.9L422.8,74h-12.9l-8.9,55.9h8.1l1.5-10.1h10.8L422.8,129.9z M411.7,112.2l4.2-28.3l4.2,28.3
			H411.7z"/>
		<path class="st0" d="M465,95.1v-7.3c0-4.5-1.1-8-3.2-10.3c-2.1-2.3-5.4-3.5-9.9-3.5H439v55.9h8.8v-21h4.1c4.4,0,7.7-1.2,9.9-3.5
			C463.9,103.1,465,99.6,465,95.1z M456.2,95.7c0,2-0.4,3.4-1.1,4.2c-0.7,0.7-1.8,1.1-3.2,1.1h-4.1V82h4.1c1.4,0,2.5,0.4,3.2,1.1
			c0.7,0.7,1.1,2.1,1.1,4.2V95.7z"/>
		<polygon class="st0" points="499.9,129.9 499.9,74 472.2,74 472.2,129.9 481,129.9 481,82 491,82 491,129.9 		"/>
		<path class="st0" d="M535.5,116.5V87.5c0-4.5-1.2-8-3.4-10.4c-2.3-2.4-5.6-3.6-9.9-3.6c-4.3,0-7.6,1.2-9.9,3.6
			c-2.3,2.4-3.4,5.9-3.4,10.4v29.1c0,4.5,1.1,8,3.4,10.4c2.3,2.4,5.6,3.6,9.9,3.6c4.3,0,7.6-1.2,9.9-3.6
			C534.3,124.5,535.5,121,535.5,116.5z M526.7,117.1c0,2-0.4,3.4-1.2,4.3c-0.8,0.8-1.9,1.2-3.3,1.2c-1.4,0-2.5-0.4-3.3-1.2
			c-0.8-0.8-1.2-2.2-1.2-4.3V86.9c0-2,0.4-3.4,1.2-4.3c0.8-0.8,1.9-1.2,3.3-1.2c1.4,0,2.5,0.4,3.3,1.2c0.8,0.8,1.2,2.2,1.2,4.3
			V117.1z"/>
		<path class="st0" d="M568.1,126.5c2.2-2.3,3.4-5.5,3.4-9.9v-4.6c0-3-0.5-5.5-1.5-7.5c-1-2-2.7-3.5-5.1-4.4c2-0.9,3.4-2.3,4.3-4.2
			c0.9-1.9,1.4-4.2,1.4-7.1v-2c0-4.3-1-7.5-3.1-9.7c-2-2.1-5.4-3.2-9.9-3.2h-13.3v55.9h13.8C562.5,129.9,565.9,128.8,568.1,126.5z
			 M553.1,82h4.2c1.5,0,2.7,0.5,3.4,1.4c0.7,0.9,1.1,2.4,1.1,4.4v3.1c0,2.2-0.5,3.8-1.4,4.6c-0.9,0.9-2.2,1.3-3.9,1.3h-3.4L553.1,82
			L553.1,82z M553.1,104.8h3.9c2,0,3.5,0.5,4.4,1.4c0.9,1,1.3,2.7,1.3,5.3v4.9c0,2.1-0.4,3.5-1.2,4.3c-0.8,0.8-1.9,1.2-3.4,1.2h-5
			V104.8z"/>
		<polygon class="st0" points="378.1,184.8 374.9,197.1 374.9,161.7 367,161.7 367,217.6 376.1,217.6 383.4,192 387,178.3 
			387,217.6 394.9,217.6 394.9,161.7 385.2,161.7 		"/>
		<polygon class="st0" points="419.9,217.6 428.7,217.6 428.7,169.7 438.6,169.7 438.6,217.6 447.6,217.6 447.6,161.7 419.9,161.7 
					"/>
		<path class="st0" d="M463.8,161.7l-8.9,55.9h8.1l1.5-10.1h10.8l1.5,10.1h8.9l-8.9-55.9H463.8z M465.5,199.9l4.2-28.3l4.2,28.3
			H465.5z"/>
		<path class="st0" d="M505.8,161.7h-12.9v55.9h8.8v-21h4.2c4.4,0,7.7-1.2,9.9-3.5c2.2-2.3,3.2-5.8,3.2-10.3v-7.3
			c0-4.5-1.1-8-3.2-10.3C513.5,162.9,510.2,161.7,505.8,161.7z M510.1,183.4c0,2-0.4,3.4-1.1,4.2c-0.7,0.7-1.8,1.1-3.2,1.1h-4.2
			v-18.9h4.2c1.4,0,2.4,0.4,3.2,1.1c0.7,0.7,1.1,2.1,1.1,4.1V183.4z"/>
		<polygon class="st0" points="523.6,169.7 532.7,169.7 532.7,217.6 541.5,217.6 541.5,169.7 550.7,169.7 550.7,161.7 523.6,161.7 
					"/>
		<polygon class="st0" points="576.5,185.7 566.5,185.7 566.5,161.7 557.7,161.7 557.7,217.6 566.5,217.6 566.5,193.7 576.5,193.7 
			576.5,217.6 585.4,217.6 585.4,161.7 576.5,161.7 		"/>
		<rect x="609.1" y="151.1" class="st0" width="7.7" height="7.7"/>
		<rect x="597" y="151.1" class="st0" width="7.7" height="7.7"/>
		<polygon class="st0" points="595,217.6 618.9,217.6 618.9,209.6 603.8,209.6 603.8,193.3 615.8,193.3 615.8,185.3 603.8,185.3 
			603.8,169.7 618.9,169.7 618.9,161.7 595,161.7 		"/>
		<path class="st0" d="M640.5,161.7h-12.9v55.9h8.8v-21h4.2c4.4,0,7.7-1.2,9.9-3.5c2.2-2.3,3.2-5.8,3.2-10.3v-7.3
			c0-4.5-1.1-8-3.2-10.3C648.2,162.9,644.9,161.7,640.5,161.7z M644.8,183.4c0,2-0.4,3.4-1.1,4.2c-0.7,0.7-1.8,1.1-3.2,1.1h-4.2
			v-18.9h4.2c1.4,0,2.4,0.4,3.2,1.1c0.7,0.7,1.1,2.1,1.1,4.1V183.4z"/>
		<rect x="691.9" y="161.7" class="st0" width="8.8" height="55.9"/>
		<path class="st0" d="M673.8,182.7h-4.2v-21h-8.8v55.9h12.9c4.4,0,7.7-1.2,9.9-3.5c2.2-2.3,3.2-5.8,3.2-10.3v-7.3
			c0-4.5-1.1-8-3.2-10.3C681.5,183.9,678.2,182.7,673.8,182.7z M678.1,204.4c0,2-0.4,3.4-1.1,4.2c-0.7,0.7-1.8,1.1-3.2,1.1h-4.2
			v-18.9h4.2c1.4,0,2.4,0.4,3.2,1.1c0.7,0.7,1.1,2.1,1.1,4.2V204.4z"/>
	</g>
	<path class="st0" d="M0,283.5h283.5V0H0V283.5z M16.2,16.2h251v251h-251V16.2z"/>
</g>
</svg>
